<?xml version="1.0" encoding="UTF-8" standalone="no"?>
<!DOCTYPE svg PUBLIC "-//W3C//DTD SVG 1.1//EN" "http://www.w3.org/Graphics/SVG/1.1/DTD/svg11.dtd">
<svg xmlns="http://www.w3.org/2000/svg" xmlns:xlink="http://www.w3.org/1999/xlink" version="1.1" width="468pt" height="360pt" viewBox="0 0 468 360">
<g enable-background="new">
<path transform="matrix(1,0,0,-1,0,360)" stroke-width=".75" stroke-linecap="round" stroke-linejoin="round" fill="none" stroke="#000000" d="M 59.04 81.87 L 59.04 271.39 "/>
<path transform="matrix(1,0,0,-1,0,360)" stroke-width=".75" stroke-linecap="round" stroke-linejoin="round" fill="none" stroke="#000000" d="M 59.04 81.87 L 51.84 81.87 "/>
<path transform="matrix(1,0,0,-1,0,360)" stroke-width=".75" stroke-linecap="round" stroke-linejoin="round" fill="none" stroke="#000000" d="M 59.04 145.04 L 51.84 145.04 "/>
<path transform="matrix(1,0,0,-1,0,360)" stroke-width=".75" stroke-linecap="round" stroke-linejoin="round" fill="none" stroke="#000000" d="M 59.04 208.22 L 51.84 208.22 "/>
<path transform="matrix(1,0,0,-1,0,360)" stroke-width=".75" stroke-linecap="round" stroke-linejoin="round" fill="none" stroke="#000000" d="M 59.04 271.39 L 51.84 271.39 "/>
<text xml:space="preserve" transform="matrix(1 0 -0 1 0 360)" font-size="12" font-family="LMRoman10"><tspan y="-77.77" x="38.64">0</tspan></text>
<text xml:space="preserve" transform="matrix(1 0 -0 1 0 360)" font-size="12" font-family="LMRoman10"><tspan y="-140.94" x="38.64">5</tspan></text>
<text xml:space="preserve" transform="matrix(1 0 -0 1 0 360)" font-size="12" font-family="LMRoman10"><tspan y="-204.12" x="32.64 38.64">10</tspan></text>
<text xml:space="preserve" transform="matrix(1 0 -0 1 0 360)" font-size="12" font-family="LMRoman10"><tspan y="-267.29" x="32.64 38.64">15</tspan></text>
<path transform="matrix(1,0,0,-1,0,360)" stroke-width=".75" stroke-linecap="round" stroke-linejoin="round" fill="none" stroke="#000000" d="M 59.04 73.44 L 437.76 73.44 L 437.76 300.96 L 59.04 300.96 L 59.04 73.44 "/>
<text xml:space="preserve" transform="matrix(1 0 -0 1 0 360)" font-size="14" font-family="LMRoman10" font-weight="bold"><tspan y="-325.68" x="195.16 206.164 214.214 223.16 232.106 236.572 244.39801 250.656 255.12201 263.172 272.118 277.48 285.53 293.58">Population 202</tspan></text>
<text xml:space="preserve" transform="matrix(1 0 -0 1 0 360)" font-size="12" font-family="LMRoman10"><tspan y="-18.72" x="214.36 223.024 229.696 234.4 240.4 250.396 256.396 261.124 267.124 277.12">Chromosome</tspan></text>
<text xml:space="preserve" transform="matrix(0 -1 1 0 0 360)" font-size="12" font-family="LMRoman10"><tspan y="12.96" x="127.76 135.26001 144.59601 153.764 157.1 161.09601 169.268 173.972 179.972 184.64 189.968 193.304 199.976 203.972 212.636 218.636 225.308 229.976 235.304 241.976">LOD: Protein Content</tspan></text>
<clipPath id="cp0">
<path transform="matrix(1,0,0,-1,0,360)" d="M 59.04 73.44 L 437.76 73.44 L 437.76 300.96003 L 59.04 300.96003 Z "/>
</clipPath>
<g clip-path="url(#cp0)">
<path transform="matrix(1,0,0,-1,0,360)" stroke-width="1.5" stroke-linecap="round" stroke-linejoin="round" fill="none" stroke="#000000" d="M 66.13 95.85 L 67.78 96.38 L 68.96 96.76 L 71.04 97.69 L 71.79 98.03 L 73.06 98.04 L 74.63 98.06 L 76.05 98.94 L 77.46 99.83 L 77.84 99.87 L 79.89 100.07 L 80.3 100.11 L 83.13 96.85 L 83.42 97.11 L 85.97 99.47 L 88.8 100.04 L 89.44 99.29 L 91.17 97.27 L 91.63 96.73 L 93.32 93.67 L 94.47 91.59 L 95.6 91.25 L 97.3 90.74 L 97.42 90.8 L 99.38 91.77 L 100.14 92.14 L 101.16 92.34 L 102.97 92.68 L 105.81 95.1 L 108.64 97.18 L 111.47 98.28 L 114.31 98.04 L 117.14 96.66 L 119.29 95.58 L 119.98 95.24 L 121.34 95.87 L 122.81 96.54 L 125.64 97.27 L 127.87 95.29 L 128.48 94.74 L 131.31 90.96 L 132.9 88.61 L 134.1 86.83 L 134.15 86.76 L 135.55 100.16 L 136.98 113.76 L 137.18 114.31 L 138.74 118.55 L 139.82 121.47 L 140.07 121.18 L 141.5 119.57 L 142.65 118.27 L 142.96 118.54 L 144.73 120.08 L 145.48 120.74 L 146.1 121.63 L 147.7 123.96 L 148.32 124.85 L 149.47 122.86 "/>
</g>
<path transform="matrix(1,0,0,-1,0,360)" stroke-width=".38" stroke-linecap="round" stroke-linejoin="round" fill="none" stroke="#000000" d="M 66.13 73.44 L 66.13 77.99 "/>
<path transform="matrix(1,0,0,-1,0,360)" stroke-width=".38" stroke-linecap="round" stroke-linejoin="round" fill="none" stroke="#000000" d="M 67.78 73.44 L 67.78 77.99 "/>
<path transform="matrix(1,0,0,-1,0,360)" stroke-width=".38" stroke-linecap="round" stroke-linejoin="round" fill="none" stroke="#000000" d="M 71.04 73.44 L 71.04 77.99 "/>
<path transform="matrix(1,0,0,-1,0,360)" stroke-width=".38" stroke-linecap="round" stroke-linejoin="round" fill="none" stroke="#000000" d="M 71.04 73.44 L 71.04 77.99 "/>
<path transform="matrix(1,0,0,-1,0,360)" stroke-width=".38" stroke-linecap="round" stroke-linejoin="round" fill="none" stroke="#000000" d="M 73.06 73.44 L 73.06 77.99 "/>
<path transform="matrix(1,0,0,-1,0,360)" stroke-width=".38" stroke-linecap="round" stroke-linejoin="round" fill="none" stroke="#000000" d="M 76.05 73.44 L 76.05 77.99 "/>
<path transform="matrix(1,0,0,-1,0,360)" stroke-width=".38" stroke-linecap="round" stroke-linejoin="round" fill="none" stroke="#000000" d="M 76.05 73.44 L 76.05 77.99 "/>
<path transform="matrix(1,0,0,-1,0,360)" stroke-width=".38" stroke-linecap="round" stroke-linejoin="round" fill="none" stroke="#000000" d="M 77.84 73.44 L 77.84 77.99 "/>
<path transform="matrix(1,0,0,-1,0,360)" stroke-width=".38" stroke-linecap="round" stroke-linejoin="round" fill="none" stroke="#000000" d="M 79.89 73.44 L 79.89 77.99 "/>
<path transform="matrix(1,0,0,-1,0,360)" stroke-width=".38" stroke-linecap="round" stroke-linejoin="round" fill="none" stroke="#000000" d="M 83.42 73.44 L 83.42 77.99 "/>
<path transform="matrix(1,0,0,-1,0,360)" stroke-width=".38" stroke-linecap="round" stroke-linejoin="round" fill="none" stroke="#000000" d="M 89.44 73.44 L 89.44 77.99 "/>
<path transform="matrix(1,0,0,-1,0,360)" stroke-width=".38" stroke-linecap="round" stroke-linejoin="round" fill="none" stroke="#000000" d="M 91.17 73.44 L 91.17 77.99 "/>
<path transform="matrix(1,0,0,-1,0,360)" stroke-width=".38" stroke-linecap="round" stroke-linejoin="round" fill="none" stroke="#000000" d="M 93.32 73.44 L 93.32 77.99 "/>
<path transform="matrix(1,0,0,-1,0,360)" stroke-width=".38" stroke-linecap="round" stroke-linejoin="round" fill="none" stroke="#000000" d="M 95.6 73.44 L 95.6 77.99 "/>
<path transform="matrix(1,0,0,-1,0,360)" stroke-width=".38" stroke-linecap="round" stroke-linejoin="round" fill="none" stroke="#000000" d="M 97.42 73.44 L 97.42 77.99 "/>
<path transform="matrix(1,0,0,-1,0,360)" stroke-width=".38" stroke-linecap="round" stroke-linejoin="round" fill="none" stroke="#000000" d="M 99.38 73.44 L 99.38 77.99 "/>
<path transform="matrix(1,0,0,-1,0,360)" stroke-width=".38" stroke-linecap="round" stroke-linejoin="round" fill="none" stroke="#000000" d="M 101.16 73.44 L 101.16 77.99 "/>
<path transform="matrix(1,0,0,-1,0,360)" stroke-width=".38" stroke-linecap="round" stroke-linejoin="round" fill="none" stroke="#000000" d="M 119.29 73.44 L 119.29 77.99 "/>
<path transform="matrix(1,0,0,-1,0,360)" stroke-width=".38" stroke-linecap="round" stroke-linejoin="round" fill="none" stroke="#000000" d="M 121.34 73.44 L 121.34 77.99 "/>
<path transform="matrix(1,0,0,-1,0,360)" stroke-width=".38" stroke-linecap="round" stroke-linejoin="round" fill="none" stroke="#000000" d="M 127.87 73.44 L 127.87 77.99 "/>
<path transform="matrix(1,0,0,-1,0,360)" stroke-width=".38" stroke-linecap="round" stroke-linejoin="round" fill="none" stroke="#000000" d="M 132.9 73.44 L 132.9 77.99 "/>
<path transform="matrix(1,0,0,-1,0,360)" stroke-width=".38" stroke-linecap="round" stroke-linejoin="round" fill="none" stroke="#000000" d="M 134.1 73.44 L 134.1 77.99 "/>
<path transform="matrix(1,0,0,-1,0,360)" stroke-width=".38" stroke-linecap="round" stroke-linejoin="round" fill="none" stroke="#000000" d="M 135.55 73.44 L 135.55 77.99 "/>
<path transform="matrix(1,0,0,-1,0,360)" stroke-width=".38" stroke-linecap="round" stroke-linejoin="round" fill="none" stroke="#000000" d="M 137.18 73.44 L 137.18 77.99 "/>
<path transform="matrix(1,0,0,-1,0,360)" stroke-width=".38" stroke-linecap="round" stroke-linejoin="round" fill="none" stroke="#000000" d="M 138.74 73.44 L 138.74 77.99 "/>
<path transform="matrix(1,0,0,-1,0,360)" stroke-width=".38" stroke-linecap="round" stroke-linejoin="round" fill="none" stroke="#000000" d="M 140.07 73.44 L 140.07 77.99 "/>
<path transform="matrix(1,0,0,-1,0,360)" stroke-width=".38" stroke-linecap="round" stroke-linejoin="round" fill="none" stroke="#000000" d="M 141.5 73.44 L 141.5 77.99 "/>
<path transform="matrix(1,0,0,-1,0,360)" stroke-width=".38" stroke-linecap="round" stroke-linejoin="round" fill="none" stroke="#000000" d="M 142.96 73.44 L 142.96 77.99 "/>
<path transform="matrix(1,0,0,-1,0,360)" stroke-width=".38" stroke-linecap="round" stroke-linejoin="round" fill="none" stroke="#000000" d="M 142.96 73.44 L 142.96 77.99 "/>
<path transform="matrix(1,0,0,-1,0,360)" stroke-width=".38" stroke-linecap="round" stroke-linejoin="round" fill="none" stroke="#000000" d="M 144.73 73.44 L 144.73 77.99 "/>
<path transform="matrix(1,0,0,-1,0,360)" stroke-width=".38" stroke-linecap="round" stroke-linejoin="round" fill="none" stroke="#000000" d="M 146.1 73.44 L 146.1 77.99 "/>
<path transform="matrix(1,0,0,-1,0,360)" stroke-width=".38" stroke-linecap="round" stroke-linejoin="round" fill="none" stroke="#000000" d="M 147.7 73.44 L 147.7 77.99 "/>
<path transform="matrix(1,0,0,-1,0,360)" stroke-width=".38" stroke-linecap="round" stroke-linejoin="round" fill="none" stroke="#000000" d="M 149.47 73.44 L 149.47 77.99 "/>
<clipPath id="cp1">
<path transform="matrix(1,0,0,-1,0,360)" d="M 59.04 73.44 L 437.76 73.44 L 437.76 300.96003 L 59.04 300.96003 Z "/>
</clipPath>
<g clip-path="url(#cp1)">
<path transform="matrix(1,0,0,-1,0,360)" stroke-width="1.5" stroke-linecap="round" stroke-linejoin="round" fill="none" stroke="#000000" d="M 163.64 83.59 L 166.25 82.12 L 166.47 82 L 167.56 82 L 168.81 82.01 "/>
</g>
<path transform="matrix(1,0,0,-1,0,360)" stroke-width=".38" stroke-linecap="round" stroke-linejoin="round" fill="none" stroke="#000000" d="M 163.64 73.44 L 163.64 77.99 "/>
<path transform="matrix(1,0,0,-1,0,360)" stroke-width=".38" stroke-linecap="round" stroke-linejoin="round" fill="none" stroke="#000000" d="M 166.25 73.44 L 166.25 77.99 "/>
<path transform="matrix(1,0,0,-1,0,360)" stroke-width=".38" stroke-linecap="round" stroke-linejoin="round" fill="none" stroke="#000000" d="M 167.56 73.44 L 167.56 77.99 "/>
<path transform="matrix(1,0,0,-1,0,360)" stroke-width=".38" stroke-linecap="round" stroke-linejoin="round" fill="none" stroke="#000000" d="M 168.81 73.44 L 168.81 77.99 "/>
<clipPath id="cp2">
<path transform="matrix(1,0,0,-1,0,360)" d="M 59.04 73.44 L 437.76 73.44 L 437.76 300.96003 L 59.04 300.96003 Z "/>
</clipPath>
<g clip-path="url(#cp2)">
<path transform="matrix(1,0,0,-1,0,360)" stroke-width="1.5" stroke-linecap="round" stroke-linejoin="round" fill="none" stroke="#000000" d="M 182.98 102.09 L 182.98 102.09 L 184.77 108.04 L 185.82 111.51 L 186.67 111.92 L 188.45 112.79 L 188.65 112.89 L 190.92 115.85 L 191.48 116.59 L 193.46 114.64 L 194.32 113.79 L 195.1 111.62 L 196.69 107.2 L 197.15 105.93 L 199.99 97.65 L 202.82 87.23 L 205.66 82.05 L 206.64 84.28 L 208.49 88.47 L 211.32 90.02 L 214.16 89.11 L 216.85 87.13 L 216.99 87.02 L 218.45 86.46 L 219.83 85.94 L 220.77 86.47 L 222.66 87.51 L 224.93 87.89 L 225.49 87.98 L 226.86 88.27 L 228.33 88.57 L 231.16 87.54 L 234 86.19 L 236.83 84.6 L 239.67 83.1 L 242.5 82.12 L 245.33 81.87 L 248.17 82.2 L 251 82.8 L 253.84 83.45 L 254.07 83.37 L 255.36 82.93 L 256.67 82.47 L 257.74 82.55 L 259.51 82.68 L 260.73 82.62 L 262.34 82.54 L 263.85 82.44 L 265.17 82.34 L 265.97 82.49 L 268.01 82.88 L 268.11 82.88 L 270.51 82.77 L 270.84 82.75 L 273.39 82.55 "/>
</g>
<path transform="matrix(1,0,0,-1,0,360)" stroke-width=".38" stroke-linecap="round" stroke-linejoin="round" fill="none" stroke="#000000" d="M 182.98 73.44 L 182.98 77.99 "/>
<path transform="matrix(1,0,0,-1,0,360)" stroke-width=".38" stroke-linecap="round" stroke-linejoin="round" fill="none" stroke="#000000" d="M 182.98 73.44 L 182.98 77.99 "/>
<path transform="matrix(1,0,0,-1,0,360)" stroke-width=".38" stroke-linecap="round" stroke-linejoin="round" fill="none" stroke="#000000" d="M 184.77 73.44 L 184.77 77.99 "/>
<path transform="matrix(1,0,0,-1,0,360)" stroke-width=".38" stroke-linecap="round" stroke-linejoin="round" fill="none" stroke="#000000" d="M 186.67 73.44 L 186.67 77.99 "/>
<path transform="matrix(1,0,0,-1,0,360)" stroke-width=".38" stroke-linecap="round" stroke-linejoin="round" fill="none" stroke="#000000" d="M 188.45 73.44 L 188.45 77.99 "/>
<path transform="matrix(1,0,0,-1,0,360)" stroke-width=".38" stroke-linecap="round" stroke-linejoin="round" fill="none" stroke="#000000" d="M 190.92 73.44 L 190.92 77.99 "/>
<path transform="matrix(1,0,0,-1,0,360)" stroke-width=".38" stroke-linecap="round" stroke-linejoin="round" fill="none" stroke="#000000" d="M 193.46 73.44 L 193.46 77.99 "/>
<path transform="matrix(1,0,0,-1,0,360)" stroke-width=".38" stroke-linecap="round" stroke-linejoin="round" fill="none" stroke="#000000" d="M 195.1 73.44 L 195.1 77.99 "/>
<path transform="matrix(1,0,0,-1,0,360)" stroke-width=".38" stroke-linecap="round" stroke-linejoin="round" fill="none" stroke="#000000" d="M 196.69 73.44 L 196.69 77.99 "/>
<path transform="matrix(1,0,0,-1,0,360)" stroke-width=".38" stroke-linecap="round" stroke-linejoin="round" fill="none" stroke="#000000" d="M 206.64 73.44 L 206.64 77.99 "/>
<path transform="matrix(1,0,0,-1,0,360)" stroke-width=".38" stroke-linecap="round" stroke-linejoin="round" fill="none" stroke="#000000" d="M 216.85 73.44 L 216.85 77.99 "/>
<path transform="matrix(1,0,0,-1,0,360)" stroke-width=".38" stroke-linecap="round" stroke-linejoin="round" fill="none" stroke="#000000" d="M 218.45 73.44 L 218.45 77.99 "/>
<path transform="matrix(1,0,0,-1,0,360)" stroke-width=".38" stroke-linecap="round" stroke-linejoin="round" fill="none" stroke="#000000" d="M 220.77 73.44 L 220.77 77.99 "/>
<path transform="matrix(1,0,0,-1,0,360)" stroke-width=".38" stroke-linecap="round" stroke-linejoin="round" fill="none" stroke="#000000" d="M 224.93 73.44 L 224.93 77.99 "/>
<path transform="matrix(1,0,0,-1,0,360)" stroke-width=".38" stroke-linecap="round" stroke-linejoin="round" fill="none" stroke="#000000" d="M 226.86 73.44 L 226.86 77.99 "/>
<path transform="matrix(1,0,0,-1,0,360)" stroke-width=".38" stroke-linecap="round" stroke-linejoin="round" fill="none" stroke="#000000" d="M 254.07 73.44 L 254.07 77.99 "/>
<path transform="matrix(1,0,0,-1,0,360)" stroke-width=".38" stroke-linecap="round" stroke-linejoin="round" fill="none" stroke="#000000" d="M 255.36 73.44 L 255.36 77.99 "/>
<path transform="matrix(1,0,0,-1,0,360)" stroke-width=".38" stroke-linecap="round" stroke-linejoin="round" fill="none" stroke="#000000" d="M 255.36 73.44 L 255.36 77.99 "/>
<path transform="matrix(1,0,0,-1,0,360)" stroke-width=".38" stroke-linecap="round" stroke-linejoin="round" fill="none" stroke="#000000" d="M 257.74 73.44 L 257.74 77.99 "/>
<path transform="matrix(1,0,0,-1,0,360)" stroke-width=".38" stroke-linecap="round" stroke-linejoin="round" fill="none" stroke="#000000" d="M 260.73 73.44 L 260.73 77.99 "/>
<path transform="matrix(1,0,0,-1,0,360)" stroke-width=".38" stroke-linecap="round" stroke-linejoin="round" fill="none" stroke="#000000" d="M 263.85 73.44 L 263.85 77.99 "/>
<path transform="matrix(1,0,0,-1,0,360)" stroke-width=".38" stroke-linecap="round" stroke-linejoin="round" fill="none" stroke="#000000" d="M 265.97 73.44 L 265.97 77.99 "/>
<path transform="matrix(1,0,0,-1,0,360)" stroke-width=".38" stroke-linecap="round" stroke-linejoin="round" fill="none" stroke="#000000" d="M 268.11 73.44 L 268.11 77.99 "/>
<path transform="matrix(1,0,0,-1,0,360)" stroke-width=".38" stroke-linecap="round" stroke-linejoin="round" fill="none" stroke="#000000" d="M 270.51 73.44 L 270.51 77.99 "/>
<path transform="matrix(1,0,0,-1,0,360)" stroke-width=".38" stroke-linecap="round" stroke-linejoin="round" fill="none" stroke="#000000" d="M 273.39 73.44 L 273.39 77.99 "/>
<clipPath id="cp3">
<path transform="matrix(1,0,0,-1,0,360)" d="M 59.04 73.44 L 437.76 73.44 L 437.76 300.96003 L 59.04 300.96003 Z "/>
</clipPath>
<g clip-path="url(#cp3)">
<path transform="matrix(1,0,0,-1,0,360)" stroke-width="1.5" stroke-linecap="round" stroke-linejoin="round" fill="none" stroke="#000000" d="M 287.56 102.95 L 289.1 101.43 L 290.4 100.15 L 291.03 98.98 L 292.61 96.05 L 293.23 94.91 L 296.07 88.28 L 298.9 83.12 L 299.12 83.06 L 300.76 82.68 L 301.73 82.46 L 302.58 82.52 L 304.43 82.66 L 304.57 82.67 L 306.12 82.71 L 307.4 82.74 L 310.24 82.15 L 312.83 81.89 L 313.07 81.87 L 315 82.22 L 315.91 82.39 L 316.5 82.64 L 318.74 83.6 L 319.08 83.56 L 321.22 83.35 L 321.57 83.31 L 322.62 83.04 L 324.05 82.68 L 324.41 82.59 L 326.65 82.13 L 327.24 82.01 L 328.37 81.97 L 329.68 81.92 L 330.08 81.9 L 331.92 82.76 L 332.91 83.21 L 333.39 83.08 L 335.75 82.41 L 336.97 82.18 L 338.58 81.87 L 340.14 81.87 L 341.41 81.87 L 341.9 82.03 L 343.68 82.6 L 344.25 82.79 L 345.24 82.51 L 346.74 82.09 L 347.08 82 L 349.92 83.31 L 352.75 86.18 L 355.59 89.64 L 357.96 91.42 L 358.42 91.77 L 359.69 91.14 L 361.25 90.38 L 361.49 90.22 L 364.09 88.53 L 366.92 85.47 L 367.78 84.87 L 369.33 83.79 L 369.76 83.49 L 372.59 85.03 L 375.42 86.45 L 378.24 86.94 L 378.26 86.95 L 379.83 86.67 "/>
</g>
<path transform="matrix(1,0,0,-1,0,360)" stroke-width=".38" stroke-linecap="round" stroke-linejoin="round" fill="none" stroke="#000000" d="M 287.56 73.44 L 287.56 77.99 "/>
<path transform="matrix(1,0,0,-1,0,360)" stroke-width=".38" stroke-linecap="round" stroke-linejoin="round" fill="none" stroke="#000000" d="M 289.1 73.44 L 289.1 77.99 "/>
<path transform="matrix(1,0,0,-1,0,360)" stroke-width=".38" stroke-linecap="round" stroke-linejoin="round" fill="none" stroke="#000000" d="M 291.03 73.44 L 291.03 77.99 "/>
<path transform="matrix(1,0,0,-1,0,360)" stroke-width=".38" stroke-linecap="round" stroke-linejoin="round" fill="none" stroke="#000000" d="M 292.61 73.44 L 292.61 77.99 "/>
<path transform="matrix(1,0,0,-1,0,360)" stroke-width=".38" stroke-linecap="round" stroke-linejoin="round" fill="none" stroke="#000000" d="M 299.12 73.44 L 299.12 77.99 "/>
<path transform="matrix(1,0,0,-1,0,360)" stroke-width=".38" stroke-linecap="round" stroke-linejoin="round" fill="none" stroke="#000000" d="M 300.76 73.44 L 300.76 77.99 "/>
<path transform="matrix(1,0,0,-1,0,360)" stroke-width=".38" stroke-linecap="round" stroke-linejoin="round" fill="none" stroke="#000000" d="M 300.76 73.44 L 300.76 77.99 "/>
<path transform="matrix(1,0,0,-1,0,360)" stroke-width=".38" stroke-linecap="round" stroke-linejoin="round" fill="none" stroke="#000000" d="M 302.58 73.44 L 302.58 77.99 "/>
<path transform="matrix(1,0,0,-1,0,360)" stroke-width=".38" stroke-linecap="round" stroke-linejoin="round" fill="none" stroke="#000000" d="M 304.43 73.44 L 304.43 77.99 "/>
<path transform="matrix(1,0,0,-1,0,360)" stroke-width=".38" stroke-linecap="round" stroke-linejoin="round" fill="none" stroke="#000000" d="M 306.12 73.44 L 306.12 77.99 "/>
<path transform="matrix(1,0,0,-1,0,360)" stroke-width=".38" stroke-linecap="round" stroke-linejoin="round" fill="none" stroke="#000000" d="M 312.83 73.44 L 312.83 77.99 "/>
<path transform="matrix(1,0,0,-1,0,360)" stroke-width=".38" stroke-linecap="round" stroke-linejoin="round" fill="none" stroke="#000000" d="M 312.83 73.44 L 312.83 77.99 "/>
<path transform="matrix(1,0,0,-1,0,360)" stroke-width=".38" stroke-linecap="round" stroke-linejoin="round" fill="none" stroke="#000000" d="M 315 73.44 L 315 77.99 "/>
<path transform="matrix(1,0,0,-1,0,360)" stroke-width=".38" stroke-linecap="round" stroke-linejoin="round" fill="none" stroke="#000000" d="M 316.5 73.44 L 316.5 77.99 "/>
<path transform="matrix(1,0,0,-1,0,360)" stroke-width=".38" stroke-linecap="round" stroke-linejoin="round" fill="none" stroke="#000000" d="M 319.08 73.44 L 319.08 77.99 "/>
<path transform="matrix(1,0,0,-1,0,360)" stroke-width=".38" stroke-linecap="round" stroke-linejoin="round" fill="none" stroke="#000000" d="M 321.22 73.44 L 321.22 77.99 "/>
<path transform="matrix(1,0,0,-1,0,360)" stroke-width=".38" stroke-linecap="round" stroke-linejoin="round" fill="none" stroke="#000000" d="M 322.62 73.44 L 322.62 77.99 "/>
<path transform="matrix(1,0,0,-1,0,360)" stroke-width=".38" stroke-linecap="round" stroke-linejoin="round" fill="none" stroke="#000000" d="M 324.05 73.44 L 324.05 77.99 "/>
<path transform="matrix(1,0,0,-1,0,360)" stroke-width=".38" stroke-linecap="round" stroke-linejoin="round" fill="none" stroke="#000000" d="M 326.65 73.44 L 326.65 77.99 "/>
<path transform="matrix(1,0,0,-1,0,360)" stroke-width=".38" stroke-linecap="round" stroke-linejoin="round" fill="none" stroke="#000000" d="M 326.65 73.44 L 326.65 77.99 "/>
<path transform="matrix(1,0,0,-1,0,360)" stroke-width=".38" stroke-linecap="round" stroke-linejoin="round" fill="none" stroke="#000000" d="M 328.37 73.44 L 328.37 77.99 "/>
<path transform="matrix(1,0,0,-1,0,360)" stroke-width=".38" stroke-linecap="round" stroke-linejoin="round" fill="none" stroke="#000000" d="M 329.68 73.44 L 329.68 77.99 "/>
<path transform="matrix(1,0,0,-1,0,360)" stroke-width=".38" stroke-linecap="round" stroke-linejoin="round" fill="none" stroke="#000000" d="M 331.92 73.44 L 331.92 77.99 "/>
<path transform="matrix(1,0,0,-1,0,360)" stroke-width=".38" stroke-linecap="round" stroke-linejoin="round" fill="none" stroke="#000000" d="M 333.39 73.44 L 333.39 77.99 "/>
<path transform="matrix(1,0,0,-1,0,360)" stroke-width=".38" stroke-linecap="round" stroke-linejoin="round" fill="none" stroke="#000000" d="M 336.97 73.44 L 336.97 77.99 "/>
<path transform="matrix(1,0,0,-1,0,360)" stroke-width=".38" stroke-linecap="round" stroke-linejoin="round" fill="none" stroke="#000000" d="M 338.58 73.44 L 338.58 77.99 "/>
<path transform="matrix(1,0,0,-1,0,360)" stroke-width=".38" stroke-linecap="round" stroke-linejoin="round" fill="none" stroke="#000000" d="M 340.14 73.44 L 340.14 77.99 "/>
<path transform="matrix(1,0,0,-1,0,360)" stroke-width=".38" stroke-linecap="round" stroke-linejoin="round" fill="none" stroke="#000000" d="M 341.9 73.44 L 341.9 77.99 "/>
<path transform="matrix(1,0,0,-1,0,360)" stroke-width=".38" stroke-linecap="round" stroke-linejoin="round" fill="none" stroke="#000000" d="M 343.68 73.44 L 343.68 77.99 "/>
<path transform="matrix(1,0,0,-1,0,360)" stroke-width=".38" stroke-linecap="round" stroke-linejoin="round" fill="none" stroke="#000000" d="M 343.68 73.44 L 343.68 77.99 "/>
<path transform="matrix(1,0,0,-1,0,360)" stroke-width=".38" stroke-linecap="round" stroke-linejoin="round" fill="none" stroke="#000000" d="M 345.24 73.44 L 345.24 77.99 "/>
<path transform="matrix(1,0,0,-1,0,360)" stroke-width=".38" stroke-linecap="round" stroke-linejoin="round" fill="none" stroke="#000000" d="M 346.74 73.44 L 346.74 77.99 "/>
<path transform="matrix(1,0,0,-1,0,360)" stroke-width=".38" stroke-linecap="round" stroke-linejoin="round" fill="none" stroke="#000000" d="M 357.96 73.44 L 357.96 77.99 "/>
<path transform="matrix(1,0,0,-1,0,360)" stroke-width=".38" stroke-linecap="round" stroke-linejoin="round" fill="none" stroke="#000000" d="M 359.69 73.44 L 359.69 77.99 "/>
<path transform="matrix(1,0,0,-1,0,360)" stroke-width=".38" stroke-linecap="round" stroke-linejoin="round" fill="none" stroke="#000000" d="M 361.49 73.44 L 361.49 77.99 "/>
<path transform="matrix(1,0,0,-1,0,360)" stroke-width=".38" stroke-linecap="round" stroke-linejoin="round" fill="none" stroke="#000000" d="M 367.78 73.44 L 367.78 77.99 "/>
<path transform="matrix(1,0,0,-1,0,360)" stroke-width=".38" stroke-linecap="round" stroke-linejoin="round" fill="none" stroke="#000000" d="M 367.78 73.44 L 367.78 77.99 "/>
<path transform="matrix(1,0,0,-1,0,360)" stroke-width=".38" stroke-linecap="round" stroke-linejoin="round" fill="none" stroke="#000000" d="M 369.33 73.44 L 369.33 77.99 "/>
<path transform="matrix(1,0,0,-1,0,360)" stroke-width=".38" stroke-linecap="round" stroke-linejoin="round" fill="none" stroke="#000000" d="M 378.24 73.44 L 378.24 77.99 "/>
<path transform="matrix(1,0,0,-1,0,360)" stroke-width=".38" stroke-linecap="round" stroke-linejoin="round" fill="none" stroke="#000000" d="M 379.83 73.44 L 379.83 77.99 "/>
<clipPath id="cp4">
<path transform="matrix(1,0,0,-1,0,360)" d="M 59.04 73.44 L 437.76 73.44 L 437.76 300.96003 L 59.04 300.96003 Z "/>
</clipPath>
<g clip-path="url(#cp4)">
<path transform="matrix(1,0,0,-1,0,360)" stroke-width="1.5" stroke-linecap="round" stroke-linejoin="round" fill="none" stroke="#000000" d="M 394 209.6 L 394.99 183.71 L 396.83 135.81 L 399.67 129.31 L 402.5 118.63 L 405.33 105.37 L 408.17 93.54 L 410.58 84.47 L 411 82.88 L 411.71 82.77 L 413.69 82.47 L 413.84 82.45 L 416.67 82.17 L 418.3 82.02 L 419.51 81.91 L 419.95 81.94 L 421.65 82.04 L 422.34 82.08 L 425.17 81.94 L 425.64 81.93 L 427.31 81.9 L 428.01 81.89 L 429.08 81.88 L 430.67 81.87 "/>
</g>
<path transform="matrix(1,0,0,-1,0,360)" stroke-width=".38" stroke-linecap="round" stroke-linejoin="round" fill="none" stroke="#000000" d="M 394 73.44 L 394 77.99 "/>
<path transform="matrix(1,0,0,-1,0,360)" stroke-width=".38" stroke-linecap="round" stroke-linejoin="round" fill="none" stroke="#000000" d="M 394.99 73.44 L 394.99 77.99 "/>
<path transform="matrix(1,0,0,-1,0,360)" stroke-width=".38" stroke-linecap="round" stroke-linejoin="round" fill="none" stroke="#000000" d="M 410.58 73.44 L 410.58 77.99 "/>
<path transform="matrix(1,0,0,-1,0,360)" stroke-width=".38" stroke-linecap="round" stroke-linejoin="round" fill="none" stroke="#000000" d="M 411.71 73.44 L 411.71 77.99 "/>
<path transform="matrix(1,0,0,-1,0,360)" stroke-width=".38" stroke-linecap="round" stroke-linejoin="round" fill="none" stroke="#000000" d="M 413.69 73.44 L 413.69 77.99 "/>
<path transform="matrix(1,0,0,-1,0,360)" stroke-width=".38" stroke-linecap="round" stroke-linejoin="round" fill="none" stroke="#000000" d="M 418.3 73.44 L 418.3 77.99 "/>
<path transform="matrix(1,0,0,-1,0,360)" stroke-width=".38" stroke-linecap="round" stroke-linejoin="round" fill="none" stroke="#000000" d="M 419.95 73.44 L 419.95 77.99 "/>
<path transform="matrix(1,0,0,-1,0,360)" stroke-width=".38" stroke-linecap="round" stroke-linejoin="round" fill="none" stroke="#000000" d="M 421.65 73.44 L 421.65 77.99 "/>
<path transform="matrix(1,0,0,-1,0,360)" stroke-width=".38" stroke-linecap="round" stroke-linejoin="round" fill="none" stroke="#000000" d="M 425.64 73.44 L 425.64 77.99 "/>
<path transform="matrix(1,0,0,-1,0,360)" stroke-width=".38" stroke-linecap="round" stroke-linejoin="round" fill="none" stroke="#000000" d="M 427.31 73.44 L 427.31 77.99 "/>
<path transform="matrix(1,0,0,-1,0,360)" stroke-width=".38" stroke-linecap="round" stroke-linejoin="round" fill="none" stroke="#000000" d="M 429.08 73.44 L 429.08 77.99 "/>
<path transform="matrix(1,0,0,-1,0,360)" stroke-width=".38" stroke-linecap="round" stroke-linejoin="round" fill="none" stroke="#000000" d="M 430.67 73.44 L 430.67 77.99 "/>
<path transform="matrix(1,0,0,-1,0,360)" stroke-width=".75" stroke-linecap="round" stroke-linejoin="round" fill="none" stroke="#000000" d="M 107.8 73.44 L 107.8 73.44 "/>
<path transform="matrix(1,0,0,-1,0,360)" stroke-width=".75" stroke-linecap="round" stroke-linejoin="round" fill="none" stroke="#000000" d="M 107.8 73.44 L 107.8 66.24 "/>
<text xml:space="preserve" transform="matrix(1 0 -0 1 0 360)" font-size="12" font-family="LMRoman10"><tspan y="-47.52" x="104.8">2</tspan></text>
<path transform="matrix(1,0,0,-1,0,360)" stroke-width=".75" stroke-linecap="round" stroke-linejoin="round" fill="none" stroke="#000000" d="M 166.22 73.44 L 166.22 73.44 "/>
<path transform="matrix(1,0,0,-1,0,360)" stroke-width=".75" stroke-linecap="round" stroke-linejoin="round" fill="none" stroke="#000000" d="M 166.22 73.44 L 166.22 66.24 "/>
<text xml:space="preserve" transform="matrix(1 0 -0 1 0 360)" font-size="12" font-family="LMRoman10"><tspan y="-47.52" x="163.22">4</tspan></text>
<path transform="matrix(1,0,0,-1,0,360)" stroke-width=".75" stroke-linecap="round" stroke-linejoin="round" fill="none" stroke="#000000" d="M 228.19 73.44 L 228.19 73.44 "/>
<path transform="matrix(1,0,0,-1,0,360)" stroke-width=".75" stroke-linecap="round" stroke-linejoin="round" fill="none" stroke="#000000" d="M 228.19 73.44 L 228.19 66.24 "/>
<text xml:space="preserve" transform="matrix(1 0 -0 1 0 360)" font-size="12" font-family="LMRoman10"><tspan y="-47.52" x="222.19 228.19">14</tspan></text>
<path transform="matrix(1,0,0,-1,0,360)" stroke-width=".75" stroke-linecap="round" stroke-linejoin="round" fill="none" stroke="#000000" d="M 333.69 73.44 L 333.69 73.44 "/>
<path transform="matrix(1,0,0,-1,0,360)" stroke-width=".75" stroke-linecap="round" stroke-linejoin="round" fill="none" stroke="#000000" d="M 333.69 73.44 L 333.69 66.24 "/>
<text xml:space="preserve" transform="matrix(1 0 -0 1 0 360)" font-size="12" font-family="LMRoman10"><tspan y="-47.52" x="327.69 333.69">15</tspan></text>
<path transform="matrix(1,0,0,-1,0,360)" stroke-width=".75" stroke-linecap="round" stroke-linejoin="round" fill="none" stroke="#000000" d="M 412.34 73.44 L 412.34 73.44 "/>
<path transform="matrix(1,0,0,-1,0,360)" stroke-width=".75" stroke-linecap="round" stroke-linejoin="round" fill="none" stroke="#000000" d="M 412.34 73.44 L 412.34 66.24 "/>
<text xml:space="preserve" transform="matrix(1 0 -0 1 0 360)" font-size="12" font-family="LMRoman10"><tspan y="-47.52" x="406.34 412.34">20</tspan></text>
<clipPath id="cp5">
<path transform="matrix(1,0,0,-1,0,360)" d="M 59.04 73.44 L 437.76 73.44 L 437.76 300.96003 L 59.04 300.96003 Z "/>
</clipPath>
<g clip-path="url(#cp5)">
<path transform="matrix(1,0,0,-1,0,360)" stroke-width=".75" stroke-linecap="round" stroke-linejoin="round" fill="none" stroke="#000000" d="M 59.04 300.96 L 160.98001 300.96 L 160.98001 228.95999 L 59.04 228.95999 Z "/>
<path transform="matrix(1,0,0,-1,0,360)" stroke-width=".75" stroke-linecap="round" stroke-linejoin="round" fill="none" stroke="#000000" d="M 69.84 286.56 L 91.44 286.56 "/>
<path transform="matrix(1,0,0,-1,0,360)" stroke-width=".75" stroke-linecap="round" stroke-dasharray="2.25,3.75" stroke-linejoin="round" fill="none" stroke="#000000" d="M 69.84 272.16 L 91.44 272.16 "/>
<path transform="matrix(1,0,0,-1,0,360)" stroke-width=".75" stroke-linecap="round" stroke-dasharray="0,3" stroke-linejoin="round" fill="none" stroke="#000000" d="M 69.84 257.76 L 91.44 257.76 "/>
<path transform="matrix(1,0,0,-1,0,360)" stroke-width=".75" stroke-linecap="round" stroke-dasharray="0,3,2.25,3" stroke-linejoin="round" fill="none" stroke="#000000" d="M 69.84 243.36 L 91.44 243.36 "/>
<text xml:space="preserve" transform="matrix(1 0 -0 1 0 360)" font-size="12" font-family="LMRoman10"><tspan y="-282.46" x="102.24 110.904 116.904 121.631999 130.29599 135.624 138.95999">Caswell</tspan></text>
<text xml:space="preserve" transform="matrix(1 0 -0 1 0 360)" font-size="12" font-family="LMRoman10"><tspan y="-268.06" x="102.24 110.904 114.24 120.24 126.576 131.244 137.244">Clayton</tspan></text>
<text xml:space="preserve" transform="matrix(1 0 -0 1 0 360)" font-size="12" font-family="LMRoman10"><tspan y="-253.66" x="102.24 110.904 116.904 126.9 133.572 136.908 143.58 148.908">Combined</tspan></text>
<text xml:space="preserve" transform="matrix(1 0 -0 1 0 360)" font-size="12" font-family="LMRoman10"><tspan y="-239.26" x="102.24 110.412 113.748 120.084 130.08 136.08 142.752 147.42">Plymouth</tspan></text>
<path transform="matrix(1,0,0,-1,0,360)" stroke-width="1.5" stroke-linecap="round" stroke-dasharray="4.5,7.5" stroke-linejoin="round" fill="none" stroke="#000000" d="M 66.13 82.86 L 67.78 82.91 L 68.96 82.95 L 71.04 112.83 L 71.79 123.67 L 73.06 122.31 L 74.63 120.63 L 76.05 118.56 L 77.46 116.5 L 77.84 116.54 L 79.89 116.79 L 80.3 116.84 L 83.13 126.76 L 83.42 127.58 L 85.97 134.94 L 88.8 135.68 L 89.44 133.41 L 91.17 127.29 L 91.63 125.65 L 93.32 121.49 L 94.47 118.64 L 95.6 120.52 L 97.3 123.35 L 97.42 121.86 L 99.38 97.38 L 100.14 87.86 L 101.16 88.59 L 102.97 89.88 L 105.81 89.94 L 108.64 88.76 L 111.47 86.51 L 114.31 84.28 L 117.14 82.94 L 119.29 90.8 L 119.98 93.33 L 121.34 94.27 L 122.81 95.27 L 125.64 100.8 L 127.87 103.7 L 128.48 104.5 L 131.31 111.52 L 132.9 113.53 L 134.1 115.05 L 134.15 115.11 L 135.55 112.89 L 136.98 110.64 L 137.18 111.12 L 138.74 114.85 L 139.82 117.42 L 140.07 117.15 L 141.5 115.67 L 142.65 114.47 L 142.96 114.74 L 144.73 116.3 L 145.48 116.97 L 146.1 110.64 L 147.7 94.08 L 148.32 87.69 L 149.47 86.86 "/>
<path transform="matrix(1,0,0,-1,0,360)" stroke-width="1.5" stroke-linecap="round" stroke-dasharray="4.5,7.5" stroke-linejoin="round" fill="none" stroke="#000000" d="M 163.64 81.93 L 166.25 82.08 L 166.47 82.1 L 167.56 82.02 L 168.81 81.93 "/>
<path transform="matrix(1,0,0,-1,0,360)" stroke-width="1.5" stroke-linecap="round" stroke-dasharray="4.5,7.5" stroke-linejoin="round" fill="none" stroke="#000000" d="M 182.98 92.68 L 182.98 92.68 L 184.77 95.66 L 185.82 97.39 L 186.67 98.03 L 188.45 99.36 L 188.65 99.51 L 190.92 103.8 L 191.48 104.87 L 193.46 106.58 L 194.32 107.32 L 195.1 105.96 L 196.69 103.19 L 197.15 102.39 L 199.99 110.53 L 202.82 111.49 L 205.66 103.36 L 206.64 102.59 L 208.49 101.15 L 211.32 98.87 L 214.16 91.62 L 216.85 86.26 L 216.99 85.97 L 218.45 84.84 L 219.83 83.78 L 220.77 83.19 L 222.66 82.01 L 224.93 83.64 L 225.49 84.05 L 226.86 84.17 L 228.33 84.29 L 231.16 84.31 L 234 84.24 L 236.83 84.02 L 239.67 83.62 L 242.5 83.07 L 245.33 82.56 L 248.17 82.21 L 251 82.01 L 253.84 81.91 L 254.07 81.92 L 255.36 81.94 L 256.67 81.97 L 257.74 81.97 L 259.51 81.97 L 260.73 81.96 L 262.34 81.94 L 263.85 81.95 L 265.17 81.95 L 265.97 82.11 L 268.01 82.53 L 268.11 82.63 L 270.51 84.97 L 270.84 85.29 L 273.39 89.92 "/>
<path transform="matrix(1,0,0,-1,0,360)" stroke-width="1.5" stroke-linecap="round" stroke-dasharray="4.5,7.5" stroke-linejoin="round" fill="none" stroke="#000000" d="M 287.56 116.92 L 289.1 116.26 L 290.4 115.7 L 291.03 115.88 L 292.61 116.35 L 293.23 116.53 L 296.07 104.96 L 298.9 92.63 L 299.12 92.75 L 300.76 93.62 L 301.73 94.14 L 302.58 93.73 L 304.43 92.82 L 304.57 92.75 L 306.12 87.83 L 307.4 83.78 L 310.24 83.5 L 312.83 82.92 L 313.07 82.87 L 315 82.66 L 315.91 82.56 L 316.5 82.43 L 318.74 81.92 L 319.08 81.92 L 321.22 81.92 L 321.57 81.92 L 322.62 82.15 L 324.05 82.45 L 324.41 82.53 L 326.65 84.06 L 327.24 84.47 L 328.37 85.61 L 329.68 86.95 L 330.08 87.35 L 331.92 88.25 L 332.91 88.73 L 333.39 89.42 L 335.75 92.81 L 336.97 96.46 L 338.58 101.27 L 338.58 101.28 L 340.14 100.45 L 341.41 99.78 L 341.9 100.65 L 343.68 103.83 L 344.25 104.85 L 345.24 99.63 L 346.74 91.79 L 347.08 90 L 349.92 90.69 L 352.75 90.57 L 355.59 89.51 L 357.96 88.33 L 358.42 88.1 L 359.69 87.12 L 361.25 85.91 L 361.49 85.84 L 364.09 85.17 L 366.92 83.3 L 367.78 83 L 369.33 82.46 L 369.76 82.31 L 372.59 82.11 L 375.42 84.93 L 378.24 88.58 L 378.26 88.61 L 379.83 86.83 "/>
<path transform="matrix(1,0,0,-1,0,360)" stroke-width="1.5" stroke-linecap="round" stroke-dasharray="4.5,7.5" stroke-linejoin="round" fill="none" stroke="#000000" d="M 394 257.42 L 394.99 225.88 L 396.83 167.53 L 399.67 165.89 L 402.5 153.5 L 405.33 132.27 L 408.17 81.95 L 410.58 81.95 L 411 81.95 L 411.71 82.1 L 413.69 82.5 L 413.84 82.53 L 416.67 82.01 L 418.3 82.86 L 419.51 83.48 L 419.95 83.65 L 421.65 84.3 L 422.34 84.56 L 425.17 87.48 L 425.64 87.24 L 427.31 86.38 L 428.01 86.02 L 429.08 85.57 L 430.67 84.9 "/>
<path transform="matrix(1,0,0,-1,0,360)" stroke-width=".75" stroke-linecap="round" stroke-linejoin="round" fill="none" stroke="#000000" d="M 59.04 300.96 L 160.98001 300.96 L 160.98001 228.95999 L 59.04 228.95999 Z "/>
<path transform="matrix(1,0,0,-1,0,360)" stroke-width=".75" stroke-linecap="round" stroke-linejoin="round" fill="none" stroke="#000000" d="M 69.84 286.56 L 91.44 286.56 "/>
<path transform="matrix(1,0,0,-1,0,360)" stroke-width=".75" stroke-linecap="round" stroke-dasharray="2.25,3.75" stroke-linejoin="round" fill="none" stroke="#000000" d="M 69.84 272.16 L 91.44 272.16 "/>
<path transform="matrix(1,0,0,-1,0,360)" stroke-width=".75" stroke-linecap="round" stroke-dasharray="0,3" stroke-linejoin="round" fill="none" stroke="#000000" d="M 69.84 257.76 L 91.44 257.76 "/>
<path transform="matrix(1,0,0,-1,0,360)" stroke-width=".75" stroke-linecap="round" stroke-dasharray="0,3,2.25,3" stroke-linejoin="round" fill="none" stroke="#000000" d="M 69.84 243.36 L 91.44 243.36 "/>
<text xml:space="preserve" transform="matrix(1 0 -0 1 0 360)" font-size="12" font-family="LMRoman10"><tspan y="-282.46" x="102.24 110.904 116.904 121.631999 130.29599 135.624 138.95999">Caswell</tspan></text>
<text xml:space="preserve" transform="matrix(1 0 -0 1 0 360)" font-size="12" font-family="LMRoman10"><tspan y="-268.06" x="102.24 110.904 114.24 120.24 126.576 131.244 137.244">Clayton</tspan></text>
<text xml:space="preserve" transform="matrix(1 0 -0 1 0 360)" font-size="12" font-family="LMRoman10"><tspan y="-253.66" x="102.24 110.904 116.904 126.9 133.572 136.908 143.58 148.908">Combined</tspan></text>
<text xml:space="preserve" transform="matrix(1 0 -0 1 0 360)" font-size="12" font-family="LMRoman10"><tspan y="-239.26" x="102.24 110.412 113.748 120.084 130.08 136.08 142.752 147.42">Plymouth</tspan></text>
<path transform="matrix(1,0,0,-1,0,360)" stroke-width="1.5" stroke-linecap="round" stroke-dasharray="0,6" stroke-linejoin="round" fill="none" stroke="#000000" d="M 66.13 94.37 L 67.78 93.34 L 68.96 92.61 L 71.04 93.22 L 71.79 93.45 L 73.06 93.94 L 74.63 94.56 L 76.05 94.3 L 77.46 94.03 L 77.84 93.8 L 79.89 92.5 L 80.3 92.25 L 83.13 90.78 L 83.42 95.42 L 85.97 137.12 L 88.8 137.02 L 89.44 136.01 L 91.17 133.3 L 91.63 132.57 L 93.32 126.65 L 94.47 122.6 L 95.6 123.79 L 97.3 125.59 L 97.42 125.9 L 99.38 131.03 L 100.14 133.02 L 101.16 133.35 L 102.97 133.94 L 105.81 134.26 L 108.64 132.09 L 111.47 127.41 L 114.31 89.61 L 117.14 89.93 L 119.29 90.25 L 119.98 90.35 L 121.34 91.22 L 122.81 92.16 L 125.64 97.04 L 127.87 100.15 L 128.48 101.01 L 131.31 104.76 L 132.9 105.72 L 134.1 106.45 L 134.15 106.48 L 135.55 106.11 L 136.98 105.73 L 137.18 106.02 L 138.74 108.33 L 139.82 109.92 L 140.07 109.43 L 141.5 106.73 L 142.65 104.55 L 142.96 104.47 L 144.73 104.05 L 145.48 103.87 L 146.1 104.37 L 147.7 105.67 L 148.32 106.17 L 149.47 106.04 "/>
<path transform="matrix(1,0,0,-1,0,360)" stroke-width="1.5" stroke-linecap="round" stroke-dasharray="0,6" stroke-linejoin="round" fill="none" stroke="#000000" d="M 163.64 81.87 L 166.25 87.4 L 166.47 87.87 L 167.56 85.88 L 168.81 83.59 "/>
<path transform="matrix(1,0,0,-1,0,360)" stroke-width="1.5" stroke-linecap="round" stroke-dasharray="0,6" stroke-linejoin="round" fill="none" stroke="#000000" d="M 182.98 164.94 L 182.98 164.94 L 184.77 177.08 L 185.82 184.17 L 186.67 185.35 L 188.45 187.83 L 188.65 188.1 L 190.92 205.29 L 191.48 209.58 L 193.46 210.91 L 194.32 211.5 L 195.1 208.06 L 196.69 201.06 L 197.15 199.04 L 199.99 198.06 L 202.82 96.06 L 205.66 90.17 L 206.64 89.95 L 208.49 89.54 L 211.32 88.87 L 214.16 86.24 L 216.85 84.28 L 216.99 84.17 L 218.45 83.49 L 219.83 82.85 L 220.77 82.53 L 222.66 81.9 L 224.93 82.48 L 225.49 82.63 L 226.86 82.74 L 228.33 82.86 L 231.16 83.19 L 234 83.62 L 236.83 84.1 L 239.67 84.51 L 242.5 84.7 L 245.33 84.64 L 248.17 84.41 L 251 84.12 L 253.84 83.85 L 254.07 83.72 L 255.36 83.02 L 256.67 82.31 L 257.74 82.15 L 259.51 81.9 L 260.73 81.92 L 262.34 81.95 L 263.85 82.17 L 265.17 82.36 L 265.97 82.46 L 268.01 82.73 L 268.11 82.79 L 270.51 84.14 L 270.84 84.33 L 273.39 85.05 "/>
<path transform="matrix(1,0,0,-1,0,360)" stroke-width="1.5" stroke-linecap="round" stroke-dasharray="0,6" stroke-linejoin="round" fill="none" stroke="#000000" d="M 287.56 102.64 L 289.1 102.26 L 290.4 101.93 L 291.03 101.54 L 292.61 100.56 L 293.23 100.18 L 296.07 95.68 L 298.9 90.54 L 299.12 90.68 L 300.76 91.74 L 301.73 92.37 L 302.58 92.88 L 304.43 94 L 304.57 94.08 L 306.12 94.99 L 307.4 95.74 L 310.24 95.91 L 312.83 93.66 L 313.07 93.45 L 315 92.37 L 315.91 91.86 L 316.5 91.63 L 318.74 90.75 L 319.08 90.82 L 321.22 91.3 L 321.57 91.38 L 322.62 91.57 L 324.05 91.83 L 324.41 91.89 L 326.65 93.38 L 327.24 93.77 L 328.37 94.02 L 329.68 94.32 L 330.08 94.4 L 331.92 91.05 L 332.91 89.26 L 333.39 89.56 L 335.75 91.04 L 336.97 91.62 L 338.58 92.39 L 340.14 90.69 L 341.41 89.31 L 341.9 89.69 L 343.68 91.07 L 344.25 91.51 L 345.24 89.37 L 346.74 86.17 L 347.08 85.43 L 349.92 89.08 L 352.75 93.48 L 355.59 97.09 L 357.96 98.37 L 358.42 98.62 L 359.69 97.56 L 361.25 96.25 L 361.49 96.08 L 364.09 94.31 L 366.92 89.27 L 367.78 88.21 L 369.33 86.28 L 369.76 85.75 L 372.59 84.72 L 375.42 83.33 L 378.24 82.33 L 378.26 82.32 L 379.83 82.6 "/>
<path transform="matrix(1,0,0,-1,0,360)" stroke-width="1.5" stroke-linecap="round" stroke-dasharray="0,6" stroke-linejoin="round" fill="none" stroke="#000000" d="M 394 185.6 L 394.99 160.05 L 396.83 112.78 L 399.67 109.77 L 402.5 104.12 L 405.33 96.94 L 408.17 90.38 L 410.58 83.16 L 411 81.89 L 411.71 81.89 L 413.69 81.88 L 413.84 81.88 L 416.67 82.15 L 418.3 82.8 L 419.51 83.28 L 419.95 83.4 L 421.65 83.86 L 422.34 84.04 L 425.17 85.04 L 425.64 84.83 L 427.31 84.08 L 428.01 83.77 L 429.08 83.6 L 430.67 83.34 "/>
<path transform="matrix(1,0,0,-1,0,360)" stroke-width=".75" stroke-linecap="round" stroke-linejoin="round" fill="none" stroke="#000000" d="M 59.04 300.96 L 160.98001 300.96 L 160.98001 228.95999 L 59.04 228.95999 Z "/>
<path transform="matrix(1,0,0,-1,0,360)" stroke-width=".75" stroke-linecap="round" stroke-linejoin="round" fill="none" stroke="#000000" d="M 69.84 286.56 L 91.44 286.56 "/>
<path transform="matrix(1,0,0,-1,0,360)" stroke-width=".75" stroke-linecap="round" stroke-dasharray="2.25,3.75" stroke-linejoin="round" fill="none" stroke="#000000" d="M 69.84 272.16 L 91.44 272.16 "/>
<path transform="matrix(1,0,0,-1,0,360)" stroke-width=".75" stroke-linecap="round" stroke-dasharray="0,3" stroke-linejoin="round" fill="none" stroke="#000000" d="M 69.84 257.76 L 91.44 257.76 "/>
<path transform="matrix(1,0,0,-1,0,360)" stroke-width=".75" stroke-linecap="round" stroke-dasharray="0,3,2.25,3" stroke-linejoin="round" fill="none" stroke="#000000" d="M 69.84 243.36 L 91.44 243.36 "/>
<text xml:space="preserve" transform="matrix(1 0 -0 1 0 360)" font-size="12" font-family="LMRoman10"><tspan y="-282.46" x="102.24 110.904 116.904 121.631999 130.29599 135.624 138.95999">Caswell</tspan></text>
<text xml:space="preserve" transform="matrix(1 0 -0 1 0 360)" font-size="12" font-family="LMRoman10"><tspan y="-268.06" x="102.24 110.904 114.24 120.24 126.576 131.244 137.244">Clayton</tspan></text>
<text xml:space="preserve" transform="matrix(1 0 -0 1 0 360)" font-size="12" font-family="LMRoman10"><tspan y="-253.66" x="102.24 110.904 116.904 126.9 133.572 136.908 143.58 148.908">Combined</tspan></text>
<text xml:space="preserve" transform="matrix(1 0 -0 1 0 360)" font-size="12" font-family="LMRoman10"><tspan y="-239.26" x="102.24 110.412 113.748 120.084 130.08 136.08 142.752 147.42">Plymouth</tspan></text>
<path transform="matrix(1,0,0,-1,0,360)" stroke-width="1.5" stroke-linecap="round" stroke-dasharray="0,6,4.5,6" stroke-linejoin="round" fill="none" stroke="#000000" d="M 66.13 107.07 L 67.78 105.97 L 68.96 105.18 L 71.04 110.9 L 71.79 112.98 L 73.06 115.66 L 74.63 118.96 L 76.05 118.55 L 77.46 118.13 L 77.84 118.26 L 79.89 118.98 L 80.3 119.12 L 83.13 112.28 L 83.42 111.88 L 85.97 108.23 L 88.8 102.91 L 89.44 98.17 L 91.17 85.38 L 91.63 81.95 L 93.32 82.08 L 94.47 82.16 L 95.6 82.04 L 97.3 81.87 L 97.42 81.91 L 99.38 82.65 L 100.14 82.93 L 101.16 83.47 L 102.97 84.41 L 105.81 83.84 L 108.64 83.23 L 111.47 82.69 L 114.31 82.29 L 117.14 82.04 L 119.29 81.91 L 119.98 81.87 L 121.34 81.89 L 122.81 81.9 L 125.64 83.39 L 127.87 85.48 L 128.48 86.05 L 131.31 88.82 L 132.9 89.9 L 134.1 90.71 L 134.15 90.74 L 135.55 89.64 L 136.98 88.52 L 137.18 88.78 L 138.74 90.84 L 139.82 92.26 L 140.07 92.6 L 141.5 94.47 L 142.65 95.98 L 142.96 96.48 L 144.73 99.37 L 145.48 100.6 L 146.1 100.09 L 147.7 98.76 L 148.32 98.24 L 149.47 98.72 "/>
<path transform="matrix(1,0,0,-1,0,360)" stroke-width="1.5" stroke-linecap="round" stroke-dasharray="0,6,4.5,6" stroke-linejoin="round" fill="none" stroke="#000000" d="M 163.64 83.08 L 166.25 83.67 L 166.47 83.72 L 167.56 83.04 L 168.81 82.26 "/>
<path transform="matrix(1,0,0,-1,0,360)" stroke-width="1.5" stroke-linecap="round" stroke-dasharray="0,6,4.5,6" stroke-linejoin="round" fill="none" stroke="#000000" d="M 182.98 153.71 L 182.98 153.71 L 184.77 156.32 L 185.82 157.84 L 186.67 158.19 L 188.45 158.93 L 188.65 159.01 L 190.92 169.66 L 191.48 172.32 L 193.46 194.6 L 194.32 204.34 L 195.1 202.29 L 196.69 198.11 L 197.15 196.9 L 199.99 195.09 L 202.82 176.71 L 205.66 141.67 L 206.64 135.54 L 208.49 124.05 L 211.32 112.88 L 214.16 98.06 L 216.85 88.15 L 216.99 87.62 L 218.45 86.28 L 219.83 85.01 L 220.77 84.39 L 222.66 83.16 L 224.93 84.01 L 225.49 84.22 L 226.86 84.37 L 228.33 84.54 L 231.16 85.7 L 234 87.22 L 236.83 88.96 L 239.67 90.64 L 242.5 92.01 L 245.33 92.9 L 248.17 93.28 L 251 93.22 L 253.84 92.87 L 254.07 92.55 L 255.36 90.78 L 256.67 88.98 L 257.74 88.11 L 259.51 86.67 L 260.73 87.51 L 262.34 88.61 L 263.85 88.79 L 265.17 88.95 L 265.97 88.27 L 268.01 86.52 L 268.11 86.71 L 270.51 91.3 L 270.84 91.93 L 273.39 89.13 "/>
<path transform="matrix(1,0,0,-1,0,360)" stroke-width="1.5" stroke-linecap="round" stroke-dasharray="0,6,4.5,6" stroke-linejoin="round" fill="none" stroke="#000000" d="M 287.56 118.56 L 289.1 116.99 L 290.4 115.67 L 291.03 115.31 L 292.61 114.41 L 293.23 114.06 L 296.07 111.08 L 298.9 105.91 L 299.12 105.56 L 300.76 102.93 L 301.73 101.37 L 302.58 99.9 L 304.43 96.7 L 304.57 96.46 L 306.12 88.85 L 307.4 82.6 L 310.24 83.59 L 312.83 83.73 L 313.07 83.74 L 315 83.7 L 315.91 83.67 L 316.5 83.82 L 318.74 84.38 L 319.08 84.11 L 321.22 82.45 L 321.57 82.17 L 322.62 82.13 L 324.05 82.06 L 324.41 82.04 L 326.65 81.91 L 327.24 81.87 L 328.37 82.1 L 329.68 82.37 L 330.08 82.45 L 331.92 82.12 L 332.91 81.94 L 333.39 81.97 L 335.75 82.14 L 336.97 82.75 L 338.58 83.55 L 340.14 83.18 L 341.41 82.88 L 341.9 82.86 L 343.68 82.78 L 344.25 82.76 L 345.24 82.57 L 346.74 82.3 L 347.08 82.24 L 349.92 83.93 L 352.75 87.03 L 355.59 90.73 L 357.96 92.46 L 358.42 92.79 L 359.69 92.36 L 361.25 91.82 L 361.49 91.69 L 364.09 90.24 L 366.92 87.22 L 367.78 86.67 L 369.33 85.66 L 369.76 85.38 L 372.59 83.73 L 375.42 82.3 L 378.24 81.87 L 378.26 81.87 L 379.83 82.07 "/>
<path transform="matrix(1,0,0,-1,0,360)" stroke-width="1.5" stroke-linecap="round" stroke-dasharray="0,6,4.5,6" stroke-linejoin="round" fill="none" stroke="#000000" d="M 394 103.9 L 394.99 99.74 L 396.83 92.04 L 399.67 94.41 L 402.5 95.9 L 405.33 95.91 L 408.17 94.58 L 410.58 94.33 L 411 94.28 L 411.71 93.6 L 413.69 91.72 L 413.84 91.59 L 416.67 88.07 L 418.3 86.18 L 419.51 84.79 L 419.95 84.87 L 421.65 85.16 L 422.34 85.28 L 425.17 86.21 L 425.64 85.99 L 427.31 85.21 L 428.01 84.89 L 429.08 84.8 L 430.67 84.67 "/>
<path transform="matrix(1,0,0,-1,0,360)" stroke-width=".75" stroke-linecap="round" stroke-linejoin="round" fill="none" stroke="#000000" d="M 59.04 300.96 L 160.98001 300.96 L 160.98001 228.95999 L 59.04 228.95999 Z "/>
<path transform="matrix(1,0,0,-1,0,360)" stroke-width=".75" stroke-linecap="round" stroke-linejoin="round" fill="none" stroke="#000000" d="M 69.84 286.56 L 91.44 286.56 "/>
<path transform="matrix(1,0,0,-1,0,360)" stroke-width=".75" stroke-linecap="round" stroke-dasharray="2.25,3.75" stroke-linejoin="round" fill="none" stroke="#000000" d="M 69.84 272.16 L 91.44 272.16 "/>
<path transform="matrix(1,0,0,-1,0,360)" stroke-width=".75" stroke-linecap="round" stroke-dasharray="0,3" stroke-linejoin="round" fill="none" stroke="#000000" d="M 69.84 257.76 L 91.44 257.76 "/>
<path transform="matrix(1,0,0,-1,0,360)" stroke-width=".75" stroke-linecap="round" stroke-dasharray="0,3,2.25,3" stroke-linejoin="round" fill="none" stroke="#000000" d="M 69.84 243.36 L 91.44 243.36 "/>
<text xml:space="preserve" transform="matrix(1 0 -0 1 0 360)" font-size="12" font-family="LMRoman10"><tspan y="-282.46" x="102.24 110.904 116.904 121.631999 130.29599 135.624 138.95999">Caswell</tspan></text>
<text xml:space="preserve" transform="matrix(1 0 -0 1 0 360)" font-size="12" font-family="LMRoman10"><tspan y="-268.06" x="102.24 110.904 114.24 120.24 126.576 131.244 137.244">Clayton</tspan></text>
<text xml:space="preserve" transform="matrix(1 0 -0 1 0 360)" font-size="12" font-family="LMRoman10"><tspan y="-253.66" x="102.24 110.904 116.904 126.9 133.572 136.908 143.58 148.908">Combined</tspan></text>
<text xml:space="preserve" transform="matrix(1 0 -0 1 0 360)" font-size="12" font-family="LMRoman10"><tspan y="-239.26" x="102.24 110.412 113.748 120.084 130.08 136.08 142.752 147.42">Plymouth</tspan></text>
</g>
</g>
</svg>
