<?xml version="1.0" encoding="UTF-8" standalone="no"?>
<!DOCTYPE svg PUBLIC "-//W3C//DTD SVG 1.1//EN" "http://www.w3.org/Graphics/SVG/1.1/DTD/svg11.dtd">
<svg xmlns="http://www.w3.org/2000/svg" xmlns:xlink="http://www.w3.org/1999/xlink" version="1.1" width="468pt" height="360pt" viewBox="0 0 468 360">
<g enable-background="new">
<path transform="matrix(1,0,0,-1,0,360)" stroke-width=".75" stroke-linecap="round" stroke-linejoin="round" fill="none" stroke="#000000" d="M 59.04 81.87 L 59.04 289.13 "/>
<path transform="matrix(1,0,0,-1,0,360)" stroke-width=".75" stroke-linecap="round" stroke-linejoin="round" fill="none" stroke="#000000" d="M 59.04 81.87 L 51.84 81.87 "/>
<path transform="matrix(1,0,0,-1,0,360)" stroke-width=".75" stroke-linecap="round" stroke-linejoin="round" fill="none" stroke="#000000" d="M 59.04 123.32 L 51.84 123.32 "/>
<path transform="matrix(1,0,0,-1,0,360)" stroke-width=".75" stroke-linecap="round" stroke-linejoin="round" fill="none" stroke="#000000" d="M 59.04 164.77 L 51.84 164.77 "/>
<path transform="matrix(1,0,0,-1,0,360)" stroke-width=".75" stroke-linecap="round" stroke-linejoin="round" fill="none" stroke="#000000" d="M 59.04 206.23 L 51.84 206.23 "/>
<path transform="matrix(1,0,0,-1,0,360)" stroke-width=".75" stroke-linecap="round" stroke-linejoin="round" fill="none" stroke="#000000" d="M 59.04 247.68 L 51.84 247.68 "/>
<path transform="matrix(1,0,0,-1,0,360)" stroke-width=".75" stroke-linecap="round" stroke-linejoin="round" fill="none" stroke="#000000" d="M 59.04 289.13 L 51.84 289.13 "/>
<text xml:space="preserve" transform="matrix(1 0 -0 1 0 360)" font-size="12" font-family="LMRoman10"><tspan y="-77.77" x="38.64">0</tspan></text>
<text xml:space="preserve" transform="matrix(1 0 -0 1 0 360)" font-size="12" font-family="LMRoman10"><tspan y="-119.22" x="38.64">2</tspan></text>
<text xml:space="preserve" transform="matrix(1 0 -0 1 0 360)" font-size="12" font-family="LMRoman10"><tspan y="-160.68" x="38.64">4</tspan></text>
<text xml:space="preserve" transform="matrix(1 0 -0 1 0 360)" font-size="12" font-family="LMRoman10"><tspan y="-202.13" x="38.64">6</tspan></text>
<text xml:space="preserve" transform="matrix(1 0 -0 1 0 360)" font-size="12" font-family="LMRoman10"><tspan y="-243.58" x="38.64">8</tspan></text>
<text xml:space="preserve" transform="matrix(1 0 -0 1 0 360)" font-size="12" font-family="LMRoman10"><tspan y="-285.03" x="32.64 38.64">10</tspan></text>
<path transform="matrix(1,0,0,-1,0,360)" stroke-width=".75" stroke-linecap="round" stroke-linejoin="round" fill="none" stroke="#000000" d="M 59.04 73.44 L 437.76 73.44 L 437.76 300.96 L 59.04 300.96 L 59.04 73.44 "/>
<text xml:space="preserve" transform="matrix(1 0 -0 1 0 360)" font-size="14" font-family="LMRoman10" font-weight="bold"><tspan y="-325.68" x="195.16 206.164 214.214 223.16 232.106 236.572 244.39801 250.656 255.12201 263.172 272.118 277.48 285.53 293.58">Population 201</tspan></text>
<text xml:space="preserve" transform="matrix(1 0 -0 1 0 360)" font-size="12" font-family="LMRoman10"><tspan y="-18.72" x="214.36 223.024 229.696 234.4 240.4 250.396 256.396 261.124 267.124 277.12">Chromosome</tspan></text>
<text xml:space="preserve" transform="matrix(0 -1 1 0 0 360)" font-size="12" font-family="LMRoman10"><tspan y="12.96" x="152.11 159.61 168.946 178.114 181.45 185.446 192.118 201.286 213.622">LOD: SDWT</tspan></text>
<clipPath id="cp0">
<path transform="matrix(1,0,0,-1,0,360)" d="M 59.04 73.44 L 437.76 73.44 L 437.76 300.96003 L 59.04 300.96003 Z "/>
</clipPath>
<g clip-path="url(#cp0)">
<path transform="matrix(1,0,0,-1,0,360)" stroke-width="1.5" stroke-linecap="round" stroke-linejoin="round" fill="none" stroke="#000000" d="M 65.1 81.88 L 66.6 81.91 L 67.53 81.94 L 69.95 117.77 L 70.48 125.53 L 72.38 153.1 L 74.8 194.52 L 77.23 220.53 L 79.65 230.09 L 80.16 230.69 L 81.34 232.11 L 82.08 232.99 L 82.39 231.25 L 83.66 224.24 L 84.5 219.58 L 85.12 216.31 L 86.93 206.83 L 88.67 190.64 L 89.35 184.31 L 89.75 180.39 L 91.17 166.17 L 91.78 160.19 L 92.38 140.71 L 93.95 90.06 L 94.2 81.89 L 96.63 88.84 L 98.13 93.42 L 99.05 96.22 L 101.48 93.58 L 103.9 86.99 L 106.32 82.67 L 108.67 81.9 L 108.75 81.87 L 111.17 82.78 L 113.6 84.91 L 114.11 84.45 L 115.58 83.12 "/>
</g>
<path transform="matrix(1,0,0,-1,0,360)" stroke-width=".38" stroke-linecap="round" stroke-linejoin="round" fill="none" stroke="#000000" d="M 65.1 73.44 L 65.1 77.99 "/>
<path transform="matrix(1,0,0,-1,0,360)" stroke-width=".38" stroke-linecap="round" stroke-linejoin="round" fill="none" stroke="#000000" d="M 66.6 73.44 L 66.6 77.99 "/>
<path transform="matrix(1,0,0,-1,0,360)" stroke-width=".38" stroke-linecap="round" stroke-linejoin="round" fill="none" stroke="#000000" d="M 70.48 73.44 L 70.48 77.99 "/>
<path transform="matrix(1,0,0,-1,0,360)" stroke-width=".38" stroke-linecap="round" stroke-linejoin="round" fill="none" stroke="#000000" d="M 80.16 73.44 L 80.16 77.99 "/>
<path transform="matrix(1,0,0,-1,0,360)" stroke-width=".38" stroke-linecap="round" stroke-linejoin="round" fill="none" stroke="#000000" d="M 80.16 73.44 L 80.16 77.99 "/>
<path transform="matrix(1,0,0,-1,0,360)" stroke-width=".38" stroke-linecap="round" stroke-linejoin="round" fill="none" stroke="#000000" d="M 81.34 73.44 L 81.34 77.99 "/>
<path transform="matrix(1,0,0,-1,0,360)" stroke-width=".38" stroke-linecap="round" stroke-linejoin="round" fill="none" stroke="#000000" d="M 82.39 73.44 L 82.39 77.99 "/>
<path transform="matrix(1,0,0,-1,0,360)" stroke-width=".38" stroke-linecap="round" stroke-linejoin="round" fill="none" stroke="#000000" d="M 83.66 73.44 L 83.66 77.99 "/>
<path transform="matrix(1,0,0,-1,0,360)" stroke-width=".38" stroke-linecap="round" stroke-linejoin="round" fill="none" stroke="#000000" d="M 85.12 73.44 L 85.12 77.99 "/>
<path transform="matrix(1,0,0,-1,0,360)" stroke-width=".38" stroke-linecap="round" stroke-linejoin="round" fill="none" stroke="#000000" d="M 88.67 73.44 L 88.67 77.99 "/>
<path transform="matrix(1,0,0,-1,0,360)" stroke-width=".38" stroke-linecap="round" stroke-linejoin="round" fill="none" stroke="#000000" d="M 89.75 73.44 L 89.75 77.99 "/>
<path transform="matrix(1,0,0,-1,0,360)" stroke-width=".38" stroke-linecap="round" stroke-linejoin="round" fill="none" stroke="#000000" d="M 91.17 73.44 L 91.17 77.99 "/>
<path transform="matrix(1,0,0,-1,0,360)" stroke-width=".38" stroke-linecap="round" stroke-linejoin="round" fill="none" stroke="#000000" d="M 91.17 73.44 L 91.17 77.99 "/>
<path transform="matrix(1,0,0,-1,0,360)" stroke-width=".38" stroke-linecap="round" stroke-linejoin="round" fill="none" stroke="#000000" d="M 92.38 73.44 L 92.38 77.99 "/>
<path transform="matrix(1,0,0,-1,0,360)" stroke-width=".38" stroke-linecap="round" stroke-linejoin="round" fill="none" stroke="#000000" d="M 93.95 73.44 L 93.95 77.99 "/>
<path transform="matrix(1,0,0,-1,0,360)" stroke-width=".38" stroke-linecap="round" stroke-linejoin="round" fill="none" stroke="#000000" d="M 98.13 73.44 L 98.13 77.99 "/>
<path transform="matrix(1,0,0,-1,0,360)" stroke-width=".38" stroke-linecap="round" stroke-linejoin="round" fill="none" stroke="#000000" d="M 108.67 73.44 L 108.67 77.99 "/>
<path transform="matrix(1,0,0,-1,0,360)" stroke-width=".38" stroke-linecap="round" stroke-linejoin="round" fill="none" stroke="#000000" d="M 114.11 73.44 L 114.11 77.99 "/>
<path transform="matrix(1,0,0,-1,0,360)" stroke-width=".38" stroke-linecap="round" stroke-linejoin="round" fill="none" stroke="#000000" d="M 115.58 73.44 L 115.58 77.99 "/>
<clipPath id="cp1">
<path transform="matrix(1,0,0,-1,0,360)" d="M 59.04 73.44 L 437.76 73.44 L 437.76 300.96003 L 59.04 300.96003 Z "/>
</clipPath>
<g clip-path="url(#cp1)">
<path transform="matrix(1,0,0,-1,0,360)" stroke-width="1.5" stroke-linecap="round" stroke-linejoin="round" fill="none" stroke="#000000" d="M 127.7 142.19 L 129.09 124.27 L 130.13 110.78 L 130.46 110.49 L 132.55 108.62 L 134.98 106.53 L 137.4 103.07 L 139.83 98.79 L 142.25 94.51 L 143.05 99.73 L 143.89 105.24 L 144.68 110.38 L 146.99 111.2 L 147.1 111.24 L 148.48 106.94 L 149.53 103.69 L 151.95 101.84 L 154.38 98.15 L 156.8 93.34 L 159.23 88.92 L 159.75 88.19 L 160.93 86.56 L 161.65 85.55 L 162.83 84.15 L 164.08 82.67 L 164.27 82.62 L 166.5 82.01 L 168.32 82 L 168.92 82 L 170.79 82.92 L 171.35 83.2 L 171.59 83.39 L 172.41 84.05 L 173.77 85.14 L 176.2 86.63 L 178.62 87.45 L 181.02 87.15 L 181.05 87.15 L 182.21 86.68 L 183.46 86.18 "/>
</g>
<path transform="matrix(1,0,0,-1,0,360)" stroke-width=".38" stroke-linecap="round" stroke-linejoin="round" fill="none" stroke="#000000" d="M 127.7 73.44 L 127.7 77.99 "/>
<path transform="matrix(1,0,0,-1,0,360)" stroke-width=".38" stroke-linecap="round" stroke-linejoin="round" fill="none" stroke="#000000" d="M 129.09 73.44 L 129.09 77.99 "/>
<path transform="matrix(1,0,0,-1,0,360)" stroke-width=".38" stroke-linecap="round" stroke-linejoin="round" fill="none" stroke="#000000" d="M 130.46 73.44 L 130.46 77.99 "/>
<path transform="matrix(1,0,0,-1,0,360)" stroke-width=".38" stroke-linecap="round" stroke-linejoin="round" fill="none" stroke="#000000" d="M 143.05 73.44 L 143.05 77.99 "/>
<path transform="matrix(1,0,0,-1,0,360)" stroke-width=".38" stroke-linecap="round" stroke-linejoin="round" fill="none" stroke="#000000" d="M 143.89 73.44 L 143.89 77.99 "/>
<path transform="matrix(1,0,0,-1,0,360)" stroke-width=".38" stroke-linecap="round" stroke-linejoin="round" fill="none" stroke="#000000" d="M 146.99 73.44 L 146.99 77.99 "/>
<path transform="matrix(1,0,0,-1,0,360)" stroke-width=".38" stroke-linecap="round" stroke-linejoin="round" fill="none" stroke="#000000" d="M 146.99 73.44 L 146.99 77.99 "/>
<path transform="matrix(1,0,0,-1,0,360)" stroke-width=".38" stroke-linecap="round" stroke-linejoin="round" fill="none" stroke="#000000" d="M 148.48 73.44 L 148.48 77.99 "/>
<path transform="matrix(1,0,0,-1,0,360)" stroke-width=".38" stroke-linecap="round" stroke-linejoin="round" fill="none" stroke="#000000" d="M 159.75 73.44 L 159.75 77.99 "/>
<path transform="matrix(1,0,0,-1,0,360)" stroke-width=".38" stroke-linecap="round" stroke-linejoin="round" fill="none" stroke="#000000" d="M 160.93 73.44 L 160.93 77.99 "/>
<path transform="matrix(1,0,0,-1,0,360)" stroke-width=".38" stroke-linecap="round" stroke-linejoin="round" fill="none" stroke="#000000" d="M 160.93 73.44 L 160.93 77.99 "/>
<path transform="matrix(1,0,0,-1,0,360)" stroke-width=".38" stroke-linecap="round" stroke-linejoin="round" fill="none" stroke="#000000" d="M 162.83 73.44 L 162.83 77.99 "/>
<path transform="matrix(1,0,0,-1,0,360)" stroke-width=".38" stroke-linecap="round" stroke-linejoin="round" fill="none" stroke="#000000" d="M 164.27 73.44 L 164.27 77.99 "/>
<path transform="matrix(1,0,0,-1,0,360)" stroke-width=".38" stroke-linecap="round" stroke-linejoin="round" fill="none" stroke="#000000" d="M 168.32 73.44 L 168.32 77.99 "/>
<path transform="matrix(1,0,0,-1,0,360)" stroke-width=".38" stroke-linecap="round" stroke-linejoin="round" fill="none" stroke="#000000" d="M 170.79 73.44 L 170.79 77.99 "/>
<path transform="matrix(1,0,0,-1,0,360)" stroke-width=".38" stroke-linecap="round" stroke-linejoin="round" fill="none" stroke="#000000" d="M 171.59 73.44 L 171.59 77.99 "/>
<path transform="matrix(1,0,0,-1,0,360)" stroke-width=".38" stroke-linecap="round" stroke-linejoin="round" fill="none" stroke="#000000" d="M 172.41 73.44 L 172.41 77.99 "/>
<path transform="matrix(1,0,0,-1,0,360)" stroke-width=".38" stroke-linecap="round" stroke-linejoin="round" fill="none" stroke="#000000" d="M 181.02 73.44 L 181.02 77.99 "/>
<path transform="matrix(1,0,0,-1,0,360)" stroke-width=".38" stroke-linecap="round" stroke-linejoin="round" fill="none" stroke="#000000" d="M 182.21 73.44 L 182.21 77.99 "/>
<path transform="matrix(1,0,0,-1,0,360)" stroke-width=".38" stroke-linecap="round" stroke-linejoin="round" fill="none" stroke="#000000" d="M 183.46 73.44 L 183.46 77.99 "/>
<clipPath id="cp2">
<path transform="matrix(1,0,0,-1,0,360)" d="M 59.04 73.44 L 437.76 73.44 L 437.76 300.96003 L 59.04 300.96003 Z "/>
</clipPath>
<g clip-path="url(#cp2)">
<path transform="matrix(1,0,0,-1,0,360)" stroke-width="1.5" stroke-linecap="round" stroke-linejoin="round" fill="none" stroke="#000000" d="M 195.59 126.74 L 196.68 133.04 L 197.72 139.1 L 198.01 140.78 L 200.44 172.38 L 202.17 166.2 L 202.86 163.73 L 204.76 132.45 L 205.29 123.82 L 207.71 137.82 L 208.36 136.35 L 209.84 133 L 210.14 132.33 L 212.56 132.12 L 214.99 84.47 L 217.41 84.39 L 219.84 84.11 L 220.93 85.74 L 222.26 87.73 L 222.4 87.76 L 223.56 88 L 224.65 88.23 L 224.69 88.24 L 227.11 85.04 L 229.53 82.51 L 231.96 81.98 L 234.38 83.94 L 236.81 87.29 L 238.89 92.58 L 239.23 93.46 L 240.43 99.09 "/>
</g>
<path transform="matrix(1,0,0,-1,0,360)" stroke-width=".38" stroke-linecap="round" stroke-linejoin="round" fill="none" stroke="#000000" d="M 195.59 73.44 L 195.59 77.99 "/>
<path transform="matrix(1,0,0,-1,0,360)" stroke-width=".38" stroke-linecap="round" stroke-linejoin="round" fill="none" stroke="#000000" d="M 196.68 73.44 L 196.68 77.99 "/>
<path transform="matrix(1,0,0,-1,0,360)" stroke-width=".38" stroke-linecap="round" stroke-linejoin="round" fill="none" stroke="#000000" d="M 197.72 73.44 L 197.72 77.99 "/>
<path transform="matrix(1,0,0,-1,0,360)" stroke-width=".38" stroke-linecap="round" stroke-linejoin="round" fill="none" stroke="#000000" d="M 202.17 73.44 L 202.17 77.99 "/>
<path transform="matrix(1,0,0,-1,0,360)" stroke-width=".38" stroke-linecap="round" stroke-linejoin="round" fill="none" stroke="#000000" d="M 204.76 73.44 L 204.76 77.99 "/>
<path transform="matrix(1,0,0,-1,0,360)" stroke-width=".38" stroke-linecap="round" stroke-linejoin="round" fill="none" stroke="#000000" d="M 208.36 73.44 L 208.36 77.99 "/>
<path transform="matrix(1,0,0,-1,0,360)" stroke-width=".38" stroke-linecap="round" stroke-linejoin="round" fill="none" stroke="#000000" d="M 209.84 73.44 L 209.84 77.99 "/>
<path transform="matrix(1,0,0,-1,0,360)" stroke-width=".38" stroke-linecap="round" stroke-linejoin="round" fill="none" stroke="#000000" d="M 209.84 73.44 L 209.84 77.99 "/>
<path transform="matrix(1,0,0,-1,0,360)" stroke-width=".38" stroke-linecap="round" stroke-linejoin="round" fill="none" stroke="#000000" d="M 220.93 73.44 L 220.93 77.99 "/>
<path transform="matrix(1,0,0,-1,0,360)" stroke-width=".38" stroke-linecap="round" stroke-linejoin="round" fill="none" stroke="#000000" d="M 222.4 73.44 L 222.4 77.99 "/>
<path transform="matrix(1,0,0,-1,0,360)" stroke-width=".38" stroke-linecap="round" stroke-linejoin="round" fill="none" stroke="#000000" d="M 223.56 73.44 L 223.56 77.99 "/>
<path transform="matrix(1,0,0,-1,0,360)" stroke-width=".38" stroke-linecap="round" stroke-linejoin="round" fill="none" stroke="#000000" d="M 224.65 73.44 L 224.65 77.99 "/>
<path transform="matrix(1,0,0,-1,0,360)" stroke-width=".38" stroke-linecap="round" stroke-linejoin="round" fill="none" stroke="#000000" d="M 238.89 73.44 L 238.89 77.99 "/>
<path transform="matrix(1,0,0,-1,0,360)" stroke-width=".38" stroke-linecap="round" stroke-linejoin="round" fill="none" stroke="#000000" d="M 240.43 73.44 L 240.43 77.99 "/>
<clipPath id="cp3">
<path transform="matrix(1,0,0,-1,0,360)" d="M 59.04 73.44 L 437.76 73.44 L 437.76 300.96003 L 59.04 300.96003 Z "/>
</clipPath>
<g clip-path="url(#cp3)">
<path transform="matrix(1,0,0,-1,0,360)" stroke-width="1.5" stroke-linecap="round" stroke-linejoin="round" fill="none" stroke="#000000" d="M 252.55 93.4 L 252.55 93.4 L 254.18 100.76 L 254.98 104.36 L 257.07 104.27 L 257.4 104.25 L 258.31 101.72 L 259.43 98.64 L 259.83 97.53 L 260.76 100.88 L 262.25 106.2 L 262.92 105.51 L 264.25 104.14 L 264.68 103.7 L 265.61 97.62 L 267.1 87.96 L 268.9 84.56 L 269.53 83.36 L 270.56 83.66 L 271.95 84.05 L 272.04 84.11 L 273.13 84.86 L 274.38 85.72 L 275.58 87.7 L 276.8 89.69 L 277.32 89.56 L 278.36 89.28 L 279.23 89.06 L 281.65 93.49 L 281.9 93.73 L 282.79 94.57 L 283.74 95.47 L 284.07 95.79 L 284.65 93.9 L 286.21 88.74 L 286.5 87.79 L 288.92 92.4 L 290.13 94.36 L 291.32 96.3 L 291.35 96.35 L 292.36 92.96 L 293.77 88.25 L 294.67 86.97 L 295.98 85.1 L 296.2 84.79 L 297.45 83.49 L 298.62 82.26 L 298.94 82.21 L 300.31 81.99 L 301.05 81.88 L 302.21 82.11 L 303.47 82.37 L 303.5 82.37 L 305.9 82.26 L 307.77 82.2 L 308.32 82.18 L 308.83 82.18 "/>
</g>
<path transform="matrix(1,0,0,-1,0,360)" stroke-width=".38" stroke-linecap="round" stroke-linejoin="round" fill="none" stroke="#000000" d="M 252.55 73.44 L 252.55 77.99 "/>
<path transform="matrix(1,0,0,-1,0,360)" stroke-width=".38" stroke-linecap="round" stroke-linejoin="round" fill="none" stroke="#000000" d="M 252.55 73.44 L 252.55 77.99 "/>
<path transform="matrix(1,0,0,-1,0,360)" stroke-width=".38" stroke-linecap="round" stroke-linejoin="round" fill="none" stroke="#000000" d="M 254.18 73.44 L 254.18 77.99 "/>
<path transform="matrix(1,0,0,-1,0,360)" stroke-width=".38" stroke-linecap="round" stroke-linejoin="round" fill="none" stroke="#000000" d="M 257.07 73.44 L 257.07 77.99 "/>
<path transform="matrix(1,0,0,-1,0,360)" stroke-width=".38" stroke-linecap="round" stroke-linejoin="round" fill="none" stroke="#000000" d="M 258.31 73.44 L 258.31 77.99 "/>
<path transform="matrix(1,0,0,-1,0,360)" stroke-width=".38" stroke-linecap="round" stroke-linejoin="round" fill="none" stroke="#000000" d="M 259.43 73.44 L 259.43 77.99 "/>
<path transform="matrix(1,0,0,-1,0,360)" stroke-width=".38" stroke-linecap="round" stroke-linejoin="round" fill="none" stroke="#000000" d="M 260.76 73.44 L 260.76 77.99 "/>
<path transform="matrix(1,0,0,-1,0,360)" stroke-width=".38" stroke-linecap="round" stroke-linejoin="round" fill="none" stroke="#000000" d="M 260.76 73.44 L 260.76 77.99 "/>
<path transform="matrix(1,0,0,-1,0,360)" stroke-width=".38" stroke-linecap="round" stroke-linejoin="round" fill="none" stroke="#000000" d="M 262.92 73.44 L 262.92 77.99 "/>
<path transform="matrix(1,0,0,-1,0,360)" stroke-width=".38" stroke-linecap="round" stroke-linejoin="round" fill="none" stroke="#000000" d="M 264.25 73.44 L 264.25 77.99 "/>
<path transform="matrix(1,0,0,-1,0,360)" stroke-width=".38" stroke-linecap="round" stroke-linejoin="round" fill="none" stroke="#000000" d="M 265.61 73.44 L 265.61 77.99 "/>
<path transform="matrix(1,0,0,-1,0,360)" stroke-width=".38" stroke-linecap="round" stroke-linejoin="round" fill="none" stroke="#000000" d="M 268.9 73.44 L 268.9 77.99 "/>
<path transform="matrix(1,0,0,-1,0,360)" stroke-width=".38" stroke-linecap="round" stroke-linejoin="round" fill="none" stroke="#000000" d="M 270.56 73.44 L 270.56 77.99 "/>
<path transform="matrix(1,0,0,-1,0,360)" stroke-width=".38" stroke-linecap="round" stroke-linejoin="round" fill="none" stroke="#000000" d="M 272.04 73.44 L 272.04 77.99 "/>
<path transform="matrix(1,0,0,-1,0,360)" stroke-width=".38" stroke-linecap="round" stroke-linejoin="round" fill="none" stroke="#000000" d="M 273.13 73.44 L 273.13 77.99 "/>
<path transform="matrix(1,0,0,-1,0,360)" stroke-width=".38" stroke-linecap="round" stroke-linejoin="round" fill="none" stroke="#000000" d="M 275.58 73.44 L 275.58 77.99 "/>
<path transform="matrix(1,0,0,-1,0,360)" stroke-width=".38" stroke-linecap="round" stroke-linejoin="round" fill="none" stroke="#000000" d="M 277.32 73.44 L 277.32 77.99 "/>
<path transform="matrix(1,0,0,-1,0,360)" stroke-width=".38" stroke-linecap="round" stroke-linejoin="round" fill="none" stroke="#000000" d="M 278.36 73.44 L 278.36 77.99 "/>
<path transform="matrix(1,0,0,-1,0,360)" stroke-width=".38" stroke-linecap="round" stroke-linejoin="round" fill="none" stroke="#000000" d="M 281.9 73.44 L 281.9 77.99 "/>
<path transform="matrix(1,0,0,-1,0,360)" stroke-width=".38" stroke-linecap="round" stroke-linejoin="round" fill="none" stroke="#000000" d="M 282.79 73.44 L 282.79 77.99 "/>
<path transform="matrix(1,0,0,-1,0,360)" stroke-width=".38" stroke-linecap="round" stroke-linejoin="round" fill="none" stroke="#000000" d="M 283.74 73.44 L 283.74 77.99 "/>
<path transform="matrix(1,0,0,-1,0,360)" stroke-width=".38" stroke-linecap="round" stroke-linejoin="round" fill="none" stroke="#000000" d="M 284.65 73.44 L 284.65 77.99 "/>
<path transform="matrix(1,0,0,-1,0,360)" stroke-width=".38" stroke-linecap="round" stroke-linejoin="round" fill="none" stroke="#000000" d="M 286.21 73.44 L 286.21 77.99 "/>
<path transform="matrix(1,0,0,-1,0,360)" stroke-width=".38" stroke-linecap="round" stroke-linejoin="round" fill="none" stroke="#000000" d="M 286.21 73.44 L 286.21 77.99 "/>
<path transform="matrix(1,0,0,-1,0,360)" stroke-width=".38" stroke-linecap="round" stroke-linejoin="round" fill="none" stroke="#000000" d="M 290.13 73.44 L 290.13 77.99 "/>
<path transform="matrix(1,0,0,-1,0,360)" stroke-width=".38" stroke-linecap="round" stroke-linejoin="round" fill="none" stroke="#000000" d="M 291.32 73.44 L 291.32 77.99 "/>
<path transform="matrix(1,0,0,-1,0,360)" stroke-width=".38" stroke-linecap="round" stroke-linejoin="round" fill="none" stroke="#000000" d="M 292.36 73.44 L 292.36 77.99 "/>
<path transform="matrix(1,0,0,-1,0,360)" stroke-width=".38" stroke-linecap="round" stroke-linejoin="round" fill="none" stroke="#000000" d="M 294.67 73.44 L 294.67 77.99 "/>
<path transform="matrix(1,0,0,-1,0,360)" stroke-width=".38" stroke-linecap="round" stroke-linejoin="round" fill="none" stroke="#000000" d="M 295.98 73.44 L 295.98 77.99 "/>
<path transform="matrix(1,0,0,-1,0,360)" stroke-width=".38" stroke-linecap="round" stroke-linejoin="round" fill="none" stroke="#000000" d="M 295.98 73.44 L 295.98 77.99 "/>
<path transform="matrix(1,0,0,-1,0,360)" stroke-width=".38" stroke-linecap="round" stroke-linejoin="round" fill="none" stroke="#000000" d="M 297.45 73.44 L 297.45 77.99 "/>
<path transform="matrix(1,0,0,-1,0,360)" stroke-width=".38" stroke-linecap="round" stroke-linejoin="round" fill="none" stroke="#000000" d="M 298.94 73.44 L 298.94 77.99 "/>
<path transform="matrix(1,0,0,-1,0,360)" stroke-width=".38" stroke-linecap="round" stroke-linejoin="round" fill="none" stroke="#000000" d="M 300.31 73.44 L 300.31 77.99 "/>
<path transform="matrix(1,0,0,-1,0,360)" stroke-width=".38" stroke-linecap="round" stroke-linejoin="round" fill="none" stroke="#000000" d="M 302.21 73.44 L 302.21 77.99 "/>
<path transform="matrix(1,0,0,-1,0,360)" stroke-width=".38" stroke-linecap="round" stroke-linejoin="round" fill="none" stroke="#000000" d="M 303.5 73.44 L 303.5 77.99 "/>
<path transform="matrix(1,0,0,-1,0,360)" stroke-width=".38" stroke-linecap="round" stroke-linejoin="round" fill="none" stroke="#000000" d="M 307.77 73.44 L 307.77 77.99 "/>
<path transform="matrix(1,0,0,-1,0,360)" stroke-width=".38" stroke-linecap="round" stroke-linejoin="round" fill="none" stroke="#000000" d="M 308.83 73.44 L 308.83 77.99 "/>
<clipPath id="cp4">
<path transform="matrix(1,0,0,-1,0,360)" d="M 59.04 73.44 L 437.76 73.44 L 437.76 300.96003 L 59.04 300.96003 Z "/>
</clipPath>
<g clip-path="url(#cp4)">
<path transform="matrix(1,0,0,-1,0,360)" stroke-width="1.5" stroke-linecap="round" stroke-linejoin="round" fill="none" stroke="#000000" d="M 320.96 112.99 L 323.38 122.2 L 324.33 115.16 L 325.81 104.21 L 326.33 102.26 L 327.81 96.77 L 328.23 95.18 L 329.3 93.69 L 330.66 91.79 L 333.08 86.57 L 333.71 86.08 L 335.3 84.83 L 335.51 84.67 L 337.28 84.65 L 337.93 84.64 L 338.93 85.14 L 340.36 85.86 L 340.8 85.28 L 342.78 82.72 L 343.05 82.73 L 345.21 82.85 L 347.63 82.13 L 350.06 81.88 L 352.48 82.56 L 354.91 83.99 L 357.33 85.54 L 359.76 86.76 L 360.89 88.84 L 362.18 91.21 L 362.55 91.96 L 364.16 95.22 L 364.61 96.13 L 365.85 101.34 L 367.03 106.29 L 367.66 107.79 L 369.46 112.04 L 370.12 117.88 L 371.88 133.21 L 372.96 134.33 L 374.31 135.71 L 374.59 135.33 L 376.73 132.46 L 379.15 124.75 L 381.58 112.91 L 384 100.8 L 385.69 94.42 L 386.43 91.62 L 387 91.84 L 388.18 92.29 "/>
</g>
<path transform="matrix(1,0,0,-1,0,360)" stroke-width=".38" stroke-linecap="round" stroke-linejoin="round" fill="none" stroke="#000000" d="M 320.96 73.44 L 320.96 77.99 "/>
<path transform="matrix(1,0,0,-1,0,360)" stroke-width=".38" stroke-linecap="round" stroke-linejoin="round" fill="none" stroke="#000000" d="M 324.33 73.44 L 324.33 77.99 "/>
<path transform="matrix(1,0,0,-1,0,360)" stroke-width=".38" stroke-linecap="round" stroke-linejoin="round" fill="none" stroke="#000000" d="M 326.33 73.44 L 326.33 77.99 "/>
<path transform="matrix(1,0,0,-1,0,360)" stroke-width=".38" stroke-linecap="round" stroke-linejoin="round" fill="none" stroke="#000000" d="M 327.81 73.44 L 327.81 77.99 "/>
<path transform="matrix(1,0,0,-1,0,360)" stroke-width=".38" stroke-linecap="round" stroke-linejoin="round" fill="none" stroke="#000000" d="M 329.3 73.44 L 329.3 77.99 "/>
<path transform="matrix(1,0,0,-1,0,360)" stroke-width=".38" stroke-linecap="round" stroke-linejoin="round" fill="none" stroke="#000000" d="M 333.71 73.44 L 333.71 77.99 "/>
<path transform="matrix(1,0,0,-1,0,360)" stroke-width=".38" stroke-linecap="round" stroke-linejoin="round" fill="none" stroke="#000000" d="M 333.71 73.44 L 333.71 77.99 "/>
<path transform="matrix(1,0,0,-1,0,360)" stroke-width=".38" stroke-linecap="round" stroke-linejoin="round" fill="none" stroke="#000000" d="M 333.71 73.44 L 333.71 77.99 "/>
<path transform="matrix(1,0,0,-1,0,360)" stroke-width=".38" stroke-linecap="round" stroke-linejoin="round" fill="none" stroke="#000000" d="M 335.3 73.44 L 335.3 77.99 "/>
<path transform="matrix(1,0,0,-1,0,360)" stroke-width=".38" stroke-linecap="round" stroke-linejoin="round" fill="none" stroke="#000000" d="M 337.28 73.44 L 337.28 77.99 "/>
<path transform="matrix(1,0,0,-1,0,360)" stroke-width=".38" stroke-linecap="round" stroke-linejoin="round" fill="none" stroke="#000000" d="M 338.93 73.44 L 338.93 77.99 "/>
<path transform="matrix(1,0,0,-1,0,360)" stroke-width=".38" stroke-linecap="round" stroke-linejoin="round" fill="none" stroke="#000000" d="M 340.8 73.44 L 340.8 77.99 "/>
<path transform="matrix(1,0,0,-1,0,360)" stroke-width=".38" stroke-linecap="round" stroke-linejoin="round" fill="none" stroke="#000000" d="M 343.05 73.44 L 343.05 77.99 "/>
<path transform="matrix(1,0,0,-1,0,360)" stroke-width=".38" stroke-linecap="round" stroke-linejoin="round" fill="none" stroke="#000000" d="M 360.89 73.44 L 360.89 77.99 "/>
<path transform="matrix(1,0,0,-1,0,360)" stroke-width=".38" stroke-linecap="round" stroke-linejoin="round" fill="none" stroke="#000000" d="M 362.55 73.44 L 362.55 77.99 "/>
<path transform="matrix(1,0,0,-1,0,360)" stroke-width=".38" stroke-linecap="round" stroke-linejoin="round" fill="none" stroke="#000000" d="M 364.16 73.44 L 364.16 77.99 "/>
<path transform="matrix(1,0,0,-1,0,360)" stroke-width=".38" stroke-linecap="round" stroke-linejoin="round" fill="none" stroke="#000000" d="M 365.85 73.44 L 365.85 77.99 "/>
<path transform="matrix(1,0,0,-1,0,360)" stroke-width=".38" stroke-linecap="round" stroke-linejoin="round" fill="none" stroke="#000000" d="M 367.66 73.44 L 367.66 77.99 "/>
<path transform="matrix(1,0,0,-1,0,360)" stroke-width=".38" stroke-linecap="round" stroke-linejoin="round" fill="none" stroke="#000000" d="M 370.12 73.44 L 370.12 77.99 "/>
<path transform="matrix(1,0,0,-1,0,360)" stroke-width=".38" stroke-linecap="round" stroke-linejoin="round" fill="none" stroke="#000000" d="M 372.96 73.44 L 372.96 77.99 "/>
<path transform="matrix(1,0,0,-1,0,360)" stroke-width=".38" stroke-linecap="round" stroke-linejoin="round" fill="none" stroke="#000000" d="M 372.96 73.44 L 372.96 77.99 "/>
<path transform="matrix(1,0,0,-1,0,360)" stroke-width=".38" stroke-linecap="round" stroke-linejoin="round" fill="none" stroke="#000000" d="M 372.96 73.44 L 372.96 77.99 "/>
<path transform="matrix(1,0,0,-1,0,360)" stroke-width=".38" stroke-linecap="round" stroke-linejoin="round" fill="none" stroke="#000000" d="M 374.59 73.44 L 374.59 77.99 "/>
<path transform="matrix(1,0,0,-1,0,360)" stroke-width=".38" stroke-linecap="round" stroke-linejoin="round" fill="none" stroke="#000000" d="M 385.69 73.44 L 385.69 77.99 "/>
<path transform="matrix(1,0,0,-1,0,360)" stroke-width=".38" stroke-linecap="round" stroke-linejoin="round" fill="none" stroke="#000000" d="M 385.69 73.44 L 385.69 77.99 "/>
<path transform="matrix(1,0,0,-1,0,360)" stroke-width=".38" stroke-linecap="round" stroke-linejoin="round" fill="none" stroke="#000000" d="M 387 73.44 L 387 77.99 "/>
<path transform="matrix(1,0,0,-1,0,360)" stroke-width=".38" stroke-linecap="round" stroke-linejoin="round" fill="none" stroke="#000000" d="M 388.18 73.44 L 388.18 77.99 "/>
<clipPath id="cp5">
<path transform="matrix(1,0,0,-1,0,360)" d="M 59.04 73.44 L 437.76 73.44 L 437.76 300.96003 L 59.04 300.96003 Z "/>
</clipPath>
<g clip-path="url(#cp5)">
<path transform="matrix(1,0,0,-1,0,360)" stroke-width="1.5" stroke-linecap="round" stroke-linejoin="round" fill="none" stroke="#000000" d="M 400.31 83.67 L 401.44 84.4 L 402.73 85.22 L 402.76 85.2 L 404.06 83.92 L 405.16 82.85 L 405.49 82.85 L 406.99 82.84 L 407.58 82.84 L 410.01 166.89 L 412.43 184.65 L 412.52 185.65 L 414.04 202.57 L 414.86 211.67 L 416.7 217.95 L 417.28 219.95 L 418.22 221.7 L 419.71 224.45 L 420.51 220.29 L 422.13 211.9 L 422.66 208.92 L 424.28 199.82 L 424.56 198.26 L 426.23 194.29 L 426.98 192.53 L 428.2 196.93 L 429.41 201.29 L 429.91 196.21 L 431.7 178.17 "/>
</g>
<path transform="matrix(1,0,0,-1,0,360)" stroke-width=".38" stroke-linecap="round" stroke-linejoin="round" fill="none" stroke="#000000" d="M 400.31 73.44 L 400.31 77.99 "/>
<path transform="matrix(1,0,0,-1,0,360)" stroke-width=".38" stroke-linecap="round" stroke-linejoin="round" fill="none" stroke="#000000" d="M 401.44 73.44 L 401.44 77.99 "/>
<path transform="matrix(1,0,0,-1,0,360)" stroke-width=".38" stroke-linecap="round" stroke-linejoin="round" fill="none" stroke="#000000" d="M 402.76 73.44 L 402.76 77.99 "/>
<path transform="matrix(1,0,0,-1,0,360)" stroke-width=".38" stroke-linecap="round" stroke-linejoin="round" fill="none" stroke="#000000" d="M 402.76 73.44 L 402.76 77.99 "/>
<path transform="matrix(1,0,0,-1,0,360)" stroke-width=".38" stroke-linecap="round" stroke-linejoin="round" fill="none" stroke="#000000" d="M 404.06 73.44 L 404.06 77.99 "/>
<path transform="matrix(1,0,0,-1,0,360)" stroke-width=".38" stroke-linecap="round" stroke-linejoin="round" fill="none" stroke="#000000" d="M 405.49 73.44 L 405.49 77.99 "/>
<path transform="matrix(1,0,0,-1,0,360)" stroke-width=".38" stroke-linecap="round" stroke-linejoin="round" fill="none" stroke="#000000" d="M 406.99 73.44 L 406.99 77.99 "/>
<path transform="matrix(1,0,0,-1,0,360)" stroke-width=".38" stroke-linecap="round" stroke-linejoin="round" fill="none" stroke="#000000" d="M 412.52 73.44 L 412.52 77.99 "/>
<path transform="matrix(1,0,0,-1,0,360)" stroke-width=".38" stroke-linecap="round" stroke-linejoin="round" fill="none" stroke="#000000" d="M 412.52 73.44 L 412.52 77.99 "/>
<path transform="matrix(1,0,0,-1,0,360)" stroke-width=".38" stroke-linecap="round" stroke-linejoin="round" fill="none" stroke="#000000" d="M 414.04 73.44 L 414.04 77.99 "/>
<path transform="matrix(1,0,0,-1,0,360)" stroke-width=".38" stroke-linecap="round" stroke-linejoin="round" fill="none" stroke="#000000" d="M 416.7 73.44 L 416.7 77.99 "/>
<path transform="matrix(1,0,0,-1,0,360)" stroke-width=".38" stroke-linecap="round" stroke-linejoin="round" fill="none" stroke="#000000" d="M 418.22 73.44 L 418.22 77.99 "/>
<path transform="matrix(1,0,0,-1,0,360)" stroke-width=".38" stroke-linecap="round" stroke-linejoin="round" fill="none" stroke="#000000" d="M 420.51 73.44 L 420.51 77.99 "/>
<path transform="matrix(1,0,0,-1,0,360)" stroke-width=".38" stroke-linecap="round" stroke-linejoin="round" fill="none" stroke="#000000" d="M 422.66 73.44 L 422.66 77.99 "/>
<path transform="matrix(1,0,0,-1,0,360)" stroke-width=".38" stroke-linecap="round" stroke-linejoin="round" fill="none" stroke="#000000" d="M 424.28 73.44 L 424.28 77.99 "/>
<path transform="matrix(1,0,0,-1,0,360)" stroke-width=".38" stroke-linecap="round" stroke-linejoin="round" fill="none" stroke="#000000" d="M 426.23 73.44 L 426.23 77.99 "/>
<path transform="matrix(1,0,0,-1,0,360)" stroke-width=".38" stroke-linecap="round" stroke-linejoin="round" fill="none" stroke="#000000" d="M 428.2 73.44 L 428.2 77.99 "/>
<path transform="matrix(1,0,0,-1,0,360)" stroke-width=".38" stroke-linecap="round" stroke-linejoin="round" fill="none" stroke="#000000" d="M 428.2 73.44 L 428.2 77.99 "/>
<path transform="matrix(1,0,0,-1,0,360)" stroke-width=".38" stroke-linecap="round" stroke-linejoin="round" fill="none" stroke="#000000" d="M 429.91 73.44 L 429.91 77.99 "/>
<path transform="matrix(1,0,0,-1,0,360)" stroke-width=".38" stroke-linecap="round" stroke-linejoin="round" fill="none" stroke="#000000" d="M 431.7 73.44 L 431.7 77.99 "/>
<path transform="matrix(1,0,0,-1,0,360)" stroke-width=".75" stroke-linecap="round" stroke-linejoin="round" fill="none" stroke="#000000" d="M 90.34 73.44 L 90.34 73.44 "/>
<path transform="matrix(1,0,0,-1,0,360)" stroke-width=".75" stroke-linecap="round" stroke-linejoin="round" fill="none" stroke="#000000" d="M 90.34 73.44 L 90.34 66.24 "/>
<text xml:space="preserve" transform="matrix(1 0 -0 1 0 360)" font-size="12" font-family="LMRoman10"><tspan y="-47.52" x="87.34">9</tspan></text>
<path transform="matrix(1,0,0,-1,0,360)" stroke-width=".75" stroke-linecap="round" stroke-linejoin="round" fill="none" stroke="#000000" d="M 155.58 73.44 L 155.58 73.44 "/>
<path transform="matrix(1,0,0,-1,0,360)" stroke-width=".75" stroke-linecap="round" stroke-linejoin="round" fill="none" stroke="#000000" d="M 155.58 73.44 L 155.58 66.24 "/>
<text xml:space="preserve" transform="matrix(1 0 -0 1 0 360)" font-size="12" font-family="LMRoman10"><tspan y="-47.52" x="149.58 155.58">12</tspan></text>
<path transform="matrix(1,0,0,-1,0,360)" stroke-width=".75" stroke-linecap="round" stroke-linejoin="round" fill="none" stroke="#000000" d="M 218.01 73.44 L 218.01 73.44 "/>
<path transform="matrix(1,0,0,-1,0,360)" stroke-width=".75" stroke-linecap="round" stroke-linejoin="round" fill="none" stroke="#000000" d="M 218.01 73.44 L 218.01 66.24 "/>
<text xml:space="preserve" transform="matrix(1 0 -0 1 0 360)" font-size="12" font-family="LMRoman10"><tspan y="-47.52" x="212.01 218.01">13</tspan></text>
<path transform="matrix(1,0,0,-1,0,360)" stroke-width=".75" stroke-linecap="round" stroke-linejoin="round" fill="none" stroke="#000000" d="M 280.69 73.44 L 280.69 73.44 "/>
<path transform="matrix(1,0,0,-1,0,360)" stroke-width=".75" stroke-linecap="round" stroke-linejoin="round" fill="none" stroke="#000000" d="M 280.69 73.44 L 280.69 66.24 "/>
<text xml:space="preserve" transform="matrix(1 0 -0 1 0 360)" font-size="12" font-family="LMRoman10"><tspan y="-47.52" x="274.69 280.69">14</tspan></text>
<path transform="matrix(1,0,0,-1,0,360)" stroke-width=".75" stroke-linecap="round" stroke-linejoin="round" fill="none" stroke="#000000" d="M 354.57 73.44 L 354.57 73.44 "/>
<path transform="matrix(1,0,0,-1,0,360)" stroke-width=".75" stroke-linecap="round" stroke-linejoin="round" fill="none" stroke="#000000" d="M 354.57 73.44 L 354.57 66.24 "/>
<text xml:space="preserve" transform="matrix(1 0 -0 1 0 360)" font-size="12" font-family="LMRoman10"><tspan y="-47.52" x="348.57 354.57">15</tspan></text>
<path transform="matrix(1,0,0,-1,0,360)" stroke-width=".75" stroke-linecap="round" stroke-linejoin="round" fill="none" stroke="#000000" d="M 416 73.44 L 416 73.44 "/>
<path transform="matrix(1,0,0,-1,0,360)" stroke-width=".75" stroke-linecap="round" stroke-linejoin="round" fill="none" stroke="#000000" d="M 416 73.44 L 416 66.24 "/>
<text xml:space="preserve" transform="matrix(1 0 -0 1 0 360)" font-size="12" font-family="LMRoman10"><tspan y="-47.52" x="410 416">20</tspan></text>
<clipPath id="cp6">
<path transform="matrix(1,0,0,-1,0,360)" d="M 59.04 73.44 L 437.76 73.44 L 437.76 300.96003 L 59.04 300.96003 Z "/>
</clipPath>
<g clip-path="url(#cp6)">
<path transform="matrix(1,0,0,-1,0,360)" stroke-width=".75" stroke-linecap="round" stroke-linejoin="round" fill="none" stroke="#000000" d="M 59.04 300.96 L 160.98001 300.96 L 160.98001 228.95999 L 59.04 228.95999 Z "/>
<path transform="matrix(1,0,0,-1,0,360)" stroke-width=".75" stroke-linecap="round" stroke-linejoin="round" fill="none" stroke="#000000" d="M 69.84 286.56 L 91.44 286.56 "/>
<path transform="matrix(1,0,0,-1,0,360)" stroke-width=".75" stroke-linecap="round" stroke-dasharray="2.25,3.75" stroke-linejoin="round" fill="none" stroke="#000000" d="M 69.84 272.16 L 91.44 272.16 "/>
<path transform="matrix(1,0,0,-1,0,360)" stroke-width=".75" stroke-linecap="round" stroke-dasharray="0,3" stroke-linejoin="round" fill="none" stroke="#000000" d="M 69.84 257.76 L 91.44 257.76 "/>
<path transform="matrix(1,0,0,-1,0,360)" stroke-width=".75" stroke-linecap="round" stroke-dasharray="0,3,2.25,3" stroke-linejoin="round" fill="none" stroke="#000000" d="M 69.84 243.36 L 91.44 243.36 "/>
<text xml:space="preserve" transform="matrix(1 0 -0 1 0 360)" font-size="12" font-family="LMRoman10"><tspan y="-282.46" x="102.24 110.904 116.904 121.631999 130.29599 135.624 138.95999">Caswell</tspan></text>
<text xml:space="preserve" transform="matrix(1 0 -0 1 0 360)" font-size="12" font-family="LMRoman10"><tspan y="-268.06" x="102.24 110.904 114.24 120.24 126.576 131.244 137.244">Clayton</tspan></text>
<text xml:space="preserve" transform="matrix(1 0 -0 1 0 360)" font-size="12" font-family="LMRoman10"><tspan y="-253.66" x="102.24 110.904 116.904 126.9 133.572 136.908 143.58 148.908">Combined</tspan></text>
<text xml:space="preserve" transform="matrix(1 0 -0 1 0 360)" font-size="12" font-family="LMRoman10"><tspan y="-239.26" x="102.24 110.412 113.748 120.084 130.08 136.08 142.752 147.42">Plymouth</tspan></text>
<path transform="matrix(1,0,0,-1,0,360)" stroke-width="1.5" stroke-linecap="round" stroke-dasharray="4.5,7.5" stroke-linejoin="round" fill="none" stroke="#000000" d="M 65.1 83.04 L 66.6 83.91 L 67.53 84.46 L 69.95 88.63 L 70.48 89.09 L 72.38 90.71 L 74.8 92.55 L 77.23 138.24 L 79.65 140.74 L 80.16 140.68 L 81.34 140.52 L 82.08 140.43 L 82.39 140.16 L 83.66 139.06 L 84.5 138.33 L 85.12 137.83 L 86.93 136.36 L 88.67 136.4 L 89.35 136.41 L 89.75 136.05 L 91.17 134.75 L 91.78 134.2 L 92.38 125.95 L 93.95 104.49 L 94.2 101.04 L 96.63 100.89 L 98.13 95.26 L 99.05 91.82 L 101.48 81.87 L 103.9 82.17 L 106.32 82.68 L 108.67 83.06 L 108.75 83.07 L 111.17 90.25 L 113.6 100.42 L 114.11 101.34 L 115.58 103.99 "/>
<path transform="matrix(1,0,0,-1,0,360)" stroke-width="1.5" stroke-linecap="round" stroke-dasharray="4.5,7.5" stroke-linejoin="round" fill="none" stroke="#000000" d="M 127.7 83.93 L 129.09 83.18 L 130.13 82.62 L 130.46 82.89 L 132.55 84.6 L 134.98 87.52 L 137.4 91.15 L 139.83 94.61 L 142.25 97.29 L 143.05 103.77 L 143.89 110.59 L 144.68 116.97 L 146.99 118.21 L 147.1 118.27 L 148.48 113.08 L 149.53 109.16 L 151.95 106.38 L 154.38 101.34 L 156.8 95 L 159.23 89.35 L 159.75 92.85 L 160.93 100.64 L 161.65 105.45 L 162.83 108.31 L 164.08 111.31 L 164.27 111.02 L 166.5 107.68 L 168.32 100.24 L 168.92 97.76 L 170.79 95.81 L 171.35 95.23 L 171.59 94.89 L 172.41 93.77 L 173.77 91.9 L 176.2 96.82 L 178.62 99.43 L 181.02 98.61 L 181.05 98.61 L 182.21 98.45 L 183.46 98.27 "/>
<path transform="matrix(1,0,0,-1,0,360)" stroke-width="1.5" stroke-linecap="round" stroke-dasharray="4.5,7.5" stroke-linejoin="round" fill="none" stroke="#000000" d="M 195.59 93.49 L 196.68 92.8 L 197.72 92.14 L 198.01 91.96 L 200.44 90.94 L 202.17 87.24 L 202.86 85.76 L 204.76 82.71 L 205.29 81.87 L 207.71 84.21 L 208.36 84.28 L 209.84 84.43 L 210.14 84.46 L 212.56 84.16 L 214.99 83.61 L 217.41 82.97 L 219.84 82.43 L 220.93 82.55 L 222.26 82.7 L 222.4 82.68 L 223.56 82.55 L 224.65 82.44 L 224.69 82.43 L 227.11 82.47 L 229.53 82.46 L 231.96 82.36 L 234.38 82.2 L 236.81 82.06 L 238.89 82.02 L 239.23 82.01 L 240.43 85.81 "/>
<path transform="matrix(1,0,0,-1,0,360)" stroke-width="1.5" stroke-linecap="round" stroke-dasharray="4.5,7.5" stroke-linejoin="round" fill="none" stroke="#000000" d="M 252.55 91.54 L 252.55 91.54 L 254.18 93.59 L 254.98 94.59 L 257.07 92.91 L 257.4 92.65 L 258.31 91.53 L 259.43 90.16 L 259.83 89.67 L 260.76 89.95 L 262.25 90.4 L 262.92 89.75 L 264.25 88.46 L 264.68 88.05 L 265.61 86.25 L 267.1 83.38 L 268.9 82.26 L 269.53 81.87 L 270.56 81.94 L 271.95 82.02 L 272.04 82.02 L 273.13 81.95 L 274.38 81.87 L 275.58 82.65 L 276.8 83.43 L 277.32 83.47 L 278.36 83.54 L 279.23 83.61 L 281.65 86.08 L 281.9 86.29 L 282.79 87.01 L 283.74 87.79 L 284.07 88.07 L 284.65 88.65 L 286.21 90.24 L 286.5 90.54 L 288.92 93.13 L 290.13 92.17 L 291.32 91.21 L 291.35 91.19 L 292.36 90.54 L 293.77 89.63 L 294.67 88.85 L 295.98 87.71 L 296.2 87.52 L 297.45 87.29 L 298.62 87.07 L 298.94 87.38 L 300.31 88.71 L 301.05 89.43 L 302.21 89.98 L 303.47 90.59 L 303.5 90.54 L 305.9 86.42 L 307.77 84.57 L 308.32 84.02 L 308.83 84.09 "/>
<path transform="matrix(1,0,0,-1,0,360)" stroke-width="1.5" stroke-linecap="round" stroke-dasharray="4.5,7.5" stroke-linejoin="round" fill="none" stroke="#000000" d="M 320.96 103.5 L 323.38 111.77 L 324.33 106.26 L 325.81 97.69 L 326.33 95.01 L 327.81 87.44 L 328.23 85.26 L 329.3 84.69 L 330.66 83.96 L 333.08 82.04 L 333.71 82 L 335.3 81.89 L 335.51 81.88 L 337.28 82.33 L 337.93 82.5 L 338.93 82.68 L 340.36 82.94 L 340.8 83.47 L 342.78 85.84 L 343.05 85.99 L 345.21 87.18 L 347.63 88.99 L 350.06 91.79 L 352.48 95.65 L 354.91 99.56 L 357.33 113.26 L 359.76 116.04 L 360.89 115.94 L 362.18 115.83 L 362.55 116.51 L 364.16 119.47 L 364.61 120.29 L 365.85 134.81 L 367.03 148.6 L 367.66 151.84 L 369.46 160.98 L 370.12 170.1 L 371.88 194.02 L 372.96 199.4 L 374.31 206.05 L 374.59 205.53 L 376.73 201.7 L 379.15 187.99 L 381.58 100.58 L 384 90.36 L 385.69 86.29 L 386.43 84.5 L 387 84.96 L 388.18 85.91 "/>
<path transform="matrix(1,0,0,-1,0,360)" stroke-width="1.5" stroke-linecap="round" stroke-dasharray="4.5,7.5" stroke-linejoin="round" fill="none" stroke="#000000" d="M 400.31 91.9 L 401.44 89.83 L 402.73 87.46 L 402.76 87.53 L 404.06 90.57 L 405.16 93.12 L 405.49 93.17 L 406.99 93.37 L 407.58 93.45 L 410.01 96.33 L 412.43 96.85 L 412.52 96.91 L 414.04 97.85 L 414.86 98.35 L 416.7 97.1 L 417.28 96.71 L 418.22 100.98 L 419.71 107.71 L 420.51 108.84 L 422.13 111.11 L 422.66 109.86 L 424.28 106.02 L 424.56 105.35 L 426.23 101.57 L 426.98 99.88 L 428.2 99.38 L 429.41 98.88 L 429.91 99.59 L 431.7 102.13 "/>
<path transform="matrix(1,0,0,-1,0,360)" stroke-width=".75" stroke-linecap="round" stroke-linejoin="round" fill="none" stroke="#000000" d="M 59.04 300.96 L 160.98001 300.96 L 160.98001 228.95999 L 59.04 228.95999 Z "/>
<path transform="matrix(1,0,0,-1,0,360)" stroke-width=".75" stroke-linecap="round" stroke-linejoin="round" fill="none" stroke="#000000" d="M 69.84 286.56 L 91.44 286.56 "/>
<path transform="matrix(1,0,0,-1,0,360)" stroke-width=".75" stroke-linecap="round" stroke-dasharray="2.25,3.75" stroke-linejoin="round" fill="none" stroke="#000000" d="M 69.84 272.16 L 91.44 272.16 "/>
<path transform="matrix(1,0,0,-1,0,360)" stroke-width=".75" stroke-linecap="round" stroke-dasharray="0,3" stroke-linejoin="round" fill="none" stroke="#000000" d="M 69.84 257.76 L 91.44 257.76 "/>
<path transform="matrix(1,0,0,-1,0,360)" stroke-width=".75" stroke-linecap="round" stroke-dasharray="0,3,2.25,3" stroke-linejoin="round" fill="none" stroke="#000000" d="M 69.84 243.36 L 91.44 243.36 "/>
<text xml:space="preserve" transform="matrix(1 0 -0 1 0 360)" font-size="12" font-family="LMRoman10"><tspan y="-282.46" x="102.24 110.904 116.904 121.631999 130.29599 135.624 138.95999">Caswell</tspan></text>
<text xml:space="preserve" transform="matrix(1 0 -0 1 0 360)" font-size="12" font-family="LMRoman10"><tspan y="-268.06" x="102.24 110.904 114.24 120.24 126.576 131.244 137.244">Clayton</tspan></text>
<text xml:space="preserve" transform="matrix(1 0 -0 1 0 360)" font-size="12" font-family="LMRoman10"><tspan y="-253.66" x="102.24 110.904 116.904 126.9 133.572 136.908 143.58 148.908">Combined</tspan></text>
<text xml:space="preserve" transform="matrix(1 0 -0 1 0 360)" font-size="12" font-family="LMRoman10"><tspan y="-239.26" x="102.24 110.412 113.748 120.084 130.08 136.08 142.752 147.42">Plymouth</tspan></text>
<path transform="matrix(1,0,0,-1,0,360)" stroke-width="1.5" stroke-linecap="round" stroke-dasharray="0,6" stroke-linejoin="round" fill="none" stroke="#000000" d="M 65.1 82.22 L 66.6 82.02 L 67.53 81.9 L 69.95 124.47 L 70.48 131.79 L 72.38 157.84 L 74.8 190.01 L 77.23 206.82 L 79.65 208.68 L 80.16 206 L 81.34 199.75 L 82.08 195.88 L 82.39 194.66 L 83.66 189.74 L 84.5 186.46 L 85.12 182.8 L 86.93 172.19 L 88.67 167.62 L 89.35 165.83 L 89.75 163.07 L 91.17 153.09 L 91.78 148.9 L 92.38 132.29 L 93.95 89.1 L 94.2 82.14 L 96.63 101.07 L 98.13 108.42 L 99.05 112.92 L 101.48 107.31 L 103.9 92.1 L 106.32 82.44 L 108.67 82.49 L 108.75 82.49 L 111.17 91.12 L 113.6 105.26 L 114.11 108.21 L 115.58 116.77 "/>
<path transform="matrix(1,0,0,-1,0,360)" stroke-width="1.5" stroke-linecap="round" stroke-dasharray="0,6" stroke-linejoin="round" fill="none" stroke="#000000" d="M 127.7 108.31 L 129.09 101.66 L 130.13 96.65 L 130.46 97.06 L 132.55 99.64 L 134.98 101.31 L 137.4 101.56 L 139.83 100.29 L 142.25 98.02 L 143.05 107.15 L 143.89 116.76 L 144.68 125.74 L 146.99 118.29 L 147.1 117.94 L 148.48 112.81 L 149.53 108.94 L 151.95 106.73 L 154.38 101.33 L 156.8 93.92 L 159.23 87.7 L 159.75 88.94 L 160.93 91.69 L 161.65 93.39 L 162.83 95.11 L 164.08 96.92 L 164.27 96.66 L 166.5 93.68 L 168.32 89.38 L 168.92 87.95 L 170.79 86.39 L 171.35 85.92 L 171.59 85.98 L 172.41 86.19 L 173.77 86.54 L 176.2 89.85 L 178.62 92.11 L 181.02 92.26 L 181.05 92.26 L 182.21 94.87 L 183.46 97.71 "/>
<path transform="matrix(1,0,0,-1,0,360)" stroke-width="1.5" stroke-linecap="round" stroke-dasharray="0,6" stroke-linejoin="round" fill="none" stroke="#000000" d="M 195.59 89.51 L 196.68 91.7 L 197.72 93.8 L 198.01 94.38 L 200.44 107.55 L 202.17 103.71 L 202.86 102.18 L 204.76 88.03 L 205.29 84.13 L 207.71 87.22 L 208.36 87.53 L 209.84 88.23 L 210.14 88.37 L 212.56 85.57 L 214.99 83.02 L 217.41 81.88 L 219.84 82.41 L 220.93 82.23 L 222.26 82.01 L 222.4 82 L 223.56 81.95 L 224.65 81.89 L 224.69 81.89 L 227.11 82.1 L 229.53 83.82 L 231.96 87.46 L 234.38 90.92 L 236.81 92.49 L 238.89 98.91 L 239.23 99.98 L 240.43 114.59 "/>
<path transform="matrix(1,0,0,-1,0,360)" stroke-width="1.5" stroke-linecap="round" stroke-dasharray="0,6" stroke-linejoin="round" fill="none" stroke="#000000" d="M 252.55 86.16 L 252.55 86.16 L 254.18 85.32 L 254.98 84.91 L 257.07 86.71 L 257.4 86.99 L 258.31 88.63 L 259.43 90.64 L 259.83 91.36 L 260.76 93.04 L 262.25 95.69 L 262.92 96.78 L 264.25 98.93 L 264.68 99.62 L 265.61 105.22 L 267.1 114.12 L 268.9 119.4 L 269.53 121.26 L 270.56 114.75 L 271.95 106.01 L 272.04 106.11 L 273.13 107.23 L 274.38 108.51 L 275.58 101.39 L 276.8 94.22 L 277.32 94.03 L 278.36 93.63 L 279.23 93.3 L 281.65 84.77 L 281.9 84.52 L 282.79 83.64 L 283.74 82.69 L 284.07 82.35 L 284.65 82.29 L 286.21 82.11 L 286.5 82.07 L 288.92 81.91 L 290.13 82.07 L 291.32 82.24 L 291.35 82.25 L 292.36 82.18 L 293.77 82.09 L 294.67 82.21 L 295.98 82.38 L 296.2 82.41 L 297.45 82.55 L 298.62 82.69 L 298.94 82.6 L 300.31 82.22 L 301.05 82.01 L 302.21 81.98 L 303.47 81.94 L 303.5 81.94 L 305.9 81.9 L 307.77 82.52 L 308.32 82.7 L 308.83 83.1 "/>
<path transform="matrix(1,0,0,-1,0,360)" stroke-width="1.5" stroke-linecap="round" stroke-dasharray="0,6" stroke-linejoin="round" fill="none" stroke="#000000" d="M 320.96 158.9 L 323.38 151.69 L 324.33 134.17 L 325.81 106.95 L 326.33 102.98 L 327.81 91.81 L 328.23 88.58 L 329.3 86.58 L 330.66 84.03 L 333.08 101.56 L 333.71 101.79 L 335.3 102.36 L 335.51 102.43 L 337.28 106.32 L 337.93 107.74 L 338.93 105.56 L 340.36 102.46 L 340.8 104.94 L 342.78 115.88 L 343.05 116.37 L 345.21 120.35 L 347.63 125.81 L 350.06 129.62 L 352.48 130.47 L 354.91 127.48 L 357.33 119.62 L 359.76 101.01 L 360.89 101.96 L 362.18 103.04 L 362.55 104.69 L 364.16 111.9 L 364.61 113.89 L 365.85 129.65 L 367.03 144.62 L 367.66 146.53 L 369.46 151.89 L 370.12 157.82 L 371.88 173.35 L 372.96 179.25 L 374.31 186.55 L 374.59 185.79 L 376.73 180.15 L 379.15 163.43 L 381.58 139.17 L 384 82.46 L 385.69 82.2 L 386.43 82.09 L 387 82.04 L 388.18 81.96 "/>
<path transform="matrix(1,0,0,-1,0,360)" stroke-width="1.5" stroke-linecap="round" stroke-dasharray="0,6" stroke-linejoin="round" fill="none" stroke="#000000" d="M 400.31 88.6 L 401.44 90.34 L 402.73 92.32 L 402.76 92.28 L 404.06 90.4 L 405.16 88.82 L 405.49 96.14 L 406.99 128.78 L 407.58 141.64 L 410.01 172.7 L 412.43 190.09 L 412.52 190.8 L 414.04 202.78 L 414.86 209.22 L 416.7 223.12 L 417.28 227.56 L 418.22 239.16 L 419.71 257.42 L 420.51 251.65 L 422.13 239.98 L 422.66 235.17 L 424.28 220.46 L 424.56 217.93 L 426.23 201.64 L 426.98 194.39 L 428.2 192.92 L 429.41 191.48 L 429.91 169.01 L 431.7 89.27 "/>
<path transform="matrix(1,0,0,-1,0,360)" stroke-width=".75" stroke-linecap="round" stroke-linejoin="round" fill="none" stroke="#000000" d="M 59.04 300.96 L 160.98001 300.96 L 160.98001 228.95999 L 59.04 228.95999 Z "/>
<path transform="matrix(1,0,0,-1,0,360)" stroke-width=".75" stroke-linecap="round" stroke-linejoin="round" fill="none" stroke="#000000" d="M 69.84 286.56 L 91.44 286.56 "/>
<path transform="matrix(1,0,0,-1,0,360)" stroke-width=".75" stroke-linecap="round" stroke-dasharray="2.25,3.75" stroke-linejoin="round" fill="none" stroke="#000000" d="M 69.84 272.16 L 91.44 272.16 "/>
<path transform="matrix(1,0,0,-1,0,360)" stroke-width=".75" stroke-linecap="round" stroke-dasharray="0,3" stroke-linejoin="round" fill="none" stroke="#000000" d="M 69.84 257.76 L 91.44 257.76 "/>
<path transform="matrix(1,0,0,-1,0,360)" stroke-width=".75" stroke-linecap="round" stroke-dasharray="0,3,2.25,3" stroke-linejoin="round" fill="none" stroke="#000000" d="M 69.84 243.36 L 91.44 243.36 "/>
<text xml:space="preserve" transform="matrix(1 0 -0 1 0 360)" font-size="12" font-family="LMRoman10"><tspan y="-282.46" x="102.24 110.904 116.904 121.631999 130.29599 135.624 138.95999">Caswell</tspan></text>
<text xml:space="preserve" transform="matrix(1 0 -0 1 0 360)" font-size="12" font-family="LMRoman10"><tspan y="-268.06" x="102.24 110.904 114.24 120.24 126.576 131.244 137.244">Clayton</tspan></text>
<text xml:space="preserve" transform="matrix(1 0 -0 1 0 360)" font-size="12" font-family="LMRoman10"><tspan y="-253.66" x="102.24 110.904 116.904 126.9 133.572 136.908 143.58 148.908">Combined</tspan></text>
<text xml:space="preserve" transform="matrix(1 0 -0 1 0 360)" font-size="12" font-family="LMRoman10"><tspan y="-239.26" x="102.24 110.412 113.748 120.084 130.08 136.08 142.752 147.42">Plymouth</tspan></text>
<path transform="matrix(1,0,0,-1,0,360)" stroke-width="1.5" stroke-linecap="round" stroke-dasharray="0,6,4.5,6" stroke-linejoin="round" fill="none" stroke="#000000" d="M 65.1 90.17 L 66.6 92.1 L 67.53 93.3 L 69.95 98.42 L 70.48 99.47 L 72.38 103.22 L 74.8 108.4 L 77.23 110.38 L 79.65 108.88 L 80.16 108.01 L 81.34 105.98 L 82.08 104.73 L 82.39 105.26 L 83.66 107.41 L 84.5 108.83 L 85.12 111.02 L 86.93 117.37 L 88.67 117.78 L 89.35 117.94 L 89.75 116.73 L 91.17 112.34 L 91.78 110.49 L 92.38 108.35 L 93.95 102.79 L 94.2 101.89 L 96.63 114.26 L 98.13 111.96 L 99.05 110.55 L 101.48 102.07 L 103.9 91.56 L 106.32 84.07 L 108.67 81.96 L 108.75 81.89 L 111.17 81.98 L 113.6 82.44 L 114.11 82.98 L 115.58 84.54 "/>
<path transform="matrix(1,0,0,-1,0,360)" stroke-width="1.5" stroke-linecap="round" stroke-dasharray="0,6,4.5,6" stroke-linejoin="round" fill="none" stroke="#000000" d="M 127.7 90 L 129.09 90.07 L 130.13 90.13 L 130.46 90.39 L 132.55 92.05 L 134.98 92.77 L 137.4 92.61 L 139.83 91.54 L 142.25 90 L 143.05 95.06 L 143.89 100.39 L 144.68 105.36 L 146.99 98.7 L 147.1 98.38 L 148.48 96.09 L 149.53 94.36 L 151.95 94.98 L 154.38 94.03 L 156.8 91.59 L 159.23 88.72 L 159.75 88.91 L 160.93 89.32 L 161.65 89.57 L 162.83 90.45 L 164.08 91.37 L 164.27 91.14 L 166.5 88.55 L 168.32 86.33 L 168.92 85.59 L 170.79 85.87 L 171.35 85.96 L 171.59 86.09 L 172.41 86.56 L 173.77 87.33 L 176.2 91.79 L 178.62 95.72 L 181.02 97.35 L 181.05 97.37 L 182.21 98.11 L 183.46 98.91 "/>
<path transform="matrix(1,0,0,-1,0,360)" stroke-width="1.5" stroke-linecap="round" stroke-dasharray="0,6,4.5,6" stroke-linejoin="round" fill="none" stroke="#000000" d="M 195.59 82.23 L 196.68 82.09 L 197.72 81.95 L 198.01 81.91 L 200.44 82.88 L 202.17 82.58 L 202.86 82.46 L 204.76 83.97 L 205.29 84.38 L 207.71 82.36 L 208.36 82.58 L 209.84 83.09 L 210.14 83.19 L 212.56 82.45 L 214.99 81.95 L 217.41 81.91 L 219.84 82.29 L 220.93 82.19 L 222.26 82.06 L 222.4 82.09 L 223.56 82.33 L 224.65 82.57 L 224.69 82.57 L 227.11 82.34 L 229.53 82.08 L 231.96 81.9 L 234.38 81.87 L 236.81 81.97 L 238.89 82.66 L 239.23 82.77 L 240.43 85.17 "/>
<path transform="matrix(1,0,0,-1,0,360)" stroke-width="1.5" stroke-linecap="round" stroke-dasharray="0,6,4.5,6" stroke-linejoin="round" fill="none" stroke="#000000" d="M 252.55 91.85 L 252.55 91.85 L 254.18 92.27 L 254.98 92.48 L 257.07 173.07 L 257.4 185.66 L 258.31 190.99 L 259.43 197.48 L 259.83 199.82 L 260.76 202.43 L 262.25 206.57 L 262.92 205.85 L 264.25 204.44 L 264.68 203.99 L 265.61 200.92 L 267.1 196.07 L 268.9 185.01 L 269.53 181.12 L 270.56 169 L 271.95 152.71 L 272.04 152.33 L 273.13 147.92 L 274.38 142.86 L 275.58 135.95 L 276.8 129.01 L 277.32 127.73 L 278.36 125.17 L 279.23 123.03 L 281.65 85.98 L 281.9 86.35 L 282.79 87.69 L 283.74 89.12 L 284.07 89.63 L 284.65 92.69 L 286.21 101.02 L 286.5 102.57 L 288.92 96.53 L 290.13 93.01 L 291.32 89.53 L 291.35 89.45 L 292.36 87.01 L 293.77 83.63 L 294.67 83.42 L 295.98 83.12 L 296.2 83.07 L 297.45 82.64 L 298.62 82.24 L 298.94 82.2 L 300.31 82.03 L 301.05 81.94 L 302.21 81.95 L 303.47 81.96 L 303.5 81.96 L 305.9 81.97 L 307.77 82.29 L 308.32 82.38 L 308.83 82.36 "/>
<path transform="matrix(1,0,0,-1,0,360)" stroke-width="1.5" stroke-linecap="round" stroke-dasharray="0,6,4.5,6" stroke-linejoin="round" fill="none" stroke="#000000" d="M 320.96 121.54 L 323.38 121.1 L 324.33 109.54 L 325.81 91.56 L 326.33 90.21 L 327.81 86.42 L 328.23 85.32 L 329.3 84.4 L 330.66 83.23 L 333.08 81.92 L 333.71 81.92 L 335.3 81.9 L 335.51 81.9 L 337.28 82.82 L 337.93 83.16 L 338.93 82.62 L 340.36 81.87 L 340.8 81.87 L 342.78 81.89 L 343.05 81.89 L 345.21 81.91 L 347.63 82.49 L 350.06 83.94 L 352.48 86.23 L 354.91 88.87 L 357.33 91.29 L 359.76 93.16 L 360.89 93.65 L 362.18 94.21 L 362.55 94.88 L 364.16 97.81 L 364.61 98.62 L 365.85 105.12 L 367.03 111.29 L 367.66 111.71 L 369.46 112.89 L 370.12 111.99 L 371.88 109.63 L 372.96 109.33 L 374.31 108.96 L 374.59 108.74 L 376.73 107.13 L 379.15 103.2 L 381.58 97.89 L 384 92.4 L 385.69 88.58 L 386.43 86.91 L 387 87.48 L 388.18 88.65 "/>
<path transform="matrix(1,0,0,-1,0,360)" stroke-width="1.5" stroke-linecap="round" stroke-dasharray="0,6,4.5,6" stroke-linejoin="round" fill="none" stroke="#000000" d="M 400.31 82.92 L 401.44 83.14 L 402.73 83.38 L 402.76 83.38 L 404.06 83.19 L 405.16 83.02 L 405.49 82.87 L 406.99 82.15 L 407.58 81.87 L 410.01 136.37 L 412.43 144.87 L 412.52 145.09 L 414.04 148.94 L 414.86 151.01 L 416.7 158.54 L 417.28 160.94 L 418.22 164.2 L 419.71 169.34 L 420.51 168.54 L 422.13 166.94 L 422.66 163.85 L 424.28 154.44 L 424.56 152.81 L 426.23 141.38 L 426.98 136.29 L 428.2 131.89 L 429.41 127.54 L 429.91 127.34 L 431.7 126.61 "/>
<path transform="matrix(1,0,0,-1,0,360)" stroke-width=".75" stroke-linecap="round" stroke-linejoin="round" fill="none" stroke="#000000" d="M 59.04 300.96 L 160.98001 300.96 L 160.98001 228.95999 L 59.04 228.95999 Z "/>
<path transform="matrix(1,0,0,-1,0,360)" stroke-width=".75" stroke-linecap="round" stroke-linejoin="round" fill="none" stroke="#000000" d="M 69.84 286.56 L 91.44 286.56 "/>
<path transform="matrix(1,0,0,-1,0,360)" stroke-width=".75" stroke-linecap="round" stroke-dasharray="2.25,3.75" stroke-linejoin="round" fill="none" stroke="#000000" d="M 69.84 272.16 L 91.44 272.16 "/>
<path transform="matrix(1,0,0,-1,0,360)" stroke-width=".75" stroke-linecap="round" stroke-dasharray="0,3" stroke-linejoin="round" fill="none" stroke="#000000" d="M 69.84 257.76 L 91.44 257.76 "/>
<path transform="matrix(1,0,0,-1,0,360)" stroke-width=".75" stroke-linecap="round" stroke-dasharray="0,3,2.25,3" stroke-linejoin="round" fill="none" stroke="#000000" d="M 69.84 243.36 L 91.44 243.36 "/>
<text xml:space="preserve" transform="matrix(1 0 -0 1 0 360)" font-size="12" font-family="LMRoman10"><tspan y="-282.46" x="102.24 110.904 116.904 121.631999 130.29599 135.624 138.95999">Caswell</tspan></text>
<text xml:space="preserve" transform="matrix(1 0 -0 1 0 360)" font-size="12" font-family="LMRoman10"><tspan y="-268.06" x="102.24 110.904 114.24 120.24 126.576 131.244 137.244">Clayton</tspan></text>
<text xml:space="preserve" transform="matrix(1 0 -0 1 0 360)" font-size="12" font-family="LMRoman10"><tspan y="-253.66" x="102.24 110.904 116.904 126.9 133.572 136.908 143.58 148.908">Combined</tspan></text>
<text xml:space="preserve" transform="matrix(1 0 -0 1 0 360)" font-size="12" font-family="LMRoman10"><tspan y="-239.26" x="102.24 110.412 113.748 120.084 130.08 136.08 142.752 147.42">Plymouth</tspan></text>
</g>
</g>
</svg>
