<?xml version="1.0" encoding="UTF-8" standalone="no"?>
<!DOCTYPE svg PUBLIC "-//W3C//DTD SVG 1.1//EN" "http://www.w3.org/Graphics/SVG/1.1/DTD/svg11.dtd">
<svg xmlns="http://www.w3.org/2000/svg" xmlns:xlink="http://www.w3.org/1999/xlink" version="1.1" width="468pt" height="360pt" viewBox="0 0 468 360">
<g enable-background="new">
<path transform="matrix(1,0,0,-1,0,360)" stroke-width=".75" stroke-linecap="round" stroke-linejoin="round" fill="none" stroke="#000000" d="M 59.04 81.87 L 59.04 252.81 "/>
<path transform="matrix(1,0,0,-1,0,360)" stroke-width=".75" stroke-linecap="round" stroke-linejoin="round" fill="none" stroke="#000000" d="M 59.04 81.87 L 51.84 81.87 "/>
<path transform="matrix(1,0,0,-1,0,360)" stroke-width=".75" stroke-linecap="round" stroke-linejoin="round" fill="none" stroke="#000000" d="M 59.04 138.85 L 51.84 138.85 "/>
<path transform="matrix(1,0,0,-1,0,360)" stroke-width=".75" stroke-linecap="round" stroke-linejoin="round" fill="none" stroke="#000000" d="M 59.04 195.83 L 51.84 195.83 "/>
<path transform="matrix(1,0,0,-1,0,360)" stroke-width=".75" stroke-linecap="round" stroke-linejoin="round" fill="none" stroke="#000000" d="M 59.04 252.81 L 51.84 252.81 "/>
<text xml:space="preserve" transform="matrix(1 0 -0 1 0 360)" font-size="12" font-family="LMRoman10"><tspan y="-77.77" x="38.64">0</tspan></text>
<text xml:space="preserve" transform="matrix(1 0 -0 1 0 360)" font-size="12" font-family="LMRoman10"><tspan y="-134.75" x="38.64">2</tspan></text>
<text xml:space="preserve" transform="matrix(1 0 -0 1 0 360)" font-size="12" font-family="LMRoman10"><tspan y="-191.73" x="38.64">4</tspan></text>
<text xml:space="preserve" transform="matrix(1 0 -0 1 0 360)" font-size="12" font-family="LMRoman10"><tspan y="-248.71" x="38.64">6</tspan></text>
<path transform="matrix(1,0,0,-1,0,360)" stroke-width=".75" stroke-linecap="round" stroke-linejoin="round" fill="none" stroke="#000000" d="M 59.04 73.44 L 437.76 73.44 L 437.76 300.96 L 59.04 300.96 L 59.04 73.44 "/>
<text xml:space="preserve" transform="matrix(1 0 -0 1 0 360)" font-size="14" font-family="LMRoman10" font-weight="bold"><tspan y="-325.68" x="195.16 206.164 214.214 223.16 232.106 236.572 244.39801 250.656 255.12201 263.172 272.118 277.48 285.53 293.58">Population 202</tspan></text>
<text xml:space="preserve" transform="matrix(1 0 -0 1 0 360)" font-size="12" font-family="LMRoman10"><tspan y="-18.72" x="214.36 223.024 229.696 234.4 240.4 250.396 256.396 261.124 267.124 277.12">Chromosome</tspan></text>
<text xml:space="preserve" transform="matrix(0 -1 1 0 0 360)" font-size="12" font-family="LMRoman10"><tspan y="12.96" x="152.11 159.61 168.946 178.114 181.45 185.446 192.118 201.286 213.622">LOD: SDWT</tspan></text>
<clipPath id="cp0">
<path transform="matrix(1,0,0,-1,0,360)" d="M 59.04 73.44 L 437.76 73.44 L 437.76 300.96003 L 59.04 300.96003 Z "/>
</clipPath>
<g clip-path="url(#cp0)">
<path transform="matrix(1,0,0,-1,0,360)" stroke-width="1.5" stroke-linecap="round" stroke-linejoin="round" fill="none" stroke="#000000" d="M 65.14 118.87 L 67.58 108.88 L 69.91 92.69 L 70.03 91.88 L 72.47 98.35 L 73.73 98.79 L 74.91 99.21 L 77.35 97.92 L 78.06 99.47 L 79.76 103.13 L 79.79 103.2 L 82.23 113.47 L 84.55 111.35 L 84.67 111.24 L 87.11 109.51 L 88.7 105.93 L 89.55 103.99 L 92 97.8 L 92.65 95.59 L 94.44 89.53 L 96.88 82.82 L 97.78 82.52 L 98.86 82.17 L 99.32 82.02 L 99.94 82.61 L 101.46 84.05 L 101.76 84.33 L 102.45 84.2 "/>
</g>
<path transform="matrix(1,0,0,-1,0,360)" stroke-width=".38" stroke-linecap="round" stroke-linejoin="round" fill="none" stroke="#000000" d="M 65.14 73.44 L 65.14 77.99 "/>
<path transform="matrix(1,0,0,-1,0,360)" stroke-width=".38" stroke-linecap="round" stroke-linejoin="round" fill="none" stroke="#000000" d="M 69.91 73.44 L 69.91 77.99 "/>
<path transform="matrix(1,0,0,-1,0,360)" stroke-width=".38" stroke-linecap="round" stroke-linejoin="round" fill="none" stroke="#000000" d="M 73.73 73.44 L 73.73 77.99 "/>
<path transform="matrix(1,0,0,-1,0,360)" stroke-width=".38" stroke-linecap="round" stroke-linejoin="round" fill="none" stroke="#000000" d="M 73.73 73.44 L 73.73 77.99 "/>
<path transform="matrix(1,0,0,-1,0,360)" stroke-width=".38" stroke-linecap="round" stroke-linejoin="round" fill="none" stroke="#000000" d="M 78.06 73.44 L 78.06 77.99 "/>
<path transform="matrix(1,0,0,-1,0,360)" stroke-width=".38" stroke-linecap="round" stroke-linejoin="round" fill="none" stroke="#000000" d="M 79.76 73.44 L 79.76 77.99 "/>
<path transform="matrix(1,0,0,-1,0,360)" stroke-width=".38" stroke-linecap="round" stroke-linejoin="round" fill="none" stroke="#000000" d="M 84.55 73.44 L 84.55 77.99 "/>
<path transform="matrix(1,0,0,-1,0,360)" stroke-width=".38" stroke-linecap="round" stroke-linejoin="round" fill="none" stroke="#000000" d="M 88.7 73.44 L 88.7 77.99 "/>
<path transform="matrix(1,0,0,-1,0,360)" stroke-width=".38" stroke-linecap="round" stroke-linejoin="round" fill="none" stroke="#000000" d="M 92.65 73.44 L 92.65 77.99 "/>
<path transform="matrix(1,0,0,-1,0,360)" stroke-width=".38" stroke-linecap="round" stroke-linejoin="round" fill="none" stroke="#000000" d="M 97.78 73.44 L 97.78 77.99 "/>
<path transform="matrix(1,0,0,-1,0,360)" stroke-width=".38" stroke-linecap="round" stroke-linejoin="round" fill="none" stroke="#000000" d="M 98.86 73.44 L 98.86 77.99 "/>
<path transform="matrix(1,0,0,-1,0,360)" stroke-width=".38" stroke-linecap="round" stroke-linejoin="round" fill="none" stroke="#000000" d="M 99.94 73.44 L 99.94 77.99 "/>
<path transform="matrix(1,0,0,-1,0,360)" stroke-width=".38" stroke-linecap="round" stroke-linejoin="round" fill="none" stroke="#000000" d="M 101.46 73.44 L 101.46 77.99 "/>
<path transform="matrix(1,0,0,-1,0,360)" stroke-width=".38" stroke-linecap="round" stroke-linejoin="round" fill="none" stroke="#000000" d="M 102.45 73.44 L 102.45 77.99 "/>
<clipPath id="cp1">
<path transform="matrix(1,0,0,-1,0,360)" d="M 59.04 73.44 L 437.76 73.44 L 437.76 300.96003 L 59.04 300.96003 Z "/>
</clipPath>
<g clip-path="url(#cp1)">
<path transform="matrix(1,0,0,-1,0,360)" stroke-width="1.5" stroke-linecap="round" stroke-linejoin="round" fill="none" stroke="#000000" d="M 114.65 82.08 L 115.79 81.98 L 116.83 81.9 L 117.1 81.87 L 119.54 81.88 L 121.98 81.97 L 124.42 82.22 L 126.86 82.61 L 129.3 82.99 L 131.74 83.24 L 133.39 82.32 L 134.18 81.87 L 135.05 82.39 L 136.62 83.33 L 139.07 161 L 141.51 171.83 L 143.95 171.7 L 143.95 171.72 L 145.23 176.09 L 146.39 180.09 L 146.69 180.12 L 148.06 180.23 L 148.83 180.29 L 149.53 176.2 L 151.04 167.44 "/>
</g>
<path transform="matrix(1,0,0,-1,0,360)" stroke-width=".38" stroke-linecap="round" stroke-linejoin="round" fill="none" stroke="#000000" d="M 114.65 73.44 L 114.65 77.99 "/>
<path transform="matrix(1,0,0,-1,0,360)" stroke-width=".38" stroke-linecap="round" stroke-linejoin="round" fill="none" stroke="#000000" d="M 115.79 73.44 L 115.79 77.99 "/>
<path transform="matrix(1,0,0,-1,0,360)" stroke-width=".38" stroke-linecap="round" stroke-linejoin="round" fill="none" stroke="#000000" d="M 116.83 73.44 L 116.83 77.99 "/>
<path transform="matrix(1,0,0,-1,0,360)" stroke-width=".38" stroke-linecap="round" stroke-linejoin="round" fill="none" stroke="#000000" d="M 133.39 73.44 L 133.39 77.99 "/>
<path transform="matrix(1,0,0,-1,0,360)" stroke-width=".38" stroke-linecap="round" stroke-linejoin="round" fill="none" stroke="#000000" d="M 135.05 73.44 L 135.05 77.99 "/>
<path transform="matrix(1,0,0,-1,0,360)" stroke-width=".38" stroke-linecap="round" stroke-linejoin="round" fill="none" stroke="#000000" d="M 143.95 73.44 L 143.95 77.99 "/>
<path transform="matrix(1,0,0,-1,0,360)" stroke-width=".38" stroke-linecap="round" stroke-linejoin="round" fill="none" stroke="#000000" d="M 145.23 73.44 L 145.23 77.99 "/>
<path transform="matrix(1,0,0,-1,0,360)" stroke-width=".38" stroke-linecap="round" stroke-linejoin="round" fill="none" stroke="#000000" d="M 146.69 73.44 L 146.69 77.99 "/>
<path transform="matrix(1,0,0,-1,0,360)" stroke-width=".38" stroke-linecap="round" stroke-linejoin="round" fill="none" stroke="#000000" d="M 148.06 73.44 L 148.06 77.99 "/>
<path transform="matrix(1,0,0,-1,0,360)" stroke-width=".38" stroke-linecap="round" stroke-linejoin="round" fill="none" stroke="#000000" d="M 149.53 73.44 L 149.53 77.99 "/>
<path transform="matrix(1,0,0,-1,0,360)" stroke-width=".38" stroke-linecap="round" stroke-linejoin="round" fill="none" stroke="#000000" d="M 151.04 73.44 L 151.04 77.99 "/>
<clipPath id="cp2">
<path transform="matrix(1,0,0,-1,0,360)" d="M 59.04 73.44 L 437.76 73.44 L 437.76 300.96003 L 59.04 300.96003 Z "/>
</clipPath>
<g clip-path="url(#cp2)">
<path transform="matrix(1,0,0,-1,0,360)" stroke-width="1.5" stroke-linecap="round" stroke-linejoin="round" fill="none" stroke="#000000" d="M 163.25 238.25 L 164.99 224.92 L 165.69 219.58 L 166.5 219.63 L 167.99 219.73 L 168.13 219.74 L 170.57 214.93 L 173.01 206.86 L 175.45 195.23 L 177.89 180.09 L 180.33 161.72 L 182.77 140.76 L 185.22 118.67 L 187.66 98.91 L 190.1 86.72 L 192.54 82.34 L 194.98 82.06 L 196.76 82.75 L 197.42 83 L 198.56 83.11 L 199.86 83.22 L 200.36 83.51 L 202.26 84.61 L 202.3 84.63 L 204.75 85.71 L 206.11 85.72 "/>
</g>
<path transform="matrix(1,0,0,-1,0,360)" stroke-width=".38" stroke-linecap="round" stroke-linejoin="round" fill="none" stroke="#000000" d="M 163.25 73.44 L 163.25 77.99 "/>
<path transform="matrix(1,0,0,-1,0,360)" stroke-width=".38" stroke-linecap="round" stroke-linejoin="round" fill="none" stroke="#000000" d="M 164.99 73.44 L 164.99 77.99 "/>
<path transform="matrix(1,0,0,-1,0,360)" stroke-width=".38" stroke-linecap="round" stroke-linejoin="round" fill="none" stroke="#000000" d="M 166.5 73.44 L 166.5 77.99 "/>
<path transform="matrix(1,0,0,-1,0,360)" stroke-width=".38" stroke-linecap="round" stroke-linejoin="round" fill="none" stroke="#000000" d="M 167.99 73.44 L 167.99 77.99 "/>
<path transform="matrix(1,0,0,-1,0,360)" stroke-width=".38" stroke-linecap="round" stroke-linejoin="round" fill="none" stroke="#000000" d="M 167.99 73.44 L 167.99 77.99 "/>
<path transform="matrix(1,0,0,-1,0,360)" stroke-width=".38" stroke-linecap="round" stroke-linejoin="round" fill="none" stroke="#000000" d="M 196.76 73.44 L 196.76 77.99 "/>
<path transform="matrix(1,0,0,-1,0,360)" stroke-width=".38" stroke-linecap="round" stroke-linejoin="round" fill="none" stroke="#000000" d="M 198.56 73.44 L 198.56 77.99 "/>
<path transform="matrix(1,0,0,-1,0,360)" stroke-width=".38" stroke-linecap="round" stroke-linejoin="round" fill="none" stroke="#000000" d="M 200.36 73.44 L 200.36 77.99 "/>
<path transform="matrix(1,0,0,-1,0,360)" stroke-width=".38" stroke-linecap="round" stroke-linejoin="round" fill="none" stroke="#000000" d="M 202.26 73.44 L 202.26 77.99 "/>
<path transform="matrix(1,0,0,-1,0,360)" stroke-width=".38" stroke-linecap="round" stroke-linejoin="round" fill="none" stroke="#000000" d="M 206.11 73.44 L 206.11 77.99 "/>
<clipPath id="cp3">
<path transform="matrix(1,0,0,-1,0,360)" d="M 59.04 73.44 L 437.76 73.44 L 437.76 300.96003 L 59.04 300.96003 Z "/>
</clipPath>
<g clip-path="url(#cp3)">
<path transform="matrix(1,0,0,-1,0,360)" stroke-width="1.5" stroke-linecap="round" stroke-linejoin="round" fill="none" stroke="#000000" d="M 218.32 82.85 L 218.32 82.85 L 219.86 83.01 L 220.76 83.1 L 221.49 83.45 L 223.03 84.2 L 223.2 84.28 L 225.15 85.87 L 225.64 86.27 L 227.34 85.52 L 228.08 85.19 L 228.75 85.06 L 230.13 84.8 L 230.52 84.72 L 232.96 87.27 L 235.4 89.64 L 237.85 90.04 L 238.69 88.55 L 240.29 85.75 L 242.73 81.95 L 245.17 83.89 L 247.49 88.42 L 247.61 88.67 L 248.87 90.33 L 250.05 91.89 L 250.87 92.69 L 252.49 94.29 L 254.44 92.51 L 254.93 92.06 L 256.11 92.08 L 257.37 92.1 L 259.82 95.82 L 262.26 100.87 L 264.7 106.44 L 267.14 110.71 L 269.58 112.07 L 272.02 110.09 L 274.46 105.74 L 276.9 101.04 L 279.35 97.31 L 279.55 96.33 L 280.66 91.03 L 281.79 85.63 L 282.71 84.57 L 284.23 82.82 L 285.28 82.52 L 286.67 82.14 L 287.97 83 L 289.11 83.75 L 289.8 84.32 L 291.55 85.77 L 291.64 85.96 L 293.71 90.35 L 293.99 90.95 L 296.19 99.18 "/>
</g>
<path transform="matrix(1,0,0,-1,0,360)" stroke-width=".38" stroke-linecap="round" stroke-linejoin="round" fill="none" stroke="#000000" d="M 218.32 73.44 L 218.32 77.99 "/>
<path transform="matrix(1,0,0,-1,0,360)" stroke-width=".38" stroke-linecap="round" stroke-linejoin="round" fill="none" stroke="#000000" d="M 218.32 73.44 L 218.32 77.99 "/>
<path transform="matrix(1,0,0,-1,0,360)" stroke-width=".38" stroke-linecap="round" stroke-linejoin="round" fill="none" stroke="#000000" d="M 219.86 73.44 L 219.86 77.99 "/>
<path transform="matrix(1,0,0,-1,0,360)" stroke-width=".38" stroke-linecap="round" stroke-linejoin="round" fill="none" stroke="#000000" d="M 221.49 73.44 L 221.49 77.99 "/>
<path transform="matrix(1,0,0,-1,0,360)" stroke-width=".38" stroke-linecap="round" stroke-linejoin="round" fill="none" stroke="#000000" d="M 223.03 73.44 L 223.03 77.99 "/>
<path transform="matrix(1,0,0,-1,0,360)" stroke-width=".38" stroke-linecap="round" stroke-linejoin="round" fill="none" stroke="#000000" d="M 225.15 73.44 L 225.15 77.99 "/>
<path transform="matrix(1,0,0,-1,0,360)" stroke-width=".38" stroke-linecap="round" stroke-linejoin="round" fill="none" stroke="#000000" d="M 227.34 73.44 L 227.34 77.99 "/>
<path transform="matrix(1,0,0,-1,0,360)" stroke-width=".38" stroke-linecap="round" stroke-linejoin="round" fill="none" stroke="#000000" d="M 228.75 73.44 L 228.75 77.99 "/>
<path transform="matrix(1,0,0,-1,0,360)" stroke-width=".38" stroke-linecap="round" stroke-linejoin="round" fill="none" stroke="#000000" d="M 230.13 73.44 L 230.13 77.99 "/>
<path transform="matrix(1,0,0,-1,0,360)" stroke-width=".38" stroke-linecap="round" stroke-linejoin="round" fill="none" stroke="#000000" d="M 238.69 73.44 L 238.69 77.99 "/>
<path transform="matrix(1,0,0,-1,0,360)" stroke-width=".38" stroke-linecap="round" stroke-linejoin="round" fill="none" stroke="#000000" d="M 247.49 73.44 L 247.49 77.99 "/>
<path transform="matrix(1,0,0,-1,0,360)" stroke-width=".38" stroke-linecap="round" stroke-linejoin="round" fill="none" stroke="#000000" d="M 248.87 73.44 L 248.87 77.99 "/>
<path transform="matrix(1,0,0,-1,0,360)" stroke-width=".38" stroke-linecap="round" stroke-linejoin="round" fill="none" stroke="#000000" d="M 250.87 73.44 L 250.87 77.99 "/>
<path transform="matrix(1,0,0,-1,0,360)" stroke-width=".38" stroke-linecap="round" stroke-linejoin="round" fill="none" stroke="#000000" d="M 254.44 73.44 L 254.44 77.99 "/>
<path transform="matrix(1,0,0,-1,0,360)" stroke-width=".38" stroke-linecap="round" stroke-linejoin="round" fill="none" stroke="#000000" d="M 256.11 73.44 L 256.11 77.99 "/>
<path transform="matrix(1,0,0,-1,0,360)" stroke-width=".38" stroke-linecap="round" stroke-linejoin="round" fill="none" stroke="#000000" d="M 279.55 73.44 L 279.55 77.99 "/>
<path transform="matrix(1,0,0,-1,0,360)" stroke-width=".38" stroke-linecap="round" stroke-linejoin="round" fill="none" stroke="#000000" d="M 280.66 73.44 L 280.66 77.99 "/>
<path transform="matrix(1,0,0,-1,0,360)" stroke-width=".38" stroke-linecap="round" stroke-linejoin="round" fill="none" stroke="#000000" d="M 280.66 73.44 L 280.66 77.99 "/>
<path transform="matrix(1,0,0,-1,0,360)" stroke-width=".38" stroke-linecap="round" stroke-linejoin="round" fill="none" stroke="#000000" d="M 282.71 73.44 L 282.71 77.99 "/>
<path transform="matrix(1,0,0,-1,0,360)" stroke-width=".38" stroke-linecap="round" stroke-linejoin="round" fill="none" stroke="#000000" d="M 285.28 73.44 L 285.28 77.99 "/>
<path transform="matrix(1,0,0,-1,0,360)" stroke-width=".38" stroke-linecap="round" stroke-linejoin="round" fill="none" stroke="#000000" d="M 287.97 73.44 L 287.97 77.99 "/>
<path transform="matrix(1,0,0,-1,0,360)" stroke-width=".38" stroke-linecap="round" stroke-linejoin="round" fill="none" stroke="#000000" d="M 289.8 73.44 L 289.8 77.99 "/>
<path transform="matrix(1,0,0,-1,0,360)" stroke-width=".38" stroke-linecap="round" stroke-linejoin="round" fill="none" stroke="#000000" d="M 291.64 73.44 L 291.64 77.99 "/>
<path transform="matrix(1,0,0,-1,0,360)" stroke-width=".38" stroke-linecap="round" stroke-linejoin="round" fill="none" stroke="#000000" d="M 293.71 73.44 L 293.71 77.99 "/>
<path transform="matrix(1,0,0,-1,0,360)" stroke-width=".38" stroke-linecap="round" stroke-linejoin="round" fill="none" stroke="#000000" d="M 296.19 73.44 L 296.19 77.99 "/>
<clipPath id="cp4">
<path transform="matrix(1,0,0,-1,0,360)" d="M 59.04 73.44 L 437.76 73.44 L 437.76 300.96003 L 59.04 300.96003 Z "/>
</clipPath>
<g clip-path="url(#cp4)">
<path transform="matrix(1,0,0,-1,0,360)" stroke-width="1.5" stroke-linecap="round" stroke-linejoin="round" fill="none" stroke="#000000" d="M 308.39 83.44 L 309.72 83.52 L 310.83 83.59 L 311.38 83.76 L 312.74 84.19 L 313.28 84.36 L 315.72 82.31 L 318.16 81.95 L 318.35 81.95 L 319.76 81.93 L 320.6 81.91 L 321.33 81.96 L 322.92 82.07 L 323.04 82.08 L 324.38 82.06 L 325.48 82.05 L 327.92 84.63 L 330.15 88.93 L 330.36 89.34 L 332.02 92.46 L 332.81 93.92 L 333.31 93.78 L 335.25 93.25 L 335.54 95.84 L 337.39 112.07 L 337.69 114.72 L 338.59 113.07 L 339.82 110.81 L 340.13 110.25 L 342.06 114.13 L 342.57 115.15 L 343.54 111.29 L 344.67 106.78 L 345.01 105.43 L 346.6 105.41 L 347.45 105.4 L 347.86 105.28 L 349.89 104.71 L 350.95 103.11 L 352.33 100.99 L 353.68 99.68 L 354.78 98.62 L 355.2 99.79 L 356.73 104.06 L 357.22 105.42 L 358.08 109.04 L 359.36 114.47 L 359.66 115.71 L 362.1 124.06 L 364.54 128.33 L 366.98 127.39 L 369.03 127.19 L 369.42 127.15 L 370.51 129.43 L 371.86 132.24 L 372.07 132.43 L 374.31 134.42 L 376.75 130.18 L 377.48 128.75 L 378.82 126.14 L 379.19 125.43 L 381.63 123.58 L 384.07 111.95 L 386.49 96.77 L 386.51 96.64 L 387.86 98.87 "/>
</g>
<path transform="matrix(1,0,0,-1,0,360)" stroke-width=".38" stroke-linecap="round" stroke-linejoin="round" fill="none" stroke="#000000" d="M 308.39 73.44 L 308.39 77.99 "/>
<path transform="matrix(1,0,0,-1,0,360)" stroke-width=".38" stroke-linecap="round" stroke-linejoin="round" fill="none" stroke="#000000" d="M 309.72 73.44 L 309.72 77.99 "/>
<path transform="matrix(1,0,0,-1,0,360)" stroke-width=".38" stroke-linecap="round" stroke-linejoin="round" fill="none" stroke="#000000" d="M 311.38 73.44 L 311.38 77.99 "/>
<path transform="matrix(1,0,0,-1,0,360)" stroke-width=".38" stroke-linecap="round" stroke-linejoin="round" fill="none" stroke="#000000" d="M 312.74 73.44 L 312.74 77.99 "/>
<path transform="matrix(1,0,0,-1,0,360)" stroke-width=".38" stroke-linecap="round" stroke-linejoin="round" fill="none" stroke="#000000" d="M 318.35 73.44 L 318.35 77.99 "/>
<path transform="matrix(1,0,0,-1,0,360)" stroke-width=".38" stroke-linecap="round" stroke-linejoin="round" fill="none" stroke="#000000" d="M 319.76 73.44 L 319.76 77.99 "/>
<path transform="matrix(1,0,0,-1,0,360)" stroke-width=".38" stroke-linecap="round" stroke-linejoin="round" fill="none" stroke="#000000" d="M 319.76 73.44 L 319.76 77.99 "/>
<path transform="matrix(1,0,0,-1,0,360)" stroke-width=".38" stroke-linecap="round" stroke-linejoin="round" fill="none" stroke="#000000" d="M 321.33 73.44 L 321.33 77.99 "/>
<path transform="matrix(1,0,0,-1,0,360)" stroke-width=".38" stroke-linecap="round" stroke-linejoin="round" fill="none" stroke="#000000" d="M 322.92 73.44 L 322.92 77.99 "/>
<path transform="matrix(1,0,0,-1,0,360)" stroke-width=".38" stroke-linecap="round" stroke-linejoin="round" fill="none" stroke="#000000" d="M 324.38 73.44 L 324.38 77.99 "/>
<path transform="matrix(1,0,0,-1,0,360)" stroke-width=".38" stroke-linecap="round" stroke-linejoin="round" fill="none" stroke="#000000" d="M 330.15 73.44 L 330.15 77.99 "/>
<path transform="matrix(1,0,0,-1,0,360)" stroke-width=".38" stroke-linecap="round" stroke-linejoin="round" fill="none" stroke="#000000" d="M 330.15 73.44 L 330.15 77.99 "/>
<path transform="matrix(1,0,0,-1,0,360)" stroke-width=".38" stroke-linecap="round" stroke-linejoin="round" fill="none" stroke="#000000" d="M 332.02 73.44 L 332.02 77.99 "/>
<path transform="matrix(1,0,0,-1,0,360)" stroke-width=".38" stroke-linecap="round" stroke-linejoin="round" fill="none" stroke="#000000" d="M 333.31 73.44 L 333.31 77.99 "/>
<path transform="matrix(1,0,0,-1,0,360)" stroke-width=".38" stroke-linecap="round" stroke-linejoin="round" fill="none" stroke="#000000" d="M 335.54 73.44 L 335.54 77.99 "/>
<path transform="matrix(1,0,0,-1,0,360)" stroke-width=".38" stroke-linecap="round" stroke-linejoin="round" fill="none" stroke="#000000" d="M 337.39 73.44 L 337.39 77.99 "/>
<path transform="matrix(1,0,0,-1,0,360)" stroke-width=".38" stroke-linecap="round" stroke-linejoin="round" fill="none" stroke="#000000" d="M 338.59 73.44 L 338.59 77.99 "/>
<path transform="matrix(1,0,0,-1,0,360)" stroke-width=".38" stroke-linecap="round" stroke-linejoin="round" fill="none" stroke="#000000" d="M 339.82 73.44 L 339.82 77.99 "/>
<path transform="matrix(1,0,0,-1,0,360)" stroke-width=".38" stroke-linecap="round" stroke-linejoin="round" fill="none" stroke="#000000" d="M 342.06 73.44 L 342.06 77.99 "/>
<path transform="matrix(1,0,0,-1,0,360)" stroke-width=".38" stroke-linecap="round" stroke-linejoin="round" fill="none" stroke="#000000" d="M 342.06 73.44 L 342.06 77.99 "/>
<path transform="matrix(1,0,0,-1,0,360)" stroke-width=".38" stroke-linecap="round" stroke-linejoin="round" fill="none" stroke="#000000" d="M 343.54 73.44 L 343.54 77.99 "/>
<path transform="matrix(1,0,0,-1,0,360)" stroke-width=".38" stroke-linecap="round" stroke-linejoin="round" fill="none" stroke="#000000" d="M 344.67 73.44 L 344.67 77.99 "/>
<path transform="matrix(1,0,0,-1,0,360)" stroke-width=".38" stroke-linecap="round" stroke-linejoin="round" fill="none" stroke="#000000" d="M 346.6 73.44 L 346.6 77.99 "/>
<path transform="matrix(1,0,0,-1,0,360)" stroke-width=".38" stroke-linecap="round" stroke-linejoin="round" fill="none" stroke="#000000" d="M 347.86 73.44 L 347.86 77.99 "/>
<path transform="matrix(1,0,0,-1,0,360)" stroke-width=".38" stroke-linecap="round" stroke-linejoin="round" fill="none" stroke="#000000" d="M 350.95 73.44 L 350.95 77.99 "/>
<path transform="matrix(1,0,0,-1,0,360)" stroke-width=".38" stroke-linecap="round" stroke-linejoin="round" fill="none" stroke="#000000" d="M 352.33 73.44 L 352.33 77.99 "/>
<path transform="matrix(1,0,0,-1,0,360)" stroke-width=".38" stroke-linecap="round" stroke-linejoin="round" fill="none" stroke="#000000" d="M 353.68 73.44 L 353.68 77.99 "/>
<path transform="matrix(1,0,0,-1,0,360)" stroke-width=".38" stroke-linecap="round" stroke-linejoin="round" fill="none" stroke="#000000" d="M 355.2 73.44 L 355.2 77.99 "/>
<path transform="matrix(1,0,0,-1,0,360)" stroke-width=".38" stroke-linecap="round" stroke-linejoin="round" fill="none" stroke="#000000" d="M 356.73 73.44 L 356.73 77.99 "/>
<path transform="matrix(1,0,0,-1,0,360)" stroke-width=".38" stroke-linecap="round" stroke-linejoin="round" fill="none" stroke="#000000" d="M 356.73 73.44 L 356.73 77.99 "/>
<path transform="matrix(1,0,0,-1,0,360)" stroke-width=".38" stroke-linecap="round" stroke-linejoin="round" fill="none" stroke="#000000" d="M 358.08 73.44 L 358.08 77.99 "/>
<path transform="matrix(1,0,0,-1,0,360)" stroke-width=".38" stroke-linecap="round" stroke-linejoin="round" fill="none" stroke="#000000" d="M 359.36 73.44 L 359.36 77.99 "/>
<path transform="matrix(1,0,0,-1,0,360)" stroke-width=".38" stroke-linecap="round" stroke-linejoin="round" fill="none" stroke="#000000" d="M 369.03 73.44 L 369.03 77.99 "/>
<path transform="matrix(1,0,0,-1,0,360)" stroke-width=".38" stroke-linecap="round" stroke-linejoin="round" fill="none" stroke="#000000" d="M 370.51 73.44 L 370.51 77.99 "/>
<path transform="matrix(1,0,0,-1,0,360)" stroke-width=".38" stroke-linecap="round" stroke-linejoin="round" fill="none" stroke="#000000" d="M 372.07 73.44 L 372.07 77.99 "/>
<path transform="matrix(1,0,0,-1,0,360)" stroke-width=".38" stroke-linecap="round" stroke-linejoin="round" fill="none" stroke="#000000" d="M 377.48 73.44 L 377.48 77.99 "/>
<path transform="matrix(1,0,0,-1,0,360)" stroke-width=".38" stroke-linecap="round" stroke-linejoin="round" fill="none" stroke="#000000" d="M 377.48 73.44 L 377.48 77.99 "/>
<path transform="matrix(1,0,0,-1,0,360)" stroke-width=".38" stroke-linecap="round" stroke-linejoin="round" fill="none" stroke="#000000" d="M 378.82 73.44 L 378.82 77.99 "/>
<path transform="matrix(1,0,0,-1,0,360)" stroke-width=".38" stroke-linecap="round" stroke-linejoin="round" fill="none" stroke="#000000" d="M 386.49 73.44 L 386.49 77.99 "/>
<path transform="matrix(1,0,0,-1,0,360)" stroke-width=".38" stroke-linecap="round" stroke-linejoin="round" fill="none" stroke="#000000" d="M 387.86 73.44 L 387.86 77.99 "/>
<clipPath id="cp5">
<path transform="matrix(1,0,0,-1,0,360)" d="M 59.04 73.44 L 437.76 73.44 L 437.76 300.96003 L 59.04 300.96003 Z "/>
</clipPath>
<g clip-path="url(#cp5)">
<path transform="matrix(1,0,0,-1,0,360)" stroke-width="1.5" stroke-linecap="round" stroke-linejoin="round" fill="none" stroke="#000000" d="M 400.07 143.1 L 400.92 129.53 L 402.51 104.44 L 404.95 93.92 L 407.39 85.13 L 409.83 81.87 L 412.27 84.63 L 414.35 87.59 L 414.71 88.11 L 415.33 87.29 L 417.03 85.01 L 417.15 84.85 L 419.6 82.76 L 421 82.61 L 422.04 82.5 L 422.42 82.82 L 423.88 84.04 L 424.48 84.53 L 426.92 83.21 L 427.32 83.24 L 428.76 83.33 L 429.36 83.37 L 430.28 83.6 L 431.66 83.93 "/>
</g>
<path transform="matrix(1,0,0,-1,0,360)" stroke-width=".38" stroke-linecap="round" stroke-linejoin="round" fill="none" stroke="#000000" d="M 400.07 73.44 L 400.07 77.99 "/>
<path transform="matrix(1,0,0,-1,0,360)" stroke-width=".38" stroke-linecap="round" stroke-linejoin="round" fill="none" stroke="#000000" d="M 400.92 73.44 L 400.92 77.99 "/>
<path transform="matrix(1,0,0,-1,0,360)" stroke-width=".38" stroke-linecap="round" stroke-linejoin="round" fill="none" stroke="#000000" d="M 414.35 73.44 L 414.35 77.99 "/>
<path transform="matrix(1,0,0,-1,0,360)" stroke-width=".38" stroke-linecap="round" stroke-linejoin="round" fill="none" stroke="#000000" d="M 415.33 73.44 L 415.33 77.99 "/>
<path transform="matrix(1,0,0,-1,0,360)" stroke-width=".38" stroke-linecap="round" stroke-linejoin="round" fill="none" stroke="#000000" d="M 417.03 73.44 L 417.03 77.99 "/>
<path transform="matrix(1,0,0,-1,0,360)" stroke-width=".38" stroke-linecap="round" stroke-linejoin="round" fill="none" stroke="#000000" d="M 421 73.44 L 421 77.99 "/>
<path transform="matrix(1,0,0,-1,0,360)" stroke-width=".38" stroke-linecap="round" stroke-linejoin="round" fill="none" stroke="#000000" d="M 422.42 73.44 L 422.42 77.99 "/>
<path transform="matrix(1,0,0,-1,0,360)" stroke-width=".38" stroke-linecap="round" stroke-linejoin="round" fill="none" stroke="#000000" d="M 423.88 73.44 L 423.88 77.99 "/>
<path transform="matrix(1,0,0,-1,0,360)" stroke-width=".38" stroke-linecap="round" stroke-linejoin="round" fill="none" stroke="#000000" d="M 427.32 73.44 L 427.32 77.99 "/>
<path transform="matrix(1,0,0,-1,0,360)" stroke-width=".38" stroke-linecap="round" stroke-linejoin="round" fill="none" stroke="#000000" d="M 428.76 73.44 L 428.76 77.99 "/>
<path transform="matrix(1,0,0,-1,0,360)" stroke-width=".38" stroke-linecap="round" stroke-linejoin="round" fill="none" stroke="#000000" d="M 430.28 73.44 L 430.28 77.99 "/>
<path transform="matrix(1,0,0,-1,0,360)" stroke-width=".38" stroke-linecap="round" stroke-linejoin="round" fill="none" stroke="#000000" d="M 431.66 73.44 L 431.66 77.99 "/>
<path transform="matrix(1,0,0,-1,0,360)" stroke-width=".75" stroke-linecap="round" stroke-linejoin="round" fill="none" stroke="#000000" d="M 83.8 73.44 L 83.8 73.44 "/>
<path transform="matrix(1,0,0,-1,0,360)" stroke-width=".75" stroke-linecap="round" stroke-linejoin="round" fill="none" stroke="#000000" d="M 83.8 73.44 L 83.8 66.24 "/>
<text xml:space="preserve" transform="matrix(1 0 -0 1 0 360)" font-size="12" font-family="LMRoman10"><tspan y="-47.52" x="80.8">9</tspan></text>
<path transform="matrix(1,0,0,-1,0,360)" stroke-width=".75" stroke-linecap="round" stroke-linejoin="round" fill="none" stroke="#000000" d="M 132.85 73.44 L 132.85 73.44 "/>
<path transform="matrix(1,0,0,-1,0,360)" stroke-width=".75" stroke-linecap="round" stroke-linejoin="round" fill="none" stroke="#000000" d="M 132.85 73.44 L 132.85 66.24 "/>
<text xml:space="preserve" transform="matrix(1 0 -0 1 0 360)" font-size="12" font-family="LMRoman10"><tspan y="-47.52" x="126.85 132.85">12</tspan></text>
<path transform="matrix(1,0,0,-1,0,360)" stroke-width=".75" stroke-linecap="round" stroke-linejoin="round" fill="none" stroke="#000000" d="M 184.68 73.44 L 184.68 73.44 "/>
<path transform="matrix(1,0,0,-1,0,360)" stroke-width=".75" stroke-linecap="round" stroke-linejoin="round" fill="none" stroke="#000000" d="M 184.68 73.44 L 184.68 66.24 "/>
<text xml:space="preserve" transform="matrix(1 0 -0 1 0 360)" font-size="12" font-family="LMRoman10"><tspan y="-47.52" x="178.68 184.68">13</tspan></text>
<path transform="matrix(1,0,0,-1,0,360)" stroke-width=".75" stroke-linecap="round" stroke-linejoin="round" fill="none" stroke="#000000" d="M 257.25 73.44 L 257.25 73.44 "/>
<path transform="matrix(1,0,0,-1,0,360)" stroke-width=".75" stroke-linecap="round" stroke-linejoin="round" fill="none" stroke="#000000" d="M 257.25 73.44 L 257.25 66.24 "/>
<text xml:space="preserve" transform="matrix(1 0 -0 1 0 360)" font-size="12" font-family="LMRoman10"><tspan y="-47.52" x="251.25 257.25">14</tspan></text>
<path transform="matrix(1,0,0,-1,0,360)" stroke-width=".75" stroke-linecap="round" stroke-linejoin="round" fill="none" stroke="#000000" d="M 348.13 73.44 L 348.13 73.44 "/>
<path transform="matrix(1,0,0,-1,0,360)" stroke-width=".75" stroke-linecap="round" stroke-linejoin="round" fill="none" stroke="#000000" d="M 348.13 73.44 L 348.13 66.24 "/>
<text xml:space="preserve" transform="matrix(1 0 -0 1 0 360)" font-size="12" font-family="LMRoman10"><tspan y="-47.52" x="342.13 348.13">15</tspan></text>
<path transform="matrix(1,0,0,-1,0,360)" stroke-width=".75" stroke-linecap="round" stroke-linejoin="round" fill="none" stroke="#000000" d="M 415.86 73.44 L 415.86 73.44 "/>
<path transform="matrix(1,0,0,-1,0,360)" stroke-width=".75" stroke-linecap="round" stroke-linejoin="round" fill="none" stroke="#000000" d="M 415.86 73.44 L 415.86 66.24 "/>
<text xml:space="preserve" transform="matrix(1 0 -0 1 0 360)" font-size="12" font-family="LMRoman10"><tspan y="-47.52" x="409.86 415.86">20</tspan></text>
<clipPath id="cp6">
<path transform="matrix(1,0,0,-1,0,360)" d="M 59.04 73.44 L 437.76 73.44 L 437.76 300.96003 L 59.04 300.96003 Z "/>
</clipPath>
<g clip-path="url(#cp6)">
<path transform="matrix(1,0,0,-1,0,360)" stroke-width=".75" stroke-linecap="round" stroke-linejoin="round" fill="none" stroke="#000000" d="M 59.04 300.96 L 160.98001 300.96 L 160.98001 228.95999 L 59.04 228.95999 Z "/>
<path transform="matrix(1,0,0,-1,0,360)" stroke-width=".75" stroke-linecap="round" stroke-linejoin="round" fill="none" stroke="#000000" d="M 69.84 286.56 L 91.44 286.56 "/>
<path transform="matrix(1,0,0,-1,0,360)" stroke-width=".75" stroke-linecap="round" stroke-dasharray="2.25,3.75" stroke-linejoin="round" fill="none" stroke="#000000" d="M 69.84 272.16 L 91.44 272.16 "/>
<path transform="matrix(1,0,0,-1,0,360)" stroke-width=".75" stroke-linecap="round" stroke-dasharray="0,3" stroke-linejoin="round" fill="none" stroke="#000000" d="M 69.84 257.76 L 91.44 257.76 "/>
<path transform="matrix(1,0,0,-1,0,360)" stroke-width=".75" stroke-linecap="round" stroke-dasharray="0,3,2.25,3" stroke-linejoin="round" fill="none" stroke="#000000" d="M 69.84 243.36 L 91.44 243.36 "/>
<text xml:space="preserve" transform="matrix(1 0 -0 1 0 360)" font-size="12" font-family="LMRoman10"><tspan y="-282.46" x="102.24 110.904 116.904 121.631999 130.29599 135.624 138.95999">Caswell</tspan></text>
<text xml:space="preserve" transform="matrix(1 0 -0 1 0 360)" font-size="12" font-family="LMRoman10"><tspan y="-268.06" x="102.24 110.904 114.24 120.24 126.576 131.244 137.244">Clayton</tspan></text>
<text xml:space="preserve" transform="matrix(1 0 -0 1 0 360)" font-size="12" font-family="LMRoman10"><tspan y="-253.66" x="102.24 110.904 116.904 126.9 133.572 136.908 143.58 148.908">Combined</tspan></text>
<text xml:space="preserve" transform="matrix(1 0 -0 1 0 360)" font-size="12" font-family="LMRoman10"><tspan y="-239.26" x="102.24 110.412 113.748 120.084 130.08 136.08 142.752 147.42">Plymouth</tspan></text>
<path transform="matrix(1,0,0,-1,0,360)" stroke-width="1.5" stroke-linecap="round" stroke-dasharray="4.5,7.5" stroke-linejoin="round" fill="none" stroke="#000000" d="M 65.14 96.22 L 67.58 84.62 L 69.91 82.67 L 70.03 82.57 L 72.47 87.99 L 73.73 90.01 L 74.91 91.91 L 77.35 90.83 L 78.06 93.46 L 79.76 99.69 L 79.79 99.8 L 82.23 93.64 L 84.55 86.56 L 84.67 86.17 L 87.11 94.92 L 88.7 97.92 L 89.55 99.55 L 92 97.91 L 92.65 100.51 L 94.44 107.64 L 96.88 115.97 L 97.78 118.51 L 98.86 121.53 L 99.32 122.83 L 99.94 120.87 L 101.46 116.07 L 101.76 115.12 L 102.45 114.97 "/>
<path transform="matrix(1,0,0,-1,0,360)" stroke-width="1.5" stroke-linecap="round" stroke-dasharray="4.5,7.5" stroke-linejoin="round" fill="none" stroke="#000000" d="M 114.65 82.48 L 115.79 82.63 L 116.83 82.77 L 117.1 82.81 L 119.54 83.79 L 121.98 85.42 L 124.42 87.46 L 126.86 89.04 L 129.3 89.52 L 131.74 89.12 L 133.39 89.29 L 134.18 89.38 L 135.05 90.26 L 136.62 91.85 L 139.07 94.14 L 141.51 95.32 L 143.95 95.18 L 145.23 94.19 L 146.39 93.29 L 146.69 93.14 L 148.06 92.43 L 148.83 92.04 L 149.53 96.3 L 151.04 105.45 "/>
<path transform="matrix(1,0,0,-1,0,360)" stroke-width="1.5" stroke-linecap="round" stroke-dasharray="4.5,7.5" stroke-linejoin="round" fill="none" stroke="#000000" d="M 163.25 214.77 L 164.99 215.85 L 165.69 216.28 L 166.5 221.61 L 167.99 231.32 L 168.13 232.25 L 170.57 227.26 L 173.01 218.8 L 175.45 206.88 L 177.89 88.42 L 180.33 84.64 L 182.77 82.62 L 185.22 81.92 L 187.66 81.93 L 190.1 82.25 L 192.54 82.67 L 194.98 83.09 L 196.76 83.42 L 197.42 83.55 L 198.56 83.42 L 199.86 83.28 L 200.36 84.14 L 202.26 87.42 L 202.3 87.5 L 204.75 88.62 L 206.11 88.65 "/>
<path transform="matrix(1,0,0,-1,0,360)" stroke-width="1.5" stroke-linecap="round" stroke-dasharray="4.5,7.5" stroke-linejoin="round" fill="none" stroke="#000000" d="M 218.32 84.51 L 218.32 84.51 L 219.86 85.08 L 220.76 85.41 L 221.49 86.64 L 223.03 89.22 L 223.2 89.5 L 225.15 85.59 L 225.64 84.61 L 227.34 84.11 L 228.08 83.89 L 228.75 83.69 L 230.13 83.28 L 230.52 83.16 L 232.96 85.86 L 235.4 89.7 L 237.85 92.65 L 238.69 92.59 L 240.29 92.49 L 242.73 89.56 L 245.17 85.57 L 247.49 83.2 L 247.61 83.07 L 248.87 83.12 L 250.05 83.17 L 250.87 83.24 L 252.49 83.39 L 254.44 83.1 L 254.93 83.03 L 256.11 82.61 L 257.37 82.16 L 259.82 81.98 L 262.26 81.88 L 264.7 81.91 L 267.14 82.12 L 269.58 82.53 L 272.02 83.06 L 274.46 83.61 L 276.9 84.11 L 279.35 84.53 L 279.55 84.32 L 280.66 83.2 L 281.79 82.06 L 282.71 81.99 L 284.23 81.87 L 285.28 81.89 L 286.67 81.92 L 287.97 82.74 L 289.11 83.45 L 289.8 83.72 L 291.55 84.42 L 291.64 84.43 L 293.71 84.73 L 293.99 84.77 L 296.19 90.24 "/>
<path transform="matrix(1,0,0,-1,0,360)" stroke-width="1.5" stroke-linecap="round" stroke-dasharray="4.5,7.5" stroke-linejoin="round" fill="none" stroke="#000000" d="M 308.39 83.95 L 309.72 84.73 L 310.83 85.38 L 311.38 85.54 L 312.74 85.92 L 313.28 86.07 L 315.72 88.17 L 318.16 89.38 L 318.35 89.34 L 319.76 89.04 L 320.6 88.86 L 321.33 88.13 L 322.92 86.55 L 323.04 86.44 L 324.38 85.73 L 325.48 85.14 L 327.92 83.67 L 330.15 82.5 L 330.36 82.39 L 332.02 82.03 L 332.81 81.87 L 333.31 81.89 L 335.25 82 L 335.54 81.99 L 337.39 81.89 L 337.69 81.87 L 338.59 82.63 L 339.82 83.66 L 340.13 83.91 L 342.06 83.08 L 342.57 82.86 L 343.54 83.24 L 344.67 83.69 L 345.01 83.83 L 346.6 101.57 L 347.45 111.08 L 347.86 110.54 L 349.89 107.91 L 350.95 108.83 L 352.33 110.05 L 352.33 110.06 L 353.68 111.79 L 354.78 113.21 L 355.2 115.08 L 356.73 121.9 L 357.22 124.09 L 358.08 126.85 L 359.36 131 L 359.66 131.95 L 362.1 135.85 L 364.54 134.13 L 366.98 127.5 L 369.03 123.15 L 369.42 122.32 L 370.51 108.84 L 371.86 92.16 L 372.07 92.88 L 374.31 100.61 L 376.75 110.43 L 377.48 113.11 L 378.82 118.01 L 379.19 119.35 L 381.63 112.32 L 384.07 103.75 L 386.49 95.6 L 386.51 95.53 L 387.86 97.6 "/>
<path transform="matrix(1,0,0,-1,0,360)" stroke-width="1.5" stroke-linecap="round" stroke-dasharray="4.5,7.5" stroke-linejoin="round" fill="none" stroke="#000000" d="M 400.07 136.83 L 400.92 119.44 L 402.51 87.26 L 404.95 83.86 L 407.39 81.95 L 409.83 82.62 L 412.27 109.03 L 414.35 103.36 L 414.71 102.36 L 415.33 100.2 L 417.03 94.21 L 417.15 93.78 L 419.6 90.42 L 421 89.74 L 422.04 89.25 L 422.42 89.12 L 423.88 88.63 L 424.48 88.43 L 426.92 93.67 L 427.32 93.84 L 428.76 94.47 L 429.36 94.73 L 430.28 94.88 L 431.66 95.12 "/>
<path transform="matrix(1,0,0,-1,0,360)" stroke-width=".75" stroke-linecap="round" stroke-linejoin="round" fill="none" stroke="#000000" d="M 59.04 300.96 L 160.98001 300.96 L 160.98001 228.95999 L 59.04 228.95999 Z "/>
<path transform="matrix(1,0,0,-1,0,360)" stroke-width=".75" stroke-linecap="round" stroke-linejoin="round" fill="none" stroke="#000000" d="M 69.84 286.56 L 91.44 286.56 "/>
<path transform="matrix(1,0,0,-1,0,360)" stroke-width=".75" stroke-linecap="round" stroke-dasharray="2.25,3.75" stroke-linejoin="round" fill="none" stroke="#000000" d="M 69.84 272.16 L 91.44 272.16 "/>
<path transform="matrix(1,0,0,-1,0,360)" stroke-width=".75" stroke-linecap="round" stroke-dasharray="0,3" stroke-linejoin="round" fill="none" stroke="#000000" d="M 69.84 257.76 L 91.44 257.76 "/>
<path transform="matrix(1,0,0,-1,0,360)" stroke-width=".75" stroke-linecap="round" stroke-dasharray="0,3,2.25,3" stroke-linejoin="round" fill="none" stroke="#000000" d="M 69.84 243.36 L 91.44 243.36 "/>
<text xml:space="preserve" transform="matrix(1 0 -0 1 0 360)" font-size="12" font-family="LMRoman10"><tspan y="-282.46" x="102.24 110.904 116.904 121.631999 130.29599 135.624 138.95999">Caswell</tspan></text>
<text xml:space="preserve" transform="matrix(1 0 -0 1 0 360)" font-size="12" font-family="LMRoman10"><tspan y="-268.06" x="102.24 110.904 114.24 120.24 126.576 131.244 137.244">Clayton</tspan></text>
<text xml:space="preserve" transform="matrix(1 0 -0 1 0 360)" font-size="12" font-family="LMRoman10"><tspan y="-253.66" x="102.24 110.904 116.904 126.9 133.572 136.908 143.58 148.908">Combined</tspan></text>
<text xml:space="preserve" transform="matrix(1 0 -0 1 0 360)" font-size="12" font-family="LMRoman10"><tspan y="-239.26" x="102.24 110.412 113.748 120.084 130.08 136.08 142.752 147.42">Plymouth</tspan></text>
<path transform="matrix(1,0,0,-1,0,360)" stroke-width="1.5" stroke-linecap="round" stroke-dasharray="0,6" stroke-linejoin="round" fill="none" stroke="#000000" d="M 65.14 99.61 L 67.58 82.52 L 69.91 89 L 70.03 89.32 L 72.47 87.33 L 73.73 86.41 L 74.91 85.54 L 77.35 85.24 L 78.06 84.38 L 79.76 82.36 L 79.79 82.32 L 82.23 82.94 L 84.55 87.5 L 84.67 87.75 L 87.11 86.81 L 88.7 86.25 L 89.55 85.94 L 92 86.34 L 92.65 85.86 L 94.44 84.53 L 96.88 82.27 L 97.78 82.17 L 98.86 82.05 L 99.32 82 L 99.94 81.97 L 101.46 81.89 L 101.76 81.88 L 102.45 81.88 "/>
<path transform="matrix(1,0,0,-1,0,360)" stroke-width="1.5" stroke-linecap="round" stroke-dasharray="0,6" stroke-linejoin="round" fill="none" stroke="#000000" d="M 114.65 89.88 L 115.79 89.44 L 116.83 89.05 L 117.1 88.95 L 119.54 91.7 L 121.98 94.97 L 124.42 97.64 L 126.86 98.4 L 129.3 97.08 L 131.74 94.72 L 133.39 96.58 L 134.18 97.48 L 135.05 100.96 L 136.62 107.28 L 139.07 113.9 L 141.51 115.65 L 143.95 112.1 L 145.23 112.1 L 146.39 112.09 L 146.69 112.19 L 148.06 112.63 L 148.83 112.88 L 149.53 114.63 L 151.04 118.37 "/>
<path transform="matrix(1,0,0,-1,0,360)" stroke-width="1.5" stroke-linecap="round" stroke-dasharray="0,6" stroke-linejoin="round" fill="none" stroke="#000000" d="M 163.25 256.17 L 164.99 244.69 L 165.69 240.09 L 166.5 243.35 L 167.99 249.3 L 168.13 249.87 L 170.57 240.97 L 173.01 228.69 L 175.45 213.42 L 177.89 195.51 L 180.33 175.39 L 182.77 153.72 L 185.22 131.72 L 187.66 111.71 L 190.1 96.61 L 192.54 87.61 L 194.98 83.34 L 196.76 82.37 L 197.42 82 L 198.56 81.95 L 199.86 81.88 L 200.36 82.16 L 202.26 83.23 L 202.3 83.26 L 204.75 83.19 L 206.11 83.08 "/>
<path transform="matrix(1,0,0,-1,0,360)" stroke-width="1.5" stroke-linecap="round" stroke-dasharray="0,6" stroke-linejoin="round" fill="none" stroke="#000000" d="M 218.32 97.81 L 218.32 97.81 L 219.86 97.65 L 220.76 97.55 L 221.49 96.1 L 223.03 93.06 L 223.2 92.72 L 225.15 92.23 L 225.64 92.11 L 227.34 91.73 L 228.08 91.57 L 228.75 91.04 L 230.13 89.96 L 230.52 89.64 L 232.96 84.93 L 235.4 81.99 L 237.85 82.89 L 238.69 82.57 L 240.29 81.97 L 242.73 85.19 L 245.17 95.07 L 247.49 102.02 L 247.61 102.4 L 248.87 101.77 L 250.05 101.17 L 250.87 100.57 L 252.49 99.35 L 254.44 96.75 L 254.93 96.09 L 256.11 97.02 L 257.37 98.02 L 259.82 98.89 L 262.26 99.4 L 264.7 99.16 L 267.14 97.83 L 269.58 95.4 L 272.02 92.37 L 274.46 89.47 L 276.9 87.17 L 279.35 85.54 L 279.55 85.24 L 280.66 83.6 L 281.79 81.92 L 282.71 81.91 L 284.23 81.88 L 285.28 81.89 L 286.67 81.89 L 287.97 82.41 L 289.11 82.87 L 289.8 82.94 L 291.55 83.11 L 291.64 83.07 L 293.71 82.26 L 293.99 82.14 L 296.19 83.9 "/>
<path transform="matrix(1,0,0,-1,0,360)" stroke-width="1.5" stroke-linecap="round" stroke-dasharray="0,6" stroke-linejoin="round" fill="none" stroke="#000000" d="M 308.39 96.14 L 309.72 94.29 L 310.83 92.73 L 311.38 92.39 L 312.74 91.54 L 313.28 91.21 L 315.72 85.62 L 318.16 82.28 L 318.35 82.26 L 319.76 82.1 L 320.6 82.01 L 321.33 82.09 L 322.92 82.28 L 323.04 82.29 L 324.38 82.23 L 325.48 82.18 L 327.92 82.3 L 330.15 82.48 L 330.36 82.49 L 332.02 82.3 L 332.81 82.21 L 333.31 82.29 L 335.25 82.58 L 335.54 82.54 L 337.39 82.25 L 337.69 82.2 L 338.59 82.09 L 339.82 81.94 L 340.13 81.9 L 342.06 82.12 L 342.57 82.18 L 343.54 82.06 L 344.67 81.93 L 345.01 81.88 L 346.6 82.06 L 347.45 82.15 L 347.86 82.1 L 349.89 81.87 L 350.95 81.87 L 352.33 81.87 L 353.68 81.9 L 354.78 81.93 L 355.2 82.01 L 356.73 82.3 L 357.22 82.4 L 358.08 83.38 L 359.36 84.84 L 359.66 85.18 L 362.1 142.41 L 364.54 151.44 L 366.98 152.53 L 369.03 151.06 L 369.42 150.78 L 370.51 152.24 L 371.86 154.05 L 372.07 154.44 L 374.31 158.57 L 376.75 155.83 L 377.48 155.9 L 378.82 156.03 L 379.19 156.07 L 381.63 147.94 L 384.07 131.21 L 386.49 82.44 L 386.51 82.03 L 387.86 82.56 "/>
<path transform="matrix(1,0,0,-1,0,360)" stroke-width="1.5" stroke-linecap="round" stroke-dasharray="0,6" stroke-linejoin="round" fill="none" stroke="#000000" d="M 400.07 127.92 L 400.92 113.72 L 402.51 87.45 L 404.95 82.85 L 407.39 82.23 L 409.83 86.52 L 412.27 93.77 L 414.35 99.43 L 414.71 100.43 L 415.33 99.41 L 417.03 96.57 L 417.15 96.37 L 419.6 90.53 L 421 89.76 L 422.04 89.19 L 422.42 89.19 L 423.88 89.18 L 424.48 89.17 L 426.92 93.03 L 427.32 92.78 L 428.76 91.89 L 429.36 91.51 L 430.28 91.5 L 431.66 91.49 "/>
<path transform="matrix(1,0,0,-1,0,360)" stroke-width=".75" stroke-linecap="round" stroke-linejoin="round" fill="none" stroke="#000000" d="M 59.04 300.96 L 160.98001 300.96 L 160.98001 228.95999 L 59.04 228.95999 Z "/>
<path transform="matrix(1,0,0,-1,0,360)" stroke-width=".75" stroke-linecap="round" stroke-linejoin="round" fill="none" stroke="#000000" d="M 69.84 286.56 L 91.44 286.56 "/>
<path transform="matrix(1,0,0,-1,0,360)" stroke-width=".75" stroke-linecap="round" stroke-dasharray="2.25,3.75" stroke-linejoin="round" fill="none" stroke="#000000" d="M 69.84 272.16 L 91.44 272.16 "/>
<path transform="matrix(1,0,0,-1,0,360)" stroke-width=".75" stroke-linecap="round" stroke-dasharray="0,3" stroke-linejoin="round" fill="none" stroke="#000000" d="M 69.84 257.76 L 91.44 257.76 "/>
<path transform="matrix(1,0,0,-1,0,360)" stroke-width=".75" stroke-linecap="round" stroke-dasharray="0,3,2.25,3" stroke-linejoin="round" fill="none" stroke="#000000" d="M 69.84 243.36 L 91.44 243.36 "/>
<text xml:space="preserve" transform="matrix(1 0 -0 1 0 360)" font-size="12" font-family="LMRoman10"><tspan y="-282.46" x="102.24 110.904 116.904 121.631999 130.29599 135.624 138.95999">Caswell</tspan></text>
<text xml:space="preserve" transform="matrix(1 0 -0 1 0 360)" font-size="12" font-family="LMRoman10"><tspan y="-268.06" x="102.24 110.904 114.24 120.24 126.576 131.244 137.244">Clayton</tspan></text>
<text xml:space="preserve" transform="matrix(1 0 -0 1 0 360)" font-size="12" font-family="LMRoman10"><tspan y="-253.66" x="102.24 110.904 116.904 126.9 133.572 136.908 143.58 148.908">Combined</tspan></text>
<text xml:space="preserve" transform="matrix(1 0 -0 1 0 360)" font-size="12" font-family="LMRoman10"><tspan y="-239.26" x="102.24 110.412 113.748 120.084 130.08 136.08 142.752 147.42">Plymouth</tspan></text>
<path transform="matrix(1,0,0,-1,0,360)" stroke-width="1.5" stroke-linecap="round" stroke-dasharray="0,6,4.5,6" stroke-linejoin="round" fill="none" stroke="#000000" d="M 65.14 91.19 L 67.58 81.87 L 69.91 89.72 L 70.03 90.12 L 72.47 85.57 L 73.73 85.05 L 74.91 84.55 L 77.35 87.89 L 78.06 86.17 L 79.76 82.08 L 79.79 82.01 L 82.23 83.05 L 84.55 86.88 L 84.67 87.09 L 87.11 86.12 L 88.7 84.85 L 89.55 84.16 L 92 82.59 L 92.65 82.45 L 94.44 82.05 L 96.88 81.87 L 97.78 82.06 L 98.86 82.29 L 99.32 82.39 L 99.94 82.26 L 101.46 81.93 L 101.76 81.87 L 102.45 81.87 "/>
<path transform="matrix(1,0,0,-1,0,360)" stroke-width="1.5" stroke-linecap="round" stroke-dasharray="0,6,4.5,6" stroke-linejoin="round" fill="none" stroke="#000000" d="M 114.65 86.09 L 115.79 86.22 L 116.83 86.34 L 117.1 86.37 L 119.54 89.89 L 121.98 94.95 L 124.42 100.76 L 126.86 105.71 L 129.3 108.47 L 131.74 108.86 L 133.39 111.28 L 134.18 112.45 L 135.05 115.59 L 136.62 121.27 L 139.07 126.63 L 141.51 125.59 L 143.95 119.38 L 143.95 119.37 L 145.23 118.13 L 146.39 116.99 L 146.69 116.76 L 148.06 115.71 L 148.83 115.11 L 149.53 117.54 L 151.04 122.74 "/>
<path transform="matrix(1,0,0,-1,0,360)" stroke-width="1.5" stroke-linecap="round" stroke-dasharray="0,6,4.5,6" stroke-linejoin="round" fill="none" stroke="#000000" d="M 163.25 170.78 L 164.99 174.65 L 165.69 176.2 L 166.5 183.26 L 167.99 196.13 L 168.13 197.36 L 170.57 200.43 L 173.01 200.55 L 175.45 197 L 177.89 189.65 L 180.33 82.21 L 182.77 82.01 L 185.22 81.97 L 187.66 81.95 L 190.1 81.94 L 192.54 81.93 L 194.98 81.93 L 196.76 82.1 L 197.42 82.16 L 198.56 82.95 L 199.86 83.85 L 200.36 83.45 L 202.26 81.9 L 202.3 81.87 L 204.75 82.39 L 206.11 82.75 "/>
<path transform="matrix(1,0,0,-1,0,360)" stroke-width="1.5" stroke-linecap="round" stroke-dasharray="0,6,4.5,6" stroke-linejoin="round" fill="none" stroke="#000000" d="M 218.32 190.78 L 218.32 190.78 L 219.86 192.79 L 220.76 193.97 L 221.49 195.91 L 223.03 199.96 L 223.2 200.41 L 225.15 210.29 L 225.64 212.75 L 227.34 210.99 L 228.08 210.21 L 228.75 204.57 L 230.13 193.08 L 230.52 189.78 L 232.96 173.09 L 235.4 136.63 L 237.85 99.03 L 238.69 99.21 L 240.29 99.56 L 242.73 115.57 L 245.17 127.36 L 247.49 130 L 247.61 130.14 L 248.87 125.9 L 250.05 121.91 L 250.87 119.02 L 252.49 113.25 L 254.44 105.81 L 254.93 103.94 L 256.11 103.97 L 257.37 104.01 L 259.82 100.38 L 262.26 95.92 L 264.7 90.93 L 267.14 86.23 L 269.58 82.97 L 272.02 81.87 L 274.46 82.57 L 276.9 84.25 L 279.35 86.24 L 279.55 86.3 L 280.66 86.64 L 281.79 86.98 L 282.71 86.34 L 284.23 85.3 L 285.28 86.14 L 286.67 87.26 L 287.97 86.66 L 289.11 86.14 L 289.8 86 L 291.55 85.65 L 291.64 85.82 L 293.71 89.75 L 293.99 90.29 L 296.19 85.21 "/>
<path transform="matrix(1,0,0,-1,0,360)" stroke-width="1.5" stroke-linecap="round" stroke-dasharray="0,6,4.5,6" stroke-linejoin="round" fill="none" stroke="#000000" d="M 308.39 209.6 L 309.72 213.11 L 310.83 216.05 L 311.38 215.49 L 312.74 214.09 L 313.28 213.55 L 315.72 198.43 L 318.16 163.55 L 318.35 161.93 L 319.76 149.77 L 320.6 142.53 L 321.33 140.33 L 322.92 135.54 L 323.04 135.18 L 324.38 106.33 L 325.48 82.59 L 327.92 82.21 L 330.15 81.92 L 330.36 81.89 L 332.02 81.9 L 332.81 81.91 L 333.31 81.9 L 335.25 81.89 L 335.54 81.89 L 337.39 81.87 L 337.69 81.87 L 338.59 81.9 L 339.82 81.95 L 340.13 81.96 L 342.06 82.4 L 342.57 82.51 L 343.54 82.32 L 344.67 82.08 L 345.01 82.01 L 346.6 82.68 L 347.45 83.03 L 347.86 82.86 L 349.89 81.98 L 350.95 81.93 L 352.33 81.87 L 353.68 81.88 L 354.78 81.88 L 355.2 82.09 L 356.73 82.85 L 357.22 83.09 L 358.08 84.33 L 359.36 86.18 L 359.66 86.61 L 362.1 86.69 L 364.54 86.11 L 366.98 84.84 L 369.03 84.83 L 369.42 84.83 L 370.51 85.3 L 371.86 85.87 L 372.07 89.7 L 374.31 130.79 L 376.75 128.6 L 377.48 130.09 L 378.82 132.8 L 379.19 133.55 L 381.63 147.66 L 384.07 155.87 L 386.49 154.16 L 386.51 154.14 L 387.86 157.43 "/>
<path transform="matrix(1,0,0,-1,0,360)" stroke-width="1.5" stroke-linecap="round" stroke-dasharray="0,6,4.5,6" stroke-linejoin="round" fill="none" stroke="#000000" d="M 400.07 99.74 L 400.92 93.49 L 402.51 81.91 L 404.95 83.62 L 407.39 88.26 L 409.83 94.4 L 412.27 99.59 L 414.35 102.53 L 414.71 103.05 L 415.33 101.74 L 417.03 98.1 L 417.15 97.84 L 419.6 86.57 L 421 84.11 L 422.04 82.3 L 422.42 82.33 L 423.88 82.45 L 424.48 82.49 L 426.92 83.99 L 427.32 83.84 L 428.76 83.29 L 429.36 83.06 L 430.28 82.9 L 431.66 82.66 "/>
<path transform="matrix(1,0,0,-1,0,360)" stroke-width=".75" stroke-linecap="round" stroke-linejoin="round" fill="none" stroke="#000000" d="M 59.04 300.96 L 160.98001 300.96 L 160.98001 228.95999 L 59.04 228.95999 Z "/>
<path transform="matrix(1,0,0,-1,0,360)" stroke-width=".75" stroke-linecap="round" stroke-linejoin="round" fill="none" stroke="#000000" d="M 69.84 286.56 L 91.44 286.56 "/>
<path transform="matrix(1,0,0,-1,0,360)" stroke-width=".75" stroke-linecap="round" stroke-dasharray="2.25,3.75" stroke-linejoin="round" fill="none" stroke="#000000" d="M 69.84 272.16 L 91.44 272.16 "/>
<path transform="matrix(1,0,0,-1,0,360)" stroke-width=".75" stroke-linecap="round" stroke-dasharray="0,3" stroke-linejoin="round" fill="none" stroke="#000000" d="M 69.84 257.76 L 91.44 257.76 "/>
<path transform="matrix(1,0,0,-1,0,360)" stroke-width=".75" stroke-linecap="round" stroke-dasharray="0,3,2.25,3" stroke-linejoin="round" fill="none" stroke="#000000" d="M 69.84 243.36 L 91.44 243.36 "/>
<text xml:space="preserve" transform="matrix(1 0 -0 1 0 360)" font-size="12" font-family="LMRoman10"><tspan y="-282.46" x="102.24 110.904 116.904 121.631999 130.29599 135.624 138.95999">Caswell</tspan></text>
<text xml:space="preserve" transform="matrix(1 0 -0 1 0 360)" font-size="12" font-family="LMRoman10"><tspan y="-268.06" x="102.24 110.904 114.24 120.24 126.576 131.244 137.244">Clayton</tspan></text>
<text xml:space="preserve" transform="matrix(1 0 -0 1 0 360)" font-size="12" font-family="LMRoman10"><tspan y="-253.66" x="102.24 110.904 116.904 126.9 133.572 136.908 143.58 148.908">Combined</tspan></text>
<text xml:space="preserve" transform="matrix(1 0 -0 1 0 360)" font-size="12" font-family="LMRoman10"><tspan y="-239.26" x="102.24 110.412 113.748 120.084 130.08 136.08 142.752 147.42">Plymouth</tspan></text>
</g>
</g>
</svg>
