<?xml version="1.0" encoding="UTF-8" standalone="no"?>
<!DOCTYPE svg PUBLIC "-//W3C//DTD SVG 1.1//EN" "http://www.w3.org/Graphics/SVG/1.1/DTD/svg11.dtd">
<svg xmlns="http://www.w3.org/2000/svg" xmlns:xlink="http://www.w3.org/1999/xlink" version="1.1" width="468pt" height="360pt" viewBox="0 0 468 360">
<g enable-background="new">
<path transform="matrix(1,0,0,-1,0,360)" stroke-width=".75" stroke-linecap="round" stroke-linejoin="round" fill="none" stroke="#000000" d="M 59.04 81.87 L 59.04 270.1 "/>
<path transform="matrix(1,0,0,-1,0,360)" stroke-width=".75" stroke-linecap="round" stroke-linejoin="round" fill="none" stroke="#000000" d="M 59.04 81.87 L 51.84 81.87 "/>
<path transform="matrix(1,0,0,-1,0,360)" stroke-width=".75" stroke-linecap="round" stroke-linejoin="round" fill="none" stroke="#000000" d="M 59.04 119.51 L 51.84 119.51 "/>
<path transform="matrix(1,0,0,-1,0,360)" stroke-width=".75" stroke-linecap="round" stroke-linejoin="round" fill="none" stroke="#000000" d="M 59.04 157.16 L 51.84 157.16 "/>
<path transform="matrix(1,0,0,-1,0,360)" stroke-width=".75" stroke-linecap="round" stroke-linejoin="round" fill="none" stroke="#000000" d="M 59.04 194.81 L 51.84 194.81 "/>
<path transform="matrix(1,0,0,-1,0,360)" stroke-width=".75" stroke-linecap="round" stroke-linejoin="round" fill="none" stroke="#000000" d="M 59.04 232.45 L 51.84 232.45 "/>
<path transform="matrix(1,0,0,-1,0,360)" stroke-width=".75" stroke-linecap="round" stroke-linejoin="round" fill="none" stroke="#000000" d="M 59.04 270.1 L 51.84 270.1 "/>
<text xml:space="preserve" transform="matrix(1 0 -0 1 0 360)" font-size="12" font-family="LMRoman10"><tspan y="-77.77" x="38.64">0</tspan></text>
<text xml:space="preserve" transform="matrix(1 0 -0 1 0 360)" font-size="12" font-family="LMRoman10"><tspan y="-115.41" x="38.64">2</tspan></text>
<text xml:space="preserve" transform="matrix(1 0 -0 1 0 360)" font-size="12" font-family="LMRoman10"><tspan y="-153.06" x="38.64">4</tspan></text>
<text xml:space="preserve" transform="matrix(1 0 -0 1 0 360)" font-size="12" font-family="LMRoman10"><tspan y="-190.71" x="38.64">6</tspan></text>
<text xml:space="preserve" transform="matrix(1 0 -0 1 0 360)" font-size="12" font-family="LMRoman10"><tspan y="-228.35" x="38.64">8</tspan></text>
<text xml:space="preserve" transform="matrix(1 0 -0 1 0 360)" font-size="12" font-family="LMRoman10"><tspan y="-266" x="32.64 38.64">10</tspan></text>
<path transform="matrix(1,0,0,-1,0,360)" stroke-width=".75" stroke-linecap="round" stroke-linejoin="round" fill="none" stroke="#000000" d="M 59.04 73.44 L 437.76 73.44 L 437.76 300.96 L 59.04 300.96 L 59.04 73.44 "/>
<text xml:space="preserve" transform="matrix(1 0 -0 1 0 360)" font-size="14" font-family="LMRoman10" font-weight="bold"><tspan y="-325.68" x="195.16 206.164 214.214 223.16 232.106 236.572 244.39801 250.656 255.12201 263.172 272.118 277.48 285.53 293.58">Population 202</tspan></text>
<text xml:space="preserve" transform="matrix(1 0 -0 1 0 360)" font-size="12" font-family="LMRoman10"><tspan y="-18.72" x="214.36 223.024 229.696 234.4 240.4 250.396 256.396 261.124 267.124 277.12">Chromosome</tspan></text>
<text xml:space="preserve" transform="matrix(0 -1 1 0 0 360)" font-size="12" font-family="LMRoman10"><tspan y="12.96" x="139.19 146.69 156.026 165.194 168.53 172.526 181.862 185.198 188.534 192.53 201.194 207.194 213.866 218.534 223.862 230.534">LOD: Oil Content</tspan></text>
<clipPath id="cp0">
<path transform="matrix(1,0,0,-1,0,360)" d="M 59.04 73.44 L 437.76 73.44 L 437.76 300.96003 L 59.04 300.96003 Z "/>
</clipPath>
<g clip-path="url(#cp0)">
<path transform="matrix(1,0,0,-1,0,360)" stroke-width="1.5" stroke-linecap="round" stroke-linejoin="round" fill="none" stroke="#000000" d="M 63.4 87.82 L 64.42 87.93 L 65.15 88 L 66.43 86.79 L 66.89 86.35 L 67.67 86.11 L 68.63 85.81 L 69.51 85.48 L 70.38 85.15 L 70.61 85.46 L 71.87 87.16 L 72.12 87.49 L 73.87 87.64 L 74.04 87.74 L 75.61 88.61 L 77.36 88.98 L 77.75 88.2 L 78.82 86.09 L 79.1 85.52 L 80.14 84.37 L 80.85 83.58 L 81.54 83.35 L 82.59 83 L 82.66 83.04 L 83.87 83.69 L 84.33 83.94 L 84.96 84.08 L 86.08 84.34 L 87.82 84.65 L 89.57 84.97 L 91.31 85.25 L 93.06 115.17 L 94.8 118.58 L 96.12 118.55 L 96.55 118.54 L 97.39 119.66 L 98.29 120.86 L 100.03 127.15 L 101.4 126.34 L 101.78 126.12 L 103.52 116.07 L 104.5 111.22 L 105.24 107.55 L 105.27 107.41 L 106.13 107.65 L 107.01 107.89 L 107.14 108.14 L 108.1 110.09 L 108.76 111.43 L 108.92 108.82 L 109.79 94.43 L 110.5 82.83 L 110.69 82.81 L 111.78 82.71 L 112.25 82.67 L 112.62 82.58 L 113.61 82.34 L 113.99 82.25 L 114.7 82.38 "/>
</g>
<path transform="matrix(1,0,0,-1,0,360)" stroke-width=".38" stroke-linecap="round" stroke-linejoin="round" fill="none" stroke="#000000" d="M 63.4 73.44 L 63.4 77.99 "/>
<path transform="matrix(1,0,0,-1,0,360)" stroke-width=".38" stroke-linecap="round" stroke-linejoin="round" fill="none" stroke="#000000" d="M 64.42 73.44 L 64.42 77.99 "/>
<path transform="matrix(1,0,0,-1,0,360)" stroke-width=".38" stroke-linecap="round" stroke-linejoin="round" fill="none" stroke="#000000" d="M 66.43 73.44 L 66.43 77.99 "/>
<path transform="matrix(1,0,0,-1,0,360)" stroke-width=".38" stroke-linecap="round" stroke-linejoin="round" fill="none" stroke="#000000" d="M 66.43 73.44 L 66.43 77.99 "/>
<path transform="matrix(1,0,0,-1,0,360)" stroke-width=".38" stroke-linecap="round" stroke-linejoin="round" fill="none" stroke="#000000" d="M 67.67 73.44 L 67.67 77.99 "/>
<path transform="matrix(1,0,0,-1,0,360)" stroke-width=".38" stroke-linecap="round" stroke-linejoin="round" fill="none" stroke="#000000" d="M 69.51 73.44 L 69.51 77.99 "/>
<path transform="matrix(1,0,0,-1,0,360)" stroke-width=".38" stroke-linecap="round" stroke-linejoin="round" fill="none" stroke="#000000" d="M 69.51 73.44 L 69.51 77.99 "/>
<path transform="matrix(1,0,0,-1,0,360)" stroke-width=".38" stroke-linecap="round" stroke-linejoin="round" fill="none" stroke="#000000" d="M 70.61 73.44 L 70.61 77.99 "/>
<path transform="matrix(1,0,0,-1,0,360)" stroke-width=".38" stroke-linecap="round" stroke-linejoin="round" fill="none" stroke="#000000" d="M 71.87 73.44 L 71.87 77.99 "/>
<path transform="matrix(1,0,0,-1,0,360)" stroke-width=".38" stroke-linecap="round" stroke-linejoin="round" fill="none" stroke="#000000" d="M 74.04 73.44 L 74.04 77.99 "/>
<path transform="matrix(1,0,0,-1,0,360)" stroke-width=".38" stroke-linecap="round" stroke-linejoin="round" fill="none" stroke="#000000" d="M 77.75 73.44 L 77.75 77.99 "/>
<path transform="matrix(1,0,0,-1,0,360)" stroke-width=".38" stroke-linecap="round" stroke-linejoin="round" fill="none" stroke="#000000" d="M 78.82 73.44 L 78.82 77.99 "/>
<path transform="matrix(1,0,0,-1,0,360)" stroke-width=".38" stroke-linecap="round" stroke-linejoin="round" fill="none" stroke="#000000" d="M 80.14 73.44 L 80.14 77.99 "/>
<path transform="matrix(1,0,0,-1,0,360)" stroke-width=".38" stroke-linecap="round" stroke-linejoin="round" fill="none" stroke="#000000" d="M 81.54 73.44 L 81.54 77.99 "/>
<path transform="matrix(1,0,0,-1,0,360)" stroke-width=".38" stroke-linecap="round" stroke-linejoin="round" fill="none" stroke="#000000" d="M 82.66 73.44 L 82.66 77.99 "/>
<path transform="matrix(1,0,0,-1,0,360)" stroke-width=".38" stroke-linecap="round" stroke-linejoin="round" fill="none" stroke="#000000" d="M 83.87 73.44 L 83.87 77.99 "/>
<path transform="matrix(1,0,0,-1,0,360)" stroke-width=".38" stroke-linecap="round" stroke-linejoin="round" fill="none" stroke="#000000" d="M 84.96 73.44 L 84.96 77.99 "/>
<path transform="matrix(1,0,0,-1,0,360)" stroke-width=".38" stroke-linecap="round" stroke-linejoin="round" fill="none" stroke="#000000" d="M 96.12 73.44 L 96.12 77.99 "/>
<path transform="matrix(1,0,0,-1,0,360)" stroke-width=".38" stroke-linecap="round" stroke-linejoin="round" fill="none" stroke="#000000" d="M 97.39 73.44 L 97.39 77.99 "/>
<path transform="matrix(1,0,0,-1,0,360)" stroke-width=".38" stroke-linecap="round" stroke-linejoin="round" fill="none" stroke="#000000" d="M 101.4 73.44 L 101.4 77.99 "/>
<path transform="matrix(1,0,0,-1,0,360)" stroke-width=".38" stroke-linecap="round" stroke-linejoin="round" fill="none" stroke="#000000" d="M 104.5 73.44 L 104.5 77.99 "/>
<path transform="matrix(1,0,0,-1,0,360)" stroke-width=".38" stroke-linecap="round" stroke-linejoin="round" fill="none" stroke="#000000" d="M 105.24 73.44 L 105.24 77.99 "/>
<path transform="matrix(1,0,0,-1,0,360)" stroke-width=".38" stroke-linecap="round" stroke-linejoin="round" fill="none" stroke="#000000" d="M 106.13 73.44 L 106.13 77.99 "/>
<path transform="matrix(1,0,0,-1,0,360)" stroke-width=".38" stroke-linecap="round" stroke-linejoin="round" fill="none" stroke="#000000" d="M 107.14 73.44 L 107.14 77.99 "/>
<path transform="matrix(1,0,0,-1,0,360)" stroke-width=".38" stroke-linecap="round" stroke-linejoin="round" fill="none" stroke="#000000" d="M 108.1 73.44 L 108.1 77.99 "/>
<path transform="matrix(1,0,0,-1,0,360)" stroke-width=".38" stroke-linecap="round" stroke-linejoin="round" fill="none" stroke="#000000" d="M 108.92 73.44 L 108.92 77.99 "/>
<path transform="matrix(1,0,0,-1,0,360)" stroke-width=".38" stroke-linecap="round" stroke-linejoin="round" fill="none" stroke="#000000" d="M 109.79 73.44 L 109.79 77.99 "/>
<path transform="matrix(1,0,0,-1,0,360)" stroke-width=".38" stroke-linecap="round" stroke-linejoin="round" fill="none" stroke="#000000" d="M 110.69 73.44 L 110.69 77.99 "/>
<path transform="matrix(1,0,0,-1,0,360)" stroke-width=".38" stroke-linecap="round" stroke-linejoin="round" fill="none" stroke="#000000" d="M 110.69 73.44 L 110.69 77.99 "/>
<path transform="matrix(1,0,0,-1,0,360)" stroke-width=".38" stroke-linecap="round" stroke-linejoin="round" fill="none" stroke="#000000" d="M 111.78 73.44 L 111.78 77.99 "/>
<path transform="matrix(1,0,0,-1,0,360)" stroke-width=".38" stroke-linecap="round" stroke-linejoin="round" fill="none" stroke="#000000" d="M 112.62 73.44 L 112.62 77.99 "/>
<path transform="matrix(1,0,0,-1,0,360)" stroke-width=".38" stroke-linecap="round" stroke-linejoin="round" fill="none" stroke="#000000" d="M 113.61 73.44 L 113.61 77.99 "/>
<path transform="matrix(1,0,0,-1,0,360)" stroke-width=".38" stroke-linecap="round" stroke-linejoin="round" fill="none" stroke="#000000" d="M 114.7 73.44 L 114.7 77.99 "/>
<clipPath id="cp1">
<path transform="matrix(1,0,0,-1,0,360)" d="M 59.04 73.44 L 437.76 73.44 L 437.76 300.96003 L 59.04 300.96003 Z "/>
</clipPath>
<g clip-path="url(#cp1)">
<path transform="matrix(1,0,0,-1,0,360)" stroke-width="1.5" stroke-linecap="round" stroke-linejoin="round" fill="none" stroke="#000000" d="M 123.42 82.58 L 125.03 81.93 L 125.16 81.87 L 125.83 81.92 L 126.6 81.97 "/>
</g>
<path transform="matrix(1,0,0,-1,0,360)" stroke-width=".38" stroke-linecap="round" stroke-linejoin="round" fill="none" stroke="#000000" d="M 123.42 73.44 L 123.42 77.99 "/>
<path transform="matrix(1,0,0,-1,0,360)" stroke-width=".38" stroke-linecap="round" stroke-linejoin="round" fill="none" stroke="#000000" d="M 125.03 73.44 L 125.03 77.99 "/>
<path transform="matrix(1,0,0,-1,0,360)" stroke-width=".38" stroke-linecap="round" stroke-linejoin="round" fill="none" stroke="#000000" d="M 125.83 73.44 L 125.83 77.99 "/>
<path transform="matrix(1,0,0,-1,0,360)" stroke-width=".38" stroke-linecap="round" stroke-linejoin="round" fill="none" stroke="#000000" d="M 126.6 73.44 L 126.6 77.99 "/>
<clipPath id="cp2">
<path transform="matrix(1,0,0,-1,0,360)" d="M 59.04 73.44 L 437.76 73.44 L 437.76 300.96003 L 59.04 300.96003 Z "/>
</clipPath>
<g clip-path="url(#cp2)">
<path transform="matrix(1,0,0,-1,0,360)" stroke-width="1.5" stroke-linecap="round" stroke-linejoin="round" fill="none" stroke="#000000" d="M 135.32 82 L 136.21 82.13 L 137.07 82.26 L 137.09 82.27 L 138.81 82.74 L 139.14 82.83 L 140.21 83.13 L 140.56 83.22 L 141.26 83.01 L 142.3 82.69 L 144.05 81.88 L 145.05 82.08 L 145.79 82.23 L 147.54 83.86 L 149.28 93.43 L 149.65 94.64 L 151.02 99.13 L 151.39 101.4 L 152.56 108.6 L 152.77 109.92 L 154.51 123.86 L 155.41 124.13 L 156.26 124.39 L 156.42 124.36 L 157.57 124.15 L 158 124.07 L 158.63 124.22 L 159.75 124.47 L 160.03 124.61 L 160.82 124.97 L 161.49 125.28 L 163.24 124.23 L 164.98 118.73 L 166.73 87.31 L 166.9 87.39 L 168.47 88.15 L 170.21 87.78 L 170.42 87.69 L 171.65 87.13 L 171.96 86.99 L 173 88.85 L 173.7 90.1 L 174.37 92.08 L 175.45 95.24 L 175.63 95.12 L 177.19 94.08 L 178.94 90.83 L 180.68 87.33 L 181.84 85.69 L 182.43 84.86 L 183.71 83.49 L 184.17 83 L 184.72 82.89 "/>
</g>
<path transform="matrix(1,0,0,-1,0,360)" stroke-width=".38" stroke-linecap="round" stroke-linejoin="round" fill="none" stroke="#000000" d="M 135.32 73.44 L 135.32 77.99 "/>
<path transform="matrix(1,0,0,-1,0,360)" stroke-width=".38" stroke-linecap="round" stroke-linejoin="round" fill="none" stroke="#000000" d="M 136.21 73.44 L 136.21 77.99 "/>
<path transform="matrix(1,0,0,-1,0,360)" stroke-width=".38" stroke-linecap="round" stroke-linejoin="round" fill="none" stroke="#000000" d="M 137.09 73.44 L 137.09 77.99 "/>
<path transform="matrix(1,0,0,-1,0,360)" stroke-width=".38" stroke-linecap="round" stroke-linejoin="round" fill="none" stroke="#000000" d="M 139.14 73.44 L 139.14 77.99 "/>
<path transform="matrix(1,0,0,-1,0,360)" stroke-width=".38" stroke-linecap="round" stroke-linejoin="round" fill="none" stroke="#000000" d="M 140.21 73.44 L 140.21 77.99 "/>
<path transform="matrix(1,0,0,-1,0,360)" stroke-width=".38" stroke-linecap="round" stroke-linejoin="round" fill="none" stroke="#000000" d="M 141.26 73.44 L 141.26 77.99 "/>
<path transform="matrix(1,0,0,-1,0,360)" stroke-width=".38" stroke-linecap="round" stroke-linejoin="round" fill="none" stroke="#000000" d="M 145.05 73.44 L 145.05 77.99 "/>
<path transform="matrix(1,0,0,-1,0,360)" stroke-width=".38" stroke-linecap="round" stroke-linejoin="round" fill="none" stroke="#000000" d="M 149.65 73.44 L 149.65 77.99 "/>
<path transform="matrix(1,0,0,-1,0,360)" stroke-width=".38" stroke-linecap="round" stroke-linejoin="round" fill="none" stroke="#000000" d="M 149.65 73.44 L 149.65 77.99 "/>
<path transform="matrix(1,0,0,-1,0,360)" stroke-width=".38" stroke-linecap="round" stroke-linejoin="round" fill="none" stroke="#000000" d="M 151.39 73.44 L 151.39 77.99 "/>
<path transform="matrix(1,0,0,-1,0,360)" stroke-width=".38" stroke-linecap="round" stroke-linejoin="round" fill="none" stroke="#000000" d="M 151.39 73.44 L 151.39 77.99 "/>
<path transform="matrix(1,0,0,-1,0,360)" stroke-width=".38" stroke-linecap="round" stroke-linejoin="round" fill="none" stroke="#000000" d="M 152.56 73.44 L 152.56 77.99 "/>
<path transform="matrix(1,0,0,-1,0,360)" stroke-width=".38" stroke-linecap="round" stroke-linejoin="round" fill="none" stroke="#000000" d="M 155.41 73.44 L 155.41 77.99 "/>
<path transform="matrix(1,0,0,-1,0,360)" stroke-width=".38" stroke-linecap="round" stroke-linejoin="round" fill="none" stroke="#000000" d="M 156.42 73.44 L 156.42 77.99 "/>
<path transform="matrix(1,0,0,-1,0,360)" stroke-width=".38" stroke-linecap="round" stroke-linejoin="round" fill="none" stroke="#000000" d="M 157.57 73.44 L 157.57 77.99 "/>
<path transform="matrix(1,0,0,-1,0,360)" stroke-width=".38" stroke-linecap="round" stroke-linejoin="round" fill="none" stroke="#000000" d="M 158.63 73.44 L 158.63 77.99 "/>
<path transform="matrix(1,0,0,-1,0,360)" stroke-width=".38" stroke-linecap="round" stroke-linejoin="round" fill="none" stroke="#000000" d="M 160.03 73.44 L 160.03 77.99 "/>
<path transform="matrix(1,0,0,-1,0,360)" stroke-width=".38" stroke-linecap="round" stroke-linejoin="round" fill="none" stroke="#000000" d="M 160.03 73.44 L 160.03 77.99 "/>
<path transform="matrix(1,0,0,-1,0,360)" stroke-width=".38" stroke-linecap="round" stroke-linejoin="round" fill="none" stroke="#000000" d="M 160.82 73.44 L 160.82 77.99 "/>
<path transform="matrix(1,0,0,-1,0,360)" stroke-width=".38" stroke-linecap="round" stroke-linejoin="round" fill="none" stroke="#000000" d="M 166.9 73.44 L 166.9 77.99 "/>
<path transform="matrix(1,0,0,-1,0,360)" stroke-width=".38" stroke-linecap="round" stroke-linejoin="round" fill="none" stroke="#000000" d="M 166.9 73.44 L 166.9 77.99 "/>
<path transform="matrix(1,0,0,-1,0,360)" stroke-width=".38" stroke-linecap="round" stroke-linejoin="round" fill="none" stroke="#000000" d="M 170.42 73.44 L 170.42 77.99 "/>
<path transform="matrix(1,0,0,-1,0,360)" stroke-width=".38" stroke-linecap="round" stroke-linejoin="round" fill="none" stroke="#000000" d="M 171.65 73.44 L 171.65 77.99 "/>
<path transform="matrix(1,0,0,-1,0,360)" stroke-width=".38" stroke-linecap="round" stroke-linejoin="round" fill="none" stroke="#000000" d="M 173 73.44 L 173 77.99 "/>
<path transform="matrix(1,0,0,-1,0,360)" stroke-width=".38" stroke-linecap="round" stroke-linejoin="round" fill="none" stroke="#000000" d="M 174.37 73.44 L 174.37 77.99 "/>
<path transform="matrix(1,0,0,-1,0,360)" stroke-width=".38" stroke-linecap="round" stroke-linejoin="round" fill="none" stroke="#000000" d="M 175.63 73.44 L 175.63 77.99 "/>
<path transform="matrix(1,0,0,-1,0,360)" stroke-width=".38" stroke-linecap="round" stroke-linejoin="round" fill="none" stroke="#000000" d="M 181.84 73.44 L 181.84 77.99 "/>
<path transform="matrix(1,0,0,-1,0,360)" stroke-width=".38" stroke-linecap="round" stroke-linejoin="round" fill="none" stroke="#000000" d="M 183.71 73.44 L 183.71 77.99 "/>
<path transform="matrix(1,0,0,-1,0,360)" stroke-width=".38" stroke-linecap="round" stroke-linejoin="round" fill="none" stroke="#000000" d="M 184.72 73.44 L 184.72 77.99 "/>
<clipPath id="cp3">
<path transform="matrix(1,0,0,-1,0,360)" d="M 59.04 73.44 L 437.76 73.44 L 437.76 300.96003 L 59.04 300.96003 Z "/>
</clipPath>
<g clip-path="url(#cp3)">
<path transform="matrix(1,0,0,-1,0,360)" stroke-width="1.5" stroke-linecap="round" stroke-linejoin="round" fill="none" stroke="#000000" d="M 193.44 93.56 L 193.44 93.56 L 194.54 96.65 L 195.18 98.45 L 195.71 98.52 L 196.8 98.68 L 196.93 98.7 L 198.32 97.43 L 198.67 97.12 L 199.89 96.27 L 200.42 95.9 L 200.9 94.83 L 201.88 92.66 L 202.16 92.03 L 203.91 90.57 L 205.65 87.72 L 207.39 84.73 L 208 84.05 L 209.14 82.78 L 210.88 81.87 L 212.63 82.88 L 214.28 84.49 L 214.37 84.57 L 215.27 84.17 L 216.12 83.8 L 216.7 84.44 L 217.86 85.72 L 219.25 87.88 L 219.61 88.42 L 220.45 89.1 L 221.35 89.83 L 223.09 89.06 L 224.84 88.06 L 226.58 86.85 L 228.33 85.51 L 230.07 84.2 L 231.82 83.13 L 233.56 82.41 L 235.31 82.02 L 237.05 81.88 L 237.2 81.89 L 237.99 81.93 L 238.79 81.98 L 239.45 82.21 L 240.54 82.6 L 241.29 82.53 L 242.28 82.43 L 243.22 82.13 L 244.03 81.87 L 244.52 81.92 L 245.77 82.04 L 245.84 82.03 L 247.31 82 L 247.52 82 L 249.09 82.78 "/>
</g>
<path transform="matrix(1,0,0,-1,0,360)" stroke-width=".38" stroke-linecap="round" stroke-linejoin="round" fill="none" stroke="#000000" d="M 193.44 73.44 L 193.44 77.99 "/>
<path transform="matrix(1,0,0,-1,0,360)" stroke-width=".38" stroke-linecap="round" stroke-linejoin="round" fill="none" stroke="#000000" d="M 193.44 73.44 L 193.44 77.99 "/>
<path transform="matrix(1,0,0,-1,0,360)" stroke-width=".38" stroke-linecap="round" stroke-linejoin="round" fill="none" stroke="#000000" d="M 194.54 73.44 L 194.54 77.99 "/>
<path transform="matrix(1,0,0,-1,0,360)" stroke-width=".38" stroke-linecap="round" stroke-linejoin="round" fill="none" stroke="#000000" d="M 195.71 73.44 L 195.71 77.99 "/>
<path transform="matrix(1,0,0,-1,0,360)" stroke-width=".38" stroke-linecap="round" stroke-linejoin="round" fill="none" stroke="#000000" d="M 196.8 73.44 L 196.8 77.99 "/>
<path transform="matrix(1,0,0,-1,0,360)" stroke-width=".38" stroke-linecap="round" stroke-linejoin="round" fill="none" stroke="#000000" d="M 198.32 73.44 L 198.32 77.99 "/>
<path transform="matrix(1,0,0,-1,0,360)" stroke-width=".38" stroke-linecap="round" stroke-linejoin="round" fill="none" stroke="#000000" d="M 199.89 73.44 L 199.89 77.99 "/>
<path transform="matrix(1,0,0,-1,0,360)" stroke-width=".38" stroke-linecap="round" stroke-linejoin="round" fill="none" stroke="#000000" d="M 200.9 73.44 L 200.9 77.99 "/>
<path transform="matrix(1,0,0,-1,0,360)" stroke-width=".38" stroke-linecap="round" stroke-linejoin="round" fill="none" stroke="#000000" d="M 201.88 73.44 L 201.88 77.99 "/>
<path transform="matrix(1,0,0,-1,0,360)" stroke-width=".38" stroke-linecap="round" stroke-linejoin="round" fill="none" stroke="#000000" d="M 208 73.44 L 208 77.99 "/>
<path transform="matrix(1,0,0,-1,0,360)" stroke-width=".38" stroke-linecap="round" stroke-linejoin="round" fill="none" stroke="#000000" d="M 214.28 73.44 L 214.28 77.99 "/>
<path transform="matrix(1,0,0,-1,0,360)" stroke-width=".38" stroke-linecap="round" stroke-linejoin="round" fill="none" stroke="#000000" d="M 215.27 73.44 L 215.27 77.99 "/>
<path transform="matrix(1,0,0,-1,0,360)" stroke-width=".38" stroke-linecap="round" stroke-linejoin="round" fill="none" stroke="#000000" d="M 216.7 73.44 L 216.7 77.99 "/>
<path transform="matrix(1,0,0,-1,0,360)" stroke-width=".38" stroke-linecap="round" stroke-linejoin="round" fill="none" stroke="#000000" d="M 219.25 73.44 L 219.25 77.99 "/>
<path transform="matrix(1,0,0,-1,0,360)" stroke-width=".38" stroke-linecap="round" stroke-linejoin="round" fill="none" stroke="#000000" d="M 220.45 73.44 L 220.45 77.99 "/>
<path transform="matrix(1,0,0,-1,0,360)" stroke-width=".38" stroke-linecap="round" stroke-linejoin="round" fill="none" stroke="#000000" d="M 237.2 73.44 L 237.2 77.99 "/>
<path transform="matrix(1,0,0,-1,0,360)" stroke-width=".38" stroke-linecap="round" stroke-linejoin="round" fill="none" stroke="#000000" d="M 237.99 73.44 L 237.99 77.99 "/>
<path transform="matrix(1,0,0,-1,0,360)" stroke-width=".38" stroke-linecap="round" stroke-linejoin="round" fill="none" stroke="#000000" d="M 237.99 73.44 L 237.99 77.99 "/>
<path transform="matrix(1,0,0,-1,0,360)" stroke-width=".38" stroke-linecap="round" stroke-linejoin="round" fill="none" stroke="#000000" d="M 239.45 73.44 L 239.45 77.99 "/>
<path transform="matrix(1,0,0,-1,0,360)" stroke-width=".38" stroke-linecap="round" stroke-linejoin="round" fill="none" stroke="#000000" d="M 241.29 73.44 L 241.29 77.99 "/>
<path transform="matrix(1,0,0,-1,0,360)" stroke-width=".38" stroke-linecap="round" stroke-linejoin="round" fill="none" stroke="#000000" d="M 243.22 73.44 L 243.22 77.99 "/>
<path transform="matrix(1,0,0,-1,0,360)" stroke-width=".38" stroke-linecap="round" stroke-linejoin="round" fill="none" stroke="#000000" d="M 244.52 73.44 L 244.52 77.99 "/>
<path transform="matrix(1,0,0,-1,0,360)" stroke-width=".38" stroke-linecap="round" stroke-linejoin="round" fill="none" stroke="#000000" d="M 245.84 73.44 L 245.84 77.99 "/>
<path transform="matrix(1,0,0,-1,0,360)" stroke-width=".38" stroke-linecap="round" stroke-linejoin="round" fill="none" stroke="#000000" d="M 247.31 73.44 L 247.31 77.99 "/>
<path transform="matrix(1,0,0,-1,0,360)" stroke-width=".38" stroke-linecap="round" stroke-linejoin="round" fill="none" stroke="#000000" d="M 249.09 73.44 L 249.09 77.99 "/>
<clipPath id="cp4">
<path transform="matrix(1,0,0,-1,0,360)" d="M 59.04 73.44 L 437.76 73.44 L 437.76 300.96003 L 59.04 300.96003 Z "/>
</clipPath>
<g clip-path="url(#cp4)">
<path transform="matrix(1,0,0,-1,0,360)" stroke-width="1.5" stroke-linecap="round" stroke-linejoin="round" fill="none" stroke="#000000" d="M 257.81 155.32 L 258.76 146.75 L 259.55 139.56 L 259.94 137.87 L 260.92 133.61 L 261.3 131.96 L 263.04 117.48 L 264.79 99.33 L 264.92 99.01 L 265.93 96.6 L 266.53 95.17 L 267.05 95.3 L 268.19 95.6 L 268.27 95.62 L 269.23 95.81 L 270.02 95.97 L 271.76 93.32 L 273.36 91.26 L 273.51 91.07 L 274.69 94.88 L 275.25 96.67 L 275.62 97.55 L 277 100.88 L 277.21 99.7 L 278.53 92.28 L 278.74 91.07 L 279.38 91.17 L 280.27 91.29 L 280.49 91.32 L 281.87 92.41 L 282.23 92.69 L 282.92 93.43 L 283.73 94.29 L 283.97 94.55 L 285.11 95.12 L 285.72 95.42 L 286.01 95.05 L 287.46 93.24 L 288.22 93.69 L 289.21 94.28 L 290.17 94.01 L 290.95 93.8 L 291.25 93.02 L 292.35 90.2 L 292.7 89.3 L 293.31 89.38 L 294.23 89.51 L 294.44 89.53 L 296.19 87.23 L 297.93 84.72 L 299.67 82.81 L 301.14 82.15 L 301.42 82.02 L 302.2 82.07 L 303.16 82.14 L 303.31 82.34 L 304.91 84.52 L 306.65 89.26 L 307.18 91.19 L 308.14 94.7 L 308.4 95.66 L 310.14 96.44 L 311.89 94.98 L 313.62 91.78 L 313.63 91.76 L 314.59 91.77 "/>
</g>
<path transform="matrix(1,0,0,-1,0,360)" stroke-width=".38" stroke-linecap="round" stroke-linejoin="round" fill="none" stroke="#000000" d="M 257.81 73.44 L 257.81 77.99 "/>
<path transform="matrix(1,0,0,-1,0,360)" stroke-width=".38" stroke-linecap="round" stroke-linejoin="round" fill="none" stroke="#000000" d="M 258.76 73.44 L 258.76 77.99 "/>
<path transform="matrix(1,0,0,-1,0,360)" stroke-width=".38" stroke-linecap="round" stroke-linejoin="round" fill="none" stroke="#000000" d="M 259.94 73.44 L 259.94 77.99 "/>
<path transform="matrix(1,0,0,-1,0,360)" stroke-width=".38" stroke-linecap="round" stroke-linejoin="round" fill="none" stroke="#000000" d="M 260.92 73.44 L 260.92 77.99 "/>
<path transform="matrix(1,0,0,-1,0,360)" stroke-width=".38" stroke-linecap="round" stroke-linejoin="round" fill="none" stroke="#000000" d="M 264.92 73.44 L 264.92 77.99 "/>
<path transform="matrix(1,0,0,-1,0,360)" stroke-width=".38" stroke-linecap="round" stroke-linejoin="round" fill="none" stroke="#000000" d="M 265.93 73.44 L 265.93 77.99 "/>
<path transform="matrix(1,0,0,-1,0,360)" stroke-width=".38" stroke-linecap="round" stroke-linejoin="round" fill="none" stroke="#000000" d="M 265.93 73.44 L 265.93 77.99 "/>
<path transform="matrix(1,0,0,-1,0,360)" stroke-width=".38" stroke-linecap="round" stroke-linejoin="round" fill="none" stroke="#000000" d="M 267.05 73.44 L 267.05 77.99 "/>
<path transform="matrix(1,0,0,-1,0,360)" stroke-width=".38" stroke-linecap="round" stroke-linejoin="round" fill="none" stroke="#000000" d="M 268.19 73.44 L 268.19 77.99 "/>
<path transform="matrix(1,0,0,-1,0,360)" stroke-width=".38" stroke-linecap="round" stroke-linejoin="round" fill="none" stroke="#000000" d="M 269.23 73.44 L 269.23 77.99 "/>
<path transform="matrix(1,0,0,-1,0,360)" stroke-width=".38" stroke-linecap="round" stroke-linejoin="round" fill="none" stroke="#000000" d="M 273.36 73.44 L 273.36 77.99 "/>
<path transform="matrix(1,0,0,-1,0,360)" stroke-width=".38" stroke-linecap="round" stroke-linejoin="round" fill="none" stroke="#000000" d="M 273.36 73.44 L 273.36 77.99 "/>
<path transform="matrix(1,0,0,-1,0,360)" stroke-width=".38" stroke-linecap="round" stroke-linejoin="round" fill="none" stroke="#000000" d="M 274.69 73.44 L 274.69 77.99 "/>
<path transform="matrix(1,0,0,-1,0,360)" stroke-width=".38" stroke-linecap="round" stroke-linejoin="round" fill="none" stroke="#000000" d="M 275.62 73.44 L 275.62 77.99 "/>
<path transform="matrix(1,0,0,-1,0,360)" stroke-width=".38" stroke-linecap="round" stroke-linejoin="round" fill="none" stroke="#000000" d="M 277.21 73.44 L 277.21 77.99 "/>
<path transform="matrix(1,0,0,-1,0,360)" stroke-width=".38" stroke-linecap="round" stroke-linejoin="round" fill="none" stroke="#000000" d="M 278.53 73.44 L 278.53 77.99 "/>
<path transform="matrix(1,0,0,-1,0,360)" stroke-width=".38" stroke-linecap="round" stroke-linejoin="round" fill="none" stroke="#000000" d="M 279.38 73.44 L 279.38 77.99 "/>
<path transform="matrix(1,0,0,-1,0,360)" stroke-width=".38" stroke-linecap="round" stroke-linejoin="round" fill="none" stroke="#000000" d="M 280.27 73.44 L 280.27 77.99 "/>
<path transform="matrix(1,0,0,-1,0,360)" stroke-width=".38" stroke-linecap="round" stroke-linejoin="round" fill="none" stroke="#000000" d="M 281.87 73.44 L 281.87 77.99 "/>
<path transform="matrix(1,0,0,-1,0,360)" stroke-width=".38" stroke-linecap="round" stroke-linejoin="round" fill="none" stroke="#000000" d="M 281.87 73.44 L 281.87 77.99 "/>
<path transform="matrix(1,0,0,-1,0,360)" stroke-width=".38" stroke-linecap="round" stroke-linejoin="round" fill="none" stroke="#000000" d="M 282.92 73.44 L 282.92 77.99 "/>
<path transform="matrix(1,0,0,-1,0,360)" stroke-width=".38" stroke-linecap="round" stroke-linejoin="round" fill="none" stroke="#000000" d="M 283.73 73.44 L 283.73 77.99 "/>
<path transform="matrix(1,0,0,-1,0,360)" stroke-width=".38" stroke-linecap="round" stroke-linejoin="round" fill="none" stroke="#000000" d="M 285.11 73.44 L 285.11 77.99 "/>
<path transform="matrix(1,0,0,-1,0,360)" stroke-width=".38" stroke-linecap="round" stroke-linejoin="round" fill="none" stroke="#000000" d="M 286.01 73.44 L 286.01 77.99 "/>
<path transform="matrix(1,0,0,-1,0,360)" stroke-width=".38" stroke-linecap="round" stroke-linejoin="round" fill="none" stroke="#000000" d="M 288.22 73.44 L 288.22 77.99 "/>
<path transform="matrix(1,0,0,-1,0,360)" stroke-width=".38" stroke-linecap="round" stroke-linejoin="round" fill="none" stroke="#000000" d="M 289.21 73.44 L 289.21 77.99 "/>
<path transform="matrix(1,0,0,-1,0,360)" stroke-width=".38" stroke-linecap="round" stroke-linejoin="round" fill="none" stroke="#000000" d="M 290.17 73.44 L 290.17 77.99 "/>
<path transform="matrix(1,0,0,-1,0,360)" stroke-width=".38" stroke-linecap="round" stroke-linejoin="round" fill="none" stroke="#000000" d="M 291.25 73.44 L 291.25 77.99 "/>
<path transform="matrix(1,0,0,-1,0,360)" stroke-width=".38" stroke-linecap="round" stroke-linejoin="round" fill="none" stroke="#000000" d="M 292.35 73.44 L 292.35 77.99 "/>
<path transform="matrix(1,0,0,-1,0,360)" stroke-width=".38" stroke-linecap="round" stroke-linejoin="round" fill="none" stroke="#000000" d="M 292.35 73.44 L 292.35 77.99 "/>
<path transform="matrix(1,0,0,-1,0,360)" stroke-width=".38" stroke-linecap="round" stroke-linejoin="round" fill="none" stroke="#000000" d="M 293.31 73.44 L 293.31 77.99 "/>
<path transform="matrix(1,0,0,-1,0,360)" stroke-width=".38" stroke-linecap="round" stroke-linejoin="round" fill="none" stroke="#000000" d="M 294.23 73.44 L 294.23 77.99 "/>
<path transform="matrix(1,0,0,-1,0,360)" stroke-width=".38" stroke-linecap="round" stroke-linejoin="round" fill="none" stroke="#000000" d="M 301.14 73.44 L 301.14 77.99 "/>
<path transform="matrix(1,0,0,-1,0,360)" stroke-width=".38" stroke-linecap="round" stroke-linejoin="round" fill="none" stroke="#000000" d="M 302.2 73.44 L 302.2 77.99 "/>
<path transform="matrix(1,0,0,-1,0,360)" stroke-width=".38" stroke-linecap="round" stroke-linejoin="round" fill="none" stroke="#000000" d="M 303.31 73.44 L 303.31 77.99 "/>
<path transform="matrix(1,0,0,-1,0,360)" stroke-width=".38" stroke-linecap="round" stroke-linejoin="round" fill="none" stroke="#000000" d="M 307.18 73.44 L 307.18 77.99 "/>
<path transform="matrix(1,0,0,-1,0,360)" stroke-width=".38" stroke-linecap="round" stroke-linejoin="round" fill="none" stroke="#000000" d="M 307.18 73.44 L 307.18 77.99 "/>
<path transform="matrix(1,0,0,-1,0,360)" stroke-width=".38" stroke-linecap="round" stroke-linejoin="round" fill="none" stroke="#000000" d="M 308.14 73.44 L 308.14 77.99 "/>
<path transform="matrix(1,0,0,-1,0,360)" stroke-width=".38" stroke-linecap="round" stroke-linejoin="round" fill="none" stroke="#000000" d="M 313.62 73.44 L 313.62 77.99 "/>
<path transform="matrix(1,0,0,-1,0,360)" stroke-width=".38" stroke-linecap="round" stroke-linejoin="round" fill="none" stroke="#000000" d="M 314.59 73.44 L 314.59 77.99 "/>
<clipPath id="cp5">
<path transform="matrix(1,0,0,-1,0,360)" d="M 59.04 73.44 L 437.76 73.44 L 437.76 300.96003 L 59.04 300.96003 Z "/>
</clipPath>
<g clip-path="url(#cp5)">
<path transform="matrix(1,0,0,-1,0,360)" stroke-width="1.5" stroke-linecap="round" stroke-linejoin="round" fill="none" stroke="#000000" d="M 323.32 82.37 L 324.7 81.98 L 325.06 81.87 L 325.43 81.91 L 326.17 81.98 L 326.81 82.05 L 327.27 82.25 L 328.55 82.79 L 328.66 82.75 L 330 82.22 L 330.29 82.11 L 331.59 83.03 L 332.04 83.35 L 333.78 83.02 L 334.49 83.17 L 335.53 83.38 L 335.8 83.55 L 337.15 84.4 L 337.27 84.47 L 338.57 84.11 L 339.02 83.99 L 340.76 83.95 L 342.51 83.88 L 344.25 83.77 L 345.99 83.62 L 347.74 83.44 L 349.48 83.24 L 351.23 83.03 L 352.97 82.82 L 354.72 82.64 L 356.46 82.49 L 358.21 82.36 L 358.52 82.28 L 359.49 82.01 L 359.95 81.89 L 360.48 81.98 L 361.54 82.15 "/>
</g>
<path transform="matrix(1,0,0,-1,0,360)" stroke-width=".38" stroke-linecap="round" stroke-linejoin="round" fill="none" stroke="#000000" d="M 323.32 73.44 L 323.32 77.99 "/>
<path transform="matrix(1,0,0,-1,0,360)" stroke-width=".38" stroke-linecap="round" stroke-linejoin="round" fill="none" stroke="#000000" d="M 324.7 73.44 L 324.7 77.99 "/>
<path transform="matrix(1,0,0,-1,0,360)" stroke-width=".38" stroke-linecap="round" stroke-linejoin="round" fill="none" stroke="#000000" d="M 325.43 73.44 L 325.43 77.99 "/>
<path transform="matrix(1,0,0,-1,0,360)" stroke-width=".38" stroke-linecap="round" stroke-linejoin="round" fill="none" stroke="#000000" d="M 326.17 73.44 L 326.17 77.99 "/>
<path transform="matrix(1,0,0,-1,0,360)" stroke-width=".38" stroke-linecap="round" stroke-linejoin="round" fill="none" stroke="#000000" d="M 327.27 73.44 L 327.27 77.99 "/>
<path transform="matrix(1,0,0,-1,0,360)" stroke-width=".38" stroke-linecap="round" stroke-linejoin="round" fill="none" stroke="#000000" d="M 328.66 73.44 L 328.66 77.99 "/>
<path transform="matrix(1,0,0,-1,0,360)" stroke-width=".38" stroke-linecap="round" stroke-linejoin="round" fill="none" stroke="#000000" d="M 328.66 73.44 L 328.66 77.99 "/>
<path transform="matrix(1,0,0,-1,0,360)" stroke-width=".38" stroke-linecap="round" stroke-linejoin="round" fill="none" stroke="#000000" d="M 330 73.44 L 330 77.99 "/>
<path transform="matrix(1,0,0,-1,0,360)" stroke-width=".38" stroke-linecap="round" stroke-linejoin="round" fill="none" stroke="#000000" d="M 331.59 73.44 L 331.59 77.99 "/>
<path transform="matrix(1,0,0,-1,0,360)" stroke-width=".38" stroke-linecap="round" stroke-linejoin="round" fill="none" stroke="#000000" d="M 331.59 73.44 L 331.59 77.99 "/>
<path transform="matrix(1,0,0,-1,0,360)" stroke-width=".38" stroke-linecap="round" stroke-linejoin="round" fill="none" stroke="#000000" d="M 334.49 73.44 L 334.49 77.99 "/>
<path transform="matrix(1,0,0,-1,0,360)" stroke-width=".38" stroke-linecap="round" stroke-linejoin="round" fill="none" stroke="#000000" d="M 335.8 73.44 L 335.8 77.99 "/>
<path transform="matrix(1,0,0,-1,0,360)" stroke-width=".38" stroke-linecap="round" stroke-linejoin="round" fill="none" stroke="#000000" d="M 337.15 73.44 L 337.15 77.99 "/>
<path transform="matrix(1,0,0,-1,0,360)" stroke-width=".38" stroke-linecap="round" stroke-linejoin="round" fill="none" stroke="#000000" d="M 338.57 73.44 L 338.57 77.99 "/>
<path transform="matrix(1,0,0,-1,0,360)" stroke-width=".38" stroke-linecap="round" stroke-linejoin="round" fill="none" stroke="#000000" d="M 358.52 73.44 L 358.52 77.99 "/>
<path transform="matrix(1,0,0,-1,0,360)" stroke-width=".38" stroke-linecap="round" stroke-linejoin="round" fill="none" stroke="#000000" d="M 359.49 73.44 L 359.49 77.99 "/>
<path transform="matrix(1,0,0,-1,0,360)" stroke-width=".38" stroke-linecap="round" stroke-linejoin="round" fill="none" stroke="#000000" d="M 360.48 73.44 L 360.48 77.99 "/>
<path transform="matrix(1,0,0,-1,0,360)" stroke-width=".38" stroke-linecap="round" stroke-linejoin="round" fill="none" stroke="#000000" d="M 361.54 73.44 L 361.54 77.99 "/>
<clipPath id="cp6">
<path transform="matrix(1,0,0,-1,0,360)" d="M 59.04 73.44 L 437.76 73.44 L 437.76 300.96003 L 59.04 300.96003 Z "/>
</clipPath>
<g clip-path="url(#cp6)">
<path transform="matrix(1,0,0,-1,0,360)" stroke-width="1.5" stroke-linecap="round" stroke-linejoin="round" fill="none" stroke="#000000" d="M 370.26 81.87 L 371.61 82.03 L 372.01 82.07 L 372.96 82.13 L 373.75 82.19 L 375.5 82.12 L 377.24 82.04 L 378.99 81.96 L 380.73 81.89 L 382.47 81.87 L 384.22 81.88 L 384.4 81.91 L 385.26 82.05 L 385.96 82.17 L 386.23 82.25 L 387.39 82.6 L 387.71 82.69 L 388.59 83.5 L 389.45 84.29 L 389.77 84.22 L 390.98 83.93 L 391.2 83.87 L 392.33 113.29 L 392.94 129.12 L 393.36 129.13 L 394.69 129.13 L 395.2 126.65 L 396.31 121.27 L 396.43 120.7 L 398.17 133.22 L 399.92 141.38 L 400.08 141.54 L 401.09 142.51 L 401.66 143.07 L 402.1 142.35 "/>
</g>
<path transform="matrix(1,0,0,-1,0,360)" stroke-width=".38" stroke-linecap="round" stroke-linejoin="round" fill="none" stroke="#000000" d="M 370.26 73.44 L 370.26 77.99 "/>
<path transform="matrix(1,0,0,-1,0,360)" stroke-width=".38" stroke-linecap="round" stroke-linejoin="round" fill="none" stroke="#000000" d="M 371.61 73.44 L 371.61 77.99 "/>
<path transform="matrix(1,0,0,-1,0,360)" stroke-width=".38" stroke-linecap="round" stroke-linejoin="round" fill="none" stroke="#000000" d="M 372.96 73.44 L 372.96 77.99 "/>
<path transform="matrix(1,0,0,-1,0,360)" stroke-width=".38" stroke-linecap="round" stroke-linejoin="round" fill="none" stroke="#000000" d="M 384.4 73.44 L 384.4 77.99 "/>
<path transform="matrix(1,0,0,-1,0,360)" stroke-width=".38" stroke-linecap="round" stroke-linejoin="round" fill="none" stroke="#000000" d="M 385.26 73.44 L 385.26 77.99 "/>
<path transform="matrix(1,0,0,-1,0,360)" stroke-width=".38" stroke-linecap="round" stroke-linejoin="round" fill="none" stroke="#000000" d="M 386.23 73.44 L 386.23 77.99 "/>
<path transform="matrix(1,0,0,-1,0,360)" stroke-width=".38" stroke-linecap="round" stroke-linejoin="round" fill="none" stroke="#000000" d="M 387.39 73.44 L 387.39 77.99 "/>
<path transform="matrix(1,0,0,-1,0,360)" stroke-width=".38" stroke-linecap="round" stroke-linejoin="round" fill="none" stroke="#000000" d="M 388.59 73.44 L 388.59 77.99 "/>
<path transform="matrix(1,0,0,-1,0,360)" stroke-width=".38" stroke-linecap="round" stroke-linejoin="round" fill="none" stroke="#000000" d="M 388.59 73.44 L 388.59 77.99 "/>
<path transform="matrix(1,0,0,-1,0,360)" stroke-width=".38" stroke-linecap="round" stroke-linejoin="round" fill="none" stroke="#000000" d="M 389.77 73.44 L 389.77 77.99 "/>
<path transform="matrix(1,0,0,-1,0,360)" stroke-width=".38" stroke-linecap="round" stroke-linejoin="round" fill="none" stroke="#000000" d="M 390.98 73.44 L 390.98 77.99 "/>
<path transform="matrix(1,0,0,-1,0,360)" stroke-width=".38" stroke-linecap="round" stroke-linejoin="round" fill="none" stroke="#000000" d="M 392.33 73.44 L 392.33 77.99 "/>
<path transform="matrix(1,0,0,-1,0,360)" stroke-width=".38" stroke-linecap="round" stroke-linejoin="round" fill="none" stroke="#000000" d="M 393.36 73.44 L 393.36 77.99 "/>
<path transform="matrix(1,0,0,-1,0,360)" stroke-width=".38" stroke-linecap="round" stroke-linejoin="round" fill="none" stroke="#000000" d="M 393.36 73.44 L 393.36 77.99 "/>
<path transform="matrix(1,0,0,-1,0,360)" stroke-width=".38" stroke-linecap="round" stroke-linejoin="round" fill="none" stroke="#000000" d="M 395.2 73.44 L 395.2 77.99 "/>
<path transform="matrix(1,0,0,-1,0,360)" stroke-width=".38" stroke-linecap="round" stroke-linejoin="round" fill="none" stroke="#000000" d="M 396.31 73.44 L 396.31 77.99 "/>
<path transform="matrix(1,0,0,-1,0,360)" stroke-width=".38" stroke-linecap="round" stroke-linejoin="round" fill="none" stroke="#000000" d="M 396.31 73.44 L 396.31 77.99 "/>
<path transform="matrix(1,0,0,-1,0,360)" stroke-width=".38" stroke-linecap="round" stroke-linejoin="round" fill="none" stroke="#000000" d="M 400.08 73.44 L 400.08 77.99 "/>
<path transform="matrix(1,0,0,-1,0,360)" stroke-width=".38" stroke-linecap="round" stroke-linejoin="round" fill="none" stroke="#000000" d="M 401.09 73.44 L 401.09 77.99 "/>
<path transform="matrix(1,0,0,-1,0,360)" stroke-width=".38" stroke-linecap="round" stroke-linejoin="round" fill="none" stroke="#000000" d="M 402.1 73.44 L 402.1 77.99 "/>
<clipPath id="cp7">
<path transform="matrix(1,0,0,-1,0,360)" d="M 59.04 73.44 L 437.76 73.44 L 437.76 300.96003 L 59.04 300.96003 Z "/>
</clipPath>
<g clip-path="url(#cp7)">
<path transform="matrix(1,0,0,-1,0,360)" stroke-width="1.5" stroke-linecap="round" stroke-linejoin="round" fill="none" stroke="#000000" d="M 410.82 219.56 L 411.44 197.88 L 412.57 157.75 L 414.31 149.27 L 416.06 135.92 L 417.8 120.14 L 419.55 105.47 L 421.03 85.47 L 421.29 81.94 L 421.73 81.93 L 422.95 81.88 L 423.04 81.88 L 424.78 81.9 L 425.78 82.02 L 426.52 82.12 L 426.8 82.15 L 427.84 82.28 L 428.27 82.34 L 430.01 81.96 L 430.3 82.11 L 431.33 82.66 L 431.76 82.89 L 432.42 83.23 L 433.4 83.74 "/>
</g>
<path transform="matrix(1,0,0,-1,0,360)" stroke-width=".38" stroke-linecap="round" stroke-linejoin="round" fill="none" stroke="#000000" d="M 410.82 73.44 L 410.82 77.99 "/>
<path transform="matrix(1,0,0,-1,0,360)" stroke-width=".38" stroke-linecap="round" stroke-linejoin="round" fill="none" stroke="#000000" d="M 411.44 73.44 L 411.44 77.99 "/>
<path transform="matrix(1,0,0,-1,0,360)" stroke-width=".38" stroke-linecap="round" stroke-linejoin="round" fill="none" stroke="#000000" d="M 421.03 73.44 L 421.03 77.99 "/>
<path transform="matrix(1,0,0,-1,0,360)" stroke-width=".38" stroke-linecap="round" stroke-linejoin="round" fill="none" stroke="#000000" d="M 421.73 73.44 L 421.73 77.99 "/>
<path transform="matrix(1,0,0,-1,0,360)" stroke-width=".38" stroke-linecap="round" stroke-linejoin="round" fill="none" stroke="#000000" d="M 422.95 73.44 L 422.95 77.99 "/>
<path transform="matrix(1,0,0,-1,0,360)" stroke-width=".38" stroke-linecap="round" stroke-linejoin="round" fill="none" stroke="#000000" d="M 425.78 73.44 L 425.78 77.99 "/>
<path transform="matrix(1,0,0,-1,0,360)" stroke-width=".38" stroke-linecap="round" stroke-linejoin="round" fill="none" stroke="#000000" d="M 426.8 73.44 L 426.8 77.99 "/>
<path transform="matrix(1,0,0,-1,0,360)" stroke-width=".38" stroke-linecap="round" stroke-linejoin="round" fill="none" stroke="#000000" d="M 427.84 73.44 L 427.84 77.99 "/>
<path transform="matrix(1,0,0,-1,0,360)" stroke-width=".38" stroke-linecap="round" stroke-linejoin="round" fill="none" stroke="#000000" d="M 430.3 73.44 L 430.3 77.99 "/>
<path transform="matrix(1,0,0,-1,0,360)" stroke-width=".38" stroke-linecap="round" stroke-linejoin="round" fill="none" stroke="#000000" d="M 431.33 73.44 L 431.33 77.99 "/>
<path transform="matrix(1,0,0,-1,0,360)" stroke-width=".38" stroke-linecap="round" stroke-linejoin="round" fill="none" stroke="#000000" d="M 432.42 73.44 L 432.42 77.99 "/>
<path transform="matrix(1,0,0,-1,0,360)" stroke-width=".38" stroke-linecap="round" stroke-linejoin="round" fill="none" stroke="#000000" d="M 433.4 73.44 L 433.4 77.99 "/>
<path transform="matrix(1,0,0,-1,0,360)" stroke-width=".75" stroke-linecap="round" stroke-linejoin="round" fill="none" stroke="#000000" d="M 89.05 73.44 L 89.05 73.44 "/>
<path transform="matrix(1,0,0,-1,0,360)" stroke-width=".75" stroke-linecap="round" stroke-linejoin="round" fill="none" stroke="#000000" d="M 89.05 73.44 L 89.05 66.24 "/>
<text xml:space="preserve" transform="matrix(1 0 -0 1 0 360)" font-size="12" font-family="LMRoman10"><tspan y="-47.52" x="86.05">2</tspan></text>
<path transform="matrix(1,0,0,-1,0,360)" stroke-width=".75" stroke-linecap="round" stroke-linejoin="round" fill="none" stroke="#000000" d="M 125.01 73.44 L 125.01 73.44 "/>
<path transform="matrix(1,0,0,-1,0,360)" stroke-width=".75" stroke-linecap="round" stroke-linejoin="round" fill="none" stroke="#000000" d="M 125.01 73.44 L 125.01 66.24 "/>
<text xml:space="preserve" transform="matrix(1 0 -0 1 0 360)" font-size="12" font-family="LMRoman10"><tspan y="-47.52" x="122.01">4</tspan></text>
<path transform="matrix(1,0,0,-1,0,360)" stroke-width=".75" stroke-linecap="round" stroke-linejoin="round" fill="none" stroke="#000000" d="M 160.02 73.44 L 160.02 73.44 "/>
<path transform="matrix(1,0,0,-1,0,360)" stroke-width=".75" stroke-linecap="round" stroke-linejoin="round" fill="none" stroke="#000000" d="M 160.02 73.44 L 160.02 66.24 "/>
<text xml:space="preserve" transform="matrix(1 0 -0 1 0 360)" font-size="12" font-family="LMRoman10"><tspan y="-47.52" x="157.02">8</tspan></text>
<path transform="matrix(1,0,0,-1,0,360)" stroke-width=".75" stroke-linecap="round" stroke-linejoin="round" fill="none" stroke="#000000" d="M 221.26 73.44 L 221.26 73.44 "/>
<path transform="matrix(1,0,0,-1,0,360)" stroke-width=".75" stroke-linecap="round" stroke-linejoin="round" fill="none" stroke="#000000" d="M 221.26 73.44 L 221.26 66.24 "/>
<text xml:space="preserve" transform="matrix(1 0 -0 1 0 360)" font-size="12" font-family="LMRoman10"><tspan y="-47.52" x="215.26 221.26">14</tspan></text>
<path transform="matrix(1,0,0,-1,0,360)" stroke-width=".75" stroke-linecap="round" stroke-linejoin="round" fill="none" stroke="#000000" d="M 286.2 73.44 L 286.2 73.44 "/>
<path transform="matrix(1,0,0,-1,0,360)" stroke-width=".75" stroke-linecap="round" stroke-linejoin="round" fill="none" stroke="#000000" d="M 286.2 73.44 L 286.2 66.24 "/>
<text xml:space="preserve" transform="matrix(1 0 -0 1 0 360)" font-size="12" font-family="LMRoman10"><tspan y="-47.52" x="280.2 286.2">15</tspan></text>
<path transform="matrix(1,0,0,-1,0,360)" stroke-width=".75" stroke-linecap="round" stroke-linejoin="round" fill="none" stroke="#000000" d="M 342.43 73.44 L 342.43 73.44 "/>
<path transform="matrix(1,0,0,-1,0,360)" stroke-width=".75" stroke-linecap="round" stroke-linejoin="round" fill="none" stroke="#000000" d="M 342.43 73.44 L 342.43 66.24 "/>
<text xml:space="preserve" transform="matrix(1 0 -0 1 0 360)" font-size="12" font-family="LMRoman10"><tspan y="-47.52" x="336.43 342.43">17</tspan></text>
<path transform="matrix(1,0,0,-1,0,360)" stroke-width=".75" stroke-linecap="round" stroke-linejoin="round" fill="none" stroke="#000000" d="M 386.18 73.44 L 386.18 73.44 "/>
<path transform="matrix(1,0,0,-1,0,360)" stroke-width=".75" stroke-linecap="round" stroke-linejoin="round" fill="none" stroke="#000000" d="M 386.18 73.44 L 386.18 66.24 "/>
<text xml:space="preserve" transform="matrix(1 0 -0 1 0 360)" font-size="12" font-family="LMRoman10"><tspan y="-47.52" x="380.18 386.18">18</tspan></text>
<path transform="matrix(1,0,0,-1,0,360)" stroke-width=".75" stroke-linecap="round" stroke-linejoin="round" fill="none" stroke="#000000" d="M 422.11 73.44 L 422.11 73.44 "/>
<path transform="matrix(1,0,0,-1,0,360)" stroke-width=".75" stroke-linecap="round" stroke-linejoin="round" fill="none" stroke="#000000" d="M 422.11 73.44 L 422.11 66.24 "/>
<text xml:space="preserve" transform="matrix(1 0 -0 1 0 360)" font-size="12" font-family="LMRoman10"><tspan y="-47.52" x="416.11 422.11">20</tspan></text>
<clipPath id="cp8">
<path transform="matrix(1,0,0,-1,0,360)" d="M 59.04 73.44 L 437.76 73.44 L 437.76 300.96003 L 59.04 300.96003 Z "/>
</clipPath>
<g clip-path="url(#cp8)">
<path transform="matrix(1,0,0,-1,0,360)" stroke-width=".75" stroke-linecap="round" stroke-linejoin="round" fill="none" stroke="#000000" d="M 59.04 300.96 L 160.98001 300.96 L 160.98001 228.95999 L 59.04 228.95999 Z "/>
<path transform="matrix(1,0,0,-1,0,360)" stroke-width=".75" stroke-linecap="round" stroke-linejoin="round" fill="none" stroke="#000000" d="M 69.84 286.56 L 91.44 286.56 "/>
<path transform="matrix(1,0,0,-1,0,360)" stroke-width=".75" stroke-linecap="round" stroke-dasharray="2.25,3.75" stroke-linejoin="round" fill="none" stroke="#000000" d="M 69.84 272.16 L 91.44 272.16 "/>
<path transform="matrix(1,0,0,-1,0,360)" stroke-width=".75" stroke-linecap="round" stroke-dasharray="0,3" stroke-linejoin="round" fill="none" stroke="#000000" d="M 69.84 257.76 L 91.44 257.76 "/>
<path transform="matrix(1,0,0,-1,0,360)" stroke-width=".75" stroke-linecap="round" stroke-dasharray="0,3,2.25,3" stroke-linejoin="round" fill="none" stroke="#000000" d="M 69.84 243.36 L 91.44 243.36 "/>
<text xml:space="preserve" transform="matrix(1 0 -0 1 0 360)" font-size="12" font-family="LMRoman10"><tspan y="-282.46" x="102.24 110.904 116.904 121.631999 130.29599 135.624 138.95999">Caswell</tspan></text>
<text xml:space="preserve" transform="matrix(1 0 -0 1 0 360)" font-size="12" font-family="LMRoman10"><tspan y="-268.06" x="102.24 110.904 114.24 120.24 126.576 131.244 137.244">Clayton</tspan></text>
<text xml:space="preserve" transform="matrix(1 0 -0 1 0 360)" font-size="12" font-family="LMRoman10"><tspan y="-253.66" x="102.24 110.904 116.904 126.9 133.572 136.908 143.58 148.908">Combined</tspan></text>
<text xml:space="preserve" transform="matrix(1 0 -0 1 0 360)" font-size="12" font-family="LMRoman10"><tspan y="-239.26" x="102.24 110.412 113.748 120.084 130.08 136.08 142.752 147.42">Plymouth</tspan></text>
<path transform="matrix(1,0,0,-1,0,360)" stroke-width="1.5" stroke-linecap="round" stroke-dasharray="4.5,7.5" stroke-linejoin="round" fill="none" stroke="#000000" d="M 63.4 115.87 L 64.42 115.65 L 65.15 115.49 L 66.43 112.41 L 66.89 111.29 L 67.67 109.92 L 68.63 108.24 L 69.51 106.96 L 70.38 105.68 L 70.61 105.39 L 71.87 103.79 L 72.12 103.47 L 73.87 113.99 L 74.04 114.79 L 75.61 122 L 77.36 124.06 L 77.75 122 L 78.82 116.44 L 79.1 114.96 L 80.14 111.67 L 80.85 109.42 L 81.54 111.46 L 82.59 114.53 L 82.66 114.63 L 83.87 116.38 L 84.33 117.06 L 84.96 118.91 L 86.08 122.18 L 87.82 124.72 L 89.57 124.32 L 91.31 120.02 L 93.06 112.18 L 94.8 103.23 L 96.12 98.34 L 96.55 96.77 L 97.39 98.21 L 98.29 99.75 L 100.03 108.33 L 101.4 112.49 L 101.78 113.64 L 103.52 113.26 L 104.5 115.52 L 105.24 117.23 L 105.27 117.3 L 106.13 113.85 L 107.01 110.36 L 107.14 110.21 L 108.1 109.08 L 108.76 108.3 L 108.92 107.83 L 109.79 105.23 L 110.5 103.14 L 110.69 102.19 L 111.78 96.71 L 112.25 94.36 L 112.62 93.57 L 113.61 91.49 L 113.99 90.69 L 114.7 88.87 "/>
<path transform="matrix(1,0,0,-1,0,360)" stroke-width="1.5" stroke-linecap="round" stroke-dasharray="4.5,7.5" stroke-linejoin="round" fill="none" stroke="#000000" d="M 123.42 90.99 L 125.03 84.37 L 125.16 83.81 L 125.83 85.04 L 126.6 86.45 "/>
<path transform="matrix(1,0,0,-1,0,360)" stroke-width="1.5" stroke-linecap="round" stroke-dasharray="4.5,7.5" stroke-linejoin="round" fill="none" stroke="#000000" d="M 135.32 81.91 L 136.21 81.92 L 137.07 81.94 L 137.09 81.94 L 138.81 82.19 L 139.14 82.49 L 140.21 83.49 L 140.56 83.82 L 141.26 85 L 142.3 86.75 L 144.05 86.89 L 145.05 86.71 L 145.79 86.57 L 147.54 85.75 L 149.28 84.38 L 149.65 84.16 L 151.02 83.31 L 151.39 83.53 L 152.56 84.25 L 152.77 84.38 L 154.51 86.12 L 155.41 86.88 L 156.26 87.61 L 156.42 87.69 L 157.57 88.22 L 158 88.42 L 158.63 88.04 L 159.75 87.36 L 160.03 87.92 L 160.82 89.49 L 161.49 90.81 L 163.24 95.57 L 164.98 99.16 L 166.73 100.41 L 166.9 99.49 L 168.47 91.07 L 170.21 83.67 L 170.42 83.64 L 171.65 83.47 L 171.96 83.42 L 173 83.39 L 173.7 83.37 L 174.37 83.72 L 175.45 84.26 L 175.63 84.29 L 177.19 84.47 L 178.94 84.2 L 180.68 83.58 L 181.84 82.95 L 182.43 82.63 L 183.71 82.15 L 184.17 81.98 L 184.72 82.01 "/>
<path transform="matrix(1,0,0,-1,0,360)" stroke-width="1.5" stroke-linecap="round" stroke-dasharray="4.5,7.5" stroke-linejoin="round" fill="none" stroke="#000000" d="M 193.44 89.75 L 193.44 89.75 L 194.54 91.55 L 195.18 92.6 L 195.71 93.02 L 196.8 93.89 L 196.93 93.99 L 198.32 91.35 L 198.67 90.69 L 199.89 89.66 L 200.42 89.21 L 200.9 88.4 L 201.88 86.75 L 202.16 86.28 L 203.91 91.25 L 205.65 96.2 L 207.39 97.76 L 208 96.96 L 209.14 95.45 L 210.88 90.33 L 212.63 85.05 L 214.28 82.57 L 214.37 82.44 L 215.27 82.15 L 216.12 81.88 L 216.7 82.48 L 217.86 83.68 L 219.25 85.46 L 219.61 85.91 L 220.45 85.95 L 221.35 86 L 223.09 85.41 L 224.84 84.69 L 226.58 83.88 L 228.33 83.09 L 230.07 82.45 L 231.82 82.04 L 233.56 81.88 L 235.31 81.9 L 237.05 82.02 L 237.2 82.14 L 237.99 82.78 L 238.79 83.43 L 239.45 84.72 L 240.54 86.85 L 241.29 86.76 L 242.28 86.63 L 243.22 84.82 L 244.03 83.24 L 244.52 82.94 L 245.77 82.16 L 245.84 82.15 L 247.31 81.9 L 247.52 81.87 L 249.09 83.14 "/>
<path transform="matrix(1,0,0,-1,0,360)" stroke-width="1.5" stroke-linecap="round" stroke-dasharray="4.5,7.5" stroke-linejoin="round" fill="none" stroke="#000000" d="M 257.81 165.84 L 258.76 166.44 L 259.55 166.94 L 259.94 166.17 L 260.92 164.22 L 261.3 163.46 L 263.04 145.23 L 264.79 121.4 L 264.92 121.39 L 265.93 121.3 L 266.53 121.24 L 267.05 109.9 L 268.19 85.19 L 268.27 83.34 L 269.23 83.28 L 270.02 83.23 L 271.76 82.9 L 273.36 82.66 L 273.51 82.64 L 274.69 82.76 L 275.25 82.81 L 275.62 82.72 L 277 82.36 L 277.21 82.34 L 278.53 82.2 L 278.74 82.18 L 279.38 82.07 L 280.27 81.91 L 280.49 81.87 L 281.87 82.4 L 282.23 82.54 L 282.92 82.45 L 283.73 82.35 L 283.97 82.32 L 285.11 82.63 L 285.72 82.8 L 286.01 82.8 L 287.46 82.8 L 288.22 82.86 L 289.21 82.95 L 290.17 82.78 L 290.95 82.64 L 291.25 82.7 L 292.35 82.9 L 292.7 82.96 L 293.31 82.82 L 294.23 82.61 L 294.44 82.56 L 296.19 83.53 L 297.93 84.84 L 299.67 86.02 L 301.14 86.33 L 301.42 86.39 L 302.2 86.7 L 303.16 87.08 L 303.31 87.42 L 304.91 91.12 L 306.65 92.71 L 307.18 92.95 L 308.14 93.39 L 308.4 93.51 L 310.14 100.31 L 311.89 105.37 L 313.62 106.81 L 313.63 106.82 L 314.59 104.52 "/>
<path transform="matrix(1,0,0,-1,0,360)" stroke-width="1.5" stroke-linecap="round" stroke-dasharray="4.5,7.5" stroke-linejoin="round" fill="none" stroke="#000000" d="M 323.32 82.29 L 324.7 82.04 L 325.06 81.97 L 325.43 82.04 L 326.17 82.17 L 326.81 82.28 L 327.27 83.1 L 328.55 85.36 L 328.66 85.22 L 330 83.42 L 330.29 83.04 L 331.59 82.43 L 332.04 82.22 L 333.78 81.87 L 334.49 81.89 L 335.53 81.92 L 335.8 81.92 L 337.15 81.87 L 337.27 81.87 L 338.57 81.97 L 339.02 82 L 340.76 82.17 L 342.51 82.48 L 344.25 82.99 L 345.99 83.72 L 347.74 84.62 L 349.48 85.5 L 351.23 86.19 L 352.97 86.62 L 354.72 86.82 L 356.46 86.86 L 358.21 86.81 L 358.52 87.56 L 359.49 89.83 L 359.95 90.93 L 360.48 89.24 L 361.54 85.87 "/>
<path transform="matrix(1,0,0,-1,0,360)" stroke-width="1.5" stroke-linecap="round" stroke-dasharray="4.5,7.5" stroke-linejoin="round" fill="none" stroke="#000000" d="M 370.26 82.82 L 371.61 82.79 L 372.01 82.79 L 372.96 82.9 L 373.75 82.99 L 375.5 82.75 L 377.24 82.47 L 378.99 82.18 L 380.73 81.96 L 382.47 81.87 L 384.22 81.9 L 384.4 81.92 L 385.26 81.98 L 385.96 82.04 L 386.23 82.23 L 387.39 83.07 L 387.71 83.29 L 388.59 83.79 L 389.45 84.28 L 389.77 85.01 L 390.98 87.74 L 391.2 88.22 L 392.33 115.98 L 392.94 130.92 L 393.36 130.56 L 394.69 129.42 L 395.2 126.19 L 396.31 119.17 L 396.43 118.43 L 398.17 126.33 L 399.92 128.96 L 400.08 128.77 L 401.09 127.62 L 401.66 126.97 L 402.1 126.96 "/>
<path transform="matrix(1,0,0,-1,0,360)" stroke-width="1.5" stroke-linecap="round" stroke-dasharray="4.5,7.5" stroke-linejoin="round" fill="none" stroke="#000000" d="M 410.82 249.56 L 411.44 216.63 L 412.57 155.72 L 414.31 145.55 L 416.06 131.36 L 417.8 114.88 L 419.55 82.27 L 421.03 82 L 421.29 81.95 L 421.73 81.97 L 422.95 82.04 L 423.04 82.05 L 424.78 81.92 L 425.78 82.2 L 426.52 82.41 L 426.8 82.4 L 427.84 82.37 L 428.27 82.36 L 430.01 81.92 L 430.3 81.95 L 431.33 82.06 L 431.76 82.11 L 432.42 82.18 L 433.4 82.3 "/>
<path transform="matrix(1,0,0,-1,0,360)" stroke-width=".75" stroke-linecap="round" stroke-linejoin="round" fill="none" stroke="#000000" d="M 59.04 300.96 L 160.98001 300.96 L 160.98001 228.95999 L 59.04 228.95999 Z "/>
<path transform="matrix(1,0,0,-1,0,360)" stroke-width=".75" stroke-linecap="round" stroke-linejoin="round" fill="none" stroke="#000000" d="M 69.84 286.56 L 91.44 286.56 "/>
<path transform="matrix(1,0,0,-1,0,360)" stroke-width=".75" stroke-linecap="round" stroke-dasharray="2.25,3.75" stroke-linejoin="round" fill="none" stroke="#000000" d="M 69.84 272.16 L 91.44 272.16 "/>
<path transform="matrix(1,0,0,-1,0,360)" stroke-width=".75" stroke-linecap="round" stroke-dasharray="0,3" stroke-linejoin="round" fill="none" stroke="#000000" d="M 69.84 257.76 L 91.44 257.76 "/>
<path transform="matrix(1,0,0,-1,0,360)" stroke-width=".75" stroke-linecap="round" stroke-dasharray="0,3,2.25,3" stroke-linejoin="round" fill="none" stroke="#000000" d="M 69.84 243.36 L 91.44 243.36 "/>
<text xml:space="preserve" transform="matrix(1 0 -0 1 0 360)" font-size="12" font-family="LMRoman10"><tspan y="-282.46" x="102.24 110.904 116.904 121.631999 130.29599 135.624 138.95999">Caswell</tspan></text>
<text xml:space="preserve" transform="matrix(1 0 -0 1 0 360)" font-size="12" font-family="LMRoman10"><tspan y="-268.06" x="102.24 110.904 114.24 120.24 126.576 131.244 137.244">Clayton</tspan></text>
<text xml:space="preserve" transform="matrix(1 0 -0 1 0 360)" font-size="12" font-family="LMRoman10"><tspan y="-253.66" x="102.24 110.904 116.904 126.9 133.572 136.908 143.58 148.908">Combined</tspan></text>
<text xml:space="preserve" transform="matrix(1 0 -0 1 0 360)" font-size="12" font-family="LMRoman10"><tspan y="-239.26" x="102.24 110.412 113.748 120.084 130.08 136.08 142.752 147.42">Plymouth</tspan></text>
<path transform="matrix(1,0,0,-1,0,360)" stroke-width="1.5" stroke-linecap="round" stroke-dasharray="0,6" stroke-linejoin="round" fill="none" stroke="#000000" d="M 63.4 143.41 L 64.42 145.39 L 65.15 146.8 L 66.43 142.15 L 66.89 140.47 L 67.67 138.83 L 68.63 136.82 L 69.51 132.96 L 70.38 129.11 L 70.61 129.49 L 71.87 131.54 L 72.12 131.95 L 73.87 82.62 L 74.04 82.86 L 75.61 84.96 L 77.36 87.3 L 77.75 86.56 L 78.82 84.56 L 79.1 84.03 L 80.14 83.29 L 80.85 82.78 L 81.54 82.88 L 82.59 83.04 L 82.66 83.13 L 83.87 84.57 L 84.33 85.12 L 84.96 85.45 L 86.08 86.02 L 87.82 87.69 L 89.57 89.34 L 91.31 90.37 L 93.06 90.47 L 94.8 89.86 L 96.12 116.94 L 96.55 125.64 L 97.39 128.25 L 98.29 131.05 L 100.03 140.18 L 101.4 145.61 L 101.78 147.1 L 103.52 155.8 L 104.5 155.04 L 105.24 154.46 L 105.27 154.44 L 106.13 155.04 L 107.01 155.64 L 107.14 155.83 L 108.1 157.26 L 108.76 158.25 L 108.92 156.59 L 109.79 147.39 L 110.5 139.97 L 110.69 138.39 L 111.78 129.3 L 112.25 125.41 L 112.62 116.01 L 113.61 91.4 L 113.99 81.91 L 114.7 81.89 "/>
<path transform="matrix(1,0,0,-1,0,360)" stroke-width="1.5" stroke-linecap="round" stroke-dasharray="0,6" stroke-linejoin="round" fill="none" stroke="#000000" d="M 123.42 82.06 L 125.03 82.12 L 125.16 82.12 L 125.83 82.44 L 126.6 82.8 "/>
<path transform="matrix(1,0,0,-1,0,360)" stroke-width="1.5" stroke-linecap="round" stroke-dasharray="0,6" stroke-linejoin="round" fill="none" stroke="#000000" d="M 135.32 88.15 L 136.21 89.26 L 137.07 90.34 L 137.09 90.43 L 138.81 96.89 L 139.14 99.71 L 140.21 109.04 L 140.56 112.11 L 141.26 117.57 L 142.3 125.7 L 144.05 122.34 L 145.05 119.79 L 145.79 117.9 L 147.54 114.01 L 149.28 104 L 149.65 99.82 L 151.02 84.29 L 151.39 84.8 L 152.56 86.43 L 152.77 86.73 L 154.51 93.26 L 155.41 94.12 L 156.26 94.94 L 156.42 95.07 L 157.57 95.97 L 158 96.31 L 158.63 97.29 L 159.75 99.06 L 160.03 99.64 L 160.82 101.24 L 161.49 102.6 L 163.24 102.72 L 164.98 100.19 L 166.73 95.92 L 166.9 95.44 L 168.47 90.98 L 170.21 85.24 L 170.42 85.09 L 171.65 84.15 L 171.96 83.92 L 173 84.16 L 173.7 84.32 L 174.37 85.85 L 175.45 88.3 L 175.63 88.38 L 177.19 89.14 L 178.94 88.31 L 180.68 86.56 L 181.84 85.54 L 182.43 85.03 L 183.71 83.95 L 184.17 83.57 L 184.72 83.45 "/>
<path transform="matrix(1,0,0,-1,0,360)" stroke-width="1.5" stroke-linecap="round" stroke-dasharray="0,6" stroke-linejoin="round" fill="none" stroke="#000000" d="M 193.44 224.03 L 193.44 224.03 L 194.54 236.11 L 195.18 243.16 L 195.71 243.85 L 196.8 245.29 L 196.93 245.45 L 198.32 255.03 L 198.67 257.42 L 199.89 254.4 L 200.42 253.07 L 200.9 243.84 L 201.88 225.04 L 202.16 219.63 L 203.91 221.95 L 205.65 92.62 L 207.39 92.14 L 208 91.05 L 209.14 89.01 L 210.88 83.95 L 212.63 81.87 L 214.28 82.95 L 214.37 83.01 L 215.27 83.52 L 216.12 84 L 216.7 85.51 L 217.86 88.51 L 219.25 92.38 L 219.61 93.36 L 220.45 94.35 L 221.35 95.42 L 223.09 95.71 L 224.84 95.6 L 226.58 94.82 L 228.33 93.24 L 230.07 90.97 L 231.82 88.46 L 233.56 86.26 L 235.31 84.65 L 237.05 83.58 L 237.2 83.45 L 237.99 82.73 L 238.79 82.01 L 239.45 82.05 L 240.54 82.12 L 241.29 82.26 L 242.28 82.43 L 243.22 82.14 L 244.03 81.89 L 244.52 81.91 L 245.77 81.95 L 245.84 81.96 L 247.31 82.24 L 247.52 82.28 L 249.09 81.99 "/>
<path transform="matrix(1,0,0,-1,0,360)" stroke-width="1.5" stroke-linecap="round" stroke-dasharray="0,6" stroke-linejoin="round" fill="none" stroke="#000000" d="M 257.81 106.65 L 258.76 103.92 L 259.55 101.63 L 259.94 112.85 L 260.92 141.11 L 261.3 152.11 L 263.04 150.59 L 264.79 140.23 L 264.92 140.91 L 265.93 146 L 266.53 149.03 L 267.05 146.86 L 268.19 142.15 L 268.27 141.8 L 269.23 140.43 L 270.02 139.31 L 271.76 126.94 L 273.36 112.22 L 273.51 110.83 L 274.69 105.9 L 275.25 103.59 L 275.62 102.28 L 277 97.32 L 277.21 95.62 L 278.53 84.98 L 278.74 83.24 L 279.38 83.45 L 280.27 83.75 L 280.49 83.82 L 281.87 82.47 L 282.23 82.12 L 282.92 82.1 L 283.73 82.07 L 283.97 82.06 L 285.11 82.15 L 285.72 82.19 L 286.01 82.16 L 287.46 82.03 L 288.22 82.01 L 289.21 82 L 290.17 82.55 L 290.95 83.01 L 291.25 82.91 L 292.35 82.56 L 292.7 82.45 L 293.31 82.49 L 294.23 82.54 L 294.44 82.55 L 296.19 81.94 L 297.93 82.01 L 299.67 82.81 L 301.14 83.65 L 301.42 83.82 L 302.2 83.55 L 303.16 83.23 L 303.31 83.11 L 304.91 81.89 L 306.65 84.35 L 307.18 85.45 L 308.14 87.45 L 308.4 88 L 310.14 91.27 L 311.89 93.34 L 313.62 93.07 L 313.63 93.07 L 314.59 91.55 "/>
<path transform="matrix(1,0,0,-1,0,360)" stroke-width="1.5" stroke-linecap="round" stroke-dasharray="0,6" stroke-linejoin="round" fill="none" stroke="#000000" d="M 323.32 82.07 L 324.7 82.01 L 325.06 81.99 L 325.43 81.97 L 326.17 81.93 L 326.81 81.9 L 327.27 81.95 L 328.55 82.09 L 328.66 82.17 L 330 83.19 L 330.29 83.41 L 331.59 85.54 L 332.04 86.28 L 333.78 85.79 L 334.49 85.31 L 335.53 84.61 L 335.8 84.78 L 337.15 85.69 L 337.27 85.77 L 338.57 84.63 L 339.02 84.24 L 340.76 84.28 L 342.51 84.28 L 344.25 84.2 L 345.99 83.99 L 347.74 83.63 L 349.48 83.17 L 351.23 82.71 L 352.97 82.36 L 354.72 82.12 L 356.46 81.99 L 358.21 81.91 L 358.52 82.13 L 359.49 82.79 L 359.95 83.11 L 360.48 82.73 L 361.54 81.98 "/>
<path transform="matrix(1,0,0,-1,0,360)" stroke-width="1.5" stroke-linecap="round" stroke-dasharray="0,6" stroke-linejoin="round" fill="none" stroke="#000000" d="M 370.26 83.17 L 371.61 82.42 L 372.01 82.2 L 372.96 82.02 L 373.75 81.87 L 375.5 81.93 L 377.24 82.28 L 378.99 83.19 L 380.73 84.66 L 382.47 86.13 L 384.22 86.99 L 384.4 86.94 L 385.26 86.7 L 385.96 86.5 L 386.23 94.33 L 387.39 128.61 L 387.71 137.91 L 388.59 142.45 L 389.45 146.9 L 389.77 149.71 L 390.98 160.33 L 391.2 162.2 L 392.33 168.42 L 392.94 171.76 L 393.36 171.55 L 394.69 170.9 L 395.2 165.41 L 396.31 153.5 L 396.43 152.24 L 398.17 150.88 L 399.92 136.85 L 400.08 137.24 L 401.09 139.61 L 401.66 140.97 L 402.1 141.17 "/>
<path transform="matrix(1,0,0,-1,0,360)" stroke-width="1.5" stroke-linecap="round" stroke-dasharray="0,6" stroke-linejoin="round" fill="none" stroke="#000000" d="M 410.82 223.54 L 411.44 192.93 L 412.57 136.3 L 414.31 133.85 L 416.06 126.66 L 417.8 116.1 L 419.55 105.03 L 421.03 86.06 L 421.29 82.71 L 421.73 83.11 L 422.95 84.22 L 423.04 84.3 L 424.78 89.08 L 425.78 91.29 L 426.52 92.92 L 426.8 92.48 L 427.84 90.83 L 428.27 90.15 L 430.01 84.72 L 430.3 84.32 L 431.33 82.88 L 431.76 82.28 L 432.42 82.17 L 433.4 82.02 "/>
<path transform="matrix(1,0,0,-1,0,360)" stroke-width=".75" stroke-linecap="round" stroke-linejoin="round" fill="none" stroke="#000000" d="M 59.04 300.96 L 160.98001 300.96 L 160.98001 228.95999 L 59.04 228.95999 Z "/>
<path transform="matrix(1,0,0,-1,0,360)" stroke-width=".75" stroke-linecap="round" stroke-linejoin="round" fill="none" stroke="#000000" d="M 69.84 286.56 L 91.44 286.56 "/>
<path transform="matrix(1,0,0,-1,0,360)" stroke-width=".75" stroke-linecap="round" stroke-dasharray="2.25,3.75" stroke-linejoin="round" fill="none" stroke="#000000" d="M 69.84 272.16 L 91.44 272.16 "/>
<path transform="matrix(1,0,0,-1,0,360)" stroke-width=".75" stroke-linecap="round" stroke-dasharray="0,3" stroke-linejoin="round" fill="none" stroke="#000000" d="M 69.84 257.76 L 91.44 257.76 "/>
<path transform="matrix(1,0,0,-1,0,360)" stroke-width=".75" stroke-linecap="round" stroke-dasharray="0,3,2.25,3" stroke-linejoin="round" fill="none" stroke="#000000" d="M 69.84 243.36 L 91.44 243.36 "/>
<text xml:space="preserve" transform="matrix(1 0 -0 1 0 360)" font-size="12" font-family="LMRoman10"><tspan y="-282.46" x="102.24 110.904 116.904 121.631999 130.29599 135.624 138.95999">Caswell</tspan></text>
<text xml:space="preserve" transform="matrix(1 0 -0 1 0 360)" font-size="12" font-family="LMRoman10"><tspan y="-268.06" x="102.24 110.904 114.24 120.24 126.576 131.244 137.244">Clayton</tspan></text>
<text xml:space="preserve" transform="matrix(1 0 -0 1 0 360)" font-size="12" font-family="LMRoman10"><tspan y="-253.66" x="102.24 110.904 116.904 126.9 133.572 136.908 143.58 148.908">Combined</tspan></text>
<text xml:space="preserve" transform="matrix(1 0 -0 1 0 360)" font-size="12" font-family="LMRoman10"><tspan y="-239.26" x="102.24 110.412 113.748 120.084 130.08 136.08 142.752 147.42">Plymouth</tspan></text>
<path transform="matrix(1,0,0,-1,0,360)" stroke-width="1.5" stroke-linecap="round" stroke-dasharray="0,6,4.5,6" stroke-linejoin="round" fill="none" stroke="#000000" d="M 63.4 136.38 L 64.42 138.35 L 65.15 139.75 L 66.43 149.69 L 66.89 153.29 L 67.67 157.89 L 68.63 163.56 L 69.51 163.16 L 70.38 162.75 L 70.61 163.04 L 71.87 164.65 L 72.12 164.96 L 73.87 147.64 L 74.04 146.88 L 75.61 140.03 L 77.36 127.64 L 77.75 125.43 L 78.82 119.49 L 79.1 117.9 L 80.14 96.89 L 80.85 82.52 L 81.54 82.27 L 82.59 81.88 L 82.66 81.92 L 83.87 82.49 L 84.33 82.72 L 84.96 83.11 L 86.08 83.8 L 87.82 83.49 L 89.57 83.13 L 91.31 82.77 L 93.06 82.46 L 94.8 82.23 L 96.12 81.99 L 96.55 81.91 L 97.39 81.89 L 98.29 81.87 L 100.03 82.12 L 101.4 105.54 L 101.78 111.99 L 103.52 120.98 L 104.5 123.92 L 105.24 126.16 L 105.27 126.24 L 106.13 125.13 L 107.01 124 L 107.14 124.49 L 108.1 128.35 L 108.76 131 L 108.92 131.36 L 109.79 133.31 L 110.5 134.88 L 110.69 134.2 L 111.78 130.29 L 112.25 128.62 L 112.62 128.1 L 113.61 126.72 L 113.99 126.2 L 114.7 125.07 "/>
<path transform="matrix(1,0,0,-1,0,360)" stroke-width="1.5" stroke-linecap="round" stroke-dasharray="0,6,4.5,6" stroke-linejoin="round" fill="none" stroke="#000000" d="M 123.42 81.89 L 125.03 82.03 L 125.16 82.04 L 125.83 81.97 L 126.6 81.9 "/>
<path transform="matrix(1,0,0,-1,0,360)" stroke-width="1.5" stroke-linecap="round" stroke-dasharray="0,6,4.5,6" stroke-linejoin="round" fill="none" stroke="#000000" d="M 135.32 94.62 L 136.21 94.31 L 137.07 94.01 L 137.09 93.98 L 138.81 91.77 L 139.14 92.19 L 140.21 93.58 L 140.56 94.04 L 141.26 94.43 L 142.3 95.01 L 144.05 90.87 L 145.05 89.73 L 145.79 88.88 L 147.54 89.79 L 149.28 89.77 L 149.65 88.46 L 151.02 83.6 L 151.39 84.06 L 152.56 85.55 L 152.77 85.82 L 154.51 87.7 L 155.41 88.42 L 156.26 89.12 L 156.42 89.1 L 157.57 88.95 L 158 88.89 L 158.63 88.22 L 159.75 87.02 L 160.03 86.97 L 160.82 86.82 L 161.49 86.7 L 163.24 86.19 L 164.98 85.31 L 166.73 84.33 L 166.9 84.21 L 168.47 83.08 L 170.21 82.15 L 170.42 82.12 L 171.65 81.94 L 171.96 81.89 L 173 81.9 L 173.7 81.9 L 174.37 81.99 L 175.45 82.14 L 175.63 82.16 L 177.19 82.32 L 178.94 82.46 L 180.68 82.56 L 181.84 82.63 L 182.43 82.66 L 183.71 82.19 L 184.17 82.02 L 184.72 81.99 "/>
<path transform="matrix(1,0,0,-1,0,360)" stroke-width="1.5" stroke-linecap="round" stroke-dasharray="0,6,4.5,6" stroke-linejoin="round" fill="none" stroke="#000000" d="M 193.44 151.34 L 193.44 151.34 L 194.54 154.79 L 195.18 156.8 L 195.71 156.53 L 196.8 155.96 L 196.93 155.89 L 198.32 159.62 L 198.67 160.55 L 199.89 176.28 L 200.42 183.15 L 200.9 180.55 L 201.88 175.26 L 202.16 173.73 L 203.91 169.17 L 205.65 154.15 L 207.39 130.01 L 208 124.99 L 209.14 115.57 L 210.88 103.38 L 212.63 91.14 L 214.28 84.58 L 214.37 84.23 L 215.27 83.84 L 216.12 83.48 L 216.7 83.76 L 217.86 84.33 L 219.25 85.99 L 219.61 86.41 L 220.45 86.83 L 221.35 87.28 L 223.09 88.51 L 224.84 89.88 L 226.58 91.19 L 228.33 92.2 L 230.07 92.75 L 231.82 92.79 L 233.56 92.42 L 235.31 91.82 L 237.05 91.14 L 237.2 90.72 L 237.99 88.47 L 238.79 86.16 L 239.45 84.95 L 240.54 82.95 L 241.29 82.91 L 242.28 82.85 L 243.22 83.55 L 244.03 84.16 L 244.52 83.8 L 245.77 82.88 L 245.84 82.98 L 247.31 85.44 L 247.52 85.78 L 249.09 83.77 "/>
<path transform="matrix(1,0,0,-1,0,360)" stroke-width="1.5" stroke-linecap="round" stroke-dasharray="0,6,4.5,6" stroke-linejoin="round" fill="none" stroke="#000000" d="M 257.81 196.84 L 258.76 197.5 L 259.55 198.05 L 259.94 196.79 L 260.92 193.61 L 261.3 192.37 L 263.04 182.88 L 264.79 162.47 L 264.92 161.14 L 265.93 151.21 L 266.53 145.3 L 267.05 140.1 L 268.19 128.77 L 268.27 127.93 L 269.23 104.34 L 270.02 84.93 L 271.76 89.17 L 273.36 91.09 L 273.51 91.27 L 274.69 88.22 L 275.25 86.79 L 275.62 87.05 L 277 88.05 L 277.21 87.58 L 278.53 84.67 L 278.74 84.19 L 279.38 84.06 L 280.27 83.87 L 280.49 83.83 L 281.87 83.47 L 282.23 83.38 L 282.92 83.22 L 283.73 83.03 L 283.97 82.98 L 285.11 84.17 L 285.72 84.8 L 286.01 84.57 L 287.46 83.45 L 288.22 82.99 L 289.21 82.38 L 290.17 82.75 L 290.95 83.06 L 291.25 83.71 L 292.35 86.09 L 292.7 86.85 L 293.31 87.45 L 294.23 88.35 L 294.44 88.56 L 296.19 97.04 L 297.93 108.97 L 299.67 120.87 L 301.14 125.33 L 301.42 126.18 L 302.2 124.01 L 303.16 121.32 L 303.31 118.45 L 304.91 87.63 L 306.65 83.24 L 307.18 82.86 L 308.14 82.16 L 308.4 81.97 L 310.14 110.95 L 311.89 120.1 L 313.62 122.33 L 313.63 122.35 L 314.59 115.55 "/>
<path transform="matrix(1,0,0,-1,0,360)" stroke-width="1.5" stroke-linecap="round" stroke-dasharray="0,6,4.5,6" stroke-linejoin="round" fill="none" stroke="#000000" d="M 323.32 81.99 L 324.7 82.79 L 325.06 83 L 325.43 82.93 L 326.17 82.8 L 326.81 82.68 L 327.27 82.47 L 328.55 81.91 L 328.66 81.92 L 330 82.03 L 330.29 82.06 L 331.59 82.18 L 332.04 82.23 L 333.78 81.89 L 334.49 81.88 L 335.53 81.87 L 335.8 81.88 L 337.15 81.95 L 337.27 81.96 L 338.57 81.91 L 339.02 81.89 L 340.76 81.91 L 342.51 81.94 L 344.25 81.98 L 345.99 82.03 L 347.74 82.08 L 349.48 82.14 L 351.23 82.19 L 352.97 82.23 L 354.72 82.25 L 356.46 82.27 L 358.21 82.27 L 358.52 82.26 L 359.49 82.2 L 359.95 82.17 L 360.48 82.3 L 361.54 82.57 "/>
<path transform="matrix(1,0,0,-1,0,360)" stroke-width="1.5" stroke-linecap="round" stroke-dasharray="0,6,4.5,6" stroke-linejoin="round" fill="none" stroke="#000000" d="M 370.26 81.87 L 371.61 82.04 L 372.01 82.08 L 372.96 82.14 L 373.75 82.19 L 375.5 81.87 L 377.24 82.53 L 378.99 84.32 L 380.73 86.87 L 382.47 89.58 L 384.22 92.04 L 384.4 91.87 L 385.26 91.04 L 385.96 90.36 L 386.23 91.84 L 387.39 98.33 L 387.71 100.08 L 388.59 99.26 L 389.45 98.45 L 389.77 98.89 L 390.98 100.53 L 391.2 100.82 L 392.33 102.18 L 392.94 102.91 L 393.36 101.95 L 394.69 98.9 L 395.2 98.23 L 396.31 96.77 L 396.43 96.61 L 398.17 95.85 L 399.92 93.33 L 400.08 93.19 L 401.09 92.29 L 401.66 91.78 L 402.1 91.27 "/>
<path transform="matrix(1,0,0,-1,0,360)" stroke-width="1.5" stroke-linecap="round" stroke-dasharray="0,6,4.5,6" stroke-linejoin="round" fill="none" stroke="#000000" d="M 410.82 114.37 L 411.44 106.06 L 412.57 90.66 L 414.31 93.7 L 416.06 96.37 L 417.8 97.97 L 419.55 98.35 L 421.03 98.95 L 421.29 99.05 L 421.73 99.28 L 422.95 99.91 L 423.04 99.96 L 424.78 97.32 L 425.78 94.75 L 426.52 92.86 L 426.8 92.59 L 427.84 91.56 L 428.27 91.13 L 430.01 89.82 L 430.3 89.27 L 431.33 87.24 L 431.76 86.41 L 432.42 86.09 L 433.4 85.63 "/>
<path transform="matrix(1,0,0,-1,0,360)" stroke-width=".75" stroke-linecap="round" stroke-linejoin="round" fill="none" stroke="#000000" d="M 59.04 300.96 L 160.98001 300.96 L 160.98001 228.95999 L 59.04 228.95999 Z "/>
<path transform="matrix(1,0,0,-1,0,360)" stroke-width=".75" stroke-linecap="round" stroke-linejoin="round" fill="none" stroke="#000000" d="M 69.84 286.56 L 91.44 286.56 "/>
<path transform="matrix(1,0,0,-1,0,360)" stroke-width=".75" stroke-linecap="round" stroke-dasharray="2.25,3.75" stroke-linejoin="round" fill="none" stroke="#000000" d="M 69.84 272.16 L 91.44 272.16 "/>
<path transform="matrix(1,0,0,-1,0,360)" stroke-width=".75" stroke-linecap="round" stroke-dasharray="0,3" stroke-linejoin="round" fill="none" stroke="#000000" d="M 69.84 257.76 L 91.44 257.76 "/>
<path transform="matrix(1,0,0,-1,0,360)" stroke-width=".75" stroke-linecap="round" stroke-dasharray="0,3,2.25,3" stroke-linejoin="round" fill="none" stroke="#000000" d="M 69.84 243.36 L 91.44 243.36 "/>
<text xml:space="preserve" transform="matrix(1 0 -0 1 0 360)" font-size="12" font-family="LMRoman10"><tspan y="-282.46" x="102.24 110.904 116.904 121.631999 130.29599 135.624 138.95999">Caswell</tspan></text>
<text xml:space="preserve" transform="matrix(1 0 -0 1 0 360)" font-size="12" font-family="LMRoman10"><tspan y="-268.06" x="102.24 110.904 114.24 120.24 126.576 131.244 137.244">Clayton</tspan></text>
<text xml:space="preserve" transform="matrix(1 0 -0 1 0 360)" font-size="12" font-family="LMRoman10"><tspan y="-253.66" x="102.24 110.904 116.904 126.9 133.572 136.908 143.58 148.908">Combined</tspan></text>
<text xml:space="preserve" transform="matrix(1 0 -0 1 0 360)" font-size="12" font-family="LMRoman10"><tspan y="-239.26" x="102.24 110.412 113.748 120.084 130.08 136.08 142.752 147.42">Plymouth</tspan></text>
</g>
</g>
</svg>
