<?xml version="1.0" encoding="UTF-8" standalone="no"?>
<!DOCTYPE svg PUBLIC "-//W3C//DTD SVG 1.1//EN" "http://www.w3.org/Graphics/SVG/1.1/DTD/svg11.dtd">
<svg xmlns="http://www.w3.org/2000/svg" xmlns:xlink="http://www.w3.org/1999/xlink" version="1.1" width="468pt" height="360pt" viewBox="0 0 468 360">
<g enable-background="new">
<path transform="matrix(1,0,0,-1,0,360)" stroke-width=".75" stroke-linecap="round" stroke-linejoin="round" fill="none" stroke="#000000" d="M 59.04 81.87 L 59.04 289.64 "/>
<path transform="matrix(1,0,0,-1,0,360)" stroke-width=".75" stroke-linecap="round" stroke-linejoin="round" fill="none" stroke="#000000" d="M 59.04 81.87 L 51.84 81.87 "/>
<path transform="matrix(1,0,0,-1,0,360)" stroke-width=".75" stroke-linecap="round" stroke-linejoin="round" fill="none" stroke="#000000" d="M 59.04 123.42 L 51.84 123.42 "/>
<path transform="matrix(1,0,0,-1,0,360)" stroke-width=".75" stroke-linecap="round" stroke-linejoin="round" fill="none" stroke="#000000" d="M 59.04 164.98 L 51.84 164.98 "/>
<path transform="matrix(1,0,0,-1,0,360)" stroke-width=".75" stroke-linecap="round" stroke-linejoin="round" fill="none" stroke="#000000" d="M 59.04 206.53 L 51.84 206.53 "/>
<path transform="matrix(1,0,0,-1,0,360)" stroke-width=".75" stroke-linecap="round" stroke-linejoin="round" fill="none" stroke="#000000" d="M 59.04 248.08 L 51.84 248.08 "/>
<path transform="matrix(1,0,0,-1,0,360)" stroke-width=".75" stroke-linecap="round" stroke-linejoin="round" fill="none" stroke="#000000" d="M 59.04 289.64 L 51.84 289.64 "/>
<text xml:space="preserve" transform="matrix(1 0 -0 1 0 360)" font-size="12" font-family="LMRoman10"><tspan y="-77.77" x="38.64">0</tspan></text>
<text xml:space="preserve" transform="matrix(1 0 -0 1 0 360)" font-size="12" font-family="LMRoman10"><tspan y="-119.32" x="32.64 38.64">10</tspan></text>
<text xml:space="preserve" transform="matrix(1 0 -0 1 0 360)" font-size="12" font-family="LMRoman10"><tspan y="-160.88" x="32.64 38.64">20</tspan></text>
<text xml:space="preserve" transform="matrix(1 0 -0 1 0 360)" font-size="12" font-family="LMRoman10"><tspan y="-202.43" x="32.64 38.64">30</tspan></text>
<text xml:space="preserve" transform="matrix(1 0 -0 1 0 360)" font-size="12" font-family="LMRoman10"><tspan y="-243.99" x="32.64 38.64">40</tspan></text>
<text xml:space="preserve" transform="matrix(1 0 -0 1 0 360)" font-size="12" font-family="LMRoman10"><tspan y="-285.54" x="32.64 38.64">50</tspan></text>
<path transform="matrix(1,0,0,-1,0,360)" stroke-width=".75" stroke-linecap="round" stroke-linejoin="round" fill="none" stroke="#000000" d="M 59.04 73.44 L 437.76 73.44 L 437.76 300.96 L 59.04 300.96 L 59.04 73.44 "/>
<text xml:space="preserve" transform="matrix(1 0 -0 1 0 360)" font-size="14" font-family="LMRoman10" font-weight="bold"><tspan y="-325.68" x="195.16 206.164 214.214 223.16 232.106 236.572 244.39801 250.656 255.12201 263.172 272.118 277.48 285.53 293.58">Population 201</tspan></text>
<text xml:space="preserve" transform="matrix(1 0 -0 1 0 360)" font-size="12" font-family="LMRoman10"><tspan y="-18.72" x="214.36 223.024 229.696 234.4 240.4 250.396 256.396 261.124 267.124 277.12">Chromosome</tspan></text>
<text xml:space="preserve" transform="matrix(0 -1 1 0 0 360)" font-size="12" font-family="LMRoman10"><tspan y="12.96" x="127.76 135.26001 144.59601 153.764 157.1 161.09601 169.268 173.972 179.972 184.64 189.968 193.304 199.976 203.972 212.636 218.636 225.308 229.976 235.304 241.976">LOD: Protein Content</tspan></text>
<clipPath id="cp0">
<path transform="matrix(1,0,0,-1,0,360)" d="M 59.04 73.44 L 437.76 73.44 L 437.76 300.96003 L 59.04 300.96003 Z "/>
</clipPath>
<g clip-path="url(#cp0)">
<path transform="matrix(1,0,0,-1,0,360)" stroke-width="1.5" stroke-linecap="round" stroke-linejoin="round" fill="none" stroke="#000000" d="M 65.08 85 L 65.87 84.98 L 67.5 84.96 L 68.92 86.19 L 69.58 86.75 L 69.92 87.04 L 70.17 87.04 L 71.08 87.05 L 71.87 87.06 L 72.33 87.06 L 72.64 87.15 L 73.25 87.31 L 74.75 87.72 L 77.17 87.53 L 79.58 87.02 L 82 86.18 L 84.42 85.12 L 86.83 84.05 L 89.25 83.18 L 91.67 82.59 L 92.61 82.34 L 94.08 81.96 L 94.14 81.96 L 95.42 81.93 L 96.5 81.91 L 97.44 81.89 L 98.92 81.87 L 99.38 81.87 L 101.33 81.87 L 101.49 81.91 L 103.75 82.48 L 104.32 82.63 L 105.88 83.04 L 106.17 83.12 L 108.58 83.41 L 111 83.42 L 113.42 83.15 L 113.49 83.12 L 114.46 82.74 L 115.83 82.2 L 115.87 82.2 L 117.56 82.11 L 118.25 82.08 L 120.67 81.99 L 123.08 81.92 L 125.5 81.87 L 127.92 81.88 L 130.34 81.96 L 132.75 82.11 L 135.17 82.28 L 137.59 82.45 L 140 82.6 L 142.42 82.72 L 142.5 82.72 L 143.92 82.7 L 144.84 82.69 L 145.34 82.7 L 147.25 82.73 L 148.68 82.78 L 149.67 82.8 L 150.73 82.78 L 152.09 82.75 L 152.3 82.75 "/>
</g>
<path transform="matrix(1,0,0,-1,0,360)" stroke-width=".38" stroke-linecap="round" stroke-linejoin="round" fill="none" stroke="#000000" d="M 65.08 73.44 L 65.08 77.99 "/>
<path transform="matrix(1,0,0,-1,0,360)" stroke-width=".38" stroke-linecap="round" stroke-linejoin="round" fill="none" stroke="#000000" d="M 65.87 73.44 L 65.87 77.99 "/>
<path transform="matrix(1,0,0,-1,0,360)" stroke-width=".38" stroke-linecap="round" stroke-linejoin="round" fill="none" stroke="#000000" d="M 68.92 73.44 L 68.92 77.99 "/>
<path transform="matrix(1,0,0,-1,0,360)" stroke-width=".38" stroke-linecap="round" stroke-linejoin="round" fill="none" stroke="#000000" d="M 69.58 73.44 L 69.58 77.99 "/>
<path transform="matrix(1,0,0,-1,0,360)" stroke-width=".38" stroke-linecap="round" stroke-linejoin="round" fill="none" stroke="#000000" d="M 70.17 73.44 L 70.17 77.99 "/>
<path transform="matrix(1,0,0,-1,0,360)" stroke-width=".38" stroke-linecap="round" stroke-linejoin="round" fill="none" stroke="#000000" d="M 71.08 73.44 L 71.08 77.99 "/>
<path transform="matrix(1,0,0,-1,0,360)" stroke-width=".38" stroke-linecap="round" stroke-linejoin="round" fill="none" stroke="#000000" d="M 71.08 73.44 L 71.08 77.99 "/>
<path transform="matrix(1,0,0,-1,0,360)" stroke-width=".38" stroke-linecap="round" stroke-linejoin="round" fill="none" stroke="#000000" d="M 71.87 73.44 L 71.87 77.99 "/>
<path transform="matrix(1,0,0,-1,0,360)" stroke-width=".38" stroke-linecap="round" stroke-linejoin="round" fill="none" stroke="#000000" d="M 72.64 73.44 L 72.64 77.99 "/>
<path transform="matrix(1,0,0,-1,0,360)" stroke-width=".38" stroke-linecap="round" stroke-linejoin="round" fill="none" stroke="#000000" d="M 73.25 73.44 L 73.25 77.99 "/>
<path transform="matrix(1,0,0,-1,0,360)" stroke-width=".38" stroke-linecap="round" stroke-linejoin="round" fill="none" stroke="#000000" d="M 92.61 73.44 L 92.61 77.99 "/>
<path transform="matrix(1,0,0,-1,0,360)" stroke-width=".38" stroke-linecap="round" stroke-linejoin="round" fill="none" stroke="#000000" d="M 94.14 73.44 L 94.14 77.99 "/>
<path transform="matrix(1,0,0,-1,0,360)" stroke-width=".38" stroke-linecap="round" stroke-linejoin="round" fill="none" stroke="#000000" d="M 95.42 73.44 L 95.42 77.99 "/>
<path transform="matrix(1,0,0,-1,0,360)" stroke-width=".38" stroke-linecap="round" stroke-linejoin="round" fill="none" stroke="#000000" d="M 97.44 73.44 L 97.44 77.99 "/>
<path transform="matrix(1,0,0,-1,0,360)" stroke-width=".38" stroke-linecap="round" stroke-linejoin="round" fill="none" stroke="#000000" d="M 99.38 73.44 L 99.38 77.99 "/>
<path transform="matrix(1,0,0,-1,0,360)" stroke-width=".38" stroke-linecap="round" stroke-linejoin="round" fill="none" stroke="#000000" d="M 101.49 73.44 L 101.49 77.99 "/>
<path transform="matrix(1,0,0,-1,0,360)" stroke-width=".38" stroke-linecap="round" stroke-linejoin="round" fill="none" stroke="#000000" d="M 104.32 73.44 L 104.32 77.99 "/>
<path transform="matrix(1,0,0,-1,0,360)" stroke-width=".38" stroke-linecap="round" stroke-linejoin="round" fill="none" stroke="#000000" d="M 105.88 73.44 L 105.88 77.99 "/>
<path transform="matrix(1,0,0,-1,0,360)" stroke-width=".38" stroke-linecap="round" stroke-linejoin="round" fill="none" stroke="#000000" d="M 113.49 73.44 L 113.49 77.99 "/>
<path transform="matrix(1,0,0,-1,0,360)" stroke-width=".38" stroke-linecap="round" stroke-linejoin="round" fill="none" stroke="#000000" d="M 114.46 73.44 L 114.46 77.99 "/>
<path transform="matrix(1,0,0,-1,0,360)" stroke-width=".38" stroke-linecap="round" stroke-linejoin="round" fill="none" stroke="#000000" d="M 115.87 73.44 L 115.87 77.99 "/>
<path transform="matrix(1,0,0,-1,0,360)" stroke-width=".38" stroke-linecap="round" stroke-linejoin="round" fill="none" stroke="#000000" d="M 117.56 73.44 L 117.56 77.99 "/>
<path transform="matrix(1,0,0,-1,0,360)" stroke-width=".38" stroke-linecap="round" stroke-linejoin="round" fill="none" stroke="#000000" d="M 117.56 73.44 L 117.56 77.99 "/>
<path transform="matrix(1,0,0,-1,0,360)" stroke-width=".38" stroke-linecap="round" stroke-linejoin="round" fill="none" stroke="#000000" d="M 142.5 73.44 L 142.5 77.99 "/>
<path transform="matrix(1,0,0,-1,0,360)" stroke-width=".38" stroke-linecap="round" stroke-linejoin="round" fill="none" stroke="#000000" d="M 142.5 73.44 L 142.5 77.99 "/>
<path transform="matrix(1,0,0,-1,0,360)" stroke-width=".38" stroke-linecap="round" stroke-linejoin="round" fill="none" stroke="#000000" d="M 143.92 73.44 L 143.92 77.99 "/>
<path transform="matrix(1,0,0,-1,0,360)" stroke-width=".38" stroke-linecap="round" stroke-linejoin="round" fill="none" stroke="#000000" d="M 145.34 73.44 L 145.34 77.99 "/>
<path transform="matrix(1,0,0,-1,0,360)" stroke-width=".38" stroke-linecap="round" stroke-linejoin="round" fill="none" stroke="#000000" d="M 148.68 73.44 L 148.68 77.99 "/>
<path transform="matrix(1,0,0,-1,0,360)" stroke-width=".38" stroke-linecap="round" stroke-linejoin="round" fill="none" stroke="#000000" d="M 150.73 73.44 L 150.73 77.99 "/>
<path transform="matrix(1,0,0,-1,0,360)" stroke-width=".38" stroke-linecap="round" stroke-linejoin="round" fill="none" stroke="#000000" d="M 152.3 73.44 L 152.3 77.99 "/>
<clipPath id="cp1">
<path transform="matrix(1,0,0,-1,0,360)" d="M 59.04 73.44 L 437.76 73.44 L 437.76 300.96003 L 59.04 300.96003 Z "/>
</clipPath>
<g clip-path="url(#cp1)">
<path transform="matrix(1,0,0,-1,0,360)" stroke-width="1.5" stroke-linecap="round" stroke-linejoin="round" fill="none" stroke="#000000" d="M 164.39 82.29 L 166.1 82.31 L 166.8 82.32 L 169.22 81.94 L 171.64 81.9 L 174.05 82.25 L 176.47 82.88 L 177.07 82.95 L 178.75 83.13 L 178.89 83.15 L 181.3 82.45 L 181.64 82.5 L 183.72 82.77 L 186.14 83.35 L 188.56 83.79 L 190.11 83.56 L 190.97 83.42 L 191.42 83.53 L 192.9 83.87 L 193.39 83.98 L 194.3 83.82 L 195.81 83.55 L 195.85 83.53 L 198.16 82.49 L 198.22 82.46 L 199.62 82.83 L 200.64 83.11 L 201.42 82.99 L 203.06 82.75 L 203.53 82.68 L 205.09 82.42 L 205.47 82.36 L 206.66 82.33 L 207.89 82.3 L 208.04 82.28 L 209.49 82.16 L 210.31 82.08 L 212.23 81.91 L 212.72 81.87 L 213.84 81.96 L 215.14 82.07 L 215.67 82.12 L 217.56 82.29 L 219.97 82.35 L 222.04 82.42 L 222.39 82.43 L 224.81 83.47 L 227.22 84.44 L 227.53 84.62 L 228.94 85.43 L 229.64 85.84 L 230.15 86.52 L 232.06 89.06 L 232.17 89.04 L 233.62 88.72 L 234.47 88.53 L 236.01 88.44 L 236.89 88.39 L 238.43 87.62 L 239.31 87.17 L 239.74 87.36 L 241.08 87.95 "/>
</g>
<path transform="matrix(1,0,0,-1,0,360)" stroke-width=".38" stroke-linecap="round" stroke-linejoin="round" fill="none" stroke="#000000" d="M 164.39 73.44 L 164.39 77.99 "/>
<path transform="matrix(1,0,0,-1,0,360)" stroke-width=".38" stroke-linecap="round" stroke-linejoin="round" fill="none" stroke="#000000" d="M 166.1 73.44 L 166.1 77.99 "/>
<path transform="matrix(1,0,0,-1,0,360)" stroke-width=".38" stroke-linecap="round" stroke-linejoin="round" fill="none" stroke="#000000" d="M 177.07 73.44 L 177.07 77.99 "/>
<path transform="matrix(1,0,0,-1,0,360)" stroke-width=".38" stroke-linecap="round" stroke-linejoin="round" fill="none" stroke="#000000" d="M 178.75 73.44 L 178.75 77.99 "/>
<path transform="matrix(1,0,0,-1,0,360)" stroke-width=".38" stroke-linecap="round" stroke-linejoin="round" fill="none" stroke="#000000" d="M 181.64 73.44 L 181.64 77.99 "/>
<path transform="matrix(1,0,0,-1,0,360)" stroke-width=".38" stroke-linecap="round" stroke-linejoin="round" fill="none" stroke="#000000" d="M 190.11 73.44 L 190.11 77.99 "/>
<path transform="matrix(1,0,0,-1,0,360)" stroke-width=".38" stroke-linecap="round" stroke-linejoin="round" fill="none" stroke="#000000" d="M 191.42 73.44 L 191.42 77.99 "/>
<path transform="matrix(1,0,0,-1,0,360)" stroke-width=".38" stroke-linecap="round" stroke-linejoin="round" fill="none" stroke="#000000" d="M 192.9 73.44 L 192.9 77.99 "/>
<path transform="matrix(1,0,0,-1,0,360)" stroke-width=".38" stroke-linecap="round" stroke-linejoin="round" fill="none" stroke="#000000" d="M 194.3 73.44 L 194.3 77.99 "/>
<path transform="matrix(1,0,0,-1,0,360)" stroke-width=".38" stroke-linecap="round" stroke-linejoin="round" fill="none" stroke="#000000" d="M 195.85 73.44 L 195.85 77.99 "/>
<path transform="matrix(1,0,0,-1,0,360)" stroke-width=".38" stroke-linecap="round" stroke-linejoin="round" fill="none" stroke="#000000" d="M 198.16 73.44 L 198.16 77.99 "/>
<path transform="matrix(1,0,0,-1,0,360)" stroke-width=".38" stroke-linecap="round" stroke-linejoin="round" fill="none" stroke="#000000" d="M 199.62 73.44 L 199.62 77.99 "/>
<path transform="matrix(1,0,0,-1,0,360)" stroke-width=".38" stroke-linecap="round" stroke-linejoin="round" fill="none" stroke="#000000" d="M 201.42 73.44 L 201.42 77.99 "/>
<path transform="matrix(1,0,0,-1,0,360)" stroke-width=".38" stroke-linecap="round" stroke-linejoin="round" fill="none" stroke="#000000" d="M 203.53 73.44 L 203.53 77.99 "/>
<path transform="matrix(1,0,0,-1,0,360)" stroke-width=".38" stroke-linecap="round" stroke-linejoin="round" fill="none" stroke="#000000" d="M 203.53 73.44 L 203.53 77.99 "/>
<path transform="matrix(1,0,0,-1,0,360)" stroke-width=".38" stroke-linecap="round" stroke-linejoin="round" fill="none" stroke="#000000" d="M 205.09 73.44 L 205.09 77.99 "/>
<path transform="matrix(1,0,0,-1,0,360)" stroke-width=".38" stroke-linecap="round" stroke-linejoin="round" fill="none" stroke="#000000" d="M 206.66 73.44 L 206.66 77.99 "/>
<path transform="matrix(1,0,0,-1,0,360)" stroke-width=".38" stroke-linecap="round" stroke-linejoin="round" fill="none" stroke="#000000" d="M 208.04 73.44 L 208.04 77.99 "/>
<path transform="matrix(1,0,0,-1,0,360)" stroke-width=".38" stroke-linecap="round" stroke-linejoin="round" fill="none" stroke="#000000" d="M 209.49 73.44 L 209.49 77.99 "/>
<path transform="matrix(1,0,0,-1,0,360)" stroke-width=".38" stroke-linecap="round" stroke-linejoin="round" fill="none" stroke="#000000" d="M 212.23 73.44 L 212.23 77.99 "/>
<path transform="matrix(1,0,0,-1,0,360)" stroke-width=".38" stroke-linecap="round" stroke-linejoin="round" fill="none" stroke="#000000" d="M 213.84 73.44 L 213.84 77.99 "/>
<path transform="matrix(1,0,0,-1,0,360)" stroke-width=".38" stroke-linecap="round" stroke-linejoin="round" fill="none" stroke="#000000" d="M 215.67 73.44 L 215.67 77.99 "/>
<path transform="matrix(1,0,0,-1,0,360)" stroke-width=".38" stroke-linecap="round" stroke-linejoin="round" fill="none" stroke="#000000" d="M 222.04 73.44 L 222.04 77.99 "/>
<path transform="matrix(1,0,0,-1,0,360)" stroke-width=".38" stroke-linecap="round" stroke-linejoin="round" fill="none" stroke="#000000" d="M 227.53 73.44 L 227.53 77.99 "/>
<path transform="matrix(1,0,0,-1,0,360)" stroke-width=".38" stroke-linecap="round" stroke-linejoin="round" fill="none" stroke="#000000" d="M 228.94 73.44 L 228.94 77.99 "/>
<path transform="matrix(1,0,0,-1,0,360)" stroke-width=".38" stroke-linecap="round" stroke-linejoin="round" fill="none" stroke="#000000" d="M 230.15 73.44 L 230.15 77.99 "/>
<path transform="matrix(1,0,0,-1,0,360)" stroke-width=".38" stroke-linecap="round" stroke-linejoin="round" fill="none" stroke="#000000" d="M 232.17 73.44 L 232.17 77.99 "/>
<path transform="matrix(1,0,0,-1,0,360)" stroke-width=".38" stroke-linecap="round" stroke-linejoin="round" fill="none" stroke="#000000" d="M 232.17 73.44 L 232.17 77.99 "/>
<path transform="matrix(1,0,0,-1,0,360)" stroke-width=".38" stroke-linecap="round" stroke-linejoin="round" fill="none" stroke="#000000" d="M 232.17 73.44 L 232.17 77.99 "/>
<path transform="matrix(1,0,0,-1,0,360)" stroke-width=".38" stroke-linecap="round" stroke-linejoin="round" fill="none" stroke="#000000" d="M 233.62 73.44 L 233.62 77.99 "/>
<path transform="matrix(1,0,0,-1,0,360)" stroke-width=".38" stroke-linecap="round" stroke-linejoin="round" fill="none" stroke="#000000" d="M 236.01 73.44 L 236.01 77.99 "/>
<path transform="matrix(1,0,0,-1,0,360)" stroke-width=".38" stroke-linecap="round" stroke-linejoin="round" fill="none" stroke="#000000" d="M 238.43 73.44 L 238.43 77.99 "/>
<path transform="matrix(1,0,0,-1,0,360)" stroke-width=".38" stroke-linecap="round" stroke-linejoin="round" fill="none" stroke="#000000" d="M 239.74 73.44 L 239.74 77.99 "/>
<path transform="matrix(1,0,0,-1,0,360)" stroke-width=".38" stroke-linecap="round" stroke-linejoin="round" fill="none" stroke="#000000" d="M 241.08 73.44 L 241.08 77.99 "/>
<clipPath id="cp2">
<path transform="matrix(1,0,0,-1,0,360)" d="M 59.04 73.44 L 437.76 73.44 L 437.76 300.96003 L 59.04 300.96003 Z "/>
</clipPath>
<g clip-path="url(#cp2)">
<path transform="matrix(1,0,0,-1,0,360)" stroke-width="1.5" stroke-linecap="round" stroke-linejoin="round" fill="none" stroke="#000000" d="M 253.17 91.88 L 253.17 91.88 L 254.79 93.84 L 255.59 94.8 L 257.68 99.49 L 258 100.23 L 258.91 99.73 L 260.02 99.13 L 260.42 98.91 L 261.35 99.9 L 262.84 101.46 L 263.51 100.08 L 264.83 97.38 L 265.25 96.52 L 266.19 95.57 L 267.67 94.07 L 269.46 91.96 L 270.09 91.21 L 271.12 87.36 L 272.5 82.18 L 272.6 82.19 L 273.68 82.32 L 274.92 82.47 L 276.12 83.41 L 277.34 84.37 L 277.85 84.29 L 278.89 84.14 L 279.75 84.01 L 282.17 83.46 L 282.42 83.54 L 283.3 83.83 L 284.25 84.14 L 284.59 84.25 L 285.16 83.84 L 286.71 82.74 L 287 82.53 L 289.42 83.1 L 290.62 82.6 L 291.81 82.1 L 291.84 82.09 L 292.85 82 L 294.25 81.87 L 295.15 81.92 L 296.45 81.99 L 296.67 82 L 297.91 82.2 L 299.09 82.39 L 299.4 82.38 L 300.76 82.33 L 301.5 82.31 L 302.66 82.1 L 303.92 81.87 L 303.95 81.87 L 306.34 82 L 308.2 81.96 L 308.75 81.95 L 309.26 81.93 "/>
</g>
<path transform="matrix(1,0,0,-1,0,360)" stroke-width=".38" stroke-linecap="round" stroke-linejoin="round" fill="none" stroke="#000000" d="M 253.17 73.44 L 253.17 77.99 "/>
<path transform="matrix(1,0,0,-1,0,360)" stroke-width=".38" stroke-linecap="round" stroke-linejoin="round" fill="none" stroke="#000000" d="M 253.17 73.44 L 253.17 77.99 "/>
<path transform="matrix(1,0,0,-1,0,360)" stroke-width=".38" stroke-linecap="round" stroke-linejoin="round" fill="none" stroke="#000000" d="M 254.79 73.44 L 254.79 77.99 "/>
<path transform="matrix(1,0,0,-1,0,360)" stroke-width=".38" stroke-linecap="round" stroke-linejoin="round" fill="none" stroke="#000000" d="M 257.68 73.44 L 257.68 77.99 "/>
<path transform="matrix(1,0,0,-1,0,360)" stroke-width=".38" stroke-linecap="round" stroke-linejoin="round" fill="none" stroke="#000000" d="M 258.91 73.44 L 258.91 77.99 "/>
<path transform="matrix(1,0,0,-1,0,360)" stroke-width=".38" stroke-linecap="round" stroke-linejoin="round" fill="none" stroke="#000000" d="M 260.02 73.44 L 260.02 77.99 "/>
<path transform="matrix(1,0,0,-1,0,360)" stroke-width=".38" stroke-linecap="round" stroke-linejoin="round" fill="none" stroke="#000000" d="M 261.35 73.44 L 261.35 77.99 "/>
<path transform="matrix(1,0,0,-1,0,360)" stroke-width=".38" stroke-linecap="round" stroke-linejoin="round" fill="none" stroke="#000000" d="M 261.35 73.44 L 261.35 77.99 "/>
<path transform="matrix(1,0,0,-1,0,360)" stroke-width=".38" stroke-linecap="round" stroke-linejoin="round" fill="none" stroke="#000000" d="M 263.51 73.44 L 263.51 77.99 "/>
<path transform="matrix(1,0,0,-1,0,360)" stroke-width=".38" stroke-linecap="round" stroke-linejoin="round" fill="none" stroke="#000000" d="M 264.83 73.44 L 264.83 77.99 "/>
<path transform="matrix(1,0,0,-1,0,360)" stroke-width=".38" stroke-linecap="round" stroke-linejoin="round" fill="none" stroke="#000000" d="M 266.19 73.44 L 266.19 77.99 "/>
<path transform="matrix(1,0,0,-1,0,360)" stroke-width=".38" stroke-linecap="round" stroke-linejoin="round" fill="none" stroke="#000000" d="M 269.46 73.44 L 269.46 77.99 "/>
<path transform="matrix(1,0,0,-1,0,360)" stroke-width=".38" stroke-linecap="round" stroke-linejoin="round" fill="none" stroke="#000000" d="M 271.12 73.44 L 271.12 77.99 "/>
<path transform="matrix(1,0,0,-1,0,360)" stroke-width=".38" stroke-linecap="round" stroke-linejoin="round" fill="none" stroke="#000000" d="M 272.6 73.44 L 272.6 77.99 "/>
<path transform="matrix(1,0,0,-1,0,360)" stroke-width=".38" stroke-linecap="round" stroke-linejoin="round" fill="none" stroke="#000000" d="M 273.68 73.44 L 273.68 77.99 "/>
<path transform="matrix(1,0,0,-1,0,360)" stroke-width=".38" stroke-linecap="round" stroke-linejoin="round" fill="none" stroke="#000000" d="M 276.12 73.44 L 276.12 77.99 "/>
<path transform="matrix(1,0,0,-1,0,360)" stroke-width=".38" stroke-linecap="round" stroke-linejoin="round" fill="none" stroke="#000000" d="M 277.85 73.44 L 277.85 77.99 "/>
<path transform="matrix(1,0,0,-1,0,360)" stroke-width=".38" stroke-linecap="round" stroke-linejoin="round" fill="none" stroke="#000000" d="M 278.89 73.44 L 278.89 77.99 "/>
<path transform="matrix(1,0,0,-1,0,360)" stroke-width=".38" stroke-linecap="round" stroke-linejoin="round" fill="none" stroke="#000000" d="M 282.42 73.44 L 282.42 77.99 "/>
<path transform="matrix(1,0,0,-1,0,360)" stroke-width=".38" stroke-linecap="round" stroke-linejoin="round" fill="none" stroke="#000000" d="M 283.3 73.44 L 283.3 77.99 "/>
<path transform="matrix(1,0,0,-1,0,360)" stroke-width=".38" stroke-linecap="round" stroke-linejoin="round" fill="none" stroke="#000000" d="M 284.25 73.44 L 284.25 77.99 "/>
<path transform="matrix(1,0,0,-1,0,360)" stroke-width=".38" stroke-linecap="round" stroke-linejoin="round" fill="none" stroke="#000000" d="M 285.16 73.44 L 285.16 77.99 "/>
<path transform="matrix(1,0,0,-1,0,360)" stroke-width=".38" stroke-linecap="round" stroke-linejoin="round" fill="none" stroke="#000000" d="M 286.71 73.44 L 286.71 77.99 "/>
<path transform="matrix(1,0,0,-1,0,360)" stroke-width=".38" stroke-linecap="round" stroke-linejoin="round" fill="none" stroke="#000000" d="M 286.71 73.44 L 286.71 77.99 "/>
<path transform="matrix(1,0,0,-1,0,360)" stroke-width=".38" stroke-linecap="round" stroke-linejoin="round" fill="none" stroke="#000000" d="M 290.62 73.44 L 290.62 77.99 "/>
<path transform="matrix(1,0,0,-1,0,360)" stroke-width=".38" stroke-linecap="round" stroke-linejoin="round" fill="none" stroke="#000000" d="M 291.81 73.44 L 291.81 77.99 "/>
<path transform="matrix(1,0,0,-1,0,360)" stroke-width=".38" stroke-linecap="round" stroke-linejoin="round" fill="none" stroke="#000000" d="M 292.85 73.44 L 292.85 77.99 "/>
<path transform="matrix(1,0,0,-1,0,360)" stroke-width=".38" stroke-linecap="round" stroke-linejoin="round" fill="none" stroke="#000000" d="M 295.15 73.44 L 295.15 77.99 "/>
<path transform="matrix(1,0,0,-1,0,360)" stroke-width=".38" stroke-linecap="round" stroke-linejoin="round" fill="none" stroke="#000000" d="M 296.45 73.44 L 296.45 77.99 "/>
<path transform="matrix(1,0,0,-1,0,360)" stroke-width=".38" stroke-linecap="round" stroke-linejoin="round" fill="none" stroke="#000000" d="M 296.45 73.44 L 296.45 77.99 "/>
<path transform="matrix(1,0,0,-1,0,360)" stroke-width=".38" stroke-linecap="round" stroke-linejoin="round" fill="none" stroke="#000000" d="M 297.91 73.44 L 297.91 77.99 "/>
<path transform="matrix(1,0,0,-1,0,360)" stroke-width=".38" stroke-linecap="round" stroke-linejoin="round" fill="none" stroke="#000000" d="M 299.4 73.44 L 299.4 77.99 "/>
<path transform="matrix(1,0,0,-1,0,360)" stroke-width=".38" stroke-linecap="round" stroke-linejoin="round" fill="none" stroke="#000000" d="M 300.76 73.44 L 300.76 77.99 "/>
<path transform="matrix(1,0,0,-1,0,360)" stroke-width=".38" stroke-linecap="round" stroke-linejoin="round" fill="none" stroke="#000000" d="M 302.66 73.44 L 302.66 77.99 "/>
<path transform="matrix(1,0,0,-1,0,360)" stroke-width=".38" stroke-linecap="round" stroke-linejoin="round" fill="none" stroke="#000000" d="M 303.95 73.44 L 303.95 77.99 "/>
<path transform="matrix(1,0,0,-1,0,360)" stroke-width=".38" stroke-linecap="round" stroke-linejoin="round" fill="none" stroke="#000000" d="M 308.2 73.44 L 308.2 77.99 "/>
<path transform="matrix(1,0,0,-1,0,360)" stroke-width=".38" stroke-linecap="round" stroke-linejoin="round" fill="none" stroke="#000000" d="M 309.26 73.44 L 309.26 77.99 "/>
<clipPath id="cp3">
<path transform="matrix(1,0,0,-1,0,360)" d="M 59.04 73.44 L 437.76 73.44 L 437.76 300.96003 L 59.04 300.96003 Z "/>
</clipPath>
<g clip-path="url(#cp3)">
<path transform="matrix(1,0,0,-1,0,360)" stroke-width="1.5" stroke-linecap="round" stroke-linejoin="round" fill="none" stroke="#000000" d="M 321.35 83.19 L 323.76 82.76 L 324.71 82.57 L 326.18 82.27 L 326.7 82.2 L 328.17 82 L 328.6 81.94 L 329.66 81.94 L 331.01 81.93 L 333.43 81.9 L 334.06 81.9 L 335.64 81.91 L 335.85 81.91 L 337.62 81.94 L 338.26 81.95 L 339.26 81.95 L 340.68 81.94 L 341.13 82 L 343.1 82.23 L 343.37 82.25 L 345.51 82.38 L 347.93 82.4 L 350.35 82.41 L 352.77 82.4 L 355.18 102.54 L 357.6 105.25 L 360.02 106.5 L 361.14 107.37 L 362.43 108.38 L 362.8 108.71 L 364.41 110.17 L 364.85 110.58 L 366.09 110.53 L 367.27 110.48 L 367.9 110.21 L 369.68 109.46 L 370.35 111.59 L 372.1 117.19 L 373.18 118.02 L 374.52 119.06 L 374.8 118.86 L 376.93 117.36 L 379.35 86.86 L 381.77 84.88 L 384.18 83.44 L 385.86 83.04 L 386.6 82.86 L 387.17 82.82 L 388.35 82.74 "/>
</g>
<path transform="matrix(1,0,0,-1,0,360)" stroke-width=".38" stroke-linecap="round" stroke-linejoin="round" fill="none" stroke="#000000" d="M 321.35 73.44 L 321.35 77.99 "/>
<path transform="matrix(1,0,0,-1,0,360)" stroke-width=".38" stroke-linecap="round" stroke-linejoin="round" fill="none" stroke="#000000" d="M 324.71 73.44 L 324.71 77.99 "/>
<path transform="matrix(1,0,0,-1,0,360)" stroke-width=".38" stroke-linecap="round" stroke-linejoin="round" fill="none" stroke="#000000" d="M 326.7 73.44 L 326.7 77.99 "/>
<path transform="matrix(1,0,0,-1,0,360)" stroke-width=".38" stroke-linecap="round" stroke-linejoin="round" fill="none" stroke="#000000" d="M 328.17 73.44 L 328.17 77.99 "/>
<path transform="matrix(1,0,0,-1,0,360)" stroke-width=".38" stroke-linecap="round" stroke-linejoin="round" fill="none" stroke="#000000" d="M 329.66 73.44 L 329.66 77.99 "/>
<path transform="matrix(1,0,0,-1,0,360)" stroke-width=".38" stroke-linecap="round" stroke-linejoin="round" fill="none" stroke="#000000" d="M 334.06 73.44 L 334.06 77.99 "/>
<path transform="matrix(1,0,0,-1,0,360)" stroke-width=".38" stroke-linecap="round" stroke-linejoin="round" fill="none" stroke="#000000" d="M 334.06 73.44 L 334.06 77.99 "/>
<path transform="matrix(1,0,0,-1,0,360)" stroke-width=".38" stroke-linecap="round" stroke-linejoin="round" fill="none" stroke="#000000" d="M 334.06 73.44 L 334.06 77.99 "/>
<path transform="matrix(1,0,0,-1,0,360)" stroke-width=".38" stroke-linecap="round" stroke-linejoin="round" fill="none" stroke="#000000" d="M 335.64 73.44 L 335.64 77.99 "/>
<path transform="matrix(1,0,0,-1,0,360)" stroke-width=".38" stroke-linecap="round" stroke-linejoin="round" fill="none" stroke="#000000" d="M 337.62 73.44 L 337.62 77.99 "/>
<path transform="matrix(1,0,0,-1,0,360)" stroke-width=".38" stroke-linecap="round" stroke-linejoin="round" fill="none" stroke="#000000" d="M 339.26 73.44 L 339.26 77.99 "/>
<path transform="matrix(1,0,0,-1,0,360)" stroke-width=".38" stroke-linecap="round" stroke-linejoin="round" fill="none" stroke="#000000" d="M 341.13 73.44 L 341.13 77.99 "/>
<path transform="matrix(1,0,0,-1,0,360)" stroke-width=".38" stroke-linecap="round" stroke-linejoin="round" fill="none" stroke="#000000" d="M 343.37 73.44 L 343.37 77.99 "/>
<path transform="matrix(1,0,0,-1,0,360)" stroke-width=".38" stroke-linecap="round" stroke-linejoin="round" fill="none" stroke="#000000" d="M 361.14 73.44 L 361.14 77.99 "/>
<path transform="matrix(1,0,0,-1,0,360)" stroke-width=".38" stroke-linecap="round" stroke-linejoin="round" fill="none" stroke="#000000" d="M 362.8 73.44 L 362.8 77.99 "/>
<path transform="matrix(1,0,0,-1,0,360)" stroke-width=".38" stroke-linecap="round" stroke-linejoin="round" fill="none" stroke="#000000" d="M 364.41 73.44 L 364.41 77.99 "/>
<path transform="matrix(1,0,0,-1,0,360)" stroke-width=".38" stroke-linecap="round" stroke-linejoin="round" fill="none" stroke="#000000" d="M 366.09 73.44 L 366.09 77.99 "/>
<path transform="matrix(1,0,0,-1,0,360)" stroke-width=".38" stroke-linecap="round" stroke-linejoin="round" fill="none" stroke="#000000" d="M 367.9 73.44 L 367.9 77.99 "/>
<path transform="matrix(1,0,0,-1,0,360)" stroke-width=".38" stroke-linecap="round" stroke-linejoin="round" fill="none" stroke="#000000" d="M 370.35 73.44 L 370.35 77.99 "/>
<path transform="matrix(1,0,0,-1,0,360)" stroke-width=".38" stroke-linecap="round" stroke-linejoin="round" fill="none" stroke="#000000" d="M 373.18 73.44 L 373.18 77.99 "/>
<path transform="matrix(1,0,0,-1,0,360)" stroke-width=".38" stroke-linecap="round" stroke-linejoin="round" fill="none" stroke="#000000" d="M 373.18 73.44 L 373.18 77.99 "/>
<path transform="matrix(1,0,0,-1,0,360)" stroke-width=".38" stroke-linecap="round" stroke-linejoin="round" fill="none" stroke="#000000" d="M 373.18 73.44 L 373.18 77.99 "/>
<path transform="matrix(1,0,0,-1,0,360)" stroke-width=".38" stroke-linecap="round" stroke-linejoin="round" fill="none" stroke="#000000" d="M 374.8 73.44 L 374.8 77.99 "/>
<path transform="matrix(1,0,0,-1,0,360)" stroke-width=".38" stroke-linecap="round" stroke-linejoin="round" fill="none" stroke="#000000" d="M 385.86 73.44 L 385.86 77.99 "/>
<path transform="matrix(1,0,0,-1,0,360)" stroke-width=".38" stroke-linecap="round" stroke-linejoin="round" fill="none" stroke="#000000" d="M 385.86 73.44 L 385.86 77.99 "/>
<path transform="matrix(1,0,0,-1,0,360)" stroke-width=".38" stroke-linecap="round" stroke-linejoin="round" fill="none" stroke="#000000" d="M 387.17 73.44 L 387.17 77.99 "/>
<path transform="matrix(1,0,0,-1,0,360)" stroke-width=".38" stroke-linecap="round" stroke-linejoin="round" fill="none" stroke="#000000" d="M 388.35 73.44 L 388.35 77.99 "/>
<clipPath id="cp4">
<path transform="matrix(1,0,0,-1,0,360)" d="M 59.04 73.44 L 437.76 73.44 L 437.76 300.96003 L 59.04 300.96003 Z "/>
</clipPath>
<g clip-path="url(#cp4)">
<path transform="matrix(1,0,0,-1,0,360)" stroke-width="1.5" stroke-linecap="round" stroke-linejoin="round" fill="none" stroke="#000000" d="M 400.43 82.47 L 401.56 82.67 L 402.85 82.91 L 402.88 82.91 L 404.18 82.67 L 405.27 82.48 L 405.6 82.59 L 407.09 83.08 L 407.68 83.28 L 410.1 152.17 L 412.52 157.44 L 412.61 157.77 L 414.12 163.18 L 414.93 166.1 L 416.77 168.95 L 417.35 169.86 L 418.29 169.82 L 419.77 169.76 L 420.57 167.4 L 422.18 162.61 L 422.71 160.87 L 424.32 155.56 L 424.6 154.64 L 426.27 152.56 L 427.02 151.63 L 428.23 144.11 L 429.43 136.67 L 429.94 134.63 L 431.72 127.41 "/>
</g>
<path transform="matrix(1,0,0,-1,0,360)" stroke-width=".38" stroke-linecap="round" stroke-linejoin="round" fill="none" stroke="#000000" d="M 400.43 73.44 L 400.43 77.99 "/>
<path transform="matrix(1,0,0,-1,0,360)" stroke-width=".38" stroke-linecap="round" stroke-linejoin="round" fill="none" stroke="#000000" d="M 401.56 73.44 L 401.56 77.99 "/>
<path transform="matrix(1,0,0,-1,0,360)" stroke-width=".38" stroke-linecap="round" stroke-linejoin="round" fill="none" stroke="#000000" d="M 402.88 73.44 L 402.88 77.99 "/>
<path transform="matrix(1,0,0,-1,0,360)" stroke-width=".38" stroke-linecap="round" stroke-linejoin="round" fill="none" stroke="#000000" d="M 402.88 73.44 L 402.88 77.99 "/>
<path transform="matrix(1,0,0,-1,0,360)" stroke-width=".38" stroke-linecap="round" stroke-linejoin="round" fill="none" stroke="#000000" d="M 404.18 73.44 L 404.18 77.99 "/>
<path transform="matrix(1,0,0,-1,0,360)" stroke-width=".38" stroke-linecap="round" stroke-linejoin="round" fill="none" stroke="#000000" d="M 405.6 73.44 L 405.6 77.99 "/>
<path transform="matrix(1,0,0,-1,0,360)" stroke-width=".38" stroke-linecap="round" stroke-linejoin="round" fill="none" stroke="#000000" d="M 407.09 73.44 L 407.09 77.99 "/>
<path transform="matrix(1,0,0,-1,0,360)" stroke-width=".38" stroke-linecap="round" stroke-linejoin="round" fill="none" stroke="#000000" d="M 412.61 73.44 L 412.61 77.99 "/>
<path transform="matrix(1,0,0,-1,0,360)" stroke-width=".38" stroke-linecap="round" stroke-linejoin="round" fill="none" stroke="#000000" d="M 412.61 73.44 L 412.61 77.99 "/>
<path transform="matrix(1,0,0,-1,0,360)" stroke-width=".38" stroke-linecap="round" stroke-linejoin="round" fill="none" stroke="#000000" d="M 414.12 73.44 L 414.12 77.99 "/>
<path transform="matrix(1,0,0,-1,0,360)" stroke-width=".38" stroke-linecap="round" stroke-linejoin="round" fill="none" stroke="#000000" d="M 416.77 73.44 L 416.77 77.99 "/>
<path transform="matrix(1,0,0,-1,0,360)" stroke-width=".38" stroke-linecap="round" stroke-linejoin="round" fill="none" stroke="#000000" d="M 418.29 73.44 L 418.29 77.99 "/>
<path transform="matrix(1,0,0,-1,0,360)" stroke-width=".38" stroke-linecap="round" stroke-linejoin="round" fill="none" stroke="#000000" d="M 420.57 73.44 L 420.57 77.99 "/>
<path transform="matrix(1,0,0,-1,0,360)" stroke-width=".38" stroke-linecap="round" stroke-linejoin="round" fill="none" stroke="#000000" d="M 422.71 73.44 L 422.71 77.99 "/>
<path transform="matrix(1,0,0,-1,0,360)" stroke-width=".38" stroke-linecap="round" stroke-linejoin="round" fill="none" stroke="#000000" d="M 424.32 73.44 L 424.32 77.99 "/>
<path transform="matrix(1,0,0,-1,0,360)" stroke-width=".38" stroke-linecap="round" stroke-linejoin="round" fill="none" stroke="#000000" d="M 426.27 73.44 L 426.27 77.99 "/>
<path transform="matrix(1,0,0,-1,0,360)" stroke-width=".38" stroke-linecap="round" stroke-linejoin="round" fill="none" stroke="#000000" d="M 428.23 73.44 L 428.23 77.99 "/>
<path transform="matrix(1,0,0,-1,0,360)" stroke-width=".38" stroke-linecap="round" stroke-linejoin="round" fill="none" stroke="#000000" d="M 428.23 73.44 L 428.23 77.99 "/>
<path transform="matrix(1,0,0,-1,0,360)" stroke-width=".38" stroke-linecap="round" stroke-linejoin="round" fill="none" stroke="#000000" d="M 429.94 73.44 L 429.94 77.99 "/>
<path transform="matrix(1,0,0,-1,0,360)" stroke-width=".38" stroke-linecap="round" stroke-linejoin="round" fill="none" stroke="#000000" d="M 431.72 73.44 L 431.72 77.99 "/>
<path transform="matrix(1,0,0,-1,0,360)" stroke-width=".75" stroke-linecap="round" stroke-linejoin="round" fill="none" stroke="#000000" d="M 108.69 73.44 L 108.69 73.44 "/>
<path transform="matrix(1,0,0,-1,0,360)" stroke-width=".75" stroke-linecap="round" stroke-linejoin="round" fill="none" stroke="#000000" d="M 108.69 73.44 L 108.69 66.24 "/>
<text xml:space="preserve" transform="matrix(1 0 -0 1 0 360)" font-size="12" font-family="LMRoman10"><tspan y="-47.52" x="105.69">2</tspan></text>
<path transform="matrix(1,0,0,-1,0,360)" stroke-width=".75" stroke-linecap="round" stroke-linejoin="round" fill="none" stroke="#000000" d="M 202.74 73.44 L 202.74 73.44 "/>
<path transform="matrix(1,0,0,-1,0,360)" stroke-width=".75" stroke-linecap="round" stroke-linejoin="round" fill="none" stroke="#000000" d="M 202.74 73.44 L 202.74 66.24 "/>
<text xml:space="preserve" transform="matrix(1 0 -0 1 0 360)" font-size="12" font-family="LMRoman10"><tspan y="-47.52" x="199.74">4</tspan></text>
<path transform="matrix(1,0,0,-1,0,360)" stroke-width=".75" stroke-linecap="round" stroke-linejoin="round" fill="none" stroke="#000000" d="M 281.22 73.44 L 281.22 73.44 "/>
<path transform="matrix(1,0,0,-1,0,360)" stroke-width=".75" stroke-linecap="round" stroke-linejoin="round" fill="none" stroke="#000000" d="M 281.22 73.44 L 281.22 66.24 "/>
<text xml:space="preserve" transform="matrix(1 0 -0 1 0 360)" font-size="12" font-family="LMRoman10"><tspan y="-47.52" x="275.22 281.22">14</tspan></text>
<path transform="matrix(1,0,0,-1,0,360)" stroke-width=".75" stroke-linecap="round" stroke-linejoin="round" fill="none" stroke="#000000" d="M 354.85 73.44 L 354.85 73.44 "/>
<path transform="matrix(1,0,0,-1,0,360)" stroke-width=".75" stroke-linecap="round" stroke-linejoin="round" fill="none" stroke="#000000" d="M 354.85 73.44 L 354.85 66.24 "/>
<text xml:space="preserve" transform="matrix(1 0 -0 1 0 360)" font-size="12" font-family="LMRoman10"><tspan y="-47.52" x="348.85 354.85">15</tspan></text>
<path transform="matrix(1,0,0,-1,0,360)" stroke-width=".75" stroke-linecap="round" stroke-linejoin="round" fill="none" stroke="#000000" d="M 416.08 73.44 L 416.08 73.44 "/>
<path transform="matrix(1,0,0,-1,0,360)" stroke-width=".75" stroke-linecap="round" stroke-linejoin="round" fill="none" stroke="#000000" d="M 416.08 73.44 L 416.08 66.24 "/>
<text xml:space="preserve" transform="matrix(1 0 -0 1 0 360)" font-size="12" font-family="LMRoman10"><tspan y="-47.52" x="410.08 416.08">20</tspan></text>
<clipPath id="cp5">
<path transform="matrix(1,0,0,-1,0,360)" d="M 59.04 73.44 L 437.76 73.44 L 437.76 300.96003 L 59.04 300.96003 Z "/>
</clipPath>
<g clip-path="url(#cp5)">
<path transform="matrix(1,0,0,-1,0,360)" stroke-width=".75" stroke-linecap="round" stroke-linejoin="round" fill="none" stroke="#000000" d="M 59.04 300.96 L 160.98001 300.96 L 160.98001 228.95999 L 59.04 228.95999 Z "/>
<path transform="matrix(1,0,0,-1,0,360)" stroke-width=".75" stroke-linecap="round" stroke-linejoin="round" fill="none" stroke="#000000" d="M 69.84 286.56 L 91.44 286.56 "/>
<path transform="matrix(1,0,0,-1,0,360)" stroke-width=".75" stroke-linecap="round" stroke-dasharray="2.25,3.75" stroke-linejoin="round" fill="none" stroke="#000000" d="M 69.84 272.16 L 91.44 272.16 "/>
<path transform="matrix(1,0,0,-1,0,360)" stroke-width=".75" stroke-linecap="round" stroke-dasharray="0,3" stroke-linejoin="round" fill="none" stroke="#000000" d="M 69.84 257.76 L 91.44 257.76 "/>
<path transform="matrix(1,0,0,-1,0,360)" stroke-width=".75" stroke-linecap="round" stroke-dasharray="0,3,2.25,3" stroke-linejoin="round" fill="none" stroke="#000000" d="M 69.84 243.36 L 91.44 243.36 "/>
<text xml:space="preserve" transform="matrix(1 0 -0 1 0 360)" font-size="12" font-family="LMRoman10"><tspan y="-282.46" x="102.24 110.904 116.904 121.631999 130.29599 135.624 138.95999">Caswell</tspan></text>
<text xml:space="preserve" transform="matrix(1 0 -0 1 0 360)" font-size="12" font-family="LMRoman10"><tspan y="-268.06" x="102.24 110.904 114.24 120.24 126.576 131.244 137.244">Clayton</tspan></text>
<text xml:space="preserve" transform="matrix(1 0 -0 1 0 360)" font-size="12" font-family="LMRoman10"><tspan y="-253.66" x="102.24 110.904 116.904 126.9 133.572 136.908 143.58 148.908">Combined</tspan></text>
<text xml:space="preserve" transform="matrix(1 0 -0 1 0 360)" font-size="12" font-family="LMRoman10"><tspan y="-239.26" x="102.24 110.412 113.748 120.084 130.08 136.08 142.752 147.42">Plymouth</tspan></text>
<path transform="matrix(1,0,0,-1,0,360)" stroke-width="1.5" stroke-linecap="round" stroke-dasharray="4.5,7.5" stroke-linejoin="round" fill="none" stroke="#000000" d="M 65.08 83.58 L 65.87 83.76 L 67.5 84.14 L 68.92 85.09 L 69.58 85.53 L 69.92 85.75 L 70.17 85.92 L 71.08 86.49 L 71.87 86.99 L 72.33 87.28 L 72.64 87.26 L 73.25 87.2 L 74.75 87.08 L 77.17 86.14 L 79.58 85.01 L 82 83.8 L 84.42 82.73 L 86.83 82.07 L 89.25 81.87 L 91.67 81.98 L 92.61 82.11 L 94.08 82.32 L 94.14 82.33 L 95.42 82.51 L 96.5 82.66 L 97.44 82.61 L 98.92 82.53 L 99.38 82.43 L 101.33 82.03 L 101.49 82.03 L 103.75 82.02 L 104.32 81.99 L 105.88 81.89 L 106.17 81.87 L 108.58 81.95 L 111 82.14 L 113.42 82.34 L 113.49 82.33 L 114.46 82.25 L 115.83 82.14 L 115.87 82.13 L 117.56 82.04 L 118.25 82 L 120.67 81.94 L 123.08 81.9 L 125.5 81.87 L 127.92 81.88 L 130.34 81.94 L 132.75 82.04 L 135.17 82.16 L 137.59 82.28 L 140 82.37 L 142.42 82.45 L 142.5 82.46 L 143.92 82.66 L 144.84 82.78 L 145.34 82.79 L 147.25 82.8 L 148.68 82.85 L 149.67 82.88 L 150.73 83.01 L 152.09 83.17 L 152.3 83.17 "/>
<path transform="matrix(1,0,0,-1,0,360)" stroke-width="1.5" stroke-linecap="round" stroke-dasharray="4.5,7.5" stroke-linejoin="round" fill="none" stroke="#000000" d="M 164.39 82.97 L 166.1 82.9 L 166.8 82.88 L 169.22 82.59 L 171.64 82.28 L 174.05 82.04 L 176.47 81.9 L 177.07 81.92 L 178.75 81.98 L 178.89 81.99 L 181.3 81.87 L 181.64 81.87 L 183.72 81.87 L 186.14 81.87 L 188.56 81.91 L 190.11 81.89 L 190.97 81.88 L 191.42 81.88 L 192.9 81.87 L 193.39 81.87 L 194.3 81.91 L 195.81 81.97 L 195.85 81.98 L 198.16 82.37 L 198.22 82.38 L 199.62 82.43 L 200.64 82.47 L 201.42 82.46 L 203.06 82.42 L 203.53 82.44 L 205.09 82.5 L 205.47 82.51 L 206.66 82.49 L 207.89 82.47 L 208.04 82.45 L 209.49 82.25 L 210.31 82.13 L 212.23 82.35 L 212.72 82.41 L 213.84 82.77 L 215.14 83.19 L 215.67 83.18 L 217.56 83.14 L 219.97 82.56 L 222.04 82.18 L 222.39 82.11 L 224.81 82.12 L 227.22 89.94 L 227.53 90.47 L 228.94 92.89 L 229.64 94.1 L 230.15 93.85 L 232.06 92.91 L 232.17 92.94 L 233.62 93.32 L 234.47 93.55 L 236.01 94.93 L 236.89 95.72 L 238.43 96.37 L 239.31 96.74 L 239.74 96.68 L 241.08 96.52 "/>
<path transform="matrix(1,0,0,-1,0,360)" stroke-width="1.5" stroke-linecap="round" stroke-dasharray="4.5,7.5" stroke-linejoin="round" fill="none" stroke="#000000" d="M 253.17 85.38 L 253.17 85.38 L 254.79 86.34 L 255.59 86.81 L 257.68 86.64 L 258 86.62 L 258.91 86.38 L 260.02 86.1 L 260.42 86 L 261.35 87.03 L 262.84 88.65 L 263.51 88.61 L 264.83 88.54 L 265.25 88.52 L 266.19 87.94 L 267.67 87.02 L 269.46 86.45 L 270.09 86.25 L 271.12 86.88 L 272.5 87.74 L 272.6 87.77 L 273.68 88.16 L 274.92 88.61 L 276.12 90.11 L 277.34 91.61 L 277.85 91.48 L 278.89 91.2 L 279.75 90.98 L 282.17 88.69 L 282.42 88.69 L 283.3 88.66 L 284.25 88.64 L 284.59 88.63 L 285.16 88.47 L 286.71 88.02 L 287 87.93 L 289.42 85.8 L 290.62 84.51 L 291.81 83.24 L 291.84 83.21 L 292.85 82.87 L 294.25 82.4 L 295.15 82.33 L 296.45 82.23 L 296.67 82.21 L 297.91 82.04 L 299.09 81.87 L 299.4 81.87 L 300.76 81.87 L 301.5 81.87 L 302.66 81.88 L 303.92 81.9 L 303.95 81.9 L 306.34 81.9 L 308.2 81.93 L 308.75 81.94 L 309.26 81.95 "/>
<path transform="matrix(1,0,0,-1,0,360)" stroke-width="1.5" stroke-linecap="round" stroke-dasharray="4.5,7.5" stroke-linejoin="round" fill="none" stroke="#000000" d="M 321.35 81.9 L 323.76 81.87 L 324.71 82.6 L 326.18 83.72 L 326.7 84.18 L 328.17 85.47 L 328.6 85.84 L 329.66 85.73 L 331.01 85.59 L 333.43 84.51 L 334.06 84.23 L 335.64 83.53 L 335.85 83.44 L 337.62 83.09 L 338.26 82.97 L 339.26 82.87 L 340.68 82.74 L 341.13 82.91 L 343.1 83.64 L 343.37 83.68 L 345.51 83.96 L 347.93 84.32 L 350.35 84.82 L 352.77 85.66 L 355.18 87.74 L 357.6 89.42 L 360.02 90.57 L 361.14 91.64 L 362.43 92.86 L 362.8 93.31 L 364.41 95.29 L 364.85 95.84 L 366.09 95.87 L 367.27 95.91 L 367.9 95.79 L 369.68 95.45 L 370.35 96.47 L 372.1 99.12 L 373.18 99.18 L 374.52 99.25 L 374.8 97.57 L 376.93 85.1 L 379.35 84.34 L 381.77 83.56 L 384.18 82.95 L 385.86 82.54 L 386.6 82.36 L 387.17 82.42 L 388.35 82.55 "/>
<path transform="matrix(1,0,0,-1,0,360)" stroke-width="1.5" stroke-linecap="round" stroke-dasharray="4.5,7.5" stroke-linejoin="round" fill="none" stroke="#000000" d="M 400.43 84.08 L 401.56 83.55 L 402.85 82.95 L 402.88 82.96 L 404.18 83.13 L 405.27 83.27 L 405.6 94.14 L 407.09 142.64 L 407.68 161.74 L 410.1 184.06 L 412.52 192.55 L 412.61 193.37 L 414.12 207.16 L 414.93 214.59 L 416.77 222.4 L 417.35 224.89 L 418.29 224.54 L 419.77 224 L 420.57 217.38 L 422.18 203.98 L 422.71 201.31 L 424.32 193.17 L 424.6 191.77 L 426.27 188.03 L 427.02 186.37 L 428.23 180.23 L 429.43 174.16 L 429.94 155.29 L 431.72 88.29 "/>
<path transform="matrix(1,0,0,-1,0,360)" stroke-width=".75" stroke-linecap="round" stroke-linejoin="round" fill="none" stroke="#000000" d="M 59.04 300.96 L 160.98001 300.96 L 160.98001 228.95999 L 59.04 228.95999 Z "/>
<path transform="matrix(1,0,0,-1,0,360)" stroke-width=".75" stroke-linecap="round" stroke-linejoin="round" fill="none" stroke="#000000" d="M 69.84 286.56 L 91.44 286.56 "/>
<path transform="matrix(1,0,0,-1,0,360)" stroke-width=".75" stroke-linecap="round" stroke-dasharray="2.25,3.75" stroke-linejoin="round" fill="none" stroke="#000000" d="M 69.84 272.16 L 91.44 272.16 "/>
<path transform="matrix(1,0,0,-1,0,360)" stroke-width=".75" stroke-linecap="round" stroke-dasharray="0,3" stroke-linejoin="round" fill="none" stroke="#000000" d="M 69.84 257.76 L 91.44 257.76 "/>
<path transform="matrix(1,0,0,-1,0,360)" stroke-width=".75" stroke-linecap="round" stroke-dasharray="0,3,2.25,3" stroke-linejoin="round" fill="none" stroke="#000000" d="M 69.84 243.36 L 91.44 243.36 "/>
<text xml:space="preserve" transform="matrix(1 0 -0 1 0 360)" font-size="12" font-family="LMRoman10"><tspan y="-282.46" x="102.24 110.904 116.904 121.631999 130.29599 135.624 138.95999">Caswell</tspan></text>
<text xml:space="preserve" transform="matrix(1 0 -0 1 0 360)" font-size="12" font-family="LMRoman10"><tspan y="-268.06" x="102.24 110.904 114.24 120.24 126.576 131.244 137.244">Clayton</tspan></text>
<text xml:space="preserve" transform="matrix(1 0 -0 1 0 360)" font-size="12" font-family="LMRoman10"><tspan y="-253.66" x="102.24 110.904 116.904 126.9 133.572 136.908 143.58 148.908">Combined</tspan></text>
<text xml:space="preserve" transform="matrix(1 0 -0 1 0 360)" font-size="12" font-family="LMRoman10"><tspan y="-239.26" x="102.24 110.412 113.748 120.084 130.08 136.08 142.752 147.42">Plymouth</tspan></text>
<path transform="matrix(1,0,0,-1,0,360)" stroke-width="1.5" stroke-linecap="round" stroke-dasharray="0,6" stroke-linejoin="round" fill="none" stroke="#000000" d="M 65.08 83.07 L 65.87 83.26 L 67.5 83.67 L 68.92 84.36 L 69.58 84.68 L 69.92 84.84 L 70.17 84.86 L 71.08 84.96 L 71.87 85.04 L 72.33 85.09 L 72.64 85.06 L 73.25 85.02 L 74.75 84.9 L 77.17 84.48 L 79.58 83.88 L 82 83.18 L 84.42 82.52 L 86.83 82.07 L 89.25 81.88 L 91.67 81.88 L 92.61 81.9 L 94.08 81.92 L 94.14 81.93 L 95.42 82.15 L 96.5 82.33 L 97.44 82.28 L 98.92 82.21 L 99.38 82.18 L 101.33 82.1 L 101.49 82.11 L 103.75 82.29 L 104.32 82.37 L 105.88 82.6 L 106.17 82.64 L 108.58 83.59 L 111 84.72 L 113.42 85.66 L 113.49 85.65 L 114.46 85.5 L 115.83 85.28 L 115.87 85.28 L 117.56 84.84 L 118.25 84.66 L 120.67 84.86 L 123.08 85.1 L 125.5 85.37 L 127.92 85.61 L 130.34 85.78 L 132.75 85.82 L 135.17 86.12 L 137.59 87.28 L 140 88.08 L 142.42 88.54 L 142.5 88.61 L 143.92 89.91 L 144.84 90.75 L 145.34 90.98 L 147.25 91.83 L 148.68 92.4 L 149.67 92.8 L 150.73 93.49 L 152.09 94.36 L 152.3 94.44 "/>
<path transform="matrix(1,0,0,-1,0,360)" stroke-width="1.5" stroke-linecap="round" stroke-dasharray="0,6" stroke-linejoin="round" fill="none" stroke="#000000" d="M 164.39 82.84 L 166.1 82.75 L 166.8 82.71 L 169.22 82.46 L 171.64 82.21 L 174.05 82.02 L 176.47 81.9 L 177.07 81.91 L 178.75 81.93 L 178.89 81.93 L 181.3 82 L 181.64 81.99 L 183.72 81.89 L 186.14 81.92 L 188.56 82.2 L 190.11 82.18 L 190.97 82.17 L 191.42 82.18 L 192.9 82.19 L 193.39 82.19 L 194.3 82.09 L 195.81 81.94 L 195.85 81.95 L 198.16 82.61 L 198.22 82.63 L 199.62 82.77 L 200.64 82.88 L 201.42 82.86 L 203.06 82.81 L 203.53 82.92 L 205.09 83.28 L 205.47 83.37 L 206.66 83.44 L 207.89 83.51 L 208.04 83.48 L 209.49 83.17 L 210.31 82.99 L 212.23 83.37 L 212.72 83.47 L 213.84 83.77 L 215.14 84.12 L 215.67 84.14 L 217.56 84.21 L 219.97 83.82 L 222.04 83.41 L 222.39 83.34 L 224.81 84.02 L 227.22 84.36 L 227.53 84.44 L 228.94 84.81 L 229.64 84.99 L 230.15 84.8 L 232.06 84.06 L 232.17 84.01 L 233.62 83.39 L 234.47 83.03 L 236.01 84 L 236.89 84.55 L 238.43 86.13 L 239.31 87.03 L 239.74 87.16 L 241.08 87.54 "/>
<path transform="matrix(1,0,0,-1,0,360)" stroke-width="1.5" stroke-linecap="round" stroke-dasharray="0,6" stroke-linejoin="round" fill="none" stroke="#000000" d="M 253.17 85.11 L 253.17 85.11 L 254.79 85.11 L 255.59 85.11 L 257.68 86.65 L 258 86.9 L 258.91 87.7 L 260.02 88.68 L 260.42 89.03 L 261.35 89.76 L 262.84 90.92 L 263.51 91.17 L 264.83 91.65 L 265.25 91.81 L 266.19 90.99 L 267.67 89.68 L 269.46 86.98 L 270.09 86.03 L 271.12 85.01 L 272.5 83.63 L 272.6 83.63 L 273.68 83.61 L 274.92 83.58 L 276.12 83.19 L 277.34 82.79 L 277.85 82.78 L 278.89 82.74 L 279.75 82.72 L 282.17 82.7 L 282.42 82.86 L 283.3 83.43 L 284.25 84.04 L 284.59 84.26 L 285.16 84.48 L 286.71 85.09 L 287 85.21 L 289.42 83.84 L 290.62 82.86 L 291.81 81.89 L 291.84 81.87 L 292.85 82.08 L 294.25 82.37 L 295.15 82.42 L 296.45 82.48 L 296.67 82.49 L 297.91 82.83 L 299.09 83.15 L 299.4 83.2 L 300.76 83.41 L 301.5 83.52 L 302.66 83.1 L 303.92 82.64 L 303.95 82.65 L 306.34 83.2 L 308.2 82.91 L 308.75 82.82 L 309.26 82.72 "/>
<path transform="matrix(1,0,0,-1,0,360)" stroke-width="1.5" stroke-linecap="round" stroke-dasharray="0,6" stroke-linejoin="round" fill="none" stroke="#000000" d="M 321.35 81.89 L 323.76 82.21 L 324.71 83.14 L 326.18 84.58 L 326.7 84.65 L 328.17 84.83 L 328.6 84.88 L 329.66 85.21 L 331.01 85.63 L 333.43 85.82 L 334.06 85.71 L 335.64 85.41 L 335.85 85.37 L 337.62 85.95 L 338.26 86.16 L 339.26 85.63 L 340.68 84.87 L 341.13 84.67 L 343.1 83.79 L 343.37 83.78 L 345.51 83.73 L 347.93 83.92 L 350.35 90.02 L 352.77 95.27 L 355.18 99.5 L 357.6 102.49 L 360.02 104.29 L 361.14 105.28 L 362.43 106.4 L 362.8 106.6 L 364.41 107.46 L 364.85 107.7 L 366.09 106.68 L 367.27 105.72 L 367.9 105.41 L 369.68 104.53 L 370.35 106.22 L 372.1 110.63 L 373.18 101.13 L 374.52 89.37 L 374.8 89.13 L 376.93 87.36 L 379.35 84.89 L 381.77 82.84 L 384.18 81.99 L 385.86 81.91 L 386.6 81.87 L 387.17 81.87 L 388.35 81.87 "/>
<path transform="matrix(1,0,0,-1,0,360)" stroke-width="1.5" stroke-linecap="round" stroke-dasharray="0,6" stroke-linejoin="round" fill="none" stroke="#000000" d="M 400.43 84.65 L 401.56 84.32 L 402.85 83.94 L 402.88 83.94 L 404.18 83.93 L 405.27 83.91 L 405.6 96.75 L 407.09 154 L 407.68 176.55 L 410.1 202.66 L 412.52 205.01 L 412.61 206.59 L 414.12 233.16 L 414.93 247.45 L 416.77 255.01 L 417.35 257.42 L 418.29 254.94 L 419.77 251.03 L 420.57 242.68 L 422.18 225.78 L 422.71 224.61 L 424.32 221.03 L 424.6 220.42 L 426.27 219.67 L 427.02 219.34 L 428.23 211.45 L 429.43 203.64 L 429.94 178.42 L 431.72 88.92 "/>
<path transform="matrix(1,0,0,-1,0,360)" stroke-width=".75" stroke-linecap="round" stroke-linejoin="round" fill="none" stroke="#000000" d="M 59.04 300.96 L 160.98001 300.96 L 160.98001 228.95999 L 59.04 228.95999 Z "/>
<path transform="matrix(1,0,0,-1,0,360)" stroke-width=".75" stroke-linecap="round" stroke-linejoin="round" fill="none" stroke="#000000" d="M 69.84 286.56 L 91.44 286.56 "/>
<path transform="matrix(1,0,0,-1,0,360)" stroke-width=".75" stroke-linecap="round" stroke-dasharray="2.25,3.75" stroke-linejoin="round" fill="none" stroke="#000000" d="M 69.84 272.16 L 91.44 272.16 "/>
<path transform="matrix(1,0,0,-1,0,360)" stroke-width=".75" stroke-linecap="round" stroke-dasharray="0,3" stroke-linejoin="round" fill="none" stroke="#000000" d="M 69.84 257.76 L 91.44 257.76 "/>
<path transform="matrix(1,0,0,-1,0,360)" stroke-width=".75" stroke-linecap="round" stroke-dasharray="0,3,2.25,3" stroke-linejoin="round" fill="none" stroke="#000000" d="M 69.84 243.36 L 91.44 243.36 "/>
<text xml:space="preserve" transform="matrix(1 0 -0 1 0 360)" font-size="12" font-family="LMRoman10"><tspan y="-282.46" x="102.24 110.904 116.904 121.631999 130.29599 135.624 138.95999">Caswell</tspan></text>
<text xml:space="preserve" transform="matrix(1 0 -0 1 0 360)" font-size="12" font-family="LMRoman10"><tspan y="-268.06" x="102.24 110.904 114.24 120.24 126.576 131.244 137.244">Clayton</tspan></text>
<text xml:space="preserve" transform="matrix(1 0 -0 1 0 360)" font-size="12" font-family="LMRoman10"><tspan y="-253.66" x="102.24 110.904 116.904 126.9 133.572 136.908 143.58 148.908">Combined</tspan></text>
<text xml:space="preserve" transform="matrix(1 0 -0 1 0 360)" font-size="12" font-family="LMRoman10"><tspan y="-239.26" x="102.24 110.412 113.748 120.084 130.08 136.08 142.752 147.42">Plymouth</tspan></text>
<path transform="matrix(1,0,0,-1,0,360)" stroke-width="1.5" stroke-linecap="round" stroke-dasharray="0,6,4.5,6" stroke-linejoin="round" fill="none" stroke="#000000" d="M 65.08 81.93 L 65.87 81.95 L 67.5 81.98 L 68.92 81.93 L 69.58 81.91 L 69.92 81.9 L 70.17 81.89 L 71.08 81.89 L 71.87 81.89 L 72.33 81.89 L 72.64 81.88 L 73.25 81.88 L 74.75 81.87 L 77.17 81.87 L 79.58 81.88 L 82 81.9 L 84.42 81.93 L 86.83 81.96 L 89.25 81.99 L 91.67 82.02 L 92.61 82.13 L 94.08 82.3 L 94.14 82.3 L 95.42 82.38 L 96.5 82.46 L 97.44 82.5 L 98.92 82.56 L 99.38 82.57 L 101.33 82.57 L 101.49 82.53 L 103.75 81.96 L 104.32 82 L 105.88 82.09 L 106.17 82.1 L 108.58 82.47 L 111 82.93 L 113.42 83.32 L 113.49 83.3 L 114.46 82.94 L 115.83 82.44 L 115.87 82.44 L 117.56 82.38 L 118.25 82.35 L 120.67 82.32 L 123.08 82.27 L 125.5 82.2 L 127.92 82.12 L 130.34 82.04 L 132.75 81.96 L 135.17 81.91 L 137.59 81.88 L 140 81.87 L 142.42 81.87 L 142.5 81.88 L 143.92 82.03 L 144.84 82.14 L 145.34 82.15 L 147.25 82.19 L 148.68 82.14 L 149.67 82.1 L 150.73 82.18 L 152.09 82.29 L 152.3 82.29 "/>
<path transform="matrix(1,0,0,-1,0,360)" stroke-width="1.5" stroke-linecap="round" stroke-dasharray="0,6,4.5,6" stroke-linejoin="round" fill="none" stroke="#000000" d="M 164.39 82.36 L 166.1 82.36 L 166.8 82.35 L 169.22 82.57 L 171.64 82.79 L 174.05 82.96 L 176.47 83.05 L 177.07 83.02 L 178.75 82.95 L 178.89 82.94 L 181.3 84.21 L 181.64 84.08 L 183.72 83.25 L 186.14 82.24 L 188.56 81.87 L 190.11 81.93 L 190.97 81.97 L 191.42 81.95 L 192.9 81.91 L 193.39 81.9 L 194.3 81.92 L 195.81 81.96 L 195.85 81.96 L 198.16 82.05 L 198.22 82.05 L 199.62 82.26 L 200.64 82.41 L 201.42 82.31 L 203.06 82.11 L 203.53 82.17 L 205.09 82.38 L 205.47 82.43 L 206.66 82.55 L 207.89 82.67 L 208.04 82.66 L 209.49 82.55 L 210.31 82.48 L 212.23 82.49 L 212.72 82.5 L 213.84 82.38 L 215.14 82.25 L 215.67 82.26 L 217.56 82.32 L 219.97 82.34 L 222.04 82.26 L 222.39 82.24 L 224.81 82 L 227.22 81.88 L 227.53 81.88 L 228.94 81.87 L 229.64 81.87 L 230.15 81.92 L 232.06 82.12 L 232.17 82.15 L 233.62 82.44 L 234.47 82.62 L 236.01 82.32 L 236.89 82.14 L 238.43 82.01 L 239.31 81.94 L 239.74 81.93 L 241.08 81.92 "/>
<path transform="matrix(1,0,0,-1,0,360)" stroke-width="1.5" stroke-linecap="round" stroke-dasharray="0,6,4.5,6" stroke-linejoin="round" fill="none" stroke="#000000" d="M 253.17 87.32 L 253.17 87.32 L 254.79 88.19 L 255.59 88.62 L 257.68 116 L 258 120.28 L 258.91 121.45 L 260.02 122.88 L 260.42 123.39 L 261.35 126.15 L 262.84 130.52 L 263.51 130.71 L 264.83 131.1 L 265.25 131.22 L 266.19 126.93 L 267.67 120.12 L 269.46 112.66 L 270.09 110.04 L 271.12 106.9 L 272.5 102.68 L 272.6 102.65 L 273.68 102.34 L 274.92 101.98 L 276.12 99.81 L 277.34 97.62 L 277.85 97.05 L 278.89 95.9 L 279.75 94.95 L 282.17 82.02 L 282.42 82.09 L 283.3 82.36 L 284.25 82.64 L 284.59 82.74 L 285.16 82.97 L 286.71 83.6 L 287 83.71 L 289.42 82.5 L 290.62 82.23 L 291.81 81.96 L 291.84 81.95 L 292.85 82.21 L 294.25 82.57 L 295.15 82.54 L 296.45 82.5 L 296.67 82.49 L 297.91 82.5 L 299.09 82.5 L 299.4 82.48 L 300.76 82.38 L 301.5 82.32 L 302.66 82.4 L 303.92 82.49 L 303.95 82.49 L 306.34 82.78 L 308.2 82.96 L 308.75 83.02 L 309.26 83.01 "/>
<path transform="matrix(1,0,0,-1,0,360)" stroke-width="1.5" stroke-linecap="round" stroke-dasharray="0,6,4.5,6" stroke-linejoin="round" fill="none" stroke="#000000" d="M 321.35 81.88 L 323.76 81.88 L 324.71 82 L 326.18 82.21 L 326.7 82.16 L 328.17 82.03 L 328.6 81.99 L 329.66 82.02 L 331.01 82.05 L 333.43 81.95 L 334.06 81.94 L 335.64 81.9 L 335.85 81.9 L 337.62 82.13 L 338.26 82.22 L 339.26 82.08 L 340.68 81.87 L 341.13 81.9 L 343.1 82.03 L 343.37 82.04 L 345.51 82.16 L 347.93 82.31 L 350.35 82.5 L 352.77 82.69 L 355.18 82.84 L 357.6 82.93 L 360.02 82.97 L 361.14 83.02 L 362.43 83.08 L 362.8 83.13 L 364.41 83.31 L 364.85 83.36 L 366.09 83.36 L 367.27 83.36 L 367.9 83.37 L 369.68 83.41 L 370.35 83.31 L 372.1 83.03 L 373.18 83.04 L 374.52 83.05 L 374.8 83.03 L 376.93 82.86 L 379.35 82.52 L 381.77 82.2 L 384.18 81.97 L 385.86 81.9 L 386.6 81.87 L 387.17 81.88 L 388.35 81.91 "/>
<path transform="matrix(1,0,0,-1,0,360)" stroke-width="1.5" stroke-linecap="round" stroke-dasharray="0,6,4.5,6" stroke-linejoin="round" fill="none" stroke="#000000" d="M 400.43 83.09 L 401.56 82.98 L 402.85 82.85 L 402.88 82.91 L 404.18 85.51 L 405.27 87.7 L 405.6 87.63 L 407.09 87.3 L 407.68 87.17 L 410.1 89.79 L 412.52 91.29 L 412.61 91.51 L 414.12 95.11 L 414.93 97.05 L 416.77 99.06 L 417.35 99.7 L 418.29 99.15 L 419.77 98.27 L 420.57 97.79 L 422.18 96.83 L 422.71 96.96 L 424.32 97.38 L 424.6 97.45 L 426.27 98.01 L 427.02 98.25 L 428.23 91.03 L 429.43 83.89 L 429.94 83.5 L 431.72 82.11 "/>
<path transform="matrix(1,0,0,-1,0,360)" stroke-width=".75" stroke-linecap="round" stroke-linejoin="round" fill="none" stroke="#000000" d="M 59.04 300.96 L 160.98001 300.96 L 160.98001 228.95999 L 59.04 228.95999 Z "/>
<path transform="matrix(1,0,0,-1,0,360)" stroke-width=".75" stroke-linecap="round" stroke-linejoin="round" fill="none" stroke="#000000" d="M 69.84 286.56 L 91.44 286.56 "/>
<path transform="matrix(1,0,0,-1,0,360)" stroke-width=".75" stroke-linecap="round" stroke-dasharray="2.25,3.75" stroke-linejoin="round" fill="none" stroke="#000000" d="M 69.84 272.16 L 91.44 272.16 "/>
<path transform="matrix(1,0,0,-1,0,360)" stroke-width=".75" stroke-linecap="round" stroke-dasharray="0,3" stroke-linejoin="round" fill="none" stroke="#000000" d="M 69.84 257.76 L 91.44 257.76 "/>
<path transform="matrix(1,0,0,-1,0,360)" stroke-width=".75" stroke-linecap="round" stroke-dasharray="0,3,2.25,3" stroke-linejoin="round" fill="none" stroke="#000000" d="M 69.84 243.36 L 91.44 243.36 "/>
<text xml:space="preserve" transform="matrix(1 0 -0 1 0 360)" font-size="12" font-family="LMRoman10"><tspan y="-282.46" x="102.24 110.904 116.904 121.631999 130.29599 135.624 138.95999">Caswell</tspan></text>
<text xml:space="preserve" transform="matrix(1 0 -0 1 0 360)" font-size="12" font-family="LMRoman10"><tspan y="-268.06" x="102.24 110.904 114.24 120.24 126.576 131.244 137.244">Clayton</tspan></text>
<text xml:space="preserve" transform="matrix(1 0 -0 1 0 360)" font-size="12" font-family="LMRoman10"><tspan y="-253.66" x="102.24 110.904 116.904 126.9 133.572 136.908 143.58 148.908">Combined</tspan></text>
<text xml:space="preserve" transform="matrix(1 0 -0 1 0 360)" font-size="12" font-family="LMRoman10"><tspan y="-239.26" x="102.24 110.412 113.748 120.084 130.08 136.08 142.752 147.42">Plymouth</tspan></text>
</g>
</g>
</svg>
