<?xml version="1.0" encoding="UTF-8" standalone="no"?>
<!DOCTYPE svg PUBLIC "-//W3C//DTD SVG 1.1//EN" "http://www.w3.org/Graphics/SVG/1.1/DTD/svg11.dtd">
<svg xmlns="http://www.w3.org/2000/svg" xmlns:xlink="http://www.w3.org/1999/xlink" version="1.1" width="468pt" height="360pt" viewBox="0 0 468 360">
<g enable-background="new">
<path transform="matrix(1,0,0,-1,0,360)" stroke-width=".75" stroke-linecap="round" stroke-linejoin="round" fill="none" stroke="#000000" d="M 59.04 81.87 L 59.04 293.44 "/>
<path transform="matrix(1,0,0,-1,0,360)" stroke-width=".75" stroke-linecap="round" stroke-linejoin="round" fill="none" stroke="#000000" d="M 59.04 81.87 L 51.84 81.87 "/>
<path transform="matrix(1,0,0,-1,0,360)" stroke-width=".75" stroke-linecap="round" stroke-linejoin="round" fill="none" stroke="#000000" d="M 59.04 112.09 L 51.84 112.09 "/>
<path transform="matrix(1,0,0,-1,0,360)" stroke-width=".75" stroke-linecap="round" stroke-linejoin="round" fill="none" stroke="#000000" d="M 59.04 142.32 L 51.84 142.32 "/>
<path transform="matrix(1,0,0,-1,0,360)" stroke-width=".75" stroke-linecap="round" stroke-linejoin="round" fill="none" stroke="#000000" d="M 59.04 172.54 L 51.84 172.54 "/>
<path transform="matrix(1,0,0,-1,0,360)" stroke-width=".75" stroke-linecap="round" stroke-linejoin="round" fill="none" stroke="#000000" d="M 59.04 202.77 L 51.84 202.77 "/>
<path transform="matrix(1,0,0,-1,0,360)" stroke-width=".75" stroke-linecap="round" stroke-linejoin="round" fill="none" stroke="#000000" d="M 59.04 232.99 L 51.84 232.99 "/>
<path transform="matrix(1,0,0,-1,0,360)" stroke-width=".75" stroke-linecap="round" stroke-linejoin="round" fill="none" stroke="#000000" d="M 59.04 263.22 L 51.84 263.22 "/>
<path transform="matrix(1,0,0,-1,0,360)" stroke-width=".75" stroke-linecap="round" stroke-linejoin="round" fill="none" stroke="#000000" d="M 59.04 293.44 L 51.84 293.44 "/>
<text xml:space="preserve" transform="matrix(1 0 -0 1 0 360)" font-size="12" font-family="LMRoman10"><tspan y="-77.77" x="38.64">0</tspan></text>
<text xml:space="preserve" transform="matrix(1 0 -0 1 0 360)" font-size="12" font-family="LMRoman10"><tspan y="-107.99" x="32.64 38.64">10</tspan></text>
<text xml:space="preserve" transform="matrix(1 0 -0 1 0 360)" font-size="12" font-family="LMRoman10"><tspan y="-138.22" x="32.64 38.64">20</tspan></text>
<text xml:space="preserve" transform="matrix(1 0 -0 1 0 360)" font-size="12" font-family="LMRoman10"><tspan y="-168.44" x="32.64 38.64">30</tspan></text>
<text xml:space="preserve" transform="matrix(1 0 -0 1 0 360)" font-size="12" font-family="LMRoman10"><tspan y="-198.67" x="32.64 38.64">40</tspan></text>
<text xml:space="preserve" transform="matrix(1 0 -0 1 0 360)" font-size="12" font-family="LMRoman10"><tspan y="-228.89" x="32.64 38.64">50</tspan></text>
<text xml:space="preserve" transform="matrix(1 0 -0 1 0 360)" font-size="12" font-family="LMRoman10"><tspan y="-259.12" x="32.64 38.64">60</tspan></text>
<text xml:space="preserve" transform="matrix(1 0 -0 1 0 360)" font-size="12" font-family="LMRoman10"><tspan y="-289.34" x="32.64 38.64">70</tspan></text>
<path transform="matrix(1,0,0,-1,0,360)" stroke-width=".75" stroke-linecap="round" stroke-linejoin="round" fill="none" stroke="#000000" d="M 59.04 73.44 L 437.76 73.44 L 437.76 300.96 L 59.04 300.96 L 59.04 73.44 "/>
<text xml:space="preserve" transform="matrix(1 0 -0 1 0 360)" font-size="14" font-family="LMRoman10" font-weight="bold"><tspan y="-325.68" x="195.16 206.164 214.214 223.16 232.106 236.572 244.39801 250.656 255.12201 263.172 272.118 277.48 285.53 293.58">Population 201</tspan></text>
<text xml:space="preserve" transform="matrix(1 0 -0 1 0 360)" font-size="12" font-family="LMRoman10"><tspan y="-18.72" x="214.36 223.024 229.696 234.4 240.4 250.396 256.396 261.124 267.124 277.12">Chromosome</tspan></text>
<text xml:space="preserve" transform="matrix(0 -1 1 0 0 360)" font-size="12" font-family="LMRoman10"><tspan y="12.96" x="139.19 146.69 156.026 165.194 168.53 172.526 181.862 185.198 188.534 192.53 201.194 207.194 213.866 218.534 223.862 230.534">LOD: Oil Content</tspan></text>
<clipPath id="cp0">
<path transform="matrix(1,0,0,-1,0,360)" d="M 59.04 73.44 L 437.76 73.44 L 437.76 300.96003 L 59.04 300.96003 Z "/>
</clipPath>
<g clip-path="url(#cp0)">
<path transform="matrix(1,0,0,-1,0,360)" stroke-width="1.5" stroke-linecap="round" stroke-linejoin="round" fill="none" stroke="#000000" d="M 63.2 83.98 L 63.74 83.95 L 64.86 83.91 L 65.85 85.46 L 66.3 86.17 L 66.53 86.53 L 66.71 86.58 L 67.33 86.74 L 67.88 86.88 L 68.19 86.96 L 68.41 87.01 L 68.83 87.11 L 69.86 87.37 L 71.52 87.56 L 73.18 87.55 L 74.85 87.27 L 76.51 86.75 L 78.18 86.04 L 79.84 85.28 L 81.5 84.58 L 82.15 83.82 L 83.17 82.64 L 83.21 82.65 L 84.09 82.67 L 84.83 82.69 L 85.48 82.69 L 86.5 82.68 L 86.82 82.71 L 88.16 82.86 L 88.27 82.8 L 89.82 81.92 L 90.22 81.91 L 91.29 81.9 L 91.49 81.89 L 93.15 81.87 L 94.82 81.87 L 96.48 81.89 L 96.53 81.9 L 97.2 82.04 L 98.15 82.24 L 98.17 82.23 L 99.33 82.11 L 99.81 82.05 L 101.47 82.13 L 103.14 82.22 L 104.8 82.35 L 106.47 82.48 L 108.13 82.62 L 109.79 82.72 L 111.46 82.78 L 113.12 82.8 L 114.79 82.8 L 116.45 82.77 L 116.51 82.77 L 117.48 82.8 L 118.11 82.82 L 118.46 82.83 L 119.78 82.84 L 120.76 82.85 L 121.44 82.86 L 122.17 82.84 L 123.11 82.81 L 123.26 82.81 "/>
</g>
<path transform="matrix(1,0,0,-1,0,360)" stroke-width=".38" stroke-linecap="round" stroke-linejoin="round" fill="none" stroke="#000000" d="M 63.2 73.44 L 63.2 77.99 "/>
<path transform="matrix(1,0,0,-1,0,360)" stroke-width=".38" stroke-linecap="round" stroke-linejoin="round" fill="none" stroke="#000000" d="M 63.74 73.44 L 63.74 77.99 "/>
<path transform="matrix(1,0,0,-1,0,360)" stroke-width=".38" stroke-linecap="round" stroke-linejoin="round" fill="none" stroke="#000000" d="M 65.85 73.44 L 65.85 77.99 "/>
<path transform="matrix(1,0,0,-1,0,360)" stroke-width=".38" stroke-linecap="round" stroke-linejoin="round" fill="none" stroke="#000000" d="M 66.3 73.44 L 66.3 77.99 "/>
<path transform="matrix(1,0,0,-1,0,360)" stroke-width=".38" stroke-linecap="round" stroke-linejoin="round" fill="none" stroke="#000000" d="M 66.71 73.44 L 66.71 77.99 "/>
<path transform="matrix(1,0,0,-1,0,360)" stroke-width=".38" stroke-linecap="round" stroke-linejoin="round" fill="none" stroke="#000000" d="M 67.33 73.44 L 67.33 77.99 "/>
<path transform="matrix(1,0,0,-1,0,360)" stroke-width=".38" stroke-linecap="round" stroke-linejoin="round" fill="none" stroke="#000000" d="M 67.33 73.44 L 67.33 77.99 "/>
<path transform="matrix(1,0,0,-1,0,360)" stroke-width=".38" stroke-linecap="round" stroke-linejoin="round" fill="none" stroke="#000000" d="M 67.88 73.44 L 67.88 77.99 "/>
<path transform="matrix(1,0,0,-1,0,360)" stroke-width=".38" stroke-linecap="round" stroke-linejoin="round" fill="none" stroke="#000000" d="M 68.41 73.44 L 68.41 77.99 "/>
<path transform="matrix(1,0,0,-1,0,360)" stroke-width=".38" stroke-linecap="round" stroke-linejoin="round" fill="none" stroke="#000000" d="M 68.83 73.44 L 68.83 77.99 "/>
<path transform="matrix(1,0,0,-1,0,360)" stroke-width=".38" stroke-linecap="round" stroke-linejoin="round" fill="none" stroke="#000000" d="M 82.15 73.44 L 82.15 77.99 "/>
<path transform="matrix(1,0,0,-1,0,360)" stroke-width=".38" stroke-linecap="round" stroke-linejoin="round" fill="none" stroke="#000000" d="M 83.21 73.44 L 83.21 77.99 "/>
<path transform="matrix(1,0,0,-1,0,360)" stroke-width=".38" stroke-linecap="round" stroke-linejoin="round" fill="none" stroke="#000000" d="M 84.09 73.44 L 84.09 77.99 "/>
<path transform="matrix(1,0,0,-1,0,360)" stroke-width=".38" stroke-linecap="round" stroke-linejoin="round" fill="none" stroke="#000000" d="M 85.48 73.44 L 85.48 77.99 "/>
<path transform="matrix(1,0,0,-1,0,360)" stroke-width=".38" stroke-linecap="round" stroke-linejoin="round" fill="none" stroke="#000000" d="M 86.82 73.44 L 86.82 77.99 "/>
<path transform="matrix(1,0,0,-1,0,360)" stroke-width=".38" stroke-linecap="round" stroke-linejoin="round" fill="none" stroke="#000000" d="M 88.27 73.44 L 88.27 77.99 "/>
<path transform="matrix(1,0,0,-1,0,360)" stroke-width=".38" stroke-linecap="round" stroke-linejoin="round" fill="none" stroke="#000000" d="M 90.22 73.44 L 90.22 77.99 "/>
<path transform="matrix(1,0,0,-1,0,360)" stroke-width=".38" stroke-linecap="round" stroke-linejoin="round" fill="none" stroke="#000000" d="M 91.29 73.44 L 91.29 77.99 "/>
<path transform="matrix(1,0,0,-1,0,360)" stroke-width=".38" stroke-linecap="round" stroke-linejoin="round" fill="none" stroke="#000000" d="M 96.53 73.44 L 96.53 77.99 "/>
<path transform="matrix(1,0,0,-1,0,360)" stroke-width=".38" stroke-linecap="round" stroke-linejoin="round" fill="none" stroke="#000000" d="M 97.2 73.44 L 97.2 77.99 "/>
<path transform="matrix(1,0,0,-1,0,360)" stroke-width=".38" stroke-linecap="round" stroke-linejoin="round" fill="none" stroke="#000000" d="M 98.17 73.44 L 98.17 77.99 "/>
<path transform="matrix(1,0,0,-1,0,360)" stroke-width=".38" stroke-linecap="round" stroke-linejoin="round" fill="none" stroke="#000000" d="M 99.33 73.44 L 99.33 77.99 "/>
<path transform="matrix(1,0,0,-1,0,360)" stroke-width=".38" stroke-linecap="round" stroke-linejoin="round" fill="none" stroke="#000000" d="M 99.33 73.44 L 99.33 77.99 "/>
<path transform="matrix(1,0,0,-1,0,360)" stroke-width=".38" stroke-linecap="round" stroke-linejoin="round" fill="none" stroke="#000000" d="M 116.51 73.44 L 116.51 77.99 "/>
<path transform="matrix(1,0,0,-1,0,360)" stroke-width=".38" stroke-linecap="round" stroke-linejoin="round" fill="none" stroke="#000000" d="M 116.51 73.44 L 116.51 77.99 "/>
<path transform="matrix(1,0,0,-1,0,360)" stroke-width=".38" stroke-linecap="round" stroke-linejoin="round" fill="none" stroke="#000000" d="M 117.48 73.44 L 117.48 77.99 "/>
<path transform="matrix(1,0,0,-1,0,360)" stroke-width=".38" stroke-linecap="round" stroke-linejoin="round" fill="none" stroke="#000000" d="M 118.46 73.44 L 118.46 77.99 "/>
<path transform="matrix(1,0,0,-1,0,360)" stroke-width=".38" stroke-linecap="round" stroke-linejoin="round" fill="none" stroke="#000000" d="M 120.76 73.44 L 120.76 77.99 "/>
<path transform="matrix(1,0,0,-1,0,360)" stroke-width=".38" stroke-linecap="round" stroke-linejoin="round" fill="none" stroke="#000000" d="M 122.17 73.44 L 122.17 77.99 "/>
<path transform="matrix(1,0,0,-1,0,360)" stroke-width=".38" stroke-linecap="round" stroke-linejoin="round" fill="none" stroke="#000000" d="M 123.26 73.44 L 123.26 77.99 "/>
<clipPath id="cp1">
<path transform="matrix(1,0,0,-1,0,360)" d="M 59.04 73.44 L 437.76 73.44 L 437.76 300.96003 L 59.04 300.96003 Z "/>
</clipPath>
<g clip-path="url(#cp1)">
<path transform="matrix(1,0,0,-1,0,360)" stroke-width="1.5" stroke-linecap="round" stroke-linejoin="round" fill="none" stroke="#000000" d="M 131.58 83.1 L 132.75 83.16 L 133.24 83.18 L 134.9 82.72 L 136.57 82.29 L 138.23 81.99 L 139.9 81.87 L 140.31 81.87 L 141.46 81.88 L 141.56 81.88 L 143.22 82.08 L 143.45 82.07 L 144.89 82.03 L 146.55 86.12 L 148.22 88.12 L 149.28 88.14 L 149.88 88.16 L 150.19 88.21 L 151.21 88.39 L 151.54 88.45 L 152.17 88.51 L 153.21 88.62 L 153.24 88.6 L 154.83 87.72 L 154.87 87.69 L 155.84 88.11 L 156.54 88.42 L 157.08 88.07 L 158.2 87.34 L 158.53 87.03 L 159.6 85.99 L 159.86 85.75 L 160.69 85.28 L 161.53 84.8 L 161.63 84.62 L 162.63 82.87 L 163.19 81.87 L 164.52 81.95 L 164.86 81.97 L 165.63 82.07 L 166.52 82.2 L 166.89 82.21 L 168.18 82.27 L 169.85 82.2 L 171.27 82.11 L 171.51 82.1 L 173.18 82.14 L 174.84 82.13 L 175.05 82.16 L 176.02 82.31 L 176.51 82.38 L 176.86 82.67 L 178.17 83.75 L 178.25 83.74 L 179.24 83.62 L 179.83 83.54 L 180.89 83.57 L 181.5 83.58 L 182.56 83.58 L 183.16 83.58 L 183.46 83.66 L 184.38 83.92 "/>
</g>
<path transform="matrix(1,0,0,-1,0,360)" stroke-width=".38" stroke-linecap="round" stroke-linejoin="round" fill="none" stroke="#000000" d="M 131.58 73.44 L 131.58 77.99 "/>
<path transform="matrix(1,0,0,-1,0,360)" stroke-width=".38" stroke-linecap="round" stroke-linejoin="round" fill="none" stroke="#000000" d="M 132.75 73.44 L 132.75 77.99 "/>
<path transform="matrix(1,0,0,-1,0,360)" stroke-width=".38" stroke-linecap="round" stroke-linejoin="round" fill="none" stroke="#000000" d="M 140.31 73.44 L 140.31 77.99 "/>
<path transform="matrix(1,0,0,-1,0,360)" stroke-width=".38" stroke-linecap="round" stroke-linejoin="round" fill="none" stroke="#000000" d="M 141.46 73.44 L 141.46 77.99 "/>
<path transform="matrix(1,0,0,-1,0,360)" stroke-width=".38" stroke-linecap="round" stroke-linejoin="round" fill="none" stroke="#000000" d="M 143.45 73.44 L 143.45 77.99 "/>
<path transform="matrix(1,0,0,-1,0,360)" stroke-width=".38" stroke-linecap="round" stroke-linejoin="round" fill="none" stroke="#000000" d="M 149.28 73.44 L 149.28 77.99 "/>
<path transform="matrix(1,0,0,-1,0,360)" stroke-width=".38" stroke-linecap="round" stroke-linejoin="round" fill="none" stroke="#000000" d="M 150.19 73.44 L 150.19 77.99 "/>
<path transform="matrix(1,0,0,-1,0,360)" stroke-width=".38" stroke-linecap="round" stroke-linejoin="round" fill="none" stroke="#000000" d="M 151.21 73.44 L 151.21 77.99 "/>
<path transform="matrix(1,0,0,-1,0,360)" stroke-width=".38" stroke-linecap="round" stroke-linejoin="round" fill="none" stroke="#000000" d="M 152.17 73.44 L 152.17 77.99 "/>
<path transform="matrix(1,0,0,-1,0,360)" stroke-width=".38" stroke-linecap="round" stroke-linejoin="round" fill="none" stroke="#000000" d="M 153.24 73.44 L 153.24 77.99 "/>
<path transform="matrix(1,0,0,-1,0,360)" stroke-width=".38" stroke-linecap="round" stroke-linejoin="round" fill="none" stroke="#000000" d="M 154.83 73.44 L 154.83 77.99 "/>
<path transform="matrix(1,0,0,-1,0,360)" stroke-width=".38" stroke-linecap="round" stroke-linejoin="round" fill="none" stroke="#000000" d="M 155.84 73.44 L 155.84 77.99 "/>
<path transform="matrix(1,0,0,-1,0,360)" stroke-width=".38" stroke-linecap="round" stroke-linejoin="round" fill="none" stroke="#000000" d="M 157.08 73.44 L 157.08 77.99 "/>
<path transform="matrix(1,0,0,-1,0,360)" stroke-width=".38" stroke-linecap="round" stroke-linejoin="round" fill="none" stroke="#000000" d="M 158.53 73.44 L 158.53 77.99 "/>
<path transform="matrix(1,0,0,-1,0,360)" stroke-width=".38" stroke-linecap="round" stroke-linejoin="round" fill="none" stroke="#000000" d="M 158.53 73.44 L 158.53 77.99 "/>
<path transform="matrix(1,0,0,-1,0,360)" stroke-width=".38" stroke-linecap="round" stroke-linejoin="round" fill="none" stroke="#000000" d="M 159.6 73.44 L 159.6 77.99 "/>
<path transform="matrix(1,0,0,-1,0,360)" stroke-width=".38" stroke-linecap="round" stroke-linejoin="round" fill="none" stroke="#000000" d="M 160.69 73.44 L 160.69 77.99 "/>
<path transform="matrix(1,0,0,-1,0,360)" stroke-width=".38" stroke-linecap="round" stroke-linejoin="round" fill="none" stroke="#000000" d="M 161.63 73.44 L 161.63 77.99 "/>
<path transform="matrix(1,0,0,-1,0,360)" stroke-width=".38" stroke-linecap="round" stroke-linejoin="round" fill="none" stroke="#000000" d="M 162.63 73.44 L 162.63 77.99 "/>
<path transform="matrix(1,0,0,-1,0,360)" stroke-width=".38" stroke-linecap="round" stroke-linejoin="round" fill="none" stroke="#000000" d="M 164.52 73.44 L 164.52 77.99 "/>
<path transform="matrix(1,0,0,-1,0,360)" stroke-width=".38" stroke-linecap="round" stroke-linejoin="round" fill="none" stroke="#000000" d="M 165.63 73.44 L 165.63 77.99 "/>
<path transform="matrix(1,0,0,-1,0,360)" stroke-width=".38" stroke-linecap="round" stroke-linejoin="round" fill="none" stroke="#000000" d="M 166.89 73.44 L 166.89 77.99 "/>
<path transform="matrix(1,0,0,-1,0,360)" stroke-width=".38" stroke-linecap="round" stroke-linejoin="round" fill="none" stroke="#000000" d="M 171.27 73.44 L 171.27 77.99 "/>
<path transform="matrix(1,0,0,-1,0,360)" stroke-width=".38" stroke-linecap="round" stroke-linejoin="round" fill="none" stroke="#000000" d="M 175.05 73.44 L 175.05 77.99 "/>
<path transform="matrix(1,0,0,-1,0,360)" stroke-width=".38" stroke-linecap="round" stroke-linejoin="round" fill="none" stroke="#000000" d="M 176.02 73.44 L 176.02 77.99 "/>
<path transform="matrix(1,0,0,-1,0,360)" stroke-width=".38" stroke-linecap="round" stroke-linejoin="round" fill="none" stroke="#000000" d="M 176.86 73.44 L 176.86 77.99 "/>
<path transform="matrix(1,0,0,-1,0,360)" stroke-width=".38" stroke-linecap="round" stroke-linejoin="round" fill="none" stroke="#000000" d="M 178.25 73.44 L 178.25 77.99 "/>
<path transform="matrix(1,0,0,-1,0,360)" stroke-width=".38" stroke-linecap="round" stroke-linejoin="round" fill="none" stroke="#000000" d="M 178.25 73.44 L 178.25 77.99 "/>
<path transform="matrix(1,0,0,-1,0,360)" stroke-width=".38" stroke-linecap="round" stroke-linejoin="round" fill="none" stroke="#000000" d="M 178.25 73.44 L 178.25 77.99 "/>
<path transform="matrix(1,0,0,-1,0,360)" stroke-width=".38" stroke-linecap="round" stroke-linejoin="round" fill="none" stroke="#000000" d="M 179.24 73.44 L 179.24 77.99 "/>
<path transform="matrix(1,0,0,-1,0,360)" stroke-width=".38" stroke-linecap="round" stroke-linejoin="round" fill="none" stroke="#000000" d="M 180.89 73.44 L 180.89 77.99 "/>
<path transform="matrix(1,0,0,-1,0,360)" stroke-width=".38" stroke-linecap="round" stroke-linejoin="round" fill="none" stroke="#000000" d="M 182.56 73.44 L 182.56 77.99 "/>
<path transform="matrix(1,0,0,-1,0,360)" stroke-width=".38" stroke-linecap="round" stroke-linejoin="round" fill="none" stroke="#000000" d="M 183.46 73.44 L 183.46 77.99 "/>
<path transform="matrix(1,0,0,-1,0,360)" stroke-width=".38" stroke-linecap="round" stroke-linejoin="round" fill="none" stroke="#000000" d="M 184.38 73.44 L 184.38 77.99 "/>
<clipPath id="cp2">
<path transform="matrix(1,0,0,-1,0,360)" d="M 59.04 73.44 L 437.76 73.44 L 437.76 300.96003 L 59.04 300.96003 Z "/>
</clipPath>
<g clip-path="url(#cp2)">
<path transform="matrix(1,0,0,-1,0,360)" stroke-width="1.5" stroke-linecap="round" stroke-linejoin="round" fill="none" stroke="#000000" d="M 192.7 91.95 L 192.7 91.95 L 193.71 92.09 L 194.37 92.18 L 194.57 92.31 L 196.03 93.26 L 196.98 93.62 L 197.7 93.89 L 198.72 92.7 L 199.36 91.95 L 199.39 91.92 L 200.35 90.47 L 201.03 89.45 L 201.69 87.99 L 202.69 85.78 L 203.35 85.42 L 204.11 85.01 L 204.35 84.88 L 204.83 84.78 L 205.56 84.62 "/>
</g>
<path transform="matrix(1,0,0,-1,0,360)" stroke-width=".38" stroke-linecap="round" stroke-linejoin="round" fill="none" stroke="#000000" d="M 192.7 73.44 L 192.7 77.99 "/>
<path transform="matrix(1,0,0,-1,0,360)" stroke-width=".38" stroke-linecap="round" stroke-linejoin="round" fill="none" stroke="#000000" d="M 192.7 73.44 L 192.7 77.99 "/>
<path transform="matrix(1,0,0,-1,0,360)" stroke-width=".38" stroke-linecap="round" stroke-linejoin="round" fill="none" stroke="#000000" d="M 193.71 73.44 L 193.71 77.99 "/>
<path transform="matrix(1,0,0,-1,0,360)" stroke-width=".38" stroke-linecap="round" stroke-linejoin="round" fill="none" stroke="#000000" d="M 194.57 73.44 L 194.57 77.99 "/>
<path transform="matrix(1,0,0,-1,0,360)" stroke-width=".38" stroke-linecap="round" stroke-linejoin="round" fill="none" stroke="#000000" d="M 196.98 73.44 L 196.98 77.99 "/>
<path transform="matrix(1,0,0,-1,0,360)" stroke-width=".38" stroke-linecap="round" stroke-linejoin="round" fill="none" stroke="#000000" d="M 198.72 73.44 L 198.72 77.99 "/>
<path transform="matrix(1,0,0,-1,0,360)" stroke-width=".38" stroke-linecap="round" stroke-linejoin="round" fill="none" stroke="#000000" d="M 199.39 73.44 L 199.39 77.99 "/>
<path transform="matrix(1,0,0,-1,0,360)" stroke-width=".38" stroke-linecap="round" stroke-linejoin="round" fill="none" stroke="#000000" d="M 200.35 73.44 L 200.35 77.99 "/>
<path transform="matrix(1,0,0,-1,0,360)" stroke-width=".38" stroke-linecap="round" stroke-linejoin="round" fill="none" stroke="#000000" d="M 200.35 73.44 L 200.35 77.99 "/>
<path transform="matrix(1,0,0,-1,0,360)" stroke-width=".38" stroke-linecap="round" stroke-linejoin="round" fill="none" stroke="#000000" d="M 201.69 73.44 L 201.69 77.99 "/>
<path transform="matrix(1,0,0,-1,0,360)" stroke-width=".38" stroke-linecap="round" stroke-linejoin="round" fill="none" stroke="#000000" d="M 203.35 73.44 L 203.35 77.99 "/>
<path transform="matrix(1,0,0,-1,0,360)" stroke-width=".38" stroke-linecap="round" stroke-linejoin="round" fill="none" stroke="#000000" d="M 204.11 73.44 L 204.11 77.99 "/>
<path transform="matrix(1,0,0,-1,0,360)" stroke-width=".38" stroke-linecap="round" stroke-linejoin="round" fill="none" stroke="#000000" d="M 204.83 73.44 L 204.83 77.99 "/>
<path transform="matrix(1,0,0,-1,0,360)" stroke-width=".38" stroke-linecap="round" stroke-linejoin="round" fill="none" stroke="#000000" d="M 205.56 73.44 L 205.56 77.99 "/>
<clipPath id="cp3">
<path transform="matrix(1,0,0,-1,0,360)" d="M 59.04 73.44 L 437.76 73.44 L 437.76 300.96003 L 59.04 300.96003 Z "/>
</clipPath>
<g clip-path="url(#cp3)">
<path transform="matrix(1,0,0,-1,0,360)" stroke-width="1.5" stroke-linecap="round" stroke-linejoin="round" fill="none" stroke="#000000" d="M 213.88 86.91 L 213.88 86.91 L 215 88.62 L 215.55 89.46 L 216.98 91.54 L 217.21 91.86 L 217.84 91.27 L 218.6 90.55 L 218.87 90.29 L 219.52 90.21 L 220.54 90.08 L 221 89.48 L 221.91 88.3 L 222.2 87.93 L 222.84 87.11 L 223.87 85.8 L 225.1 84.64 L 225.53 84.23 L 226.24 83.23 L 227.19 81.88 L 227.26 81.88 L 228 81.9 L 228.86 81.93 L 229.69 82.09 L 230.52 82.25 L 230.88 82.28 L 231.59 82.32 L 232.19 82.37 L 233.85 82.57 L 234.02 82.53 L 234.63 82.36 L 235.28 82.17 L 235.51 82.11 L 235.91 82.26 L 236.98 82.68 L 237.18 82.75 L 238.84 82.69 L 239.67 83.73 L 240.49 84.77 L 240.51 84.79 L 241.2 85.64 L 242.17 86.81 L 242.79 87.07 L 243.68 87.44 L 243.83 87.5 L 244.69 87.17 L 245.5 86.85 L 245.71 86.72 L 246.65 86.12 L 247.16 85.79 L 247.96 85.15 L 248.83 84.44 L 248.85 84.44 L 250.49 84.57 L 251.77 82.62 L 252.15 82.04 L 252.5 82.11 "/>
</g>
<path transform="matrix(1,0,0,-1,0,360)" stroke-width=".38" stroke-linecap="round" stroke-linejoin="round" fill="none" stroke="#000000" d="M 213.88 73.44 L 213.88 77.99 "/>
<path transform="matrix(1,0,0,-1,0,360)" stroke-width=".38" stroke-linecap="round" stroke-linejoin="round" fill="none" stroke="#000000" d="M 213.88 73.44 L 213.88 77.99 "/>
<path transform="matrix(1,0,0,-1,0,360)" stroke-width=".38" stroke-linecap="round" stroke-linejoin="round" fill="none" stroke="#000000" d="M 215 73.44 L 215 77.99 "/>
<path transform="matrix(1,0,0,-1,0,360)" stroke-width=".38" stroke-linecap="round" stroke-linejoin="round" fill="none" stroke="#000000" d="M 216.98 73.44 L 216.98 77.99 "/>
<path transform="matrix(1,0,0,-1,0,360)" stroke-width=".38" stroke-linecap="round" stroke-linejoin="round" fill="none" stroke="#000000" d="M 217.84 73.44 L 217.84 77.99 "/>
<path transform="matrix(1,0,0,-1,0,360)" stroke-width=".38" stroke-linecap="round" stroke-linejoin="round" fill="none" stroke="#000000" d="M 218.6 73.44 L 218.6 77.99 "/>
<path transform="matrix(1,0,0,-1,0,360)" stroke-width=".38" stroke-linecap="round" stroke-linejoin="round" fill="none" stroke="#000000" d="M 219.52 73.44 L 219.52 77.99 "/>
<path transform="matrix(1,0,0,-1,0,360)" stroke-width=".38" stroke-linecap="round" stroke-linejoin="round" fill="none" stroke="#000000" d="M 219.52 73.44 L 219.52 77.99 "/>
<path transform="matrix(1,0,0,-1,0,360)" stroke-width=".38" stroke-linecap="round" stroke-linejoin="round" fill="none" stroke="#000000" d="M 221 73.44 L 221 77.99 "/>
<path transform="matrix(1,0,0,-1,0,360)" stroke-width=".38" stroke-linecap="round" stroke-linejoin="round" fill="none" stroke="#000000" d="M 221.91 73.44 L 221.91 77.99 "/>
<path transform="matrix(1,0,0,-1,0,360)" stroke-width=".38" stroke-linecap="round" stroke-linejoin="round" fill="none" stroke="#000000" d="M 222.84 73.44 L 222.84 77.99 "/>
<path transform="matrix(1,0,0,-1,0,360)" stroke-width=".38" stroke-linecap="round" stroke-linejoin="round" fill="none" stroke="#000000" d="M 225.1 73.44 L 225.1 77.99 "/>
<path transform="matrix(1,0,0,-1,0,360)" stroke-width=".38" stroke-linecap="round" stroke-linejoin="round" fill="none" stroke="#000000" d="M 226.24 73.44 L 226.24 77.99 "/>
<path transform="matrix(1,0,0,-1,0,360)" stroke-width=".38" stroke-linecap="round" stroke-linejoin="round" fill="none" stroke="#000000" d="M 227.26 73.44 L 227.26 77.99 "/>
<path transform="matrix(1,0,0,-1,0,360)" stroke-width=".38" stroke-linecap="round" stroke-linejoin="round" fill="none" stroke="#000000" d="M 228 73.44 L 228 77.99 "/>
<path transform="matrix(1,0,0,-1,0,360)" stroke-width=".38" stroke-linecap="round" stroke-linejoin="round" fill="none" stroke="#000000" d="M 229.69 73.44 L 229.69 77.99 "/>
<path transform="matrix(1,0,0,-1,0,360)" stroke-width=".38" stroke-linecap="round" stroke-linejoin="round" fill="none" stroke="#000000" d="M 230.88 73.44 L 230.88 77.99 "/>
<path transform="matrix(1,0,0,-1,0,360)" stroke-width=".38" stroke-linecap="round" stroke-linejoin="round" fill="none" stroke="#000000" d="M 231.59 73.44 L 231.59 77.99 "/>
<path transform="matrix(1,0,0,-1,0,360)" stroke-width=".38" stroke-linecap="round" stroke-linejoin="round" fill="none" stroke="#000000" d="M 234.02 73.44 L 234.02 77.99 "/>
<path transform="matrix(1,0,0,-1,0,360)" stroke-width=".38" stroke-linecap="round" stroke-linejoin="round" fill="none" stroke="#000000" d="M 234.63 73.44 L 234.63 77.99 "/>
<path transform="matrix(1,0,0,-1,0,360)" stroke-width=".38" stroke-linecap="round" stroke-linejoin="round" fill="none" stroke="#000000" d="M 235.28 73.44 L 235.28 77.99 "/>
<path transform="matrix(1,0,0,-1,0,360)" stroke-width=".38" stroke-linecap="round" stroke-linejoin="round" fill="none" stroke="#000000" d="M 235.91 73.44 L 235.91 77.99 "/>
<path transform="matrix(1,0,0,-1,0,360)" stroke-width=".38" stroke-linecap="round" stroke-linejoin="round" fill="none" stroke="#000000" d="M 236.98 73.44 L 236.98 77.99 "/>
<path transform="matrix(1,0,0,-1,0,360)" stroke-width=".38" stroke-linecap="round" stroke-linejoin="round" fill="none" stroke="#000000" d="M 236.98 73.44 L 236.98 77.99 "/>
<path transform="matrix(1,0,0,-1,0,360)" stroke-width=".38" stroke-linecap="round" stroke-linejoin="round" fill="none" stroke="#000000" d="M 239.67 73.44 L 239.67 77.99 "/>
<path transform="matrix(1,0,0,-1,0,360)" stroke-width=".38" stroke-linecap="round" stroke-linejoin="round" fill="none" stroke="#000000" d="M 240.49 73.44 L 240.49 77.99 "/>
<path transform="matrix(1,0,0,-1,0,360)" stroke-width=".38" stroke-linecap="round" stroke-linejoin="round" fill="none" stroke="#000000" d="M 241.2 73.44 L 241.2 77.99 "/>
<path transform="matrix(1,0,0,-1,0,360)" stroke-width=".38" stroke-linecap="round" stroke-linejoin="round" fill="none" stroke="#000000" d="M 242.79 73.44 L 242.79 77.99 "/>
<path transform="matrix(1,0,0,-1,0,360)" stroke-width=".38" stroke-linecap="round" stroke-linejoin="round" fill="none" stroke="#000000" d="M 243.68 73.44 L 243.68 77.99 "/>
<path transform="matrix(1,0,0,-1,0,360)" stroke-width=".38" stroke-linecap="round" stroke-linejoin="round" fill="none" stroke="#000000" d="M 243.68 73.44 L 243.68 77.99 "/>
<path transform="matrix(1,0,0,-1,0,360)" stroke-width=".38" stroke-linecap="round" stroke-linejoin="round" fill="none" stroke="#000000" d="M 244.69 73.44 L 244.69 77.99 "/>
<path transform="matrix(1,0,0,-1,0,360)" stroke-width=".38" stroke-linecap="round" stroke-linejoin="round" fill="none" stroke="#000000" d="M 245.71 73.44 L 245.71 77.99 "/>
<path transform="matrix(1,0,0,-1,0,360)" stroke-width=".38" stroke-linecap="round" stroke-linejoin="round" fill="none" stroke="#000000" d="M 246.65 73.44 L 246.65 77.99 "/>
<path transform="matrix(1,0,0,-1,0,360)" stroke-width=".38" stroke-linecap="round" stroke-linejoin="round" fill="none" stroke="#000000" d="M 247.96 73.44 L 247.96 77.99 "/>
<path transform="matrix(1,0,0,-1,0,360)" stroke-width=".38" stroke-linecap="round" stroke-linejoin="round" fill="none" stroke="#000000" d="M 248.85 73.44 L 248.85 77.99 "/>
<path transform="matrix(1,0,0,-1,0,360)" stroke-width=".38" stroke-linecap="round" stroke-linejoin="round" fill="none" stroke="#000000" d="M 251.77 73.44 L 251.77 77.99 "/>
<path transform="matrix(1,0,0,-1,0,360)" stroke-width=".38" stroke-linecap="round" stroke-linejoin="round" fill="none" stroke="#000000" d="M 252.5 73.44 L 252.5 77.99 "/>
<clipPath id="cp4">
<path transform="matrix(1,0,0,-1,0,360)" d="M 59.04 73.44 L 437.76 73.44 L 437.76 300.96003 L 59.04 300.96003 Z "/>
</clipPath>
<g clip-path="url(#cp4)">
<path transform="matrix(1,0,0,-1,0,360)" stroke-width="1.5" stroke-linecap="round" stroke-linejoin="round" fill="none" stroke="#000000" d="M 260.82 85.37 L 262.49 84.03 L 263.14 84.74 L 264.15 85.83 L 264.51 85.74 L 265.52 85.46 L 265.82 85.38 L 266.55 86.29 L 267.48 87.44 L 269.14 89.77 L 269.58 89.88 L 270.67 90.17 L 270.81 90.21 L 272.03 88.09 L 272.47 87.32 L 273.16 87.47 L 274.14 87.7 L 274.44 88.1 L 275.8 89.86 L 275.99 89.89 L 277.47 90.12 L 279.13 90.51 L 280.79 82.04 L 282.46 84.21 L 284.12 87.29 L 285.79 90.1 L 287.45 92.36 L 288.23 92.35 L 289.11 92.33 L 289.37 92.47 L 290.47 93.08 L 290.78 93.25 L 291.63 93.13 L 292.44 93.02 L 292.88 92.75 L 294.11 92 L 294.56 93.38 L 295.77 97 L 296.51 92.82 L 297.43 87.67 L 297.63 87.48 L 299.1 86.13 L 300.76 84.36 L 302.43 82.89 L 304.09 82.12 L 305.25 82.01 L 305.75 81.96 L 306.15 81.95 L 306.96 81.92 "/>
</g>
<path transform="matrix(1,0,0,-1,0,360)" stroke-width=".38" stroke-linecap="round" stroke-linejoin="round" fill="none" stroke="#000000" d="M 260.82 73.44 L 260.82 77.99 "/>
<path transform="matrix(1,0,0,-1,0,360)" stroke-width=".38" stroke-linecap="round" stroke-linejoin="round" fill="none" stroke="#000000" d="M 263.14 73.44 L 263.14 77.99 "/>
<path transform="matrix(1,0,0,-1,0,360)" stroke-width=".38" stroke-linecap="round" stroke-linejoin="round" fill="none" stroke="#000000" d="M 264.51 73.44 L 264.51 77.99 "/>
<path transform="matrix(1,0,0,-1,0,360)" stroke-width=".38" stroke-linecap="round" stroke-linejoin="round" fill="none" stroke="#000000" d="M 265.52 73.44 L 265.52 77.99 "/>
<path transform="matrix(1,0,0,-1,0,360)" stroke-width=".38" stroke-linecap="round" stroke-linejoin="round" fill="none" stroke="#000000" d="M 266.55 73.44 L 266.55 77.99 "/>
<path transform="matrix(1,0,0,-1,0,360)" stroke-width=".38" stroke-linecap="round" stroke-linejoin="round" fill="none" stroke="#000000" d="M 269.58 73.44 L 269.58 77.99 "/>
<path transform="matrix(1,0,0,-1,0,360)" stroke-width=".38" stroke-linecap="round" stroke-linejoin="round" fill="none" stroke="#000000" d="M 269.58 73.44 L 269.58 77.99 "/>
<path transform="matrix(1,0,0,-1,0,360)" stroke-width=".38" stroke-linecap="round" stroke-linejoin="round" fill="none" stroke="#000000" d="M 269.58 73.44 L 269.58 77.99 "/>
<path transform="matrix(1,0,0,-1,0,360)" stroke-width=".38" stroke-linecap="round" stroke-linejoin="round" fill="none" stroke="#000000" d="M 270.67 73.44 L 270.67 77.99 "/>
<path transform="matrix(1,0,0,-1,0,360)" stroke-width=".38" stroke-linecap="round" stroke-linejoin="round" fill="none" stroke="#000000" d="M 272.03 73.44 L 272.03 77.99 "/>
<path transform="matrix(1,0,0,-1,0,360)" stroke-width=".38" stroke-linecap="round" stroke-linejoin="round" fill="none" stroke="#000000" d="M 273.16 73.44 L 273.16 77.99 "/>
<path transform="matrix(1,0,0,-1,0,360)" stroke-width=".38" stroke-linecap="round" stroke-linejoin="round" fill="none" stroke="#000000" d="M 274.44 73.44 L 274.44 77.99 "/>
<path transform="matrix(1,0,0,-1,0,360)" stroke-width=".38" stroke-linecap="round" stroke-linejoin="round" fill="none" stroke="#000000" d="M 275.99 73.44 L 275.99 77.99 "/>
<path transform="matrix(1,0,0,-1,0,360)" stroke-width=".38" stroke-linecap="round" stroke-linejoin="round" fill="none" stroke="#000000" d="M 288.23 73.44 L 288.23 77.99 "/>
<path transform="matrix(1,0,0,-1,0,360)" stroke-width=".38" stroke-linecap="round" stroke-linejoin="round" fill="none" stroke="#000000" d="M 289.37 73.44 L 289.37 77.99 "/>
<path transform="matrix(1,0,0,-1,0,360)" stroke-width=".38" stroke-linecap="round" stroke-linejoin="round" fill="none" stroke="#000000" d="M 290.47 73.44 L 290.47 77.99 "/>
<path transform="matrix(1,0,0,-1,0,360)" stroke-width=".38" stroke-linecap="round" stroke-linejoin="round" fill="none" stroke="#000000" d="M 291.63 73.44 L 291.63 77.99 "/>
<path transform="matrix(1,0,0,-1,0,360)" stroke-width=".38" stroke-linecap="round" stroke-linejoin="round" fill="none" stroke="#000000" d="M 292.88 73.44 L 292.88 77.99 "/>
<path transform="matrix(1,0,0,-1,0,360)" stroke-width=".38" stroke-linecap="round" stroke-linejoin="round" fill="none" stroke="#000000" d="M 294.56 73.44 L 294.56 77.99 "/>
<path transform="matrix(1,0,0,-1,0,360)" stroke-width=".38" stroke-linecap="round" stroke-linejoin="round" fill="none" stroke="#000000" d="M 296.51 73.44 L 296.51 77.99 "/>
<path transform="matrix(1,0,0,-1,0,360)" stroke-width=".38" stroke-linecap="round" stroke-linejoin="round" fill="none" stroke="#000000" d="M 296.51 73.44 L 296.51 77.99 "/>
<path transform="matrix(1,0,0,-1,0,360)" stroke-width=".38" stroke-linecap="round" stroke-linejoin="round" fill="none" stroke="#000000" d="M 296.51 73.44 L 296.51 77.99 "/>
<path transform="matrix(1,0,0,-1,0,360)" stroke-width=".38" stroke-linecap="round" stroke-linejoin="round" fill="none" stroke="#000000" d="M 297.63 73.44 L 297.63 77.99 "/>
<path transform="matrix(1,0,0,-1,0,360)" stroke-width=".38" stroke-linecap="round" stroke-linejoin="round" fill="none" stroke="#000000" d="M 305.25 73.44 L 305.25 77.99 "/>
<path transform="matrix(1,0,0,-1,0,360)" stroke-width=".38" stroke-linecap="round" stroke-linejoin="round" fill="none" stroke="#000000" d="M 305.25 73.44 L 305.25 77.99 "/>
<path transform="matrix(1,0,0,-1,0,360)" stroke-width=".38" stroke-linecap="round" stroke-linejoin="round" fill="none" stroke="#000000" d="M 306.15 73.44 L 306.15 77.99 "/>
<path transform="matrix(1,0,0,-1,0,360)" stroke-width=".38" stroke-linecap="round" stroke-linejoin="round" fill="none" stroke="#000000" d="M 306.96 73.44 L 306.96 77.99 "/>
<clipPath id="cp5">
<path transform="matrix(1,0,0,-1,0,360)" d="M 59.04 73.44 L 437.76 73.44 L 437.76 300.96003 L 59.04 300.96003 Z "/>
</clipPath>
<g clip-path="url(#cp5)">
<path transform="matrix(1,0,0,-1,0,360)" stroke-width="1.5" stroke-linecap="round" stroke-linejoin="round" fill="none" stroke="#000000" d="M 315.28 102.18 L 316.51 102.81 L 316.94 103.03 L 317.72 102.37 L 318.61 101.63 L 318.89 101.62 L 320.27 101.54 L 321.93 99.92 L 323.6 96.18 L 324.19 91.17 L 325.26 82.21 L 325.31 82.21 L 326.93 82.15 L 328.59 82.07 L 330.25 81.99 L 331.92 81.92 L 333.58 81.87 L 335.25 81.89 L 336.91 81.99 L 338.57 82.13 L 340.24 82.27 L 341.9 82.39 L 343.57 82.48 L 345.23 82.55 L 346.9 82.61 L 348.56 82.64 L 349.94 82.57 L 350.22 82.55 L 350.76 82.34 L 351.62 82 "/>
</g>
<path transform="matrix(1,0,0,-1,0,360)" stroke-width=".38" stroke-linecap="round" stroke-linejoin="round" fill="none" stroke="#000000" d="M 315.28 73.44 L 315.28 77.99 "/>
<path transform="matrix(1,0,0,-1,0,360)" stroke-width=".38" stroke-linecap="round" stroke-linejoin="round" fill="none" stroke="#000000" d="M 316.51 73.44 L 316.51 77.99 "/>
<path transform="matrix(1,0,0,-1,0,360)" stroke-width=".38" stroke-linecap="round" stroke-linejoin="round" fill="none" stroke="#000000" d="M 317.72 73.44 L 317.72 77.99 "/>
<path transform="matrix(1,0,0,-1,0,360)" stroke-width=".38" stroke-linecap="round" stroke-linejoin="round" fill="none" stroke="#000000" d="M 318.89 73.44 L 318.89 77.99 "/>
<path transform="matrix(1,0,0,-1,0,360)" stroke-width=".38" stroke-linecap="round" stroke-linejoin="round" fill="none" stroke="#000000" d="M 324.19 73.44 L 324.19 77.99 "/>
<path transform="matrix(1,0,0,-1,0,360)" stroke-width=".38" stroke-linecap="round" stroke-linejoin="round" fill="none" stroke="#000000" d="M 325.31 73.44 L 325.31 77.99 "/>
<path transform="matrix(1,0,0,-1,0,360)" stroke-width=".38" stroke-linecap="round" stroke-linejoin="round" fill="none" stroke="#000000" d="M 349.94 73.44 L 349.94 77.99 "/>
<path transform="matrix(1,0,0,-1,0,360)" stroke-width=".38" stroke-linecap="round" stroke-linejoin="round" fill="none" stroke="#000000" d="M 350.76 73.44 L 350.76 77.99 "/>
<path transform="matrix(1,0,0,-1,0,360)" stroke-width=".38" stroke-linecap="round" stroke-linejoin="round" fill="none" stroke="#000000" d="M 351.62 73.44 L 351.62 77.99 "/>
<clipPath id="cp6">
<path transform="matrix(1,0,0,-1,0,360)" d="M 59.04 73.44 L 437.76 73.44 L 437.76 300.96003 L 59.04 300.96003 Z "/>
</clipPath>
<g clip-path="url(#cp6)">
<path transform="matrix(1,0,0,-1,0,360)" stroke-width="1.5" stroke-linecap="round" stroke-linejoin="round" fill="none" stroke="#000000" d="M 359.94 84.34 L 361.6 82.74 L 363.06 82.01 L 363.27 81.91 L 364.93 82.17 L 365.17 82.12 L 366.17 81.94 L 366.6 81.87 L 367.62 82.06 L 368.26 82.18 L 368.64 82.17 L 369.92 82.14 L 371.59 82.04 L 372.95 81.93 L 373.25 81.91 L 373.97 81.92 L 374.92 81.95 L 376.58 82.28 L 377.71 82.51 L 378.24 82.61 L 378.89 82.85 L 379.91 83.21 L 379.94 83.2 L 381.02 82.85 L 381.57 82.67 L 383.24 82.1 L 383.9 82.04 L 384.9 81.95 L 385.9 82.06 L 386.56 82.14 L 388.23 89.57 L 389.69 91.11 L 389.89 91.33 L 391.56 93.29 L 391.84 93.12 L 392.93 92.45 L 393.22 92.27 L 394.09 92.6 L 394.88 92.9 L 396.09 93.09 L 396.55 93.16 L 398.21 90.65 L 398.38 90.68 L 399.88 90.94 L 400.24 90.53 L 401.35 89.28 L 401.54 89.07 L 402.52 89.14 L 403.2 89.19 L 403.74 87.01 "/>
</g>
<path transform="matrix(1,0,0,-1,0,360)" stroke-width=".38" stroke-linecap="round" stroke-linejoin="round" fill="none" stroke="#000000" d="M 359.94 73.44 L 359.94 77.99 "/>
<path transform="matrix(1,0,0,-1,0,360)" stroke-width=".38" stroke-linecap="round" stroke-linejoin="round" fill="none" stroke="#000000" d="M 363.06 73.44 L 363.06 77.99 "/>
<path transform="matrix(1,0,0,-1,0,360)" stroke-width=".38" stroke-linecap="round" stroke-linejoin="round" fill="none" stroke="#000000" d="M 365.17 73.44 L 365.17 77.99 "/>
<path transform="matrix(1,0,0,-1,0,360)" stroke-width=".38" stroke-linecap="round" stroke-linejoin="round" fill="none" stroke="#000000" d="M 366.17 73.44 L 366.17 77.99 "/>
<path transform="matrix(1,0,0,-1,0,360)" stroke-width=".38" stroke-linecap="round" stroke-linejoin="round" fill="none" stroke="#000000" d="M 367.62 73.44 L 367.62 77.99 "/>
<path transform="matrix(1,0,0,-1,0,360)" stroke-width=".38" stroke-linecap="round" stroke-linejoin="round" fill="none" stroke="#000000" d="M 368.64 73.44 L 368.64 77.99 "/>
<path transform="matrix(1,0,0,-1,0,360)" stroke-width=".38" stroke-linecap="round" stroke-linejoin="round" fill="none" stroke="#000000" d="M 372.95 73.44 L 372.95 77.99 "/>
<path transform="matrix(1,0,0,-1,0,360)" stroke-width=".38" stroke-linecap="round" stroke-linejoin="round" fill="none" stroke="#000000" d="M 373.97 73.44 L 373.97 77.99 "/>
<path transform="matrix(1,0,0,-1,0,360)" stroke-width=".38" stroke-linecap="round" stroke-linejoin="round" fill="none" stroke="#000000" d="M 377.71 73.44 L 377.71 77.99 "/>
<path transform="matrix(1,0,0,-1,0,360)" stroke-width=".38" stroke-linecap="round" stroke-linejoin="round" fill="none" stroke="#000000" d="M 378.89 73.44 L 378.89 77.99 "/>
<path transform="matrix(1,0,0,-1,0,360)" stroke-width=".38" stroke-linecap="round" stroke-linejoin="round" fill="none" stroke="#000000" d="M 379.94 73.44 L 379.94 77.99 "/>
<path transform="matrix(1,0,0,-1,0,360)" stroke-width=".38" stroke-linecap="round" stroke-linejoin="round" fill="none" stroke="#000000" d="M 381.02 73.44 L 381.02 77.99 "/>
<path transform="matrix(1,0,0,-1,0,360)" stroke-width=".38" stroke-linecap="round" stroke-linejoin="round" fill="none" stroke="#000000" d="M 383.9 73.44 L 383.9 77.99 "/>
<path transform="matrix(1,0,0,-1,0,360)" stroke-width=".38" stroke-linecap="round" stroke-linejoin="round" fill="none" stroke="#000000" d="M 384.9 73.44 L 384.9 77.99 "/>
<path transform="matrix(1,0,0,-1,0,360)" stroke-width=".38" stroke-linecap="round" stroke-linejoin="round" fill="none" stroke="#000000" d="M 384.9 73.44 L 384.9 77.99 "/>
<path transform="matrix(1,0,0,-1,0,360)" stroke-width=".38" stroke-linecap="round" stroke-linejoin="round" fill="none" stroke="#000000" d="M 385.9 73.44 L 385.9 77.99 "/>
<path transform="matrix(1,0,0,-1,0,360)" stroke-width=".38" stroke-linecap="round" stroke-linejoin="round" fill="none" stroke="#000000" d="M 389.69 73.44 L 389.69 77.99 "/>
<path transform="matrix(1,0,0,-1,0,360)" stroke-width=".38" stroke-linecap="round" stroke-linejoin="round" fill="none" stroke="#000000" d="M 391.84 73.44 L 391.84 77.99 "/>
<path transform="matrix(1,0,0,-1,0,360)" stroke-width=".38" stroke-linecap="round" stroke-linejoin="round" fill="none" stroke="#000000" d="M 392.93 73.44 L 392.93 77.99 "/>
<path transform="matrix(1,0,0,-1,0,360)" stroke-width=".38" stroke-linecap="round" stroke-linejoin="round" fill="none" stroke="#000000" d="M 394.09 73.44 L 394.09 77.99 "/>
<path transform="matrix(1,0,0,-1,0,360)" stroke-width=".38" stroke-linecap="round" stroke-linejoin="round" fill="none" stroke="#000000" d="M 396.09 73.44 L 396.09 77.99 "/>
<path transform="matrix(1,0,0,-1,0,360)" stroke-width=".38" stroke-linecap="round" stroke-linejoin="round" fill="none" stroke="#000000" d="M 398.38 73.44 L 398.38 77.99 "/>
<path transform="matrix(1,0,0,-1,0,360)" stroke-width=".38" stroke-linecap="round" stroke-linejoin="round" fill="none" stroke="#000000" d="M 400.24 73.44 L 400.24 77.99 "/>
<path transform="matrix(1,0,0,-1,0,360)" stroke-width=".38" stroke-linecap="round" stroke-linejoin="round" fill="none" stroke="#000000" d="M 401.35 73.44 L 401.35 77.99 "/>
<path transform="matrix(1,0,0,-1,0,360)" stroke-width=".38" stroke-linecap="round" stroke-linejoin="round" fill="none" stroke="#000000" d="M 402.52 73.44 L 402.52 77.99 "/>
<path transform="matrix(1,0,0,-1,0,360)" stroke-width=".38" stroke-linecap="round" stroke-linejoin="round" fill="none" stroke="#000000" d="M 403.74 73.44 L 403.74 77.99 "/>
<clipPath id="cp7">
<path transform="matrix(1,0,0,-1,0,360)" d="M 59.04 73.44 L 437.76 73.44 L 437.76 300.96003 L 59.04 300.96003 Z "/>
</clipPath>
<g clip-path="url(#cp7)">
<path transform="matrix(1,0,0,-1,0,360)" stroke-width="1.5" stroke-linecap="round" stroke-linejoin="round" fill="none" stroke="#000000" d="M 412.06 82.15 L 412.84 82.24 L 413.72 82.35 L 413.74 82.35 L 414.64 82.39 L 415.39 82.42 L 415.62 82.55 L 416.65 83.14 L 417.05 83.36 L 418.71 155.07 L 420.38 160.64 L 420.44 160.75 L 421.48 162.69 L 422.04 163.73 L 423.3 162.97 L 423.71 162.73 L 424.35 164.26 L 425.37 166.67 L 425.92 165.58 L 427.04 163.38 L 427.4 162.56 L 428.51 160.06 L 428.7 159.63 L 429.85 159.87 L 430.36 159.98 L 431.2 155.6 L 432.03 151.27 L 432.37 148.52 L 433.6 138.79 "/>
</g>
<path transform="matrix(1,0,0,-1,0,360)" stroke-width=".38" stroke-linecap="round" stroke-linejoin="round" fill="none" stroke="#000000" d="M 412.06 73.44 L 412.06 77.99 "/>
<path transform="matrix(1,0,0,-1,0,360)" stroke-width=".38" stroke-linecap="round" stroke-linejoin="round" fill="none" stroke="#000000" d="M 412.84 73.44 L 412.84 77.99 "/>
<path transform="matrix(1,0,0,-1,0,360)" stroke-width=".38" stroke-linecap="round" stroke-linejoin="round" fill="none" stroke="#000000" d="M 413.74 73.44 L 413.74 77.99 "/>
<path transform="matrix(1,0,0,-1,0,360)" stroke-width=".38" stroke-linecap="round" stroke-linejoin="round" fill="none" stroke="#000000" d="M 413.74 73.44 L 413.74 77.99 "/>
<path transform="matrix(1,0,0,-1,0,360)" stroke-width=".38" stroke-linecap="round" stroke-linejoin="round" fill="none" stroke="#000000" d="M 414.64 73.44 L 414.64 77.99 "/>
<path transform="matrix(1,0,0,-1,0,360)" stroke-width=".38" stroke-linecap="round" stroke-linejoin="round" fill="none" stroke="#000000" d="M 415.62 73.44 L 415.62 77.99 "/>
<path transform="matrix(1,0,0,-1,0,360)" stroke-width=".38" stroke-linecap="round" stroke-linejoin="round" fill="none" stroke="#000000" d="M 416.65 73.44 L 416.65 77.99 "/>
<path transform="matrix(1,0,0,-1,0,360)" stroke-width=".38" stroke-linecap="round" stroke-linejoin="round" fill="none" stroke="#000000" d="M 420.44 73.44 L 420.44 77.99 "/>
<path transform="matrix(1,0,0,-1,0,360)" stroke-width=".38" stroke-linecap="round" stroke-linejoin="round" fill="none" stroke="#000000" d="M 420.44 73.44 L 420.44 77.99 "/>
<path transform="matrix(1,0,0,-1,0,360)" stroke-width=".38" stroke-linecap="round" stroke-linejoin="round" fill="none" stroke="#000000" d="M 421.48 73.44 L 421.48 77.99 "/>
<path transform="matrix(1,0,0,-1,0,360)" stroke-width=".38" stroke-linecap="round" stroke-linejoin="round" fill="none" stroke="#000000" d="M 423.3 73.44 L 423.3 77.99 "/>
<path transform="matrix(1,0,0,-1,0,360)" stroke-width=".38" stroke-linecap="round" stroke-linejoin="round" fill="none" stroke="#000000" d="M 424.35 73.44 L 424.35 77.99 "/>
<path transform="matrix(1,0,0,-1,0,360)" stroke-width=".38" stroke-linecap="round" stroke-linejoin="round" fill="none" stroke="#000000" d="M 425.92 73.44 L 425.92 77.99 "/>
<path transform="matrix(1,0,0,-1,0,360)" stroke-width=".38" stroke-linecap="round" stroke-linejoin="round" fill="none" stroke="#000000" d="M 427.4 73.44 L 427.4 77.99 "/>
<path transform="matrix(1,0,0,-1,0,360)" stroke-width=".38" stroke-linecap="round" stroke-linejoin="round" fill="none" stroke="#000000" d="M 428.51 73.44 L 428.51 77.99 "/>
<path transform="matrix(1,0,0,-1,0,360)" stroke-width=".38" stroke-linecap="round" stroke-linejoin="round" fill="none" stroke="#000000" d="M 429.85 73.44 L 429.85 77.99 "/>
<path transform="matrix(1,0,0,-1,0,360)" stroke-width=".38" stroke-linecap="round" stroke-linejoin="round" fill="none" stroke="#000000" d="M 431.2 73.44 L 431.2 77.99 "/>
<path transform="matrix(1,0,0,-1,0,360)" stroke-width=".38" stroke-linecap="round" stroke-linejoin="round" fill="none" stroke="#000000" d="M 431.2 73.44 L 431.2 77.99 "/>
<path transform="matrix(1,0,0,-1,0,360)" stroke-width=".38" stroke-linecap="round" stroke-linejoin="round" fill="none" stroke="#000000" d="M 432.37 73.44 L 432.37 77.99 "/>
<path transform="matrix(1,0,0,-1,0,360)" stroke-width=".38" stroke-linecap="round" stroke-linejoin="round" fill="none" stroke="#000000" d="M 433.6 73.44 L 433.6 77.99 "/>
<path transform="matrix(1,0,0,-1,0,360)" stroke-width=".75" stroke-linecap="round" stroke-linejoin="round" fill="none" stroke="#000000" d="M 93.23 73.44 L 93.23 73.44 "/>
<path transform="matrix(1,0,0,-1,0,360)" stroke-width=".75" stroke-linecap="round" stroke-linejoin="round" fill="none" stroke="#000000" d="M 93.23 73.44 L 93.23 66.24 "/>
<text xml:space="preserve" transform="matrix(1 0 -0 1 0 360)" font-size="12" font-family="LMRoman10"><tspan y="-47.52" x="90.23">2</tspan></text>
<path transform="matrix(1,0,0,-1,0,360)" stroke-width=".75" stroke-linecap="round" stroke-linejoin="round" fill="none" stroke="#000000" d="M 157.98 73.44 L 157.98 73.44 "/>
<path transform="matrix(1,0,0,-1,0,360)" stroke-width=".75" stroke-linecap="round" stroke-linejoin="round" fill="none" stroke="#000000" d="M 157.98 73.44 L 157.98 66.24 "/>
<text xml:space="preserve" transform="matrix(1 0 -0 1 0 360)" font-size="12" font-family="LMRoman10"><tspan y="-47.52" x="154.98">4</tspan></text>
<path transform="matrix(1,0,0,-1,0,360)" stroke-width=".75" stroke-linecap="round" stroke-linejoin="round" fill="none" stroke="#000000" d="M 199.13 73.44 L 199.13 73.44 "/>
<path transform="matrix(1,0,0,-1,0,360)" stroke-width=".75" stroke-linecap="round" stroke-linejoin="round" fill="none" stroke="#000000" d="M 199.13 73.44 L 199.13 66.24 "/>
<text xml:space="preserve" transform="matrix(1 0 -0 1 0 360)" font-size="12" font-family="LMRoman10"><tspan y="-47.52" x="196.13">8</tspan></text>
<path transform="matrix(1,0,0,-1,0,360)" stroke-width=".75" stroke-linecap="round" stroke-linejoin="round" fill="none" stroke="#000000" d="M 233.19 73.44 L 233.19 73.44 "/>
<path transform="matrix(1,0,0,-1,0,360)" stroke-width=".75" stroke-linecap="round" stroke-linejoin="round" fill="none" stroke="#000000" d="M 233.19 73.44 L 233.19 66.24 "/>
<text xml:space="preserve" transform="matrix(1 0 -0 1 0 360)" font-size="12" font-family="LMRoman10"><tspan y="-47.52" x="227.19 233.19">14</tspan></text>
<path transform="matrix(1,0,0,-1,0,360)" stroke-width=".75" stroke-linecap="round" stroke-linejoin="round" fill="none" stroke="#000000" d="M 283.89 73.44 L 283.89 73.44 "/>
<path transform="matrix(1,0,0,-1,0,360)" stroke-width=".75" stroke-linecap="round" stroke-linejoin="round" fill="none" stroke="#000000" d="M 283.89 73.44 L 283.89 66.24 "/>
<text xml:space="preserve" transform="matrix(1 0 -0 1 0 360)" font-size="12" font-family="LMRoman10"><tspan y="-47.52" x="277.89 283.89">15</tspan></text>
<path transform="matrix(1,0,0,-1,0,360)" stroke-width=".75" stroke-linecap="round" stroke-linejoin="round" fill="none" stroke="#000000" d="M 333.45 73.44 L 333.45 73.44 "/>
<path transform="matrix(1,0,0,-1,0,360)" stroke-width=".75" stroke-linecap="round" stroke-linejoin="round" fill="none" stroke="#000000" d="M 333.45 73.44 L 333.45 66.24 "/>
<text xml:space="preserve" transform="matrix(1 0 -0 1 0 360)" font-size="12" font-family="LMRoman10"><tspan y="-47.52" x="327.45 333.45">17</tspan></text>
<path transform="matrix(1,0,0,-1,0,360)" stroke-width=".75" stroke-linecap="round" stroke-linejoin="round" fill="none" stroke="#000000" d="M 381.84 73.44 L 381.84 73.44 "/>
<path transform="matrix(1,0,0,-1,0,360)" stroke-width=".75" stroke-linecap="round" stroke-linejoin="round" fill="none" stroke="#000000" d="M 381.84 73.44 L 381.84 66.24 "/>
<text xml:space="preserve" transform="matrix(1 0 -0 1 0 360)" font-size="12" font-family="LMRoman10"><tspan y="-47.52" x="375.84 381.84">18</tspan></text>
<path transform="matrix(1,0,0,-1,0,360)" stroke-width=".75" stroke-linecap="round" stroke-linejoin="round" fill="none" stroke="#000000" d="M 422.83 73.44 L 422.83 73.44 "/>
<path transform="matrix(1,0,0,-1,0,360)" stroke-width=".75" stroke-linecap="round" stroke-linejoin="round" fill="none" stroke="#000000" d="M 422.83 73.44 L 422.83 66.24 "/>
<text xml:space="preserve" transform="matrix(1 0 -0 1 0 360)" font-size="12" font-family="LMRoman10"><tspan y="-47.52" x="416.83 422.83">20</tspan></text>
<clipPath id="cp8">
<path transform="matrix(1,0,0,-1,0,360)" d="M 59.04 73.44 L 437.76 73.44 L 437.76 300.96003 L 59.04 300.96003 Z "/>
</clipPath>
<g clip-path="url(#cp8)">
<path transform="matrix(1,0,0,-1,0,360)" stroke-width=".75" stroke-linecap="round" stroke-linejoin="round" fill="none" stroke="#000000" d="M 59.04 300.96 L 160.98001 300.96 L 160.98001 228.95999 L 59.04 228.95999 Z "/>
<path transform="matrix(1,0,0,-1,0,360)" stroke-width=".75" stroke-linecap="round" stroke-linejoin="round" fill="none" stroke="#000000" d="M 69.84 286.56 L 91.44 286.56 "/>
<path transform="matrix(1,0,0,-1,0,360)" stroke-width=".75" stroke-linecap="round" stroke-dasharray="2.25,3.75" stroke-linejoin="round" fill="none" stroke="#000000" d="M 69.84 272.16 L 91.44 272.16 "/>
<path transform="matrix(1,0,0,-1,0,360)" stroke-width=".75" stroke-linecap="round" stroke-dasharray="0,3" stroke-linejoin="round" fill="none" stroke="#000000" d="M 69.84 257.76 L 91.44 257.76 "/>
<path transform="matrix(1,0,0,-1,0,360)" stroke-width=".75" stroke-linecap="round" stroke-dasharray="0,3,2.25,3" stroke-linejoin="round" fill="none" stroke="#000000" d="M 69.84 243.36 L 91.44 243.36 "/>
<text xml:space="preserve" transform="matrix(1 0 -0 1 0 360)" font-size="12" font-family="LMRoman10"><tspan y="-282.46" x="102.24 110.904 116.904 121.631999 130.29599 135.624 138.95999">Caswell</tspan></text>
<text xml:space="preserve" transform="matrix(1 0 -0 1 0 360)" font-size="12" font-family="LMRoman10"><tspan y="-268.06" x="102.24 110.904 114.24 120.24 126.576 131.244 137.244">Clayton</tspan></text>
<text xml:space="preserve" transform="matrix(1 0 -0 1 0 360)" font-size="12" font-family="LMRoman10"><tspan y="-253.66" x="102.24 110.904 116.904 126.9 133.572 136.908 143.58 148.908">Combined</tspan></text>
<text xml:space="preserve" transform="matrix(1 0 -0 1 0 360)" font-size="12" font-family="LMRoman10"><tspan y="-239.26" x="102.24 110.412 113.748 120.084 130.08 136.08 142.752 147.42">Plymouth</tspan></text>
<path transform="matrix(1,0,0,-1,0,360)" stroke-width="1.5" stroke-linecap="round" stroke-dasharray="4.5,7.5" stroke-linejoin="round" fill="none" stroke="#000000" d="M 63.2 82.11 L 63.74 82.03 L 64.86 81.87 L 65.85 82.68 L 66.3 83.05 L 66.53 83.24 L 66.71 83.25 L 67.33 83.27 L 67.88 83.3 L 68.19 83.31 L 68.41 83.28 L 68.83 83.23 L 69.86 83.09 L 71.52 83.02 L 73.18 82.87 L 74.85 82.67 L 76.51 82.42 L 78.18 82.19 L 79.84 82.03 L 81.5 81.93 L 82.15 81.95 L 83.17 81.98 L 83.21 81.99 L 84.09 82.22 L 84.83 82.41 L 85.48 82.28 L 86.5 82.09 L 86.82 82.06 L 88.16 81.92 L 88.27 81.93 L 89.82 82.09 L 90.22 82.08 L 91.29 82.06 L 91.49 82.05 L 93.15 82.26 L 94.82 82.48 L 96.48 82.59 L 96.53 82.59 L 97.2 82.51 L 98.15 82.41 L 98.17 82.41 L 99.33 82.57 L 99.81 82.64 L 101.47 82.47 L 103.14 82.27 L 104.8 82.07 L 106.47 81.92 L 108.13 81.87 L 109.79 81.95 L 111.46 82.12 L 113.12 82.32 L 114.79 82.52 L 116.45 82.68 L 116.51 82.69 L 117.48 82.79 L 118.11 82.85 L 118.46 82.73 L 119.78 82.27 L 120.76 82.19 L 121.44 82.13 L 122.17 82.14 L 123.11 82.15 L 123.26 82.15 "/>
<path transform="matrix(1,0,0,-1,0,360)" stroke-width="1.5" stroke-linecap="round" stroke-dasharray="4.5,7.5" stroke-linejoin="round" fill="none" stroke="#000000" d="M 131.58 81.97 L 132.75 82.11 L 133.24 82.17 L 134.9 82.14 L 136.57 82.09 L 138.23 82.02 L 139.9 81.96 L 140.31 81.94 L 141.46 81.87 L 141.56 81.87 L 143.22 82.05 L 143.45 82.14 L 144.89 82.69 L 146.55 83.84 L 148.22 84.91 L 149.28 84.97 L 149.88 85.01 L 150.19 85.04 L 151.21 85.14 L 151.54 85.17 L 152.17 84.63 L 153.21 83.74 L 153.24 83.73 L 154.83 83.4 L 154.87 83.39 L 155.84 83.49 L 156.54 83.57 L 157.08 83.96 L 158.2 84.77 L 158.53 84.52 L 159.6 83.7 L 159.86 83.5 L 160.69 83.46 L 161.53 83.42 L 161.63 83.43 L 162.63 83.51 L 163.19 83.55 L 164.52 83.12 L 164.86 83.01 L 165.63 82.69 L 166.52 82.32 L 166.89 82.41 L 168.18 82.72 L 169.85 83.71 L 171.27 84.21 L 171.51 84.29 L 173.18 83.91 L 174.84 84.12 L 175.05 84.19 L 176.02 84.51 L 176.51 84.67 L 176.86 84.92 L 178.17 85.88 L 178.25 85.94 L 179.24 86.73 L 179.83 87.2 L 180.89 89.76 L 181.5 91.24 L 182.56 91.71 L 183.16 91.99 L 183.46 92.33 L 184.38 93.38 "/>
<path transform="matrix(1,0,0,-1,0,360)" stroke-width="1.5" stroke-linecap="round" stroke-dasharray="4.5,7.5" stroke-linejoin="round" fill="none" stroke="#000000" d="M 192.7 84.79 L 192.7 84.79 L 193.71 84.31 L 194.37 83.99 L 194.57 84.01 L 196.03 84.16 L 196.98 84.67 L 197.7 85.05 L 198.72 87.47 L 199.36 88.97 L 199.39 88.96 L 200.35 88.86 L 201.03 88.79 L 201.69 88.71 L 202.69 88.6 L 203.35 88.65 L 204.11 88.71 L 204.35 88.73 L 204.83 88.81 L 205.56 88.93 "/>
<path transform="matrix(1,0,0,-1,0,360)" stroke-width="1.5" stroke-linecap="round" stroke-dasharray="4.5,7.5" stroke-linejoin="round" fill="none" stroke="#000000" d="M 213.88 82.59 L 213.88 82.59 L 215 83.18 L 215.55 83.47 L 216.98 84.11 L 217.21 84.21 L 217.84 84.22 L 218.6 84.23 L 218.87 84.24 L 219.52 85.13 L 220.54 86.54 L 221 86.36 L 221.91 86.01 L 222.2 85.9 L 222.84 85.44 L 223.87 84.71 L 225.1 84.74 L 225.53 84.75 L 226.24 85.11 L 227.19 85.58 L 227.26 85.6 L 228 85.76 L 228.86 85.95 L 229.69 86.64 L 230.52 87.34 L 230.88 87.41 L 231.59 87.56 L 232.19 87.68 L 233.85 87.33 L 234.02 87.37 L 234.63 87.54 L 235.28 87.72 L 235.51 87.78 L 235.91 87.2 L 236.98 85.61 L 237.18 85.32 L 238.84 83.96 L 239.67 83.42 L 240.49 82.89 L 240.51 82.87 L 241.2 82.53 L 242.17 82.06 L 242.79 82 L 243.68 81.92 L 243.83 81.91 L 244.69 81.93 L 245.5 81.95 L 245.71 81.99 L 246.65 82.18 L 247.16 82.29 L 247.96 82.17 L 248.83 82.04 L 248.85 82.04 L 250.49 81.92 L 251.77 81.88 L 252.15 81.87 L 252.5 81.88 "/>
<path transform="matrix(1,0,0,-1,0,360)" stroke-width="1.5" stroke-linecap="round" stroke-dasharray="4.5,7.5" stroke-linejoin="round" fill="none" stroke="#000000" d="M 260.82 91.07 L 262.49 88.85 L 263.14 92.28 L 264.15 97.62 L 264.51 97.62 L 265.52 97.63 L 265.82 97.63 L 266.55 96.69 L 267.48 95.49 L 269.14 86.48 L 269.58 86.26 L 270.67 85.72 L 270.81 85.65 L 272.03 85.43 L 272.47 85.35 L 273.16 84.8 L 274.14 84.02 L 274.44 84.06 L 275.8 84.24 L 275.99 84.21 L 277.47 84 L 279.13 83.55 L 280.79 82.93 L 282.46 82.31 L 284.12 81.94 L 285.79 81.87 L 287.45 81.99 L 288.23 82.17 L 289.11 82.37 L 289.37 82.5 L 290.47 83.05 L 290.78 83.2 L 291.63 83.09 L 292.44 82.98 L 292.88 82.99 L 294.11 83 L 294.56 83.31 L 295.77 84.13 L 296.51 84.29 L 297.43 84.48 L 297.63 84.51 L 299.1 84.67 L 300.76 84.8 L 302.43 84.69 L 304.09 84.38 L 305.25 84.34 L 305.75 84.32 L 306.15 84.27 L 306.96 84.15 "/>
<path transform="matrix(1,0,0,-1,0,360)" stroke-width="1.5" stroke-linecap="round" stroke-dasharray="4.5,7.5" stroke-linejoin="round" fill="none" stroke="#000000" d="M 315.28 97.2 L 316.51 95.86 L 316.94 95.39 L 317.72 94.9 L 318.61 94.34 L 318.89 94.32 L 320.27 94.21 L 321.93 92.44 L 323.6 89.48 L 324.19 86.77 L 325.26 81.92 L 325.31 81.92 L 326.93 81.96 L 328.59 82.02 L 330.25 82.11 L 331.92 82.24 L 333.58 82.4 L 335.25 82.57 L 336.91 82.71 L 338.57 82.81 L 340.24 82.86 L 341.9 82.88 L 343.57 82.86 L 345.23 82.83 L 346.9 82.8 L 348.56 82.77 L 349.94 82.42 L 350.22 82.34 L 350.76 82.2 L 351.62 81.96 "/>
<path transform="matrix(1,0,0,-1,0,360)" stroke-width="1.5" stroke-linecap="round" stroke-dasharray="4.5,7.5" stroke-linejoin="round" fill="none" stroke="#000000" d="M 359.94 81.9 L 361.6 82.25 L 363.06 82.62 L 363.27 82.67 L 364.93 82.81 L 365.17 82.71 L 366.17 82.26 L 366.6 82.07 L 367.62 81.95 L 368.26 81.87 L 368.64 81.87 L 369.92 81.87 L 371.59 81.88 L 372.95 81.87 L 373.25 81.87 L 373.97 81.91 L 374.92 81.96 L 376.58 82.14 L 377.71 82.39 L 378.24 82.5 L 378.89 82.69 L 379.91 82.99 L 379.94 82.99 L 381.02 83.11 L 381.57 83.17 L 383.24 82.44 L 383.9 82.38 L 384.9 82.29 L 385.9 82.62 L 386.56 82.85 L 388.23 83.26 L 389.69 83.62 L 389.89 83.67 L 391.56 84.87 L 391.84 84.84 L 392.93 84.72 L 393.22 84.69 L 394.09 84.45 L 394.88 84.23 L 396.09 84.55 L 396.55 84.68 L 398.21 86.97 L 398.38 86.94 L 399.88 86.69 L 400.24 86.69 L 401.35 86.71 L 401.54 86.72 L 402.52 86.66 L 403.2 86.62 L 403.74 86.71 "/>
<path transform="matrix(1,0,0,-1,0,360)" stroke-width="1.5" stroke-linecap="round" stroke-dasharray="4.5,7.5" stroke-linejoin="round" fill="none" stroke="#000000" d="M 412.06 82.03 L 412.84 82.21 L 413.72 82.42 L 413.74 82.42 L 414.64 82.34 L 415.39 82.27 L 415.62 91.66 L 416.65 133.52 L 417.05 150.01 L 418.71 162.92 L 420.38 167.93 L 420.44 168.19 L 421.48 172.48 L 422.04 174.78 L 423.3 177.55 L 423.71 178.44 L 424.35 177.86 L 425.37 176.95 L 425.92 172.93 L 427.04 164.8 L 427.4 163.19 L 428.51 158.27 L 428.7 157.42 L 429.85 154.42 L 430.36 153.09 L 431.2 151.07 L 432.03 149.08 L 432.37 135.15 L 433.6 85.72 "/>
<path transform="matrix(1,0,0,-1,0,360)" stroke-width=".75" stroke-linecap="round" stroke-linejoin="round" fill="none" stroke="#000000" d="M 59.04 300.96 L 160.98001 300.96 L 160.98001 228.95999 L 59.04 228.95999 Z "/>
<path transform="matrix(1,0,0,-1,0,360)" stroke-width=".75" stroke-linecap="round" stroke-linejoin="round" fill="none" stroke="#000000" d="M 69.84 286.56 L 91.44 286.56 "/>
<path transform="matrix(1,0,0,-1,0,360)" stroke-width=".75" stroke-linecap="round" stroke-dasharray="2.25,3.75" stroke-linejoin="round" fill="none" stroke="#000000" d="M 69.84 272.16 L 91.44 272.16 "/>
<path transform="matrix(1,0,0,-1,0,360)" stroke-width=".75" stroke-linecap="round" stroke-dasharray="0,3" stroke-linejoin="round" fill="none" stroke="#000000" d="M 69.84 257.76 L 91.44 257.76 "/>
<path transform="matrix(1,0,0,-1,0,360)" stroke-width=".75" stroke-linecap="round" stroke-dasharray="0,3,2.25,3" stroke-linejoin="round" fill="none" stroke="#000000" d="M 69.84 243.36 L 91.44 243.36 "/>
<text xml:space="preserve" transform="matrix(1 0 -0 1 0 360)" font-size="12" font-family="LMRoman10"><tspan y="-282.46" x="102.24 110.904 116.904 121.631999 130.29599 135.624 138.95999">Caswell</tspan></text>
<text xml:space="preserve" transform="matrix(1 0 -0 1 0 360)" font-size="12" font-family="LMRoman10"><tspan y="-268.06" x="102.24 110.904 114.24 120.24 126.576 131.244 137.244">Clayton</tspan></text>
<text xml:space="preserve" transform="matrix(1 0 -0 1 0 360)" font-size="12" font-family="LMRoman10"><tspan y="-253.66" x="102.24 110.904 116.904 126.9 133.572 136.908 143.58 148.908">Combined</tspan></text>
<text xml:space="preserve" transform="matrix(1 0 -0 1 0 360)" font-size="12" font-family="LMRoman10"><tspan y="-239.26" x="102.24 110.412 113.748 120.084 130.08 136.08 142.752 147.42">Plymouth</tspan></text>
<path transform="matrix(1,0,0,-1,0,360)" stroke-width="1.5" stroke-linecap="round" stroke-dasharray="0,6" stroke-linejoin="round" fill="none" stroke="#000000" d="M 63.2 82.16 L 63.74 82.19 L 64.86 82.25 L 65.85 83.18 L 66.3 83.61 L 66.53 83.83 L 66.71 83.77 L 67.33 83.58 L 67.88 83.41 L 68.19 83.31 L 68.41 83.31 L 68.83 83.3 L 69.86 83.27 L 71.52 83.49 L 73.18 83.67 L 74.85 83.75 L 76.51 83.72 L 78.18 83.57 L 79.84 83.38 L 81.5 83.17 L 82.15 82.99 L 83.17 82.71 L 83.21 82.7 L 84.09 82.44 L 84.83 82.22 L 85.48 82.21 L 86.5 82.2 L 86.82 82.14 L 88.16 81.87 L 88.27 81.87 L 89.82 81.88 L 90.22 81.93 L 91.29 82.05 L 91.49 82.07 L 93.15 82.17 L 94.82 82.24 L 96.48 82.24 L 96.53 82.24 L 97.2 82.15 L 98.15 82.02 L 98.17 82.02 L 99.33 81.95 L 99.81 81.93 L 101.47 81.88 L 103.14 81.87 L 104.8 81.94 L 106.47 82.09 L 108.13 82.35 L 109.79 82.67 L 111.46 83.01 L 113.12 83.34 L 114.79 83.63 L 116.45 83.88 L 116.51 83.89 L 117.48 84.1 L 118.11 84.23 L 118.46 84.34 L 119.78 84.74 L 120.76 84.55 L 121.44 84.42 L 122.17 84.29 L 123.11 84.13 L 123.26 84.13 "/>
<path transform="matrix(1,0,0,-1,0,360)" stroke-width="1.5" stroke-linecap="round" stroke-dasharray="0,6" stroke-linejoin="round" fill="none" stroke="#000000" d="M 131.58 82.1 L 132.75 82.16 L 133.24 82.18 L 134.9 82.13 L 136.57 82.06 L 138.23 81.98 L 139.9 81.92 L 140.31 82.71 L 141.46 84.93 L 141.56 85.12 L 143.22 84.42 L 143.45 84.72 L 144.89 86.62 L 146.55 89.95 L 148.22 92.2 L 149.28 92.5 L 149.88 92.67 L 150.19 92.43 L 151.21 91.66 L 151.54 91.41 L 152.17 90.23 L 153.21 88.28 L 153.24 88.26 L 154.83 87.36 L 154.87 87.33 L 155.84 87.35 L 156.54 87.36 L 157.08 85.58 L 158.2 81.87 L 158.53 81.87 L 159.6 81.89 L 159.86 81.89 L 160.69 81.93 L 161.53 81.97 L 161.63 81.96 L 162.63 81.9 L 163.19 81.87 L 164.52 81.88 L 164.86 81.88 L 165.63 81.88 L 166.52 81.87 L 166.89 81.87 L 168.18 81.88 L 169.85 81.87 L 171.27 81.87 L 171.51 81.87 L 173.18 81.92 L 174.84 82.07 L 175.05 82.09 L 176.02 82.18 L 176.51 82.23 L 176.86 82.18 L 178.17 82.01 L 178.25 82.01 L 179.24 82.03 L 179.83 82.04 L 180.89 82.77 L 181.5 83.19 L 182.56 84.15 L 183.16 84.7 L 183.46 84.81 L 184.38 85.16 "/>
<path transform="matrix(1,0,0,-1,0,360)" stroke-width="1.5" stroke-linecap="round" stroke-dasharray="0,6" stroke-linejoin="round" fill="none" stroke="#000000" d="M 192.7 101.29 L 192.7 101.29 L 193.71 102.02 L 194.37 102.5 L 194.57 102.53 L 196.03 102.7 L 196.98 102.82 L 197.7 102.92 L 198.72 105.27 L 199.36 106.73 L 199.39 106.7 L 200.35 105.61 L 201.03 104.85 L 201.69 102.41 L 202.69 98.7 L 203.35 97.71 L 204.11 96.58 L 204.35 96.22 L 204.83 96.23 L 205.56 96.24 "/>
<path transform="matrix(1,0,0,-1,0,360)" stroke-width="1.5" stroke-linecap="round" stroke-dasharray="0,6" stroke-linejoin="round" fill="none" stroke="#000000" d="M 213.88 84.3 L 213.88 84.3 L 215 83.75 L 215.55 83.48 L 216.98 85.24 L 217.21 85.51 L 217.84 86.21 L 218.6 87.07 L 218.87 87.37 L 219.52 87.9 L 220.54 88.73 L 221 89.38 L 221.91 90.64 L 222.2 91.04 L 222.84 90.49 L 223.87 89.61 L 225.1 87.59 L 225.53 86.88 L 226.24 85.82 L 227.19 84.4 L 227.26 84.3 L 228 83.23 L 228.86 82 L 229.69 83.25 L 230.52 84.52 L 230.88 84.59 L 231.59 84.74 L 232.19 84.86 L 233.85 85.28 L 234.02 84.98 L 234.63 83.93 L 235.28 82.79 L 235.51 82.39 L 235.91 82.31 L 236.98 82.1 L 237.18 82.06 L 238.84 82.03 L 239.67 83.23 L 240.49 84.42 L 240.51 84.44 L 241.2 85.54 L 242.17 87.05 L 242.79 86.95 L 243.68 86.81 L 243.83 86.79 L 244.69 89.32 L 245.5 91.71 L 245.71 91.56 L 246.65 90.91 L 247.16 90.56 L 247.96 90.03 L 248.83 89.45 L 248.85 89.44 L 250.49 88.86 L 251.77 83.6 L 252.15 82.03 L 252.5 82.03 "/>
<path transform="matrix(1,0,0,-1,0,360)" stroke-width="1.5" stroke-linecap="round" stroke-dasharray="0,6" stroke-linejoin="round" fill="none" stroke="#000000" d="M 260.82 83.71 L 262.49 93.85 L 263.14 98.73 L 264.15 106.32 L 264.51 106.28 L 265.52 106.17 L 265.82 106.14 L 266.55 109.57 L 267.48 113.94 L 269.14 119.73 L 269.58 119.09 L 270.67 117.48 L 270.81 117.28 L 272.03 117.12 L 272.47 117.06 L 273.16 114.56 L 274.14 111.01 L 274.44 110.11 L 275.8 106.13 L 275.99 106.21 L 277.47 106.91 L 279.13 82.02 L 280.79 92.7 L 282.46 96.69 L 284.12 99.37 L 285.79 100.82 L 287.45 101.02 L 288.23 100.65 L 289.11 100.21 L 289.37 100.38 L 290.47 101.11 L 290.78 101.31 L 291.63 100.06 L 292.44 98.88 L 292.88 98.58 L 294.11 97.74 L 294.56 98.51 L 295.77 100.52 L 296.51 93.57 L 297.43 84.99 L 297.63 84.94 L 299.1 84.59 L 300.76 83.83 L 302.43 83.05 L 304.09 82.49 L 305.25 82.28 L 305.75 82.19 L 306.15 82.18 L 306.96 82.15 "/>
<path transform="matrix(1,0,0,-1,0,360)" stroke-width="1.5" stroke-linecap="round" stroke-dasharray="0,6" stroke-linejoin="round" fill="none" stroke="#000000" d="M 315.28 96.69 L 316.51 96.92 L 316.94 97 L 317.72 96.51 L 318.61 95.95 L 318.89 95.66 L 320.27 94.25 L 321.93 91.48 L 323.6 88.01 L 324.19 85.92 L 325.26 82.17 L 325.31 82.17 L 326.93 82.23 L 328.59 82.31 L 330.25 82.41 L 331.92 82.51 L 333.58 82.61 L 335.25 82.68 L 336.91 82.7 L 338.57 82.69 L 340.24 82.64 L 341.9 82.57 L 343.57 82.5 L 345.23 82.44 L 346.9 82.38 L 348.56 82.34 L 349.94 82.15 L 350.22 82.11 L 350.76 82.11 L 351.62 82.1 "/>
<path transform="matrix(1,0,0,-1,0,360)" stroke-width="1.5" stroke-linecap="round" stroke-dasharray="0,6" stroke-linejoin="round" fill="none" stroke="#000000" d="M 359.94 82.07 L 361.6 82.45 L 363.06 82.75 L 363.27 82.79 L 364.93 83.16 L 365.17 83.03 L 366.17 82.5 L 366.6 82.27 L 367.62 82.02 L 368.26 81.87 L 368.64 81.87 L 369.92 81.87 L 371.59 81.88 L 372.95 81.93 L 373.25 81.94 L 373.97 82.14 L 374.92 82.41 L 376.58 83.23 L 377.71 83.95 L 378.24 84.29 L 378.89 84.85 L 379.91 85.72 L 379.94 85.69 L 381.02 84.66 L 381.57 84.12 L 383.24 82.47 L 383.9 85.61 L 384.9 90.32 L 384.9 90.33 L 385.9 91.23 L 386.56 91.84 L 388.23 94.85 L 389.69 96.99 L 389.89 97.29 L 391.56 101.32 L 391.84 101.1 L 392.93 100.25 L 393.22 100.02 L 394.09 99.82 L 394.88 99.64 L 396.09 98.68 L 396.55 98.32 L 398.21 92.41 L 398.38 92.11 L 399.88 89.37 L 400.24 87.76 L 401.35 82.84 L 401.54 82 L 402.52 81.92 L 403.2 81.87 L 403.74 81.89 "/>
<path transform="matrix(1,0,0,-1,0,360)" stroke-width="1.5" stroke-linecap="round" stroke-dasharray="0,6" stroke-linejoin="round" fill="none" stroke="#000000" d="M 412.06 81.88 L 412.84 81.87 L 413.72 81.87 L 413.74 81.87 L 414.64 81.92 L 415.39 81.97 L 415.62 99.05 L 416.65 175.23 L 417.05 205.24 L 418.71 227.89 L 420.38 235.47 L 420.44 236.12 L 421.48 246.99 L 422.04 252.84 L 423.3 256.31 L 423.71 257.42 L 424.35 257.36 L 425.37 257.25 L 425.92 251.78 L 427.04 240.72 L 427.4 239.13 L 428.51 234.29 L 428.7 233.45 L 429.85 231.79 L 430.36 231.05 L 431.2 228.97 L 432.03 226.92 L 432.37 197.11 L 433.6 91.34 "/>
<path transform="matrix(1,0,0,-1,0,360)" stroke-width=".75" stroke-linecap="round" stroke-linejoin="round" fill="none" stroke="#000000" d="M 59.04 300.96 L 160.98001 300.96 L 160.98001 228.95999 L 59.04 228.95999 Z "/>
<path transform="matrix(1,0,0,-1,0,360)" stroke-width=".75" stroke-linecap="round" stroke-linejoin="round" fill="none" stroke="#000000" d="M 69.84 286.56 L 91.44 286.56 "/>
<path transform="matrix(1,0,0,-1,0,360)" stroke-width=".75" stroke-linecap="round" stroke-dasharray="2.25,3.75" stroke-linejoin="round" fill="none" stroke="#000000" d="M 69.84 272.16 L 91.44 272.16 "/>
<path transform="matrix(1,0,0,-1,0,360)" stroke-width=".75" stroke-linecap="round" stroke-dasharray="0,3" stroke-linejoin="round" fill="none" stroke="#000000" d="M 69.84 257.76 L 91.44 257.76 "/>
<path transform="matrix(1,0,0,-1,0,360)" stroke-width=".75" stroke-linecap="round" stroke-dasharray="0,3,2.25,3" stroke-linejoin="round" fill="none" stroke="#000000" d="M 69.84 243.36 L 91.44 243.36 "/>
<text xml:space="preserve" transform="matrix(1 0 -0 1 0 360)" font-size="12" font-family="LMRoman10"><tspan y="-282.46" x="102.24 110.904 116.904 121.631999 130.29599 135.624 138.95999">Caswell</tspan></text>
<text xml:space="preserve" transform="matrix(1 0 -0 1 0 360)" font-size="12" font-family="LMRoman10"><tspan y="-268.06" x="102.24 110.904 114.24 120.24 126.576 131.244 137.244">Clayton</tspan></text>
<text xml:space="preserve" transform="matrix(1 0 -0 1 0 360)" font-size="12" font-family="LMRoman10"><tspan y="-253.66" x="102.24 110.904 116.904 126.9 133.572 136.908 143.58 148.908">Combined</tspan></text>
<text xml:space="preserve" transform="matrix(1 0 -0 1 0 360)" font-size="12" font-family="LMRoman10"><tspan y="-239.26" x="102.24 110.412 113.748 120.084 130.08 136.08 142.752 147.42">Plymouth</tspan></text>
<path transform="matrix(1,0,0,-1,0,360)" stroke-width="1.5" stroke-linecap="round" stroke-dasharray="0,6,4.5,6" stroke-linejoin="round" fill="none" stroke="#000000" d="M 63.2 82.49 L 63.74 82.45 L 64.86 82.37 L 65.85 82.25 L 66.3 82.19 L 66.53 82.16 L 66.71 82.18 L 67.33 82.27 L 67.88 82.34 L 68.19 82.38 L 68.41 82.37 L 68.83 82.34 L 69.86 82.28 L 71.52 82.15 L 73.18 82.01 L 74.85 81.91 L 76.51 81.87 L 78.18 81.89 L 79.84 81.97 L 81.5 82.06 L 82.15 82.01 L 83.17 81.94 L 83.21 81.93 L 84.09 81.9 L 84.83 81.87 L 85.48 81.87 L 86.5 81.87 L 86.82 81.87 L 88.16 81.87 L 88.27 81.87 L 89.82 81.89 L 90.22 81.88 L 91.29 81.87 L 91.49 81.87 L 93.15 81.89 L 94.82 81.95 L 96.48 82.02 L 96.53 82.02 L 97.2 81.95 L 98.15 81.87 L 98.17 81.87 L 99.33 81.87 L 99.81 81.87 L 101.47 81.87 L 103.14 81.87 L 104.8 81.87 L 106.47 81.87 L 108.13 81.87 L 109.79 81.87 L 111.46 81.87 L 113.12 81.87 L 114.79 81.87 L 116.45 81.87 L 116.51 81.88 L 117.48 81.97 L 118.11 82.03 L 118.46 82 L 119.78 81.88 L 120.76 81.87 L 121.44 81.87 L 122.17 81.91 L 123.11 81.96 L 123.26 81.96 "/>
<path transform="matrix(1,0,0,-1,0,360)" stroke-width="1.5" stroke-linecap="round" stroke-dasharray="0,6,4.5,6" stroke-linejoin="round" fill="none" stroke="#000000" d="M 131.58 82.12 L 132.75 82.17 L 133.24 82.19 L 134.9 82.14 L 136.57 82.08 L 138.23 82.02 L 139.9 81.96 L 140.31 81.94 L 141.46 81.9 L 141.56 81.9 L 143.22 81.88 L 143.45 81.9 L 144.89 82.08 L 146.55 83.21 L 148.22 84.79 L 149.28 85.45 L 149.88 85.82 L 150.19 85.66 L 151.21 85.13 L 151.54 84.96 L 152.17 84.35 L 153.21 83.35 L 153.24 83.34 L 154.83 82.7 L 154.87 82.69 L 155.84 82.65 L 156.54 82.62 L 157.08 82.79 L 158.2 83.14 L 158.53 83.11 L 159.6 83 L 159.86 82.98 L 160.69 82.84 L 161.53 82.69 L 161.63 82.71 L 162.63 82.91 L 163.19 83.03 L 164.52 82.93 L 164.86 82.9 L 165.63 82.96 L 166.52 83.04 L 166.89 83 L 168.18 82.87 L 169.85 82.6 L 171.27 82.38 L 171.51 82.34 L 173.18 82.25 L 174.84 82.15 L 175.05 82.15 L 176.02 82.13 L 176.51 82.12 L 176.86 82.23 L 178.17 82.66 L 178.25 82.67 L 179.24 82.86 L 179.83 82.97 L 180.89 82.45 L 181.5 82.14 L 182.56 82.01 L 183.16 81.94 L 183.46 81.94 L 184.38 81.93 "/>
<path transform="matrix(1,0,0,-1,0,360)" stroke-width="1.5" stroke-linecap="round" stroke-dasharray="0,6,4.5,6" stroke-linejoin="round" fill="none" stroke="#000000" d="M 192.7 84.92 L 192.7 84.92 L 193.71 84.93 L 194.37 84.93 L 194.57 84.86 L 196.03 84.41 L 196.98 84.47 L 197.7 84.51 L 198.72 85.13 L 199.36 85.52 L 199.39 85.55 L 200.35 86.52 L 201.03 87.21 L 201.69 87.3 L 202.69 87.44 L 203.35 86.86 L 204.11 86.21 L 204.35 86 L 204.83 86.19 L 205.56 86.48 "/>
<path transform="matrix(1,0,0,-1,0,360)" stroke-width="1.5" stroke-linecap="round" stroke-dasharray="0,6,4.5,6" stroke-linejoin="round" fill="none" stroke="#000000" d="M 213.88 86.23 L 213.88 86.23 L 215 86.23 L 215.55 86.23 L 216.98 104.84 L 217.21 107.75 L 217.84 109.16 L 218.6 110.88 L 218.87 111.5 L 219.52 114.26 L 220.54 118.64 L 221 119.11 L 221.91 120.03 L 222.2 120.33 L 222.84 116.89 L 223.87 111.42 L 225.1 105.01 L 225.53 102.77 L 226.24 100.62 L 227.19 97.73 L 227.26 97.76 L 228 98.08 L 228.86 98.45 L 229.69 96.93 L 230.52 95.41 L 230.88 94.94 L 231.59 94 L 232.19 93.21 L 233.85 81.88 L 234.02 81.89 L 234.63 81.92 L 235.28 81.95 L 235.51 81.96 L 235.91 81.98 L 236.98 82.01 L 237.18 82.02 L 238.84 81.87 L 239.67 82.31 L 240.49 82.73 L 240.51 82.74 L 241.2 83.33 L 242.17 84.14 L 242.79 84.07 L 243.68 83.98 L 243.83 83.96 L 244.69 83.97 L 245.5 83.98 L 245.71 83.94 L 246.65 83.75 L 247.16 83.65 L 247.96 83.65 L 248.83 83.64 L 248.85 83.64 L 250.49 83.54 L 251.77 83.24 L 252.15 83.16 L 252.5 83.11 "/>
<path transform="matrix(1,0,0,-1,0,360)" stroke-width="1.5" stroke-linecap="round" stroke-dasharray="0,6,4.5,6" stroke-linejoin="round" fill="none" stroke="#000000" d="M 260.82 82.87 L 262.49 82.69 L 263.14 85.18 L 264.15 89.06 L 264.51 88.73 L 265.52 87.81 L 265.82 87.55 L 266.55 87.79 L 267.48 88.11 L 269.14 87.59 L 269.58 87.39 L 270.67 86.88 L 270.81 86.81 L 272.03 87.98 L 272.47 88.41 L 273.16 87.55 L 274.14 86.32 L 274.44 86.08 L 275.8 85.04 L 275.99 84.97 L 277.47 84.4 L 279.13 83.73 L 280.79 83.93 L 282.46 84.22 L 284.12 84.31 L 285.79 84.27 L 287.45 84.16 L 288.23 84.24 L 289.11 84.32 L 289.37 84.47 L 290.47 85.13 L 290.78 85.31 L 291.63 85.21 L 292.44 85.12 L 292.88 85.04 L 294.11 84.81 L 294.56 84.73 L 295.77 84.54 L 296.51 84.85 L 297.43 85.23 L 297.63 85.24 L 299.1 85.28 L 300.76 84.85 L 302.43 84.13 L 304.09 83.31 L 305.25 82.97 L 305.75 82.82 L 306.15 82.87 L 306.96 82.99 "/>
<path transform="matrix(1,0,0,-1,0,360)" stroke-width="1.5" stroke-linecap="round" stroke-dasharray="0,6,4.5,6" stroke-linejoin="round" fill="none" stroke="#000000" d="M 315.28 83.49 L 316.51 84.01 L 316.94 84.19 L 317.72 83.9 L 318.61 83.58 L 318.89 83.55 L 320.27 83.38 L 321.93 83.02 L 323.6 82.58 L 324.19 82.48 L 325.26 82.29 L 325.31 82.29 L 326.93 82.22 L 328.59 82.15 L 330.25 82.07 L 331.92 81.98 L 333.58 81.91 L 335.25 81.87 L 336.91 81.87 L 338.57 81.93 L 340.24 82.03 L 341.9 82.15 L 343.57 82.28 L 345.23 82.4 L 346.9 82.5 L 348.56 82.59 L 349.94 82.47 L 350.22 82.45 L 350.76 82.42 L 351.62 82.37 "/>
<path transform="matrix(1,0,0,-1,0,360)" stroke-width="1.5" stroke-linecap="round" stroke-dasharray="0,6,4.5,6" stroke-linejoin="round" fill="none" stroke="#000000" d="M 359.94 81.91 L 361.6 81.98 L 363.06 82.34 L 363.27 82.39 L 364.93 81.91 L 365.17 81.91 L 366.17 81.92 L 366.6 81.92 L 367.62 81.97 L 368.26 81.99 L 368.64 82 L 369.92 82.03 L 371.59 82.05 L 372.95 82.01 L 373.25 82 L 373.97 81.94 L 374.92 81.87 L 376.58 82.01 L 377.71 82.21 L 378.24 82.31 L 378.89 82.72 L 379.91 83.35 L 379.94 83.34 L 381.02 83.21 L 381.57 83.14 L 383.24 82.61 L 383.9 82.62 L 384.9 82.65 L 385.9 82.29 L 386.56 82.06 L 388.23 82.03 L 389.69 82.02 L 389.89 82.02 L 391.56 82.33 L 391.84 82.37 L 392.93 82.5 L 393.22 82.54 L 394.09 82.76 L 394.88 82.95 L 396.09 82.67 L 396.55 82.56 L 398.21 82.11 L 398.38 82.09 L 399.88 81.87 L 400.24 81.87 L 401.35 81.87 L 401.54 81.88 L 402.52 81.89 L 403.2 81.9 L 403.74 81.91 "/>
<path transform="matrix(1,0,0,-1,0,360)" stroke-width="1.5" stroke-linecap="round" stroke-dasharray="0,6,4.5,6" stroke-linejoin="round" fill="none" stroke="#000000" d="M 412.06 82.3 L 412.84 82.37 L 413.72 82.45 L 413.74 82.45 L 414.64 82.69 L 415.39 82.88 L 415.62 82.81 L 416.65 82.5 L 417.05 82.37 L 418.71 82.68 L 420.38 82.95 L 420.44 84 L 421.48 101.67 L 422.04 111.18 L 423.3 112.91 L 423.71 113.46 L 424.35 112.88 L 425.37 111.96 L 425.92 111.28 L 427.04 109.9 L 427.4 109.93 L 428.51 110.03 L 428.7 110.04 L 429.85 110.2 L 430.36 110.27 L 431.2 110.67 L 432.03 111.06 L 432.37 109.04 L 433.6 101.88 "/>
<path transform="matrix(1,0,0,-1,0,360)" stroke-width=".75" stroke-linecap="round" stroke-linejoin="round" fill="none" stroke="#000000" d="M 59.04 300.96 L 160.98001 300.96 L 160.98001 228.95999 L 59.04 228.95999 Z "/>
<path transform="matrix(1,0,0,-1,0,360)" stroke-width=".75" stroke-linecap="round" stroke-linejoin="round" fill="none" stroke="#000000" d="M 69.84 286.56 L 91.44 286.56 "/>
<path transform="matrix(1,0,0,-1,0,360)" stroke-width=".75" stroke-linecap="round" stroke-dasharray="2.25,3.75" stroke-linejoin="round" fill="none" stroke="#000000" d="M 69.84 272.16 L 91.44 272.16 "/>
<path transform="matrix(1,0,0,-1,0,360)" stroke-width=".75" stroke-linecap="round" stroke-dasharray="0,3" stroke-linejoin="round" fill="none" stroke="#000000" d="M 69.84 257.76 L 91.44 257.76 "/>
<path transform="matrix(1,0,0,-1,0,360)" stroke-width=".75" stroke-linecap="round" stroke-dasharray="0,3,2.25,3" stroke-linejoin="round" fill="none" stroke="#000000" d="M 69.84 243.36 L 91.44 243.36 "/>
<text xml:space="preserve" transform="matrix(1 0 -0 1 0 360)" font-size="12" font-family="LMRoman10"><tspan y="-282.46" x="102.24 110.904 116.904 121.631999 130.29599 135.624 138.95999">Caswell</tspan></text>
<text xml:space="preserve" transform="matrix(1 0 -0 1 0 360)" font-size="12" font-family="LMRoman10"><tspan y="-268.06" x="102.24 110.904 114.24 120.24 126.576 131.244 137.244">Clayton</tspan></text>
<text xml:space="preserve" transform="matrix(1 0 -0 1 0 360)" font-size="12" font-family="LMRoman10"><tspan y="-253.66" x="102.24 110.904 116.904 126.9 133.572 136.908 143.58 148.908">Combined</tspan></text>
<text xml:space="preserve" transform="matrix(1 0 -0 1 0 360)" font-size="12" font-family="LMRoman10"><tspan y="-239.26" x="102.24 110.412 113.748 120.084 130.08 136.08 142.752 147.42">Plymouth</tspan></text>
</g>
</g>
</svg>
